<?xml version="1.0" encoding="utf-8"?>
<svg version="1.1" xmlns:xlink="http://www.w3.org/1999/xlink" width="20px" height="19px" xmlns="http://www.w3.org/2000/svg">
  <g transform="matrix(1 0 0 1 -330 -604 )">
    <path d="M 5.10147712999998 15.6108438  C 5.33652893999999 14.3467586  6.44584723999998 13.3888889  7.77777778000001 13.3888889  C 9.10970831999998 13.3888889  10.2190266 14.3467586  10.4540784 15.6108438  L 19.4667778 15.6111111  C 19.7429202 15.6111111  19.9667778 15.8349687  19.9667778 16.1111111  C 19.9667778 16.3872535  19.7429202 16.6111111  19.4667778 16.6111111  L 10.4540784 16.6113784  C 10.2190266 17.8754636  9.10970831999998 18.8333333  7.77777778000001 18.8333333  C 6.44584723999998 18.8333333  5.33652893999999 17.8754636  5.10147712999998 16.6113784  L 0.578333332999989 16.6111111  C 0.302190957999983 16.6111111  0.0783333333000087 16.3872535  0.0783333333000087 16.1111111  C 0.0783333333000087 15.8349687  0.302190957999983 15.6111111  0.578333332999989 15.6111111  L 5.10147712999998 15.6108438  Z M 2.87925490999999 8.94417712999996  C 3.11430672 7.68009194000001  4.22362500999998 6.72222222000005  5.55555556000002 6.72222222000005  C 6.88748609999999 6.72222222000005  7.99680439000002 7.68009194000001  8.23185619999998 9  L 19.4667778 9  C 19.7429202 8.94444443999998  19.9667778 9.16830210000001  19.9667778 9.44444439999995  C 19.9667778 9.72058679999998  19.7429202 9.94444439999995  19.4667778 10  L 8.23204370000002 10  C 7.99739491000003 11.208287  6.88784062000002 12.1666667  5.55555556000002 12.1666667  C 4.22327049 12.1666667  3.1137162 11.208287  2.87906741 9.94370230000004  L 0.578333332999989 9.94444439999995  C 0.302190957999983 9.94444439999995  0.0783333333000087 9.72058679999998  0.0783333333000087 9.44444439999995  C 0.0783333333000087 9.16830210000001  0.302190957999983 8.94444443999998  0.578333332999989 8.94444443999998  L 2.87925490999999 8.94417712999996  Z M 7.32369935999998 2.27751047000004  C 7.55875116999999 1.01342526999997  8.66806946000003 0.0555555600000162  10 0.0555555600000162  C 11.3319305 0.0555555600000162  12.4412488 1.01342526999997  12.6763006 2.27751047000004  L 19.4677778 2.27777777999995  C 19.7439202 2.27777777999995  19.9677778 2.50163540000005  19.9677778 2.77777777999995  C 19.9677778 3.05392014999995  19.7439202 3.27777777999995  19.4677778 3.27777777999995  L 12.6763006 3.27804508999998  C 12.4412488 4.54213029000005  11.3319305 5.5  10 5.5  C 8.66806946000003 5.5  7.55875116999999 4.54213029000005  7.32369935999998 3.27804508999998  L 0.578333332999989 3.27777777999995  C 0.302190957999983 3.27777777999995  0.0783333333000087 3.05392014999995  0.0783333333000087 2.77777777999995  C 0.0783333333000087 2.50163540000005  0.302190957999983 2.27777777999995  0.578333332999989 2.27777777999995  L 7.32369935999998 2.27751047000004  Z M 9.5 16.1111111  C 9.5 15.1605868  8.72830206999998 14.3888889  7.77777778000001 14.3888889  C 6.82725348999998 14.3888889  6.05555556000002 15.1605868  6.05555556000002 16.1111111  C 6.05555556000002 17.0616354  6.82725348999998 17.8333333  7.77777778000001 17.8333333  C 8.71789364 17.8333333  9.48307806999998 17.0784434  9.49972317999999 16.1422712999999  L 9.49566666999999 16.1111111  C 9.49566666999999 16.1005427  9.49599454999998 16.0900509000001  9.49664071000001 16.0796452  L 9.5 16.1111111  Z M 7.27777778000001 9.44444439999995  C 7.27777778000001 8.49392015000001  6.50607984999999 7.72222222000005  5.55555556000002 7.72222222000005  C 4.60503125999998 7.72222222000005  3.83333333000002 8.49392015000001  3.83333333000002 9.44444439999995  C 3.83333333000002 10.3949687  4.60503125999998 11.1666667  5.55555556000002 11.1666667  C 6.49567142000001 11.1666667  7.26085584999998 10.4117767  7.27750096 9.4756046  L 7.27344443999999 9.44444439999995  C 7.27344443999999 9.43375730000002  7.27377974000001 9.42314839999995  7.27444039 9.41262789999996  L 7.27777778000001 9.44444439999995  Z M 11.7222222 2.77777777999995  C 11.7222222 1.82725348999998  10.9505243 1.05555556000002  10 1.05555556000002  C 9.04947571000002 1.05555556000002  8.27777778000001 1.82725348999998  8.27777778000001 2.77777777999995  C 8.27777778000001 3.72830207000004  9.04947571000002 4.5  10 4.5  C 10.9454539 4.5  11.7139842 3.73651301999996  11.7221564 2.79297352000003  L 11.72 2.77777777999995  C 11.72 2.77266402999999  11.7200768 2.76756821000004  11.7202292 2.76249141999995  L 11.7222222 2.77777777999995  Z " fill-rule="nonzero" fill="#a9a9a9" stroke="none" transform="matrix(1 0 0 1 330 604 )" />
  </g>
</svg>