<?xml version="1.0" encoding="utf-8"?>
<svg version="1.1" xmlns:xlink="http://www.w3.org/1999/xlink" width="40px" height="40px" xmlns="http://www.w3.org/2000/svg">
  <g transform="matrix(1 0 0 1 -50 -398 )">
    <path d="M 4.0524474 0  L 14.6836766 0  C 17.3822789 0  19.1697575 1.03726028  19.9904248 3.04533013000002  L 19.9989812 3.06867749000003  L 20.1038109 2.82514225  C 20.9343579 1.02392411  22.6002426 0.0654419798000276  25.056597 0.00323583481997503  L 25.3149059 0  L 35.9461351 0  C 36.2274762 0  36.4555482 0.22853214600002  36.4555482 0.510440834999997  L 36.455 3.71199999999999  L 39.4905869 3.71229698000002  C 39.7406679 3.71229698000002  39.9486597 3.89286558999999  39.9917927 4.13098543000001  L 40 4.22273782000002  L 40 33.9211137  C 40 34.1716992  39.819795 34.3801106  39.5821546 34.4233306  L 39.4905869 34  L 28.8593577 34  C 25.3573388 34.4315545  23.1672204 36.2669855  23.1672204 39.4895592  C 23.1672204 39.7401447  22.9870153 39.9485561  22.749375 39.9917761  L 22.6578073 40  L 17.3421927 40  C 17.0608516 40  16.8327796 39.7714679  16.8327796 39.4895592  C 16.8327796 36.3475499  14.7507983 34.524193  11.4008202 34.434989  L 11.1406423 34  L 0.509413068000001 34  C 0.259332118000003 34.4315545  0.0513403093000022 34.2509859  0.00820732652999823 34.0128661  L 0 33.9211137  L 0 4.22273782000002  C 0 3.97215232000002  0.180205035999997 3.76374086999999  0.417845423999999 3.72052086999997  L 0.509413068000001 3.71229698000002  L 3.543 3.71199999999999  L 3.54303433 0.510440834999997  C 3.54303433 0.259855334000008  3.72323937 0.051443891100007  3.96087975 0.00822388525000406  L 4.0524474 0  Z M 39 33  L 39 4.73271462000002  L 36 4.733  L 36 30.2088167  C 36.4555482 30.4594022  36.2753431 30.6678136  36.0377027 30.7110337  L 35.9461351 30  L 25.3149059 30  C 22.0657441 30.7192575  20.5370543 32.3335722  20.5370543 35.7772622  C 20.5370543 36.45785  19.5182281 36.45785  19.5182281 35.7772622  L 19.5149655 35.5104299  C 19.4344587 32.2654494  17.8629962 30.7192575  14.6836766 30  L 4.0524474 30  C 3.77110633 30.7192575  3.54303433 30.4907254  4 30.2088167  L 4 4.733  L 1 4.73271462000002  L 1 33  L 11.1406423 33  C 14.9005151 33.4106729  17.4879535 35.369014  17.8162347 38.7447008  L 17.8339756 38.9781903  L 22.1650055 38.9781903  L 22.1837653 38.7447008  C 22.5042303 35.4493875  24.9775543 33.5047307  28.592804 33.4139961  L 28.8593577 33  L 39 33  Z M 35 29.6983759  L 35 1.02078885999998  L 25.3149059 1.02078885999998  C 22.14341 1.02078885999998  20.5914131 2.55926741000002  20.5119253 5.81143780000002  L 20.508 6.06799999999998  L 20 6.07888630999997  L 20 31.8314129  C 21.4152797 30.4766673  22.9364414 29.7565115  25.0511105 29.7017534  L 25.3149059 29.6983759  L 35 29.6983759  Z M 14.9308648 1.02399277000001  L 14.6836766 1  L 4.56172757 1  L 4.56244887 4.21153099999998  C 4.56252896 4.21525690999999  4.56256921 4.21899266000003  4.56256921 4.22273782000002  L 5 4.23399999999998  L 5 29.6983759  L 14.6836766 29.6983759  C 16.9140166 29.6983759  18.5294184 30.4068259  20 31.7825614  L 20 6.08999999999997  L 19.4898782 6.07888630999997  C 19.4898782 2.73163275000002  18.0193055 1.10519893999998  14.9308648 1.02399277000001  Z " fill-rule="nonzero" fill="#970061" stroke="none" transform="matrix(1 0 0 1 50 398 )" />
  </g>
</svg>