<?xml version="1.0" encoding="utf-8"?>
<svg version="1.1" xmlns:xlink="http://www.w3.org/1999/xlink" width="40px" height="13px" xmlns="http://www.w3.org/2000/svg">
  <g transform="matrix(1 0 0 1 -248 -271 )">
    <path d="M 34.654016 0.370366999999987  L 37.243157 0.370366999999987  L 39.821783 12.662388  L 36.864117 12.662388  L 36.486655 10.836918  L 32.391344 10.836918  L 31.720008 12.662388  L 28.3628 12.662388  L 33.166246 1.28597400000001  C 33.166246 1.28597400000001  33.458018 0.370366999999987  34.654016 0.370366999999987  Z M 20.782007 4.219784  C 20.782007 0.844623000000013  24.578186 0.150474000000031  26.176882 0.150474000000031  C 27.655189 0.150474000000031  29.074091 0.686364000000026  29.074091 0.686364000000026  L 28.614091 3.32611400000002  C 27.236195 2.57137699999998  24.098736 2.39274699999999  24.098736 3.78261199999997  C 24.098736 5.17195400000003  28.59464 5.470192  28.59464 8.666202  C 28.59464 11.743124  25.277386 12.874446  23.079902 12.874446  C 20.881367 12.874446  19.44354 12.179775  19.44354 12.179775  L 19.92194 9.42041599999999  C 21.241481 10.472346  25.237957 10.770063  25.237957 9.10232999999999  C 25.237957 7.43564100000003  20.782007 7.39594599999998  20.782007 4.219784  Z M 0.404291000000001 0.370366999999987  L 5.481109 0.370366999999987  C 6.878456 0.370366999999987  7.00883300000001 1.47713899999997  7.00883300000001 1.47713899999997  L 8.09285399999999 7.00421399999999  L 8.45664799999997 8.82498399999997  L 11.527342 0.370366999999987  L 14.994425 0.370366999999987  L 9.86924099999999 12.662388  L 6.51308499999999 12.662388  L 3.71488500000001 1.983474  L 3.85498699999999 2.06763799999999  L 3.714168 1.982327  L 3.66888499999999 1.95547399999998  L 3.647614 1.942859  L 3.48388499999999 1.84847400000001  L 3.31588500000001 1.75447400000002  L 3.12101699999999 1.649494  L 2.92888500000001 1.54947400000003  L 2.74088499999999 1.45647400000001  L 2.557017 1.368649  C 2.37523100000001 1.28344900000002  2.20024599999999 1.20646099999999  2.033828 1.13707799999997  L 1.86988500000001 1.06947400000001  L 1.776836 1.03255200000001  C 1.73277999999999 1.015287  1.68947399999999 0.998598000000015  1.64695599999999 0.982470000000035  L 1.56188499999999 0.950473999999986  L 1.41803400000001 0.898662000000002  C 1.37122299999999 0.881934000000001  1.325625 0.86596099999997  1.281306 0.850720000000024  L 1.15188499999999 0.80647399999998  L 1.031262 0.767884999999978  C 0.836552000000012 0.705880999999977  0.677082000000013 0.661062000000015  0.561025000000001 0.630617000000029  L 0.504322999999999 0.615901000000008  L 0.495884999999987 0.613473999999997  L 0.443117000000001 0.600801999999987  C 0.411110000000008 0.593042999999966  0.386571000000004 0.587403999999992  0.370024999999998 0.583705000000009  L 0.351584000000003 0.579654000000005  L 0.344885000000005 0.578245999999979  L 0.404291000000001 0.370366999999987  Z M 16.250355 0.370366999999987  L 19.472454 0.370366999999987  L 17.458445 12.662388  L 14.237397 12.662388  L 16.250355 0.370366999999987  Z M 35.964621 8.31468799999999  L 35.012027 3.71366699999999  L 33.319755 8.31468799999999  L 35.964621 8.31468799999999  Z " fill-rule="nonzero" fill="#ffffff" stroke="none" transform="matrix(1 0 0 1 248 271 )" />
  </g>
</svg>