<?xml version="1.0" encoding="utf-8"?>
<svg version="1.1" xmlns:xlink="http://www.w3.org/1999/xlink" width="26px" height="12px" xmlns="http://www.w3.org/2000/svg">
  <g transform="matrix(1 0 0 1 -25 -66 )">
    <path d="M 0.167641773 6.1655016  L 5.56171286 0.992378209999998  C 5.75736578 0.804739479999995  6.07447677 0.804840299999995  6.27000009 0.992603389999999  C 6.4655234 1.18036649  6.46541835 1.48468981000001  6.26976544 1.67232854  L 1.73083333 6  L 24.5199986 6  C 24.7658683 6.0248385  24.9703576 6.20171360000001  25.0127642 6.43496279999999  L 25.0208333 6.5248385  C 25.0208333 6.8009809  24.796602 7.0248385  24.5199986 7.0248385  L 24.5199986 7  L 1.82783333 7  L 6.25875238 11.0208568  C 6.43790605 11.1824583  6.46556674 11.4407518  6.33645134 11.6320006  L 6.28067387 11.7002564  C 6.0912329 11.8936767  5.7742738 11.9030955  5.57272593 11.7212939  L 0.311992392000001 6.97904459999999  C 0.140111791999999 6.8998319  0.0208333333000006 6.7262415  0.0208333333000006 6.5248385  L 0.0241166236000012 6.56055789999999  C 0.0235580896999998 6.5558855  0.0230707740000007 6.55120650000001  0.0226547026000006 6.54652249999999  L 0.0208333333000006 6.5248385  C 0.0208333333000006 6.5193838  0.0209208248999992 6.5139496  0.0210944835000006 6.508537  C 0.0198101975 6.38513209999999  0.0685811120999986 6.2605046  0.167641773 6.1655016  Z " fill-rule="nonzero" fill="#ffffff" stroke="none" transform="matrix(1 0 0 1 25 66 )" />
  </g>
</svg>