<?xml version="1.0" encoding="utf-8"?>
<svg version="1.1" xmlns:xlink="http://www.w3.org/1999/xlink" width="20px" height="30px" xmlns="http://www.w3.org/2000/svg">
  <g transform="matrix(1 0 0 1 -45 -505 )">
    <path d="M 3.9441867 15.1309986873908  C 3.9362355 15.6497767869586  3.8809074 16.1680654865266  3.77821059999999 16.6800231861001  L 3.7691906 16.7258780860618  C 3.6717385 17.1986841856678  3.5338132 17.6659252852784  3.3554082 18.1229856848975  C 3.3462306 18.145271784879  3.3371776 18.1681799848599  3.3280228 18.1910618848408  L 3.2258896 18.4366737846361  C 3.1903576 18.5182125845681  3.153509 18.5993857845006  3.1153438 18.6801662844332  L 2.996365 18.9213837842321  C 2.9408112 19.0302793841415  2.8828182 19.1383976840514  2.8223862 19.2456701839619  C 2.5764101 19.6829826835976  2.2897924 20.1057084832453  1.9626875 20.5097787829086  C 1.6621549 20.8810443825991  1.3278445 21.236391182303  0.959453099999998 21.572460982023  C 0.740097499999997 21.7725709818562  0.384299799999994 21.7727094818561  0.164756699999998 21.5727702820227  C 0.0671819999999954 21.4839083820968  0.0129438999999962 21.3704806821913  0.00205239999999662 21.2543083822881  L 0.00203189999999154 21.1662021823616  C 0.0128689000000008 21.0500256824583  0.0670539999999988 20.9365768825529  0.164586999999997 20.8476769826269  C 0.540805399999996 20.5047598829127  0.877056499999995 20.1392473832174  1.1733468 19.7559363835367  C 1.7468136 19.0133249841556  2.17069189999999 18.2042180848299  2.4448481 17.3632640855307  C 2.45370699999999 17.3373799855521  2.46224549999999 17.3106946855744  2.4706336 17.2839782855966  C 2.5162728 17.1373294857189  2.55765699999999 16.9902883858415  2.5945419 16.8425045859646  C 2.7357981 16.2775138864355  2.81091839999999 15.7018415869151  2.8203104 15.1254291873955  L 2.8203098 14.8768430876026  C 2.81055479999999 14.2783899881013  2.7299369 13.6807193885995  2.5784405 13.0951562890874  C 2.54557399999999 12.9692201891923  2.50962389999999 12.843566789297  2.47038329999999 12.7185891894012  C 2.46222759999999 12.6916505894236  2.4536887 12.6649646894459  2.44499929999999 12.6383107894681  C 2.3536077 12.3588794897009  2.2457935 12.0825231899312  2.1214006 11.8109778901575  C 2.0951848 11.7531279902057  2.06791149999999 11.6954648902538  2.03988409999999 11.6380326903016  C 1.9898421 11.5360261903867  1.9376764 11.4347100904711  1.8831328 11.3341930905548  C 1.8451386 11.2637630906135  1.8057416 11.1937254906719  1.76517579999999 11.1241039907299  C 1.5899287 10.8235401909804  1.3928793 10.5304164912247  1.17402749999999 10.2470042914608  C 0.877577500000001 9.86334771178053  0.541059000000004 9.49737364208552  0.164502299999995 9.15400186237168  C 0.0669900999999982 9.0650830724458  0.0128315999999984 8.95162369254035  0.00202170000000024 8.83544507263714  L 0.00205239999999662 8.74744772271045  C 0.0129438999999962 8.63127543280725  0.0671820000000025 8.51784768290174  0.164756699999998 8.42898581297584  C 0.384299800000001 8.22904660314243  0.740097500000005 8.22918507314233  0.959453100000005 8.4292951029756  C 1.3533559 8.78863798267613  1.708294 9.17003480235826  2.0242613 9.56911913202574  C 2.3253742 9.94936295170891  2.59112259999999 10.3456248913786  2.8214562 10.7541581910382  C 2.9041557 10.9013103909155  2.982281 11.049614790792  3.0558434 11.1993275906672  C 3.11558289999999 11.3202792905665  3.1722515 11.4426069904645  3.2259166 11.5657673903619  L 3.32802939999999 11.8109502901575  C 3.3406339 11.8424579901313  3.3530453 11.874015190105  3.3652637 11.9056205900787  C 3.5447095 12.3688509896926  3.6824225 12.8429261892975  3.778547 13.3225530888979  L 3.82561629999999 13.5786647886844  C 3.8980378 14.0069651883275  3.93756309999999 14.4389836879675  3.9441873 14.8713361876072  L 3.9441867 15.1309986873908  Z M 6.14655929999999 25.3054050789122  C 6.15741269999999 25.189229879009  6.21161359999999 25.0757873791035  6.3091592 24.9868988791776  C 7.12450269999999 24.2439165797968  7.8300212 23.4386928804678  8.4256934 22.5879933811767  C 8.4614945 22.5366240812195  8.4972219 22.4848507812627  8.532545 22.4329143813059  L 8.7133877 22.160460481533  C 9.0128526 21.6970373819192  9.28081239999999 21.2213703823155  9.5172641 20.73603458272  C 9.6916162 20.3776844830186  9.8489862 20.0141780833215  9.98918689999999 19.646455783628  C 10.0848643 19.3960504838366  10.1725173 19.1432319840473  10.2521813 18.8887725842594  C 10.35784 18.5507486845411  10.4494973 18.2101702848248  10.5270824 17.8674815851105  C 10.5676919 17.6886093852595  10.6043108 17.5093422854089  10.637104 17.3296073855587  C 10.7775667 16.5594557862005  10.8478746 15.7806508868494  10.8479201 15.0018707874985  C 10.8479358 14.2316014881404  10.779232 13.4613620887822  10.6417984 12.6993924894172  C 10.6060832 12.5010615895824  10.5656871 12.3034343897472  10.5206414 12.1065154899113  C 10.4458804 11.7799862901834  10.3584093 11.4554340904539  10.2581555 11.1334855907221  C 10.1787993 10.8784638909347  10.0914776 10.6253968911455  9.9961561 10.3742939913547  C 9.8657672 10.0309585916408  9.72051279999999 9.69135549192387  9.5603068 9.35625366220313  C 8.8068831 7.78049730351625  7.7231797 6.30484772474597  6.3091592 5.01632060581972  C 6.236 4.94965426587529  6.1872222 4.86917626594233  6.162827 4.78409247601323  L 6.1465532 4.69716362608568  C 6.1330069 4.5519429762067  6.187192 4.4024603463313  6.3091083 4.29133554642388  C 6.5285576 4.09131090659058  6.8843554 4.09131090659058  7.1038047 4.29133554642388  C 7.5475089 4.69576484608686  7.960874 5.11734431573552  8.343903 5.55372834537187  C 8.4904532 5.72097663523253  8.6330355 5.8906529050911  8.7711488 6.06238206494803  L 8.9816559 6.329989464725  C 9.1141303 6.50249878458126  9.2422019 6.6769587244359  9.3658711 6.85323960428898  C 9.434385 6.95103274420751  9.5016602 7.0494077441255  9.5675801 7.14832235404303  C 9.6674546 7.29812429391828  9.7634122 7.44796845379334  9.8563097 7.59895297366758  C 10.1362278 8.05393153328841  10.3882919 8.51905225290077  10.6125969 8.99248424250624  C 10.7408533 9.2632628922806  10.8600655 9.53678105205265  10.9701949 9.81262792182278  C 11.030507 9.96356274169709  11.0881502 10.1154654915705  11.1430645 10.2680063914433  C 11.2783272 10.6439333911301  11.3969598 11.0233170908139  11.4990545 11.4056126904953  C 11.5308304 11.5243538903964  11.5611238 11.6440951902966  11.5898025 11.7640930901966  C 11.6598081 12.0572620899523  11.7202045 12.3517905897068  11.770974 12.6474231894605  C 11.8047663 12.8439203892968  11.8342532 13.0408912891326  11.8594877 13.2382290889682  C 11.8912494 13.4869112887609  11.9162947 13.7361061885533  11.9345909 13.9856331883454  C 11.9593605 14.3231316880641  11.9717559 14.6614136877822  11.9717906 14.9997010875003  C 11.9717564 15.3413260872155  11.9593559 15.6797030869336  11.9345898 16.0174648866522  C 11.9166884 16.2610889864491  11.8923539 16.5046551862461  11.8615714 16.7476750860437  C 11.835927 16.9507035858744  11.8056886 17.1535375857055  11.7709422 17.3558519855368  C 11.7217381 17.6417963852985  11.6635671 17.9269076850609  11.5963762 18.2106056848245  C 11.5594107 18.3672319846939  11.5195989 18.5233282845639  11.4770418 18.6789283844343  C 11.3891106 18.9998516841668  11.289633 19.3187039839011  11.1784724 19.6348936836376  C 11.0843426 19.903201283414  10.9815744 20.1696865831919  10.870389 20.4339025829718  C 10.8120142 20.5721155828566  10.7514524 20.7099172827418  10.68858 20.8470490826275  C 10.4449764 21.3786170821846  10.1678897 21.8976980817519  9.8564105 22.4039306813301  C 9.7634384 22.5547068812045  9.6674818 22.7045646810795  9.568465 22.8532080809556  C 9.50166309999999 22.9537292808719  9.4343878 23.05210918079  9.3657572 23.1499270807084  C 9.2652922 23.2929224805893  9.1617695 23.4351457804707  9.055333 23.5760951803533  C 8.83094389999999 23.8733182801057  8.5936444 24.1646812798628  8.34340359999999 24.4497123796252  C 7.9609169 24.885643179262  7.5475556 25.3073085789105  7.1038556 25.7118375785735  C 6.8844342 25.9118878784068  6.5286365 25.9119292784068  6.3091591 25.7119302785734  C 6.21161359999999 25.6230417786475  6.1574126 25.509599278742  6.14655929999999 25.3934239788388  L 6.14655929999999 25.3054050789122  Z M 13.2499678 0.15005155787493  C 22.25256054 8.35727180303566  22.24747266 21.6488646819593  13.2499315 29.8499814751251  C 13.0304821 30.0500061749584  12.6746844 30.0500061749584  12.455235 29.8499814751251  C 12.2357857 29.6499568752917  12.2357857 29.325652875562  12.455235 29.1256281757287  C 21.01401365 21.3244365822297  21.01885327 8.68140058276546  12.4551988 0.874338685271373  C 12.2357694 0.6742957804381  12.2358019 0.349991768708325  12.4552713 0.149985400874993  C 12.6747407 -0.0500209666583195  13.0305385 -0.0499913471583182  13.2499678 0.15005155787493  Z " fill-rule="nonzero" fill="#0c96df" stroke="none" transform="matrix(1 0 0 1 45 505 )" />
  </g>
</svg>