<?xml version="1.0" encoding="utf-8"?>
<svg version="1.1" xmlns:xlink="http://www.w3.org/1999/xlink" width="30px" height="20px" xmlns="http://www.w3.org/2000/svg">
  <g transform="matrix(1 0 0 1 -40 -630 )">
    <path d="M 0.505166232999997 0  L 29.4958148 0  C 29.7742686 0  30 0.228759620000005  30 0.510948910000025  L 30 9.27007300000002  C 30 9.55226230000005  29.7742686 9.78102190000004  29.4958148 9.78102190000004  L 22.791 9.78099999999995  L 14.1194656 19.8255133  C 14.0428746 19.9142201  13.9390372 19.9726674999999  13.8261272 19.9924982  L 13.7400275 20  L 0.505166232999997 20  C 0.22671244 20  0.000981040802997768 19.7712404  0.000981040802997768 19.4890511  C 0.000981040802997768 19.2068618  0.22671244 18.9781022  0.505166232999997 19  L 13.5112443 19  L 24.0745249 6.74382979999996  C 24.257888 6.53146070000003  24.5764133 6.50994079999998  24.7859712 6.69576370000004  C 24.995529 6.88158669999996  25.016764 7.20438509999997  24.8334009 7.41675420000001  L 23.673 8.75900000000001  L 28.9916296 8.75912410000001  L 28.9916296 1  L 1.00935143 1  L 1.00935143 8.75912410000001  L 6.578 8.75900000000001  L 11.469895 3.09419473000003  C 11.5656338 2.98331116999998  11.7039449 2.91970803000004  11.8493331 3  L 24.4539629 3  C 24.887138 2.91970803000004  25.1186487 3.43674831999999  24.8334009 3.76711913999998  L 13.4892341 16.9058053  C 13.3934953 17.0166888  13.2551842 17.080292  13.109796 17  L 0.505166232999997 17  C 0.0719910835999968 17.080292  -0.159519623999998 16.5632517  0.125728207999998 16.2328809000001  L 5.695 9.78099999999995  L 0.505166232999997 9.78102190000004  C 0.257651750999997 9.78102190000004  0.0517944678000006 9.60027360000004  0.00910413927000064 9.36191670000005  L 0.000981040802997768 9.27007300000002  L 0.000981040802997768 0.510948910000025  C 0.000981040802997768 0.228759620000005  0.22671244 0  0.505166232999997 0  Z M 12.8810128 16  L 23.3428556 4  L 12.0781163 4  L 1.61627354 16  L 12.8810128 16  Z M 13.4300797 6.7647005  L 13.9434299 6.04786049999996  C 14.1066958 5.81926680000004  14.4219076 5.76808370000003  14.6474753 5.93353979999995  C 14.8730429 6.09899589999998  14.9235485 6.41843640000002  14.7602826 6.64702999999997  L 14.5071205 7.00244869999995  C 14.9999554 7.39941580000004  14.9963362 8.19835590000002  14.456848 8.95281150000005  C 14.2934546 9.18131159999996  13.9782142 9.23231399999997  13.7527389 9.0667287  C 13.5272636 8.90114329999994  13.4769363 8.58167400000002  13.6403297 8.3531739  C 13.9717802 7.88965180000002  13.9429861 7.77471830000002  13.6937594 7.7697326  C 13.1368825 7.76196189999996  12.2533833 8.27881009999999  11.8051616 8.90709719999995  C 11.4741161 9.3711346  11.5028854 9.48605199999997  11.7536561 9.48955230000001  L 11.8895008 9.49665579999998  C 12.9870971 9.59588099999996  13.2224068 10.6817054000001  12.5043909 11.6944174  C 11.9356536 12.4897768  10.9208744 13.1286701  10.0597912 13.2369446  L 9.54824043 13.9545989  C 9.38514585 14.1833182  9.06997242 14.2347438  8.84428088 14.0694613000001  C 8.61858934 13.9041787  8.56784448 13.5847772  8.73093907 13.356058  L 8.98443703 13.0000379000001  C 8.49102522 12.6040326999999  8.49440269 11.8049638  9.03273961 11.0489024  C 9.19567635 10.8200676  9.51081422 10.7684187  9.73661974 10.9335413  C 9.96242527 11.0986638000001  10.0133905 11.4180292999999  9.85045374 11.6468641  C 9.51899237 12.1123814  9.54762065 12.2266529  9.79867801 12.2311581  C 10.3546012 12.2400237000001  11.238117 11.7237474999999  11.686679 11.0964561  C 12.017764 10.6294803  11.9890951 10.5153313  11.7387814 10.5113384  L 11.6027915 10.5044807  C 10.5040234 10.4070513  10.2684945 9.31691490000003  10.9879879 8.3083772  C 11.554648 7.51407110000002  12.5678979 6.87510229999998  13.4300797 6.7647005  Z " fill-rule="nonzero" fill="#0c96df" stroke="none" transform="matrix(1 0 0 1 40 630 )" />
  </g>
</svg>