<?xml version="1.0" encoding="utf-8"?>
<svg version="1.1" xmlns:xlink="http://www.w3.org/1999/xlink" width="28px" height="30px" xmlns="http://www.w3.org/2000/svg">
  <g transform="matrix(1 0 0 1 -41 -565 )">
    <path d="M 13.5069509898511 0.512273211969867  C 13.5069509898511 0.229352528986562  13.7308085896093 0  14.006950989311 0  C 14.2524107890459 0  14.4565592888254 0.181216812989343  14.4988952887797 0.420191454975318  L 14.506950988771 0.512273211969867  L 14.5068895887711 2.570476509849  C 22.4526117801893 2.85687038983217  28.3486598738213 9.85942286942065  27.9839611742152 18.464483898915  C 27.9555782742458 19.1341763988757  26.9989319752791 19.1087149988771  27.0032598752744 18.4383821989165  C 27.0112611752658 17.1990749989894  25.9240937764399 16.3830269990373  24.4433491780392 16.3799348990375  C 22.9590373796423 16.3768354990377  21.8588919808306 17.1925604989898  21.8495220808407 18.4458346989161  C 21.8450230808455 19.0476002988807  21.0226512817337 19.1498344988747  20.8829718818846 18.565992598909  C 20.1887077826344 15.6640572990795  15.1702331880546 15.6640572990795  14.4759690888045 18.565992598909  L 14.4879999887915 18.5179999989119  L 14.4881430887913 28.0469583983519  C 14.4881430887913 29.2407378982818  16.4269048866974 29.2833728982793  16.5653878865478 28.1748632983444  L 16.5731763865394 28.0469583983519  C 16.5731763865394 27.7640376983686  16.7928236863022 27.534685198382  17.0637723860095 27.534685198382  C 17.3347211857169 27.534685198382  17.5543684854796 27.7640376983686  17.5543684854796 28.0469583983519  C 17.5543684854796 30.5931459982024  13.6848374896589 30.649727898199  13.5128582898447 28.2167041983419  L 13.5069509898511 28.0469583983519  L 13.5073407898506 18.499896998913  C 12.7532306906651 15.6642270990795  7.80598058600838 15.6862589990782  7.11702805675248 18.565992598909  C 6.97734868690334 19.1498344988747  6.15497688779154 19.0476002988807  6.1504778777964 18.4458346989161  C 6.14110796780652 17.1925604989898  5.04096257899473 16.3768354990377  3.55665077059786 16.3799348990375  C 2.07590616219714 16.3830269990373  0.988738773371327 17.1990749989894  0.996740113362685 18.4383821989165  C 1.00106798335802 19.1087149988771  0.0444216643912353 19.1341763988757  0.0160388244218911 18.464483898915  C -0.348858428183997 9.85473758942094  5.55381057844084 2.84924535983263  13.506090989852 2.57001466984896  L 13.5069509898511 0.512273211969867  Z M 14.3001183889944 3.58933751978905  L 13.9999999893185 3.58591248978934  C 7.17467909669021 3.58591248978934  1.87411077241509 8.88264417947799  1.08327442326923 15.8834194990666  L 1.05169801330333 16.1827107990491  L 1.17435961317085 16.0869396990547  C 1.75743237254111 15.6509061990803  2.51870566171889 15.3955271990953  3.35933380081097 15.3597346990974  L 3.55468858059998 15.3553905990977  C 4.91155780913449 15.3525571990978  6.09139869786021 15.9142635990649  6.69769696720538 16.8876331990076  L 6.76714218713038 17.0074706990006  L 6.87259822701648 16.8714660990086  C 8.58649988516538 14.7624060991326  12.504299790934 14.8678590991264  13.9995093893191 17.1908644989898  C 15.4957001877031 14.8678590991264  19.4135000834717 14.7624060991326  21.1274017816206 16.8714660990086  L 21.2318765815078 17.0074706990006  L 21.3023029814317 16.8876331990076  C 21.8782863808096 15.962932099062  22.9718919796285 15.4097569990945  24.2431582782554 15.3591804990975  L 24.4453113780371 15.3553905990977  C 25.3631208770458 15.3573070990975  26.1977158761444 15.6173650990823  26.8256403754662 16.0869396990547  L 26.9473207753348 16.1827107990491  L 26.9167255753679 15.8834194990666  C 26.1375191762094 8.98559675947202  20.9802446817795 3.74206722978009  14.3001183889944 3.58933751978905  Z " fill-rule="nonzero" fill="#0c96df" stroke="none" transform="matrix(1 0 0 1 41 565 )" />
  </g>
</svg>