<?xml version="1.0" encoding="utf-8"?>
<svg version="1.1" xmlns:xlink="http://www.w3.org/1999/xlink" width="375px" height="430px" xmlns="http://www.w3.org/2000/svg">
  <g>
    <path d="M 0 215  C 0 96.2488571  83.9432279 0  187.5 0  C 291.056772 0  375 96.2488571  375 215  C 375 333.726337  291.045682 430  187.5 430  C 83.9543177 430  0 333.726337  0 215  Z M 359.947644 215  C 359.947644 105.781554  282.743797 17.2600349  187.5 17.2600349  C 92.256203 17.2600349  15.052356 105.781554  15.052356 215  C 15.052356 324.194126  92.2677159 412.739965  187.5 412.739965  C 282.732284 412.739965  359.947644 324.194126  359.947644 215  Z M 187.269904 93.8084938  L 187.5 93.8045375  C 191.656593 93.8045375  195.026178 97.6683279  195 102.434555  L 195 207  L 285.667539 207  C 289.747159 206.369983  293.068648 210.091995  293.190267 214.736157  L 293.193717 215  C 293.193717 219.766227  289.824133 223.630017  285.667539 223  L 195 223  L 195 327.565445  C 195.026178 332.243409  191.780237 336.05205  187.730096 336.191506  L 187.5 336.195462  C 183.343407 336.195462  179.973822 332.331672  180 327.565445  L 180 223  L 89.3324607 223  C 85.2528413 223.630017  81.931352 219.908005  81.809733 215.263843  L 81.8062827 215  C 81.8062827 210.233773  85.1758674 206.369983  89.3324607 207  L 180 207  L 180 102.434555  C 179.973822 97.7565914  183.219763 93.9479503  187.269904 93.8084938  Z " fill-rule="nonzero" fill="#00c5c6" stroke="none" />
  </g>
</svg>