<?xml version="1.0" encoding="utf-8"?>
<svg version="1.1" xmlns:xlink="http://www.w3.org/1999/xlink" width="375px" height="251px" xmlns="http://www.w3.org/2000/svg">
  <g transform="matrix(1 0 0 1 0 -147 )">
    <path d="M 0 125.333333  C 0 56.2919708  83.9432279 0.33333300000001  187.5 0.33333300000001  C 291.056772 0.33333300000001  375 56.2919708  375 125.333333  C 375 194.360273  291.045682 250.333333  187.5 250.333333  C 83.9543177 250.333333  0 194.360273  0 125.333333  Z M 359.947644 125.333333  C 359.947644 61.8342364  282.743797 10.368237  187.5 10.368237  C 92.256203 10.368237  15.052356 61.8342364  15.052356 125.333333  C 15.052356 188.81829  92.2677159 240.298429  187.5 240.298429  C 282.732284 240.298429  359.947644 188.81829  359.947644 125.333333  Z M 187.23006 54.874022  L 187.5 54.8708548  C 191.656593 54.8708548  195.026178 57.1172446  195 59.8883068  L 195 121  L 285.667539 121  C 289.733772 120.315881  293.046842 122.465663  293.188967 125.153373  L 293.193717 125.333333  C 293.193717 128.104395  289.824133 130.350785  285.667539 130  L 195 130  L 195 190.778359  C 195.026178 193.489181  191.801505 195.697894  187.76994 195.792644  L 187.5 195.795811  C 183.343407 195.795811  179.973822 193.549421  180 190.778359  L 180 130  L 89.3324607 130  C 85.2662281 130.350785  81.9531583 128.201003  81.8110335 125.513293  L 81.8062827 125.333333  C 81.8062827 122.562271  85.1758674 120.315881  89.3324607 121  L 180 121  L 180 59.8883068  C 179.973822 57.1774851  183.198495 54.9687719  187.23006 54.874022  Z " fill-rule="nonzero" fill="#00c5c6" stroke="none" transform="matrix(1 0 0 1 0 147 )" />
  </g>
</svg>