<?xml version="1.0" encoding="utf-8"?>
<svg version="1.1" xmlns:xlink="http://www.w3.org/1999/xlink" width="14px" height="20px" xmlns="http://www.w3.org/2000/svg">
  <g transform="matrix(1 0 0 1 -318 -515 )">
    <path d="M 0 6.69421488  C 0 2.99693893999995  3.13354752999999 0  7 0  C 10.865876 0  14 2.99721417000001  14 6.69421488  C 14 8.00194393000004  13.192815 10.0555851  11.7689738 12.7096203999999  C 11.4380977 13.3263723  11.0780993 13.9666506999999  10.6934338 14.6252706  C 9.98015240000001 15.8465431  9.2165167 17.0733311  8.45291259999999 18.2462703  L 7.88633520000002 19.1061576  L 7.43267209999999 19.777405  C 7.24633660000001 20.0472171  6.85302833000003 20.0717455  6.62906140000001 19.8509901  L 6.56732786999999 19.777405  L 6.11366484000001 19.1061576  L 5.54708737999999 18.2462703  C 4.78348327999998 17.0733311  4.01984761 15.8465431  3.30656617 14.6252706  C 2.92190072 13.9666506999999  2.56190228999998 13.3263723  2.23102624000001 12.7096203999999  C 0.80718502000002 10.0555851  0 8.00194393000004  0 6.69421488  Z M 12.962963 6.69421488  C 12.962963 3.54493459000003  10.2931363 0.991735536999954  7 0.991735536999954  C 3.70630865999999 0.991735536999954  1.03703703999997 3.54463891  1.03703703999997 6.69421488  C 1.03703703999997 7.69343478999997  1.67781855999999 9.41060061999997  2.81532241999997 11.6142618  L 3.15371534000002 12.2569173000001  C 3.47873306000002 12.8627493  3.83299572999999 13.4928263  4.21195234999999 14.1416716  C 4.74035931999998 15.0464041  5.29740819 15.9552689  5.86163084999998 16.8427331  L 6.42744965999998 17.7221181  L 7 18.5908353999999  L 7.57255029999999 17.7221181  C 8.32804349999998 16.5616379000001  9.083505 15.3479816  9.78804769999999 14.1416716  C 10.1670043 13.4928263  10.5212669 12.8627493  10.8462847 12.2569173000001  L 11.1846776 11.6142618  C 12.3221814 9.41060061999997  12.962963 7.69343478999997  12.962963 6.69421488  Z M 3.88888888999998 6.69421488  C 3.88888888999998 5.05149974000005  5.2819265 3.71900826000001  7 3.71900826000001  C 8.71748100000002 3.71900826000001  10.1111111 5.05175962999999  10.1111111 6.69421488  C 10.1111111 8.33723674999999  8.71775270000001 9.66942148999999  7 9.66942148999999  C 5.28165481999997 9.66942148999999  3.88888888999998 8.33749656999998  3.88888888999998 6.69421488  Z M 9.07407410000002 6.69421488  C 9.07407410000002 5.59948004  8.1447412 4.71074380000005  7 4.71074380000005  C 5.85471969999998 4.71074380000005  4.92592593000001 5.59916905  4.92592593000001 6.69421488  C 4.92592593000001 7.78977615999997  5.85439456 8.67768594999995  7 8.67768594999995  C 8.14506640000002 8.67768594999995  9.07407410000002 7.78946522000001  9.07407410000002 6.69421488  Z " fill-rule="nonzero" fill="#a9a9a9" stroke="none" transform="matrix(1 0 0 1 318 515 )" />
  </g>
</svg>