<?xml version="1.0" encoding="utf-8"?>
<svg version="1.1" xmlns:xlink="http://www.w3.org/1999/xlink" width="20px" height="20px" xmlns="http://www.w3.org/2000/svg">
  <g transform="matrix(1 0 0 1 -141 -420 )">
    <path d="M 3.80165289000001 0  L 6.28099173999999 0  C 6.55485193999999 0  6.7768595 0.222007561999988  6.7768595 0.495867768999972  L 6.77600000000001 1.65199999999999  L 13.223 1.65199999999999  L 13.2231405 0.495867768999972  C 13.2231405 0.252436473999978  13.3985539 0.0499751698999944  13.6298754 0.00798909362998756  L 13.7190083 0  L 16.1983471 0  C 16.4722073 0  16.6942149 0.222007561999988  16.6942149 0.495867768999972  L 16.694 1.65199999999999  L 19.5041322 1.65289256  C 19.7475635 1.65289256  19.9500248 1.82830594000001  19.9920109 2.05962747000001  L 20 2.14876033000002  L 20 19.5041322  C 20 19.7779924  19.7779924 20  19.5041322 20  L 0.495867769 20  C 0.222007561999988 20  0 19.7779924  0 19.5041322  L 0 2.14876033000002  C 0 1.87490012000001  0.222007561999988 1.65289256  0.495867769 1.65289256  L 3.30500000000001 1.65199999999999  L 3.30578512 0.495867768999972  C 3.30578512 0.252436473999978  3.48119851000001 0.0499751698999944  3.71252003000001 0.00798909362998756  L 3.80165289000001 0  Z M 19 19  L 19 7  L 1 7  L 1 19  L 19 19  Z M 13.6332649 7.44600561999999  L 13.7231405 7.43801653000003  C 13.9992829 7.43801653000003  14.2231405 7.66002408999998  14.2231405 7.93388429999999  L 14.223 9.08999999999997  L 17.8512397 9.09090909000003  C 18.094671 9.09090909000003  18.2971323 9.26778424999998  18.3391183 9.50103345999997  L 18.3471074 9.59090909000003  C 18.3471074 9.86705146999998  18.1250999 10.0909091  17.8512397 10.0909091  L 14.223 10.09  L 14.223 12.396  L 17.8512397 12.3966942  C 18.094671 12.3966942  18.2971323 12.5735694  18.3391183 12.8068186  L 18.3471074 12.8966942  C 18.3471074 13.1728366  18.1250999 13.3966942  17.8512397 13.3966942  L 14.223 13.396  L 14.223 15.702  L 17.8512397 15.7024793  C 18.094671 15.7024793  18.2971323 15.8778927  18.3391183 16.1092142  L 18.3471074 16.1983471  C 18.3471074 16.4722073  18.1250999 16.6942149  17.8512397 16.6942149  L 14.223 16.694  L 14.2231405 17.8512397  C 14.2231405 18.094671  14.0462653 18.2971323  13.8130161 18.3391183  L 13.7231405 18.3471074  C 13.4469981 18.3471074  13.2231405 18.1250999  13.2231405 17.8512397  L 13.223 16.694  L 10.09 16.694  L 10.0909091 17.8512397  C 10.0909091 18.094671  9.91403392999999 18.2971323  9.68078471999999 18.3391183  L 9.59090909 18.3471074  C 9.31476671999999 18.3471074  9.09090909 18.1250999  9.09090909 17.8512397  L 9.09 16.694  L 5.958 16.694  L 5.95867769 17.8512397  C 5.95867769 18.094671  5.78180252999999 18.2971323  5.54855332 18.3391183  L 5.45867769 18.3471074  C 5.18253530999999 18.3471074  4.95867769 18.1250999  4.95867769 17.8512397  L 4.958 16.694  L 2.14876032999999 16.6942149  C 1.90532904 16.6942149  1.70286773000001 16.5188015  1.66088166 16.28748  L 1.65289256 16.1983471  C 1.65289256 15.9244869  1.87490012000001 15.7024793  2.14876032999999 15.7024793  L 4.958 15.702  L 4.958 13.396  L 2.14876032999999 13.3966942  C 1.90532904 13.3966942  1.70286773000001 13.2198191  1.66088166 12.9865698  L 1.65289256 12.8966942  C 1.65289256 12.6205518  1.87490012000001 12.3966942  2.14876032999999 12.3966942  L 4.958 12.396  L 4.958 10.09  L 2.14876032999999 10.0909091  C 1.90532904 10.0909091  1.70286773000001 9.91403393000002  1.66088166 9.68078472000002  L 1.65289256 9.59090909000003  C 1.65289256 9.31476672000002  1.87490012000001 9.09090909000003  2.14876032999999 9.09090909000003  L 4.958 9.08999999999997  L 4.95867769 7.93388429999999  C 4.95867769 7.69045299999999  5.13555285000001 7.48799170000001  5.36880205 7.44600561999999  L 5.45867769 7.43801653000003  C 5.73482006 7.43801653000003  5.95867769 7.66002408999998  5.95867769 7.93388429999999  L 5.958 9.08999999999997  L 9.09 9.08999999999997  L 9.09090909 7.93388429999999  C 9.09090909 7.69045299999999  9.26778425000001 7.48799170000001  9.50103346 7.44600561999999  L 9.59090909 7.43801653000003  C 9.86705147000001 7.43801653000003  10.0909091 7.66002408999998  10.0909091 7.93388429999999  L 10.09 9.08999999999997  L 13.223 9.08999999999997  L 13.2231405 7.93388429999999  C 13.2231405 7.69045299999999  13.4000157 7.48799170000001  13.6332649 7.44600561999999  Z M 3.30578512 3.80165289000001  L 3.30500000000001 2.64400000000001  L 0.991735537000011 2.64462809999998  L 0.991000000000014 6  L 19.008 6  L 19.0082645 2.64462809999998  L 16.694 2.64400000000001  L 16.6942149 3.80165289000001  C 16.6942149 4.04508419000001  16.5188015 4.24754548999999  16.28748 4.28953157000001  L 16.1983471 4.29752065999998  L 13.7190083 4.29752065999998  C 13.4451481 4.29752065999998  13.2231405 4.07551310000002  13.2231405 3.80165289000001  L 13.223 2.65199999999999  L 6.77600000000001 2.65199999999999  L 6.7768595 3.80165289000001  C 6.7768595 4.04508419000001  6.60144611999999 4.24754548999999  6.37012458999999 4.28953157000001  L 6.28099173999999 4.29752065999998  L 3.80165289000001 4.29752065999998  C 3.52779269000001 4.29752065999998  3.30578512 4.07551310000002  3.30578512 3.80165289000001  Z M 5.78512397 3.30578512  L 5.78512397 0.991735537000011  L 4.29752066 0.991735537000011  L 4.29752066 3.30578512  L 5.78512397 3.30578512  Z M 15.7024793 3.30578512  L 15.7024793 0.991735537000011  L 14.214876 0.991735537000011  L 14.214876 3.30578512  L 15.7024793 3.30578512  Z M 9.09 15.702  L 9.09 13.396  L 5.958 13.396  L 5.958 15.702  L 9.09 15.702  Z M 13.223 15.702  L 13.223 13.396  L 10.09 13.396  L 10.09 15.702  L 13.223 15.702  Z M 9.09 12.396  L 9.09 10.09  L 5.958 10.09  L 5.958 12.396  L 9.09 12.396  Z M 13.223 12.396  L 13.223 10.09  L 10.09 10.09  L 10.09 12.396  L 13.223 12.396  Z " fill-rule="nonzero" fill="#a9a9a9" stroke="none" transform="matrix(1 0 0 1 141 420 )" />
  </g>
</svg>