<?xml version="1.0" encoding="utf-8"?>
<svg version="1.1" xmlns:xlink="http://www.w3.org/1999/xlink" width="20px" height="20px" xmlns="http://www.w3.org/2000/svg">
  <g transform="matrix(1 0 0 1 -315 -190 )">
    <path d="M 0 7.10734991000001  C 0 3.18229869000001  3.18231184000001 0  7.10737927999998 0  C 11.0324467 0  14.2147586 3.18229869000001  14.2147586 7.10734991000001  C 14.2147586 8.89168212999999  13.5570954 10.5225156  12.4709624 11.7706578  L 19.8547649 19.1535113  C 20.0484117 19.3471573  20.0484117 19.6611195  19.8547649 19.8547655  C 19.6611181 20.0484115  19.3471546 20.0484115  19.1535078 19.8547655  L 11.7707065 12.4709109  C 10.522559 13.5570394  8.89171886999998 14.2146998  7.10737927999998 14.2146998  C 3.18231184000001 14.2146998  0 11.0324011  0 7.10734991000001  Z M 13.2230312 7.10734991000001  C 13.2230312 3.73001231000001  10.4847308 0.991723242999996  7.10737927999998 0.991723242999996  C 3.73002773000002 0.991723242999996  0.991727341000001 3.73001231000001  0.991727341000001 7.10734991000001  C 0.991727341000001 10.4846875  3.73002773000002 13.2229766  7.10737927999998 13.2229766  C 10.4847308 13.2229766  13.2230312 10.4846875  13.2230312 7.10734991000001  Z " fill-rule="nonzero" fill="#a9a9a9" stroke="none" transform="matrix(1 0 0 1 315 190 )" />
  </g>
</svg>