<?xml version="1.0" encoding="utf-8"?>
<svg version="1.1" xmlns:xlink="http://www.w3.org/1999/xlink" width="15px" height="15px" xmlns="http://www.w3.org/2000/svg">
  <g transform="matrix(1 0 0 1 -8 -2 )">
    <path d="M 7.84493013999997 0.832735015000026  C 8.03542979000002 0.642235361000019  8.03542979000002 0.333374395000021  7.84493013999997 0.142874741000014  C 7.65443047999997 -0.0476249135999751  7.34556952000003 -0.0476249135999751  7.15506986000003 0.142874741000014  L 0.142874699999993 7.15506986000003  C -0.0476248999999882 7.34556952000003  -0.0476248999999882 7.65443047999997  0.142874699999993 7.84493013999997  L 7.15506986000003 14.8571253  C 7.34556952000003 15.0476249  7.65443047999997 15.0476249  7.84493013999997 14.8571253  C 8.03542979000002 14.6666256  8.03542979000002 14.3577646  7.84493013999997 14.167265  L 1.17766519999998 7.5  L 7.84493013999997 0.832735015000026  Z M 14.857125259 0.832735015000026  C 15.0476249136 0.642235361000019  15.0476249136 0.333374395000021  14.857125259 0.142874741000014  C 14.666625605 -0.0476249135999751  14.357764639 -0.0476249135999751  14.167264985 0.142874741000014  L 7.15506986000003 7.15506986000003  C 6.96457020999998 7.34556952000003  6.96457020999998 7.65443047999997  7.15506986000003 7.84493013999997  L 14.167264985 14.8571253  C 14.357764639 15.0476249  14.666625605 15.0476249  14.857125259 14.8571253  C 15.0476249136 14.6666256  15.0476249136 14.3577646  14.857125259 14.167265  L 8.18986027 7.5  L 14.857125259 0.832735015000026  Z " fill-rule="nonzero" fill="#00c5c6" stroke="none" transform="matrix(1 0 0 1 8 2 )" />
  </g>
</svg>