<?xml version="1.0" encoding="utf-8"?>
<svg version="1.1" xmlns:xlink="http://www.w3.org/1999/xlink" width="40px" height="41px" xmlns="http://www.w3.org/2000/svg">
  <g transform="matrix(1 0 0 1 -35 -115 )">
    <path d="M 9.60737648 4.4841547  C 11.2938106 1.67343117  14.6406729 0  20.0010169 0  C 25.361361 0  28.7082233 1.67343117  30.3946574 4.4841547  C 30.9242023 5.36672953  31.2524896 6.3081416  31.4183684 7.26194467  C 31.5303858 7.90604478  31.5559911 8.47149551  31.5323398 8.91495754  L 31.5214674 9.05399322  L 30.6533157 15.2230567  C 31.259186 16.8740588  30.7051874 19.2140021  28.99132 19.6050893  L 28.9654237 19.61  L 28.9640387 19.6490706  C 28.7877915 21.8606567  27.4571896 23.9700167  25.7238141 25.5326221  L 35.2716574 28.430812  C 38.0298921 29.4644874  39.8849414 32.0522093  39.9948359 34.9790582  L 40 35.2544068  L 40 39.4916949  C 40 39.7413151  39.820127 39.9489238  39.5829244 39.9919773  L 39.4915254 40  L 0.508474575999998 40  C 0.25885435 40.0001695  0.0512457251000029 39.8202964  0.00819220617999861 39.5830939  L 0 39.4916949  L 0 35.2544068  C 0 32.308008  1.77264307 29.6620359  4.50218882 28.5227313  L 4.76086227 28.4203723  L 14.2778808 25.5326221  C 12.5445053 23.9700167  11.2139034 21.8606567  11.0376562 19.6490706  L 11.0355932 19.61  L 11.0103749 19.6050893  C 9.2823519 19.2107719  8.73343661 16.8352725  9.36362906 15.18229  L 8.47811668 9.03364596  C 8.47541988 9.00588417  8.47260296 8.96949902999999  8.46969408 8.91495754  C 8.44604277 8.47149551  8.47164809 7.90604478  8.5836655 7.26194467  C 8.7495443 6.3081416  9.07783158 5.36672953  9.60737648 4.4841547  Z M 20.182567 7.62481615999999  L 20 7.32728814000001  L 19.8191279 7.62481615999999  C 19.6480323 7.89428057000001  19.4795305 8.12221341  19.2784049 8.34296102  C 18.1750851 9.55392178  16.3072763 10.2406331  13.1070531 10.3295922  L 12.7908475 10.3354237  L 12.0248715 14.1680252  C 11.9832787 14.3759893  11.8183048 14.5329689  11.6153354 14.5689643  L 11.5262712 14.5767797  C 9.66186441 14.5767797  9.66186441 18.6445763  11.5262712 18.6445763  C 11.8070939 18.6445763  12.0347458 18.8722281  12.0347458 19.1530508  C 12.0347458 21.4540325  13.5905439 23.723134  15.5191059 25.2473668  C 15.6354474 25.2805292  15.7371101 25.3562641  15.8031534 25.4611856  C 17.1822385 26.4842021  18.7197043 27.1191525  20.0008475 27.1191525  C 21.2820813 27.1191525  22.819674 26.4841122  24.2008152 25.4628234  C 24.2652358 25.3557796  24.366618 25.2804171  24.4819585 25.2455105  C 26.4112829 23.7229417  27.9669492 21.453935  27.9669492 19.1530508  C 27.9669492 18.8722281  28.194601 18.6445763  28.4754237 18.6445763  C 30.3398305 18.6445763  30.3398305 14.5767797  28.4754237 14.5767797  C 28.2330435 14.5767797  28.024358 14.4056985  27.9768234 14.1680252  L 27.2101695 10.3354237  L 26.8946418 10.3295922  C 23.8129454 10.2439278  21.9667937 9.60396932  20.849056 8.47535107  L 20.72329 8.34296102  C 20.5221644 8.12221341  20.3536626 7.89428057000001  20.182567 7.62481615999999  Z M 34.945608 29.393526  L 24.7715616 26.3071535  C 23.2926925 27.3894564  21.6417059 28.0731485  20.2011444 28.1319719  L 20.0008475 28.1361017  C 18.5144809 28.1361017  16.7780274 27.439972  15.2301333 26.3071535  L 5.08691163 29.3830863  C 2.71798062 30.2708664  1.12245799 32.4905139  1.02198611 35.0022936  L 1.01694915 35.2544068  L 1.01661017 39  L 38.9823729 39  L 38.9830508 35.2544068  C 38.9830508 32.7237476  37.4650255 30.4514552  35.1769543 29.4857068  L 34.945608 29.393526  Z M 29.5226307 5.00737072  C 28.0310987 2.52148409  25.0220289 1.01694915  20.0010169 1.01694915  C 14.980005 1.01694915  11.9709352 2.52148409  10.4794032 5.00737072  C 10.0183165 5.7758486  9.73107971 6.59954221  9.58557576 7.43618993  C 9.5015887 7.91911555  9.47328893 8.348099  9.4793845 8.69457002  L 9.48733619 8.91047453  L 10.2183348 13.9856089  C 10.4469489 13.8123918  10.7109623 13.6845895  11.0103749 13.6162666  L 11.1016949 13.5988136  L 11.8751285 9.73129688  C 11.9167213 9.52333272999999  12.0816952 9.36635317  12.2846646 9.33035771999999  L 12.3737288 9.32254237000001  C 15.7651562 9.32254237000001  17.5609893 8.71796016  18.5266798 7.65805593  C 18.6840816 7.48529784999999  18.8187776 7.30309422000001  18.9606168 7.07970687  C 19.0216996 6.98350549  19.2517352 6.59874717  19.3115686 6.505673  L 19.3939404 6.38234113  C 19.4751543 6.2658636  19.5540729 6.16886934999999  19.6413016 6.08164062  C 19.8398733 5.88306894999999  20.1618216 5.88306894999999  20.3603933 6.08164062  C 20.4766982 6.19794559  20.5782296 6.33161149999999  20.6901263 6.505673  L 21.0410781 7.07970687  C 21.1829173 7.30309422000001  21.3176133 7.48529784999999  21.4750151 7.65805593  C 22.4407056 8.71796016  24.2365387 9.32254237000001  27.6279661 9.32254237000001  C 27.8703463 9.32254237000001  28.0790318 9.49362356  28.1265664 9.73129688  L 28.899322 13.5988136  L 28.99132 13.6162666  C 29.2973276 13.6860944  29.5663594 13.8180507  29.7984152 13.9971209  L 30.51308 8.92007293  L 30.5168339 8.86079723  C 30.5366314 8.48959508999999  30.514443 7.99960315  30.4164581 7.43618993  C 30.2709542 6.59954221  29.9837174 5.7758486  29.5226307 5.00737072  Z M 22.8121805 14.4062434  L 23.9691754 14.4062434  C 24.3914079 14.4117474  24.6021673 14.4423054  24.8494789 14.5408424  C 25.3373044 14.7352079  25.5940678 15.1586183  25.5940678 15.7632203  C 25.5940678 16.0440431  25.366416 16.2716949  25.0855932 16.2716949  C 24.8047705 16.2716949  24.5771186 16.0440431  24.5771186 15.7632203  C 24.5771186 15.5562179  24.553773 15.5177203  24.4730704 15.4855658  C 24.3685743 15.4439311  24.2268736 15.4267087  23.9216775 15.4230859  L 22.8596784 15.4230859  C 22.5544823 15.4267087  22.4127817 15.4439311  22.3082855 15.4855658  C 22.2275829 15.5177203  22.2042373 15.5562179  22.2042373 15.7632203  C 22.2042373 16.0440431  21.9765855 16.2716949  21.6957627 16.2716949  C 21.41494 16.2716949  21.1872881 16.0440431  21.1872881 15.7632203  C 21.1872881 15.1586183  21.4440515 14.7352079  21.931877 14.5408424  C 22.1791886 14.4423054  22.389948 14.4117474  22.8121805 14.4062434  Z M 16.0325195 14.4062434  L 17.1895144 14.4062434  C 17.6117469 14.4117474  17.8225063 14.4423054  18.0698179 14.5408424  C 18.5576434 14.7352079  18.8144068 15.1586183  18.8144068 15.7632203  C 18.8144068 16.0440431  18.586755 16.2716949  18.3059322 16.2716949  C 18.0251094 16.2716949  17.7974576 16.0440431  17.7974576 15.7632203  C 17.7974576 15.5562179  17.774112 15.5177203  17.6934094 15.4855658  C 17.5889132 15.4439311  17.4472126 15.4267087  17.1420165 15.4230859  L 16.0800174 15.4230859  C 15.7748213 15.4267087  15.6331207 15.4439311  15.5286245 15.4855658  C 15.4479219 15.5177203  15.4245763 15.5562179  15.4245763 15.7632203  C 15.4245763 16.0440431  15.1969244 16.2716949  14.9161017 16.2716949  C 14.6352789 16.2716949  14.4076271 16.0440431  14.4076271 15.7632203  C 14.4076271 15.1586183  14.6643905 14.7352079  15.152216 14.5408424  C 15.3995276 14.4423054  15.610287 14.4117474  16.0325195 14.4062434  Z " fill-rule="nonzero" fill="#00c5c6" stroke="none" transform="matrix(1 0 0 1 35 115 )" />
  </g>
</svg>