<?xml version="1.0" encoding="utf-8"?>
<svg version="1.1" xmlns:xlink="http://www.w3.org/1999/xlink" width="40px" height="34px" xmlns="http://www.w3.org/2000/svg">
  <g transform="matrix(1 0 0 1 -55 -413 )">
    <path d="M 7.45892684 1.71267742252387  C 7.11786467 1.52039456253892  7.11824725 1.03652055257672  7.45961308 0.844759432591747  C 10.4667119 -0.844468337276209  14.2429783 0.0846823826511551  16.0868249 2.87410617243311  L 16.4137841 2.81121661243799  C 26.5482566 0.947609472583671  36.2019546 7.12530770210079  36.5974288 15.6323691014358  C 37.9528293 15.4044251014536  38.9830552 14.2547970015435  38.9830552 12.8746165016514  C 38.9830552 12.5984741016729  39.210706 12.3746165016905  39.4915276 12.3746165016905  C 39.7723491 12.3746165016905  40 12.5984741016729  40 12.8746165016514  C 40 14.8083383015002  38.5167504 16.4044446013754  36.6012907 16.6436541013567  C 36.4003337 21.5861209009704  33.0352971 25.850581600637  28.1355526 28.1232938004594  L 28.1356435 33.4994515000392  C 28.1356435 33.7755939000175  27.9079926 33.9994515000001  27.6271711 33.9994515000001  C 27.3463495 33.9994515000001  27.1186986 33.7755939000175  27.1186986 33.4994515000392  L 27.1189837 28.5574149004255  C 24.959967 29.4026900003594  22.5457257 29.8751115003224  19.9999153 29.8751115003224  C 17.4756909 29.8751115003224  15.0559134 29.4058998003591  12.8811979 28.5536647004257  L 12.8814708 33.4994515000392  C 12.8814708 33.7755939000175  12.65382 33.9994515000001  12.3729984 33.9994515000001  C 12.0921769 33.9994515000001  11.864526 33.7755939000175  11.864526 33.4994515000392  L 11.8638679 28.1188437004597  C 8.75403839 26.6751941005726  6.23437065 24.4164189007491  4.76591186 21.6251115009673  L 0.508472421999997 21.6251115009673  C 0.227650857 21.6251115009673  0 21.4012539009849  0 21.1251115010064  L 0 14.5251115015223  C 0 14.2489691015439  0.227650857 14.0251115015614  0.508472421999997 14.0251115015614  L 3.59419394 14.0251115015614  C 4.27245116 10.4887166018378  6.61123511 7.34177060208389  10.0585523 5.21605283225006  C 9.74861115 3.74299634236517  8.7989215 2.46813501246486  7.45892684 1.71267742252387  Z M 15.9513692 3.92510537235093  C 15.7336217 3.97289353234723  15.509629 3.87552008235482  15.3990228 3.68499101236969  C 14.0583348 1.37553534255024  11.2115601 0.422195632624744  8.73429125 1.3541275425519  C 10.0198389 2.34286669247462  10.8887245 3.78259237236206  11.1219998 5.39451771223608  C 11.150833 5.59375460222052  11.0553853 5.79057157220512  10.879797 5.89394900219706  C 7.37863473 7.95525580203589  5.0612211 11.0983257017902  4.52654576 14.5993660015165  C 4.4891721 14.8440878014974  4.27537092 15.0251115014832  4.02371176 15.0251115014832  L 1.01694484 15.0251115014832  L 1.01694484 20.6251115010455  L 5.07963949 20.6251115010455  C 5.27425943 20.6251115010455  5.45180629 20.734350201037  5.53691497 20.9064580010235  C 7.89437245 25.6737359006509  13.5744795 28.8751115004006  19.9999153 28.8751115004006  C 22.6695499 28.8751115004006  25.1795128 28.3291028004433  27.3731754 27.3679283005184  C 27.3999146 27.3518559005197  27.4290128 27.3386463005207  27.4594289 27.3281983005215  C 32.3110467 25.1715050006901  35.5930695 20.9763184010181  35.5930695 16.1751115013934  C 35.5930695 7.88972860204105  25.9537215 1.72992952252253  15.9513692 3.92510537235093  Z M 8.47470985 13.6996165015869  C 8.47470985 12.969415201644  9.08401403000001 12.3746165016905  9.83063631 12.3746165016905  C 10.5772586 12.3746165016905  11.1865628 12.969415201644  11.1865628 13.6996165015869  C 11.1865628 14.4322900015296  10.5781149 15.0246165014833  9.83063631 15.0246165014833  C 9.0831577 15.0246165014833  8.47470985 14.4322900015296  8.47470985 13.6996165015869  Z M 18.6452683 7.16167700209794  C 18.6267226 6.88613744211951  18.8388422 6.64798475213808  19.1190507 6.62974806213952  C 22.277361 6.42419708215559  25.390718 7.31702420208579  27.930426 9.17261430194077  C 28.1558371 9.33730670192788  28.2027971 9.65050330190342  28.035314 9.87215850188608  C 27.8678309 10.0938137018687  27.5493272 10.1399911018651  27.3239161 9.975298701878  C 24.9788623 8.26192910201191  22.1044885 7.43763590207635  19.1862107 7.62756500206153  C 18.9060022 7.64580170206009  18.663814 7.43721650207638  18.6452683 7.16167700209794  Z M 10.1696179 13.6996165015869  C 10.1696179 13.5233388016006  10.0172687 13.3746165016123  9.83063631 13.3746165016123  C 9.64400392 13.3746165016123  9.4916547 13.5233388016006  9.4916547 13.6996165015869  C 9.4916547 13.877743001573  9.64252566 14.0246165015614  9.83063631 14.0246165015614  C 10.018747 14.0246165015614  10.1696179 13.877743001573  10.1696179 13.6996165015869  Z " fill-rule="nonzero" fill="#0c96df" stroke="none" transform="matrix(1 0 0 1 55 413 )" />
  </g>
</svg>