<?xml version="1.0" encoding="utf-8"?>
<svg version="1.1" xmlns:xlink="http://www.w3.org/1999/xlink" width="40px" height="36px" xmlns="http://www.w3.org/2000/svg">
  <g transform="matrix(1 0 0 1 -55 -297 )">
    <path d="M 29.1896745 0.0176180299999942  C 29.4337996 -0.0481079400000226  29.6836498 0.0755203400000255  29.7845936 0.297601139999983  L 29.8151654 0.385318859999984  L 31.2238976 6.01895664  C 34.205007 6.50927381999998  36.4945663 9.0443846  36.6059242 12.1376378  L 36.6101695 12.3738633  L 36.6108255 16.1031053  C 38.4979644 16.1335207  40 17.7795481  40 19.7891176  L 40 21.9077616  C 40 23.9373258  38.4701527 25.5942023  36.5576271 25.5942023  L 36.61 25.593  L 36.6101695 29.3230159  C 36.6101695 32.8027205  33.8549412 35.6352756  30.4057171 35.7594486  L 30.1694915 35.7636938  L 3.89830508 35.7636938  C 1.81354618 35.7636938  0.109539697999999 34.1248361  0.00507518991000211 32.0659101  L 0 31.8653888  L 0 9.83149049999997  C 0 7.74673154999999  1.63885776 6.04272507000002  3.69778375 5.93826056  L 3.89830508 5.93318536999999  L 7.214 5.93299999999999  L 29.1896745 0.0176180299999942  Z M 30.3931785 6.95465537000001  L 30.1694915 7  L 3.89830508 7  C 2.36684376 6.95013452000001  1.11298887 8.14726860000002  1.0222115 9.6560657  L 1 9.83149049999997  L 1 31.8653888  C 1.01694915 33.3968501  2.21408325 34.650705  3.72288037 34.7414823  L 3.89830508 34.7467447  L 30.1694915 34.7467447  C 33.0917063 34.7467447  35.4715345 32.4399719  35.5886995 29.5467028  L 35.5932203 29.3230159  L 35.593 25.594  L 29.7135593 25.5942023  C 27.8638491 25.5942023  26.3703568 24.0419417  26.2759272 22.1029108  L 26.2711864 21.9077616  L 26.2711864 19.7891176  C 26.2711864 17.7612938  27.8026875 16.1026769  29.7135593 16.1026769  L 35.593 16.102  L 35.5932203 12.3738633  C 35.5932203 9.4516486  33.2864475 7.07182038999997  30.3931785 6.95465537000001  Z M 38.9830508 19.7891176  C 38.9830508 18.3049535  37.8890032 17.119626  36.5576271 17.119626  L 29.7135593 17.119626  C 28.3832436 17.119626  27.2881356 18.3056289  27.2881356 19.7891176  L 27.2881356 21.9077616  C 27.2881356 23.3923219  28.3826574 24.5772532  29.7135593 24.5772532  L 36.5576271 24.5772532  C 37.8895891 24.5772532  38.9830508 23.392997  38.9830508 21.9077616  L 38.9830508 19.7891176  Z M 30.153 6  L 28.9532203 1.13301588000002  L 11.126 6  L 30.153 6  Z M 3.89830508 31.3569142  L 5.59322034 31.3569142  C 5.87404309 31.3569142  6.10169492 31.584566  6.10169492 31.8653888  C 6.10169492 32.115009  5.92182187 32.3226176  5.68461929 32.3656711  L 5.59322034 32.3738633  L 3.89830508 32.3738633  C 3.61748233 32.3738633  3.38983051 32.1462115  3.38983051 31.8653888  C 3.38983051 31.6157685  3.56970355 31.4081599  3.80690614 31.3651064  L 3.89830508 31.3569142  Z M 8.98305085 31.3569142  L 10.6779661 31.3569142  C 10.9587889 31.3569142  11.1864407 31.584566  11.1864407 31.8653888  C 11.1864407 32.115009  11.0065676 32.3226176  10.769365 32.3656711  L 10.6779661 32.3738633  L 8.98305085 32.3738633  C 8.70222809 32.3738633  8.47457627 32.1462115  8.47457627 31.8653888  C 8.47457627 31.6157685  8.65444932 31.4081599  8.8916519 31.3651064  L 8.98305085 31.3569142  Z M 14.0677966 31.3569142  L 15.7627119 31.3569142  C 16.0435346 31.3569142  16.2711864 31.584566  16.2711864 31.8653888  C 16.2711864 32.115009  16.0913134 32.3226176  15.8541108 32.3656711  L 15.7627119 32.3738633  L 14.0677966 32.3738633  C 13.7869739 32.3738633  13.559322 32.1462115  13.559322 31.8653888  C 13.559322 31.6157685  13.7391951 31.4081599  13.9763977 31.3651064  L 14.0677966 31.3569142  Z M 19.1525424 31.3569142  L 20.8474576 31.3569142  C 21.1282804 31.3569142  21.3559322 31.584566  21.3559322 31.8653888  C 21.3559322 32.115009  21.1760592 32.3226176  20.9388566 32.3656711  L 20.8474576 32.3738633  L 19.1525424 32.3738633  C 18.8717196 32.3738633  18.6440678 32.1462115  18.6440678 31.8653888  C 18.6440678 31.6157685  18.8239408 31.4081599  19.0611434 31.3651064  L 19.1525424 31.3569142  Z M 24.2372881 31.3569142  L 25.9322034 31.3569142  C 26.2130261 31.3569142  26.440678 31.584566  26.440678 31.8653888  C 26.440678 32.115009  26.2608049 32.3226176  26.0236023 32.3656711  L 25.9322034 32.3738633  L 24.2372881 32.3738633  C 23.9564654 32.3738633  23.7288136 32.1462115  23.7288136 31.8653888  C 23.7288136 31.6157685  23.9086866 31.4081599  24.1458892 31.3651064  L 24.2372881 31.3569142  Z M 29.3220339 9.32301589999997  L 31.0169492 9.32301589999997  C 31.2977719 9.32301589999997  31.5254237 9.55066770000002  31.5254237 9.83149049999997  C 31.5254237 10.0811107  31.3455507 10.2887193  31.1083481 10.3317728  L 31.0169492 10.339965  L 29.3220339 10.339965  C 29.0412111 10.339965  28.8135593 10.1123132  28.8135593 9.83149049999997  C 28.8135593 9.58187020000003  28.9934324 9.37426160000001  29.230635 9.33120810000003  L 29.3220339 9.32301589999997  Z M 29.6610169 20.8484396  C 29.6610169 20.0998202  30.2683298 19.4925074  31.0169492 19.4925074  C 31.7655685 19.4925074  32.3728814 20.0998202  32.3728814 20.8484396  C 32.3728814 21.597059  31.7655685 22.2043718  31.0169492 22.2043718  C 30.2683298 22.2043718  29.6610169 21.597059  29.6610169 20.8484396  Z M 3.89830508 9.32301589999997  L 5.59322034 9.32301589999997  C 5.87404309 9.32301589999997  6.10169492 9.55066770000002  6.10169492 9.83149049999997  C 6.10169492 10.0811107  5.92182187 10.2887193  5.68461929 10.3317728  L 5.59322034 10.339965  L 3.89830508 10.339965  C 3.61748233 10.339965  3.38983051 10.1123132  3.38983051 9.83149049999997  C 3.38983051 9.58187020000003  3.56970355 9.37426160000001  3.80690614 9.33120810000003  L 3.89830508 9.32301589999997  Z M 8.98305085 9.32301589999997  L 10.6779661 9.32301589999997  C 10.9587889 9.32301589999997  11.1864407 9.55066770000002  11.1864407 9.83149049999997  C 11.1864407 10.0811107  11.0065676 10.2887193  10.769365 10.3317728  L 10.6779661 10.339965  L 8.98305085 10.339965  C 8.70222809 10.339965  8.47457627 10.1123132  8.47457627 9.83149049999997  C 8.47457627 9.58187020000003  8.65444932 9.37426160000001  8.8916519 9.33120810000003  L 8.98305085 9.32301589999997  Z M 14.0677966 9.32301589999997  L 15.7627119 9.32301589999997  C 16.0435346 9.32301589999997  16.2711864 9.55066770000002  16.2711864 9.83149049999997  C 16.2711864 10.0811107  16.0913134 10.2887193  15.8541108 10.3317728  L 15.7627119 10.339965  L 14.0677966 10.339965  C 13.7869739 10.339965  13.559322 10.1123132  13.559322 9.83149049999997  C 13.559322 9.58187020000003  13.7391951 9.37426160000001  13.9763977 9.33120810000003  L 14.0677966 9.32301589999997  Z M 19.1525424 9.32301589999997  L 20.8474576 9.32301589999997  C 21.1282804 9.32301589999997  21.3559322 9.55066770000002  21.3559322 9.83149049999997  C 21.3559322 10.0811107  21.1760592 10.2887193  20.9388566 10.3317728  L 20.8474576 10.339965  L 19.1525424 10.339965  C 18.8717196 10.339965  18.6440678 10.1123132  18.6440678 9.83149049999997  C 18.6440678 9.58187020000003  18.8239408 9.37426160000001  19.0611434 9.33120810000003  L 19.1525424 9.32301589999997  Z M 24.2372881 9.32301589999997  L 25.9322034 9.32301589999997  C 26.2130261 9.32301589999997  26.440678 9.55066770000002  26.440678 9.83149049999997  C 26.440678 10.0811107  26.2608049 10.2887193  26.0236023 10.3317728  L 25.9322034 10.339965  L 24.2372881 10.339965  C 23.9564654 10.339965  23.7288136 10.1123132  23.7288136 9.83149049999997  C 23.7288136 9.58187020000003  23.9086866 9.37426160000001  24.1458892 9.33120810000003  L 24.2372881 9.32301589999997  Z M 29.3220339 31.3569142  L 31.0169492 31.3569142  C 31.2977719 31.3569142  31.5254237 31.584566  31.5254237 31.8653888  C 31.5254237 32.115009  31.3455507 32.3226176  31.1083481 32.3656711  L 31.0169492 32.3738633  L 29.3220339 32.3738633  C 29.0412111 32.3738633  28.8135593 32.1462115  28.8135593 31.8653888  C 28.8135593 31.6157685  28.9934324 31.4081599  29.230635 31.3651064  L 29.3220339 31.3569142  Z M 31.3559322 20.8484396  C 31.3559322 20.6614657  31.203923 20.5094566  31.0169492 20.5094566  C 30.8299753 20.5094566  30.6779661 20.6614657  30.6779661 20.8484396  C 30.6779661 21.0354135  30.8299753 21.1874227  31.0169492 21.1874227  C 31.203923 21.1874227  31.3559322 21.0354135  31.3559322 20.8484396  Z " fill-rule="nonzero" fill="#0c96df" stroke="none" transform="matrix(1 0 0 1 55 297 )" />
  </g>
</svg>