<?xml version="1.0" encoding="utf-8"?>
<svg version="1.1" xmlns:xlink="http://www.w3.org/1999/xlink" width="376px" height="111px" xmlns="http://www.w3.org/2000/svg">
  <g transform="matrix(1 0 0 1 0 -36 )">
    <path d="M 2.5146266 53.655016  L 83.425693 1.9237821  C 86.3604867 0.0473948000000064  91.1171515 0.0484029999999933  94.0500013 1.92603389999999  C 96.9828511 3.8036649  96.9812752 6.8468981  94.0464815 8.72328539999999  L 25.9685 53  L 367.799979 53  C 371.858833 52.248385  375.165891 54.39069  375.307758 57.069051  L 375.3125 57.248385  C 375.3125 60.009809  371.94903 62.248385  367.799979 62.248385  L 367.799979 62  L 27.4305 62  L 93.8812856 102.208568  C 96.8373212 103.986185  97.0437593 106.933775  94.3951223 108.872002  L 94.210108 109.002564  C 91.3684934 110.936767  86.6141071 111.030955  83.5908889 109.212939  L 4.78307552 61.821521  C 2.14954024 61.044402  0.3125 59.289176  0.3125 57.248385  C 0.3125 57.219703  0.312862847 57.191078  0.313585653 57.162512  C 0.270179196 55.89782  1.00105746 54.62273  2.5146266 53.655016  Z " fill-rule="nonzero" fill="#00c5c6" stroke="none" transform="matrix(1 0 0 1 0 36 )" />
  </g>
</svg>