<?xml version="1.0" encoding="utf-8"?>
<svg version="1.1" xmlns:xlink="http://www.w3.org/1999/xlink" width="41px" height="39px" xmlns="http://www.w3.org/2000/svg">
  <g transform="matrix(1 0 0 1 -35 -115 )">
    <path d="M 19.9821284 6.77846608999999  C 20.6944464 7.17163022  21.4500258 7.67761082999999  22.025213 8.21381479999999  L 21.7992466 8.43124054999998  C 20.664245 8.31568833999999  19.4688405 8.45990062999999  18.3928812 8.47579393999999  C 18.2728918 8.35985090999999  18.0311445 8.18554553999999  18.2562947 8.03990024999999  L 19.9821284 6.77846608999999  Z M 40.051238 20.2795764  C 40.0663387 20.7701848  40.1144977 21.1914879  39.9146514 21.6935604  C 37.8410933 22.2582941  36.4790369 20.1559473  34.4671059 20.4730319  L 34.6945688 21.5627662  C 36.5559008 21.6213891  37.7185191 23.3305718  39.6414783 23.2570978  C 39.3683052 23.779623  39.7633723 25.1562186  38.5530031 24.6059451  C 37.2966516 24.3168692  36.3882966 23.2570978  35.0115476 23.2570978  C 34.8454398 23.54917  34.9506006 23.9535376  34.9214875 24.2990218  C 36.3738761 24.5172292  37.4184096 25.6926831  38.87039 25.909718  C 38.7338034 26.3875597  38.5984413 26.9225912  38.1894978 27.214012  C 37.0082418 26.938745  36.0856023 25.9228756  34.8280264 25.9519265  L 34.6041006 26.952554  C 35.799233 26.9819957  36.5714096 27.994478  37.6454643 28.2984051  C 37.6749855 28.7204898  37.2810068 29.0976304  37.054088 29.4743801  C 36.1005669 29.2001553  35.3734204 28.4157811  34.2839929 28.4736224  C 34.2688922 28.0805885  34.5125441 27.634273  34.4205794 27.214012  C 33.1970142 27.5624925  32.3765425 26.4738004  31.4696839 25.8207415  C 31.4435638 23.6836118  29.0941117 22.281613  28.9700411 20.2795764  C 28.9462336 19.8804197  29.0097654 19.4542965  29.1996806 18.9963867  C 29.9718572 17.2866829  29.7292936 15.06696  28.8825658 13.4729387  C 28.6253096 13.0534594  28.1694316 12.7223053  27.7445712 12.4756983  C 28.3661489 13.7371325  29.1236329 15.2275867  28.7455711 16.7780968  C 28.7017655 17.9754366  27.9640076 19.125357  27.9555729 20.2795764  C 27.9527161 20.6911091  28.0444086 21.1026417  28.2915977 21.5182128  C 29.2760004 23.2159315  31.0470002 24.8229801  30.3810727 26.9521632  C 30.1979597 27.606134  29.6527018 28.111854  29.5166594 28.7774192  C 30.6682582 29.6907637  31.7571415 30.7199209  33.2851697 30.7778925  C 33.8296113 30.4449145  33.5271891 28.9682692  34.6472261 29.6493368  L 36.2825916 30.4326688  C 36.1634185 30.8518876  35.7969203 31.2275951  35.4649769 31.5162802  C 34.8444875 31.227074  34.2392349 30.8804174  33.4655619 30.9086866  C 33.2374188 31.1404424  33.0411096 31.4005977  33.058523 31.7331849  C 33.6029647 31.8190349  34.1023763 32.0390661  34.557166 32.3439051  C 34.3460282 32.7794079  33.9345 33.05233  33.5561661 33.3858291  L 32.2875708 32.9514987  C 32.0757528 33.2417471  31.6357917 33.5467163  31.7901998 33.865234  C 32.076433 33.98261  32.3939559 34.1412826  32.6046856 34.3446389  C 32.0447351 34.9242238  31.335002 35.2970653  30.6520692 35.69049  C 30.0638219 33.8493407  28.1256259 32.5584648  28.2920058 30.4292817  L 28.2019457 30.3431712  C 27.7463398 30.8336493  27.8985712 31.6180235  27.9279563 32.2545377  C 28.4732142 33.5881432  29.7737795 34.6182123  29.971041 36.0806578  C 29.743306 36.4570168  29.229882 36.532054  28.8360393 36.691378  C 28.8817495 34.054651  24.7051121 32.0548291  27.3835147 29.3877485  C 28.276769 28.081761  29.7733714 26.8354385  29.2430781 25.0374096  C 28.6986365 23.3013906  26.7729564 22.2257258  26.7899617 20.2795764  L 26.7929547 20.1278083  C 27.2315553 18.0982841  28.5639545 15.9387474  27.4739829 13.7797318  C 27.1702002 12.9113315  26.4914847 11.924513  25.5683011 11.5615722  C 26.9446419 13.0701344  27.490308 15.5315138  26.7028946 17.5614288  C 26.306059 18.3688613  25.7597127 19.3307976  25.7048876 20.2799672  L 25.7016226 20.2799672  C 25.6723735 20.7756563  25.7780784 21.2686096  26.1120625 21.7360294  C 27.1571402 23.3597529  28.9722177 25.1433216  27.9280924 27.2593471  C 26.7477886 28.9541997  24.6896033 30.6782336  25.8390254 32.9105929  C 26.6713328 34.2438075  27.958838 35.5741561  27.6115217 37.2131217  L 26.2494653 37.6474521  C 27.1575483 34.5904642  22.7076017 32.7942591  24.5704301 29.736229  C 25.7205325 28.0986965  27.7774935 26.5622559  26.6131066 24.3889102  C 25.9169777 23.0422775  24.4786015 22.2452668  24.5240397 20.5623993  L 24.5735591 20.279837  C 25.0422251 17.893104  26.9368875 15.6339084  25.6121067 13.0834222  C 25.2639742 12.3303136  24.5682535 11.5624841  23.7960769 11.127372  L 23.7494143 11.1720557  C 25.2939036 12.606753  25.763794 14.9673011  24.9310785 16.8648587  C 24.5425414 17.9781723  23.6898277 19.087187  23.5165097 20.2802278  C 23.434068 20.8427469  23.5035857 21.4257189  23.8430115 22.0398262  C 24.826598 23.5313226  26.5514794 25.113489  25.475112 27.041791  C 24.3416068 28.6345096  22.4492572 30.1842381  23.2051087 32.2554496  C 24.0376881 34.0675481  25.7761738 35.7937965  24.8374814 38.0407465  L 23.4320274 38.3446736  C 24.5515202 36.1549135  22.8728932 33.9820889  21.8895788 32.0829681  C 20.693358 29.3583068  24.4596916 28.053622  24.5200945 25.5625403  C 24.50581 23.9547101  22.7207978 23.0417564  22.3435522 21.5636781  C 21.5709675 20.9395398  20.770222 21.8118483  19.8466302 21.6499189  C 19.1647857 21.7811039  18.1175314 20.7511649  17.7104926 21.8676052  C 17.2257735 23.504356  15.0175335 24.7076884  15.9880599 26.6490177  C 16.9115156 28.374224  19.1339041 29.6357884  18.3915208 31.8684083  C 17.7268177 33.9538197  15.5310935 35.9394418  16.8928778 38.3446736  C 16.3334715 38.1711498  15.288802 38.5033462  15.3039027 37.6475824  C 14.441666 34.7348067  18.1186198 33.0378697  16.9829379 30.1266574  C 16.4544132 28.3434796  14.0463268 27.3583546  14.576484 25.213669  C 14.9684222 23.4482084  17.0372188 22.2140013  16.7470404 20.2800975  C 16.723505 20.1181681  16.6818761 19.9524607  16.6224255 19.7797187  C 15.8502489 17.6928743  14.274878 15.6055089  15.2138426 13.1699235  C 15.471643 12.4742653  15.9865634 11.8802201  16.4390404 11.2584268  C 14.9406695 12.0262562  14.184818 13.6498495  14.2158356 15.3015818  C 14.1505353 17.0977869  15.536127 18.6364422  15.7332525 20.2800975  C 15.8107966 20.943448  15.6973373 21.6226918  15.2138426 22.3432322  C 14.2309364 23.6204294  12.9454718 24.9670621  13.5348074 26.6487572  C 14.095166 28.3450428  16.3044945 29.3726368  16.168316 31.3443198  C 16.1533514 33.6765986  13.3232615 35.1287525  14.1253675 37.73708  L 12.7167845 37.2994927  C 12.1575143 34.9816742  14.7298038 33.7957984  14.759325 31.6512431  C 15.1233744 29.1850436  11.8386309 28.2700056  12.0357563 25.8659463  C 12.0216079 24.0393876  13.7006431 22.8825627  14.4422102 21.3461221  C 14.5694098 20.9722384  14.611719 20.6189378  14.5947137 20.2802278  C 14.5038374 18.5814669  12.9053393 17.253333  13.170622 15.3433995  C 13.2598658 13.937753  13.7592774 12.7056303  14.7130706 11.6484643  C 13.3971325 12.1547055  12.8535071 13.6052961  12.4900019 14.8228283  C 11.8591733 16.7751005  13.3650265 18.5311815  13.5160336 20.2803581  C 13.5829664 21.0527471  13.385841 21.8207069  12.6268605 22.6058627  C 11.5366168 23.8361616  10.4310003 25.3884955  11.2181416 27.0420516  C 12.0516733 28.866526  14.6703533 30.2866327  13.5345354 32.5622427  C 12.9148623 33.9972006  11.4310479 35.0834175  11.4919949 36.7784004  C 11.0988324 36.6189462  10.6909773 36.460013  10.3568572 36.1709371  C 10.3568572 34.0120517  13.5639205 32.6635952  12.0358924 30.388376  C 11.9005302 30.837297  11.8714171 31.4473658  11.7654401 31.9545188  C 11.2351469 33.2739245  10.1005533 34.3300483  9.67596502 35.6940074  C 8.96595979 35.4316374  8.22357646 34.8803218  7.63301644 34.3007369  L 8.45103934 33.821332  C 8.36016302 33.5309533  8.11841569 33.2848675  7.90700582 33.0385211  C 7.37576028 32.9670012  7.02694759 33.3007608  6.58902713 33.4315549  C 6.21069324 33.1121254  5.84555547 32.8221375  5.54394949 32.4309275  C 5.8154901 31.6903251  7.93720723 32.3027388  6.8623363 31.0850764  C 6.13668618 30.6506157  5.40831522 31.2712366  4.77286122 31.5609639  L 3.9114408 30.5190399  C 4.65300787 30.0847094  5.39267035 29.4746407  6.31503776 29.6495974  C 6.54236459 30.0415891  6.55814551 30.6180474  6.99606597 30.8227064  C 8.55511177 30.7936555  9.65977598 29.6644485  10.8549084 28.7801549  C 10.0219208 27.593237  9.34388555 25.9546623  10.0838201 24.5193135  C 10.6766929 23.0809686  12.2214542 21.8695593  12.291516 20.2794462  C 12.3072969 19.9175476  12.2483906 19.5367594  12.0830991 19.1269203  C 11.2663006 17.1122472  10.9780267 14.3894098  12.5370725 12.606232  C 11.6893924 12.8243091  11.1895727 13.8360098  10.9015709 14.6042301  C 9.96437489 16.5714837  11.1497122 18.394004  11.190661 20.2793159  C 11.1962387 20.6184167  11.1675338 20.9582991  11.081691 21.3006568  C 10.279313 22.8511669  8.97929194 24.2116086  8.76815415 25.9958285  C 7.8446984 26.5599109  7.08653416 27.5463386  5.77073215 27.2134909  C 5.72447774 27.5464689  5.83045476 28.0540128  5.95112436 28.4311533  C 4.90767923 28.3892054  4.19617752 29.1256391  3.31761576 29.4734682  C 2.84962994 29.3296467  2.727872 28.7503224  2.54666353 28.3449126  C 3.57500797 28.0123254  4.31684712 27.0251161  5.49755903 27.0407489  C 5.63441768 26.6766356  5.42083112 26.3430063  5.36056434 25.995568  C 3.89185069 25.3712994  1.56375726 29.0814765  1.36799226 25.8647738  C 2.83561757 25.7777514  3.77349381 24.4731969  5.22697072 24.3431844  L 5.27036824 23.3012603  C 3.62085425 23.1416758  2.5597236 24.7655297  0.910889826000002 24.605424  L 0.547248515 23.2150196  C 2.45456283 23.3291388  3.59092492 21.6923879  5.40736293 21.6043233  C 5.64870213 21.3003962  5.6778152 20.8510844  5.7243417 20.4312143  C 3.74165989 20.1838257  2.38109994 22.2878661  0.276796242000003 21.6488767  C 0.276796242000003 21.6488767  0.204285648000003 20.7731811  0.164969397 20.2794462  L 0.167826286999997 20.2794462  C 0.153541836000002 20.0863815  0.139937596999999 19.9518094  0.139937596999999 19.9518094  C 2.01637029 20.6490309  3.66506803 19.3584155  5.27036824 18.6921991  C 5.67863145 18.5752138  6.31530984 18.778049  6.4984229 18.3437186  C 6.48250594 18.0103498  7.11741578 17.6205728  6.58889109 17.3879051  C 4.24202381 17.0829358  2.68297801 19.7935276  0.276524158000001 18.5610141  L 0.0959959049000005 18.2125336  C 0.596631903000002 11.6630549  4.45397785 5.33100198999999  10.8549084 2.21500038999999  C 13.4473322 0.796326636999993  16.6679997 0.07318081599999  19.9160118 0.0475170209999902  C 23.8358012 0.0163817569999907  27.7965394 1.00098562999999  30.7429455 2.99820209999999  C 33.6041891 4.67885498999999  36.3410899 7.44859077  37.8264007 10.2602745  C 39.2469553 12.7237383  39.9007751 15.4880026  40.0959959 18.4308713  C 37.6134944 20.2270764  35.9480634 16.7386241  33.4201237 17.5193506  C 33.5563021 17.8968819  33.6316696 18.2874406  33.9206237 18.6062188  C 36.1611058 18.5911071  37.7039625 20.837536  40.0491973 19.9522002  L 40.051238 20.2795764  Z M 11.5351203 12.2133284  C 9.96097383 11.227552  7.96523196 12.1557477  6.49815082 12.692603  C 6.36197238 11.3731973  5.80243003 10.1711677  4.63573049 9.30172521999999  C 4.52254322 9.24779217  4.36609447 9.13432431999999  4.22515455 9.12598684999999  C 4.14080827 9.12090619999999  4.06054326 9.15347445999998  3.99823584 9.25678101  C 4.52703262 12.372001  2.41225365 14.5457374  0.913610673999997 16.908891  C 1.41261416 17.2994496  2.21431197 17.2410873  2.81956457 17.1263167  C 4.40826761 16.5179415  5.92160316 15.459082  7.81327261 15.8220227  C 8.37267892 14.909069  9.3125958 14.0247754  10.0832759 13.3001966  C 10.5541187 12.9100288  11.2010002 12.6622494  11.5351203 12.2133284  Z M 16.3485722 14.1697694  C 16.3183708 14.3573626  16.3636729 14.6917736  16.665687 14.5625427  C 17.1355774 13.9394466  17.9674767 14.4323999  18.4817169 14.4763019  L 18.4817169 14.3009543  C 18.199565 13.876655  17.6190721 13.6635282  17.0296004 13.6847627  C 16.893558 13.6893223  16.755339 13.7083421  16.6222895 13.7379141  C 16.425028 13.7798621  16.2877613 13.9527344  16.3485722 14.1697694  Z M 23.7487341 12.302826  C 23.3261864 11.4040721  22.3575646 11.0403496  21.4785947 10.8230542  C 21.0477485 10.7722477  20.6005771 10.7378556  20.1570789 10.7338171  C 20.073957 10.7330355  19.9909712 10.7319933  19.9082574 10.7338171  C 18.6676868 10.7577873  17.4823495 11.0627566  16.7581958 12.0405863  C 16.6542595 12.3166349  16.1972931 12.7043276  16.6216093 12.9517161  C 17.5751304 12.8933538  18.6631974 12.7788438  19.2987875 13.5624363  C 19.2987875 14.2587459  19.7682698 15.1851177  18.9816727 15.5184865  C 18.3298936 14.9405951  17.5579891 15.764442  16.8488001 15.3006699  C 16.5153602 15.1120345  16.3043584 15.332196  16.1677719 15.607463  C 15.9706464 17.4040589  16.9530086 19.3868151  18.7082275 20.3864003  C 19.4195931 20.6320954  20.3758351 20.8658053  21.1182184 20.5171945  C 22.9039109 19.7209655  23.6435733 17.8961003  23.9760609 16.214796  C 23.931439 15.8948454  23.947356 15.2713585  23.4785539 15.2562468  C 22.949213 15.5768488  22.1771724 15.3874318  21.6161336 15.2562468  C 21.2844622 15.3587717  21.2692255 15.8234557  20.8917078 15.9115203  L 20.6616602 15.735782  C 20.4646708 14.9399438  20.3431849 13.8091735  21.1157697 13.2585092  C 21.9790947 12.9251404  22.9930186 12.7794951  23.8858648 13.0410835  C 24.0525168 12.7659467  23.7952606 12.5493026  23.7487341 12.302826  Z M 23.8857288 14.0835286  C 23.7011193 13.7545891  23.2599338 13.7237144  22.8376582 13.7317913  C 22.7776635 13.7332243  22.7193013 13.7360903  22.6602589 13.7379141  C 22.3431441 13.9404888  21.4190082 13.7948435  21.7525841 14.4763019  C 22.3280434 14.0404082  23.1301493 14.3458986  23.7052005 14.5625427  C 23.9178348 14.4614508  23.8717164 14.2584853  23.8857288 14.0835286  Z M 29.4267354 7.60452763999999  C 28.3065623 7.54759831  27.36855 8.15649464999998  26.3392533 8.43202219  C 26.2496014 7.59332415999999  26.9149847 6.70759753999999  27.066808 5.86564267999999  C 25.4026014 5.96816758999999  24.0844867 6.92736821  22.7077377 7.69363441999999  C 22.3891264 6.95641910999998  22.0695629 6.21542588  21.7531283 5.47547483  L 23.5691581 3.82296090999999  L 23.6156846 3.60527461  L 21.1627043 3.47448044999999  C 20.7401566 2.76553439  20.5736407 1.9115944  20.0742291 1.25944740999999  C 19.6655578 1.99848653999999  19.3910242 2.78064606999999  18.982761 3.51903383999999  L 16.5326376 3.65021881999999  L 16.5326376 3.82296090999999  L 18.392201 5.43079116  C 18.1648742 6.25724353  17.9536003 7.15521582  17.394194 7.77987519  C 16.3046305 7.15495526999999  15.2305758 6.47479955999999  14.0359876 6.04085995999999  C 13.74853 5.95201372  13.3387704 5.80754089  13.0815142 5.99630656999999  C 13.4593039 6.79357776999999  13.9883728 7.6511654  13.899401 8.52138951999999  C 13.3997173 8.43332491999999  13.006963 8.12653183999998  12.5374807 7.99756149999999  C 11.9760337 7.85087401999999  11.3098341 7.56427325999999  10.7651204 7.73857862999999  C 11.6733394 8.95519884999999  12.4146344 10.2284879  12.6710743 11.6926269  C 15.6840051 10.300138  19.197708 9.53426264999999  22.8450045 10.12935  C 24.5546492 10.3898962  26.1267551 11.056764  27.6554634 11.6061256  C 27.715186 10.0708574  28.72911 8.83717145  29.4267354 7.60452763999999  Z M 34.6006996 15.9529472  C 36.1431482 16.3438967  37.6904944 17.9531599  39.3238193 16.9090212  C 37.9013601 14.6486532  35.7841323 12.5612877  36.3729238 9.60539175  C 36.434551 9.40359875999999  36.2983726 9.19933057999999  36.1024715 9.17067050999999  C 35.179696 9.53178745999999  34.4650653 10.4024024  34.0999275 11.2581662  C 33.9497367 11.7642771  33.860765 12.3023049  33.6492191 12.7793649  C 32.5437386 12.22844  31.3641151 11.6947113  30.0172954 11.8236816  C 29.531624 11.8816531  28.8353591 11.912137  28.7457072 12.3895878  C 30.2741434 13.1717474  31.5310391 14.4770835  32.4676909 15.8670972  C 33.1198781 15.7652237  33.9196714 15.8522461  34.6006996 15.9529472  Z M 18.4380473 17.9957592  L 18.4815809 18.2577384  C 19.0729571 18.6350092  19.2548458 19.2743894  20.0735489 19.2162876  C 20.7996072 19.2575842  21.3443209 18.6062188  21.7060576 18.084866  C 20.7235595 17.9549837  19.5280189 18.1559951  18.4380473 17.9957592  Z M 20.157215 16.5727864  C 19.8338422 16.5727864  19.4982256 16.6630657  19.2556621 16.8226502  C 19.2851833 16.9387235  19.1807027 17.1126381  19.3457221 17.1712609  C 19.830033 17.0705599  20.7073704 17.4179981  20.9778227 16.8673339  C 20.7889958 16.6647592  20.4807238 16.5727864  20.157215 16.5727864  Z " fill-rule="nonzero" fill="#007042" stroke="none" transform="matrix(1 0 0 1 35 115 )" />
  </g>
</svg>