<?xml version="1.0" encoding="utf-8"?>
<svg version="1.1" xmlns:xlink="http://www.w3.org/1999/xlink" width="12px" height="6px" xmlns="http://www.w3.org/2000/svg">
  <g transform="matrix(1 0 0 1 -320 -376 )">
    <path d="M 0.646446609999998 0.146446612439008  C 0.841708760000017 -0.0488155374796505  1.15829123999998 -0.0488155374796505  1.35355339 0.146446612439008  L 6 4.79300000050293  L 10.6464466 0.146446612439008  C 10.8417088 -0.0488155374796505  11.1582912 -0.0488155374796505  11.3535534 0.146446612439008  C 11.5488155 0.341708762357667  11.5488155 0.658291242225722  11.3535534 0.853553392144381  L 6.35355339 5.85355340006103  C 6.28846600999998 5.91864080003389  6.20989859000002 5.96203240001582  6.12683781999999 5.98372820000675  L 6.04261210999999 5.99819200000077  L 5.95738789000001 5.99819200000077  C 5.84397747000003 5.98854940000478  5.73322979 5.94033660002488  5.64644661 5.85355340006103  L 0.646446609999998 0.853553392144381  C 0.451184459999979 0.658291242225722  0.451184459999979 0.341708762357667  0.646446609999998 0.146446612439008  Z " fill-rule="nonzero" fill="#472c90" stroke="none" transform="matrix(1 0 0 1 320 376 )" />
  </g>
</svg>