<?xml version="1.0" encoding="utf-8"?>
<svg version="1.1" xmlns:xlink="http://www.w3.org/1999/xlink" width="10px" height="2px" xmlns="http://www.w3.org/2000/svg">
  <g transform="matrix(1 0 0 1 -313 -501 )">
    <path d="M 1.25988655999998 1.75496655000001  L 1.47292318999996 1.75496655000001  L 1.47292318999996 1.22957543000001  C 1.47292318999996 1.02817550000003  1.34324871999996 0.896827720000033  1.12094962999998 0.896827720000033  C 1.00980009 0.896827720000033  0.889388080000003 0.931853789999991  0.806025919999968 1.04568854000001  C 0.741188690000001 0.949366830000031  0.648564069999964 0.896827720000033  0.509627139999964 0.896827720000033  C 0.417002514999979 0.896827720000033  0.324377893999952 0.923097280000036  0.25027819799999 1.01941898000001  L 0.25027819799999 0.914340760000016  L 0.0557664950000003 0.914340760000016  L 0.0557664950000003 1.75496655000001  L 0.25027819799999 1.75496655000001  L 0.25027819799999 1.29087106000003  C 0.25027819799999 1.14201023999999  0.333640356999979 1.07195809000001  0.463314830000002 1.07195809000001  C 0.592989289999991 1.07195809000001  0.657826529999966 1.15076676000001  0.657826529999966 1.29087106000003  L 0.657826529999966 1.75496655000001  L 0.852338229999987 1.75496655000001  L 0.852338229999987 1.29087106000003  C 0.852338229999987 1.14201023999999  0.944962849999968 1.07195809000001  1.06537485999996 1.07195809000001  C 1.19504932999996 1.07195809000001  1.25988655999998 1.15076676000001  1.25988655999998 1.29087106000003  L 1.25988655999998 1.75496655000001  Z M 4.35354887999995 1.08071461000003  L 4.35354887999995 0.914340760000016  L 4.03862518 0.914340760000016  L 4.03862518 0.660401710000031  L 3.84411346999997 0.660401710000031  L 3.84411346999997 0.914340760000016  L 3.66812668999995 0.914340760000016  L 3.66812668999995 1.08071461000003  L 3.84411346999997 1.08071461000003  L 3.84411346999997 1.46600144000001  C 3.84411346999997 1.65864485000003  3.92747563 1.77247958999999  4.14977471999998 1.77247958999999  C 4.23313687999996 1.77247958999999  4.3257615 1.74621002999999  4.39059872999997 1.71118396000003  L 4.33502396 1.55356662000003  C 4.27944918999998 1.58859269999999  4.21461194999995 1.59734922000001  4.16829963999999 1.59734922000001  C 4.07567501999995 1.59734922000001  4.03862518 1.54481010000001  4.03862518 1.45724491999999  L 4.03862518 1.08071461000003  L 4.35354887999995 1.08071461000003  Z M 6.00226712999995 0.896827720000033  C 5.89111757999996 0.896827720000033  5.81701788999999 0.949366830000031  5.77070557999997 1.01941898000001  L 5.77070557999997 0.914340760000016  L 5.57619387999995 0.914340760000016  L 5.57619387999995 1.75496655000001  L 5.77070557999997 1.75496655000001  L 5.77070557999997 1.28211454000001  C 5.77070557999997 1.14201023999999  5.83554280999999 1.06320156999999  5.95595481999999 1.06320156999999  C 5.99300466999995 1.06320156999999  6.03931697999997 1.07195809000001  6.07636682999998 1.08071461000003  L 6.1319416 0.905584239999996  C 6.09489174999999 0.896827720000033  6.03931697999997 0.896827720000033  6.00226712999995 0.896827720000033  Z M 3.42730267999997 1.13325372000003  L 3.51066484 0.984392909999997  C 3.41804021999997 0.923097280000036  3.28836574999997 0.896827720000033  3.14942881999997 0.896827720000033  C 2.92712972999999 0.896827720000033  2.77893033999999 1.00190594000003  2.77893033999999 1.16827979999999  C 2.77893033999999 1.30838410000001  2.89007987999997 1.38719277000001  3.08459157999999 1.41346232000001  L 3.17721619999998 1.42221884000003  C 3.27910328999997 1.43973188000001  3.33467805999999 1.46600144000001  3.33467805999999 1.50978402999999  C 3.33467805999999 1.57107966000001  3.26057835999995 1.61486224999999  3.13090388999996 1.61486224999999  C 3.00122942999997 1.61486224999999  2.89934233999998 1.57107966000001  2.83450510999995 1.52729707000003  L 2.74188048999997 1.66740136999999  C 2.84376756999995 1.73745352000003  2.98270449999995 1.77247958999999  3.12164142999995 1.77247958999999  C 3.38099036999995 1.77247958999999  3.52918975999995 1.65864485000003  3.52918975999995 1.50102751000003  C 3.52918975999995 1.35216668999999  3.40877775999996 1.27335801999999  3.22352852 1.24708846999999  L 3.13090388999996 1.23833195000003  C 3.04754173999999 1.22957543000001  2.98270449999995 1.21206239000003  2.98270449999995 1.15952328000003  C 2.98270449999995 1.09822765000001  3.04754173999999 1.06320156999999  3.14942881999997 1.06320156999999  C 3.26057835999995 1.06320156999999  3.37172791 1.10698417000003  3.42730267999997 1.13325372000003  Z M 8.67911865999997 0.896827720000033  C 8.56796911999999 0.896827720000033  8.49386941999995 0.949366830000031  8.44755710999999 1.01941898000001  L 8.44755710999999 0.914340760000016  L 8.25304540999997 0.914340760000016  L 8.25304540999997 1.75496655000001  L 8.44755710999999 1.75496655000001  L 8.44755710999999 1.28211454000001  C 8.44755710999999 1.14201023999999  8.51239433999996 1.06320156999999  8.63280634999995 1.06320156999999  C 8.66985619999997 1.06320156999999  8.71616850999999 1.07195809000001  8.75321835999995 1.08071461000003  L 8.80879312999997 0.905584239999996  C 8.77174327999995 0.896827720000033  8.71616850999999 0.896827720000033  8.67911865999997 0.896827720000033  Z M 6.19677882999997 1.33465366000001  C 6.19677882999997 1.58859269999999  6.38202806999999 1.77247958999999  6.6691644 1.77247958999999  C 6.79883887 1.77247958999999  6.89146348999998 1.74621002999999  6.98408810999996 1.67615789000001  L 6.89146348999998 1.52729707000003  C 6.81736379 1.57983618000003  6.74326408999997 1.60610574000003  6.65990192999999 1.60610574000003  C 6.50244007999999 1.60610574000003  6.39129054 1.50102751000003  6.39129054 1.33465366000001  C 6.39129054 1.17703632000001  6.50244007999999 1.07195809000001  6.65990192999999 1.06320156999999  C 6.74326408999997 1.06320156999999  6.81736379 1.08947112999999  6.89146348999998 1.14201023999999  L 6.98408810999996 0.993149420000009  C 6.89146348999998 0.923097280000036  6.79883887 0.896827720000033  6.6691644 0.896827720000033  C 6.38202806999999 0.896827720000033  6.19677882999997 1.08071461000003  6.19677882999997 1.33465366000001  Z M 7.99369646999997 1.75496655000001  L 7.99369646999997 1.33465366000001  L 7.99369646999997 0.914340760000016  L 7.79918476999995 0.914340760000016  L 7.79918476999995 1.01941898000001  C 7.73434752999998 0.940610310000011  7.64172291 0.896827720000033  7.5213109 0.896827720000033  C 7.27122442999996 0.896827720000033  7.07671273 1.08071461000003  7.07671273 1.33465366000001  C 7.07671273 1.58859269999999  7.27122442999996 1.77247958999999  7.5213109 1.77247958999999  C 7.65098537 1.77247958999999  7.74360998999998 1.72869700000001  7.79918476999995 1.64988833000001  L 7.79918476999995 1.75496655000001  L 7.99369646999997 1.75496655000001  Z M 7.28048688999996 1.33465366000001  C 7.28048688999996 1.18579284000003  7.38237397 1.06320156999999  7.54909828999996 1.06320156999999  C 7.70656014999997 1.06320156999999  7.81770968999996 1.17703632000001  7.81770968999996 1.33465366000001  C 7.81770968999996 1.48351446999999  7.70656014999997 1.60610574000003  7.54909828999996 1.60610574000003  C 7.38237397 1.59734922000001  7.28048688999996 1.48351446999999  7.28048688999996 1.33465366000001  Z M 4.95560891999997 0.896827720000033  C 4.69625997999998 0.896827720000033  4.51101073999996 1.07195809000001  4.51101073999996 1.33465366000001  C 4.51101073999996 1.59734922000001  4.69625997999998 1.77247958999999  4.96487137999998 1.77247958999999  C 5.09454584999997 1.77247958999999  5.22422031999997 1.73745352000003  5.32610739999996 1.65864485000003  L 5.23348277999997 1.52729707000003  C 5.15938308 1.57983618000003  5.06675845999996 1.61486224999999  4.97413383999998 1.61486224999999  C 4.85372183999999 1.61486224999999  4.73330983 1.56232313999999  4.70552243999998 1.41346232000001  L 5.36315724999997 1.41346232000001  C 5.36315724999997 1.38719277000001  5.36315724999997 1.36967973000003  5.36315724999997 1.34341017000003  C 5.37241970999997 1.07195809000001  5.20569538999996 0.896827720000033  4.95560891999997 0.896827720000033  Z M 4.95560891999997 1.05444506000003  C 5.07602091999996 1.05444506000003  5.15938308 1.12449721000002  5.17790800999995 1.25584499000001  L 4.71478489999998 1.25584499000001  C 4.73330983 1.14201023999999  4.81667198999997 1.05444506000003  4.95560891999997 1.05444506000003  Z M 9.78135159999999 1.75496655000001  L 9.78135159999999 1.33465366000001  L 9.78135159999999 0.581593050000038  L 9.58683989999997 0.581593050000038  L 9.58683989999997 1.01941898000001  C 9.52200269999997 0.940610310000011  9.42937809 0.896827720000033  9.30896608 0.896827720000033  C 9.05887959999995 0.896827720000033  8.86436789999999 1.08071461000003  8.86436789999999 1.33465366000001  C 8.86436789999999 1.58859269999999  9.05887959999995 1.77247958999999  9.30896608 1.77247958999999  C 9.43864055 1.77247958999999  9.53126519999995 1.72869700000001  9.58683989999997 1.64988833000001  L 9.58683989999997 1.75496655000001  L 9.78135159999999 1.75496655000001  Z M 9.06814206999996 1.33465366000001  C 9.06814206999996 1.18579284000003  9.17002915 1.06320156999999  9.33675346999996 1.06320156999999  C 9.49421529999995 1.06320156999999  9.60536489999998 1.17703632000001  9.60536489999998 1.33465366000001  C 9.60536489999998 1.48351446999999  9.49421529999995 1.60610574000003  9.33675346999996 1.60610574000003  C 9.17002915 1.59734922000001  9.06814206999996 1.48351446999999  9.06814206999996 1.33465366000001  Z M 2.56589370999995 1.75496655000001  L 2.56589370999995 1.33465366000001  L 2.56589370999995 0.914340760000016  L 2.37138200999999 0.914340760000016  L 2.37138200999999 1.01941898000001  C 2.30654476999996 0.940610310000011  2.21392014999998 0.896827720000033  2.09350814999999 0.896827720000033  C 1.84342167 0.896827720000033  1.64890996999998 1.08071461000003  1.64890996999998 1.33465366000001  C 1.64890996999998 1.58859269999999  1.84342167 1.77247958999999  2.09350814999999 1.77247958999999  C 2.22318260999998 1.77247958999999  2.31580722999996 1.72869700000001  2.37138200999999 1.64988833000001  L 2.37138200999999 1.75496655000001  L 2.56589370999995 1.75496655000001  Z M 2.11203307 1.60610574000003  C 1.94530874999998 1.59734922000001  1.84342167 1.48351446999999  1.84342167 1.33465366000001  C 1.84342167 1.18579284000003  1.94530874999998 1.06320156999999  2.11203307 1.06320156999999  C 2.26949492 1.06320156999999  2.38064446999999 1.17703632000001  2.38064446999999 1.33465366000001  C 2.38064446999999 1.48351446999999  2.26949492 1.60610574000003  2.11203307 1.60610574000003  Z " fill-rule="nonzero" fill="#ffffff" stroke="none" transform="matrix(1 0 0 1 313 501 )" />
  </g>
</svg>