<?xml version="1.0" encoding="utf-8"?>
<svg version="1.1" xmlns:xlink="http://www.w3.org/1999/xlink" width="19px" height="25px" xmlns="http://www.w3.org/2000/svg">
  <g transform="matrix(1 0 0 1 -70 -199 )">
    <path d="M 15.2798009006582 0.110435211000009  C 15.4301295006316 -0.00161083595000377  15.6276592005967 -0.0197136252000121  15.7934025005674 0.0570673169999907  L 15.8732596005532 0.103369119999996  L 18.4597288000956 1.93701920999999  C 18.6871038000554 2.09821427  18.7407532000459 2.41321248  18.5795581000744 2.64058742  C 18.4362736000997 2.84269846999999  18.1714656001466 2.90754489  17.954695700185 2.80624756  L 17.8759899001989 2.76041667000001  L 16.1590000005027 1.54240586  L 16.1596177005026 6.24736630999999  L 16.1566234005031 6.49616091999999  C 16.100392200513 8.78055854999999  15.2427094006648 10.0271267  12.7876108010992 11.6942389  L 12.0462984012303 12.1936731  C 10.2638751015457 13.4277517  9.85134390161871 14.1216685  9.85134390161871 15.644519  C 9.85134390161871 15.6805289  9.84757240161938 15.715658  9.84040270162064 15.7495327  L 9.83929900162084 24.4953381  C 9.83929900162084 24.7740552  9.61335420166082 25  9.33463710171013 25  C 9.08688860175396 25  8.88083670179043 24.8214757  8.83810600179798 24.5860517  L 8.82997520179943 24.4953381  L 8.82997520179943 15.6363275  C 8.82997520179943 14.1168123  8.41760500187238 13.4244217  6.63533557218773 12.1927014  L 5.89406021231888 11.6941988  C 3.43881054275331 10.0300043  2.5809404229051 8.78541128000001  2.52469640291504 6.50460247999999  L 2.52170145291557 6.25619868000001  L 2.5210000029157 1.47340586000001  L 0.806282003219085 2.75335057999999  C 0.607639833254233 2.9014067  0.335742273302341 2.88140573999999  0.160790353333298 2.71818139000001  L 0.100060133344047 2.65030716999999  C -0.0479959866297636 2.45166499999999  -0.0279950266332981 2.17976744000001  0.135229323337815 2.00481551999999  L 0.203103543325813 1.94408530000001  L 2.66325333289053 0.110435211000009  C 2.81358194286394 -0.00161083595000377  3.01111159282898 -0.0197136252000121  3.17685492279965 0.0570673169999907  L 3.25671204278552 0.103369119999996  L 5.84318127232789 1.93701920999999  C 6.07055620228766 2.09821427  6.12420559227817 2.41321248  5.96301053230669 2.64058742  C 5.81972603233204 2.84269846999999  5.55491805237889 2.90754489  5.33814810241725 2.80624756  L 5.25944232243118 2.76041667000001  L 3.531000002737 1.53440585999999  L 3.531025262737 6.25619868000001  C 3.531025262737 8.24949885000001  4.12718288263152 9.23604861000001  6.21917495226136 10.6930957  L 6.45781992221915 10.857001  L 6.73965160216928 11.0455519  C 8.08273730193164 11.9331563  8.88958070178887 12.6220074  9.34180990170887 13.4071626  C 9.79496670162869 12.6226577  10.601141501486 11.9336962  11.9413164012489 11.046408  L 12.2231477011991 10.8575152  L 12.4618096011568 10.6933003  C 14.5539546007867 9.23349307000001  15.1502939006812 8.2448531  15.1502939006812 6.24736630999999  L 15.1500000006812 1.46440586  L 13.4228296009868 2.75335057999999  C 13.2241874010219 2.9014067  12.95228980107 2.88140573999999  12.777337901101 2.71818139000001  L 12.7166077011117 2.65030716999999  C 12.5685516011379 2.45166499999999  12.5885525011344 2.17976744000001  12.7517769011055 2.00481551999999  L 12.8196511010935 1.94408530000001  L 15.2798009006582 0.110435211000009  Z " fill-rule="nonzero" fill="#472c90" stroke="none" transform="matrix(1 0 0 1 70 199 )" />
  </g>
</svg>