<?xml version="1.0" encoding="utf-8"?>
<svg version="1.1" xmlns:xlink="http://www.w3.org/1999/xlink" width="18px" height="25px" xmlns="http://www.w3.org/2000/svg">
  <g transform="matrix(1 0 0 1 -288 -199 )">
    <path d="M 15.1041667 1.89705989000001  L 16.8339466 0.167279943000011  C 17.148929 -0.147702487999993  17.6875 0.0753809080999872  17.6875 0.520833333000013  L 17.6875 24.4791667  C 17.6875 24.9246191  17.148929 25.1477025  16.8339466 24.8327201  L 15.1041667 23.1029401  L 13.3743867 24.8327201  C 13.1791246 25.0279822  12.8625421 25.0279822  12.6672799 24.8327201  L 10.9375 23.1029401  L 9.20772010000002 24.8327201  C 9.01245790000002 25.0279822  8.69587539999998 25.0279822  8.5006133 24.8327201  L 6.77083329999999 23.1029401  L 5.04105339 24.8327201  C 4.84579123999998 25.0279822  4.52920876000002 25.0279822  4.33394661 24.8327201  L 2.60416666999998 23.1029401  L 0.874386720000018 24.8327201  C 0.559404289999975 25.1477025  0.0208333300000163 24.9246191  0 24.4791667  L 0 0.520833333000013  C 0.0208333300000163 0.0753809080999872  0.559404289999975 -0.147702487999993  0.874386720000018 0.167279943000011  L 2.60416666999998 1.89705989000001  L 4.33394661 0.167279943000011  C 4.52920876000002 -0.0279822031000094  4.84579123999998 -0.0279822031000094  5.04105339 0.167279943000011  L 6.77083329999999 1.89705989000001  L 8.5006133 0.167279943000011  C 8.69587539999998 -0.0279822031000094  9.01245790000002 -0.0279822031000094  9.20772010000002 0.167279943000011  L 10.9375 1.89705989000001  L 12.6672799 0.167279943000011  C 12.8625421 -0.0279822031000094  13.1791246 -0.0279822031000094  13.3743867 0.167279943000011  L 15.1041667 1.89705989000001  Z M 14.7506133 2.95772006000001  L 13.0208333 1.22794010999999  L 11.2910534 2.95772006000001  C 11.0957912 3.1529822  10.7792088 3.1529822  10.5839466 2.95772006000001  L 8.85416670000001 1.22794010999999  L 7.1243867 2.95772006000001  C 6.92912460000002 3.1529822  6.61254209999998 3.1529822  6.41727989999998 2.95772006000001  L 4.6875 1.22794010999999  L 2.95772005999999 2.95772006000001  C 2.76245791000002 3.1529822  2.44587541999999 3.1529822  2.25061327999998 2.95772006000001  L 1 1.72794010999999  L 1 23.2720599  L 2.25061327999998 22.0422799  C 2.44587541999999 21.8470178  2.76245791000002 21.8470178  2.95772005999999 22.0422799  L 4.6875 23.7720599  L 6.41727989999998 22.0422799  C 6.61254209999998 21.8470178  6.92912460000002 21.8470178  7.1243867 22.0422799  L 8.85416670000001 23.7720599  L 10.5839466 22.0422799  C 10.7792088 21.8470178  11.0957912 21.8470178  11.2910534 22.0422799  L 13.0208333 23.7720599  L 14.7506133 22.0422799  C 14.9458754 21.8470178  15.2624579 21.8470178  15.4577201 22.0422799  L 16.6875 23.2720599  L 16.6875 1.72794010999999  L 15.4577201 2.95772006000001  C 15.2624579 3.1529822  14.9458754 3.1529822  14.7506133 2.95772006000001  Z M 13.0208333 15.6458333  L 14.0625 15.6458333  C 14.3386424 15.6458333  14.5625 15.869691  14.5625 16.1458333  C 14.5625 16.4219757  14.3386424 16.6458333  14.0625 16.6458333  L 13.0208333 16.6458333  C 12.744691 16.6458333  12.5208333 16.4219757  12.5208333 16.1458333  C 12.5208333 15.869691  12.744691 15.6458333  13.0208333 15.6458333  Z M 3.64583333000002 15.6458333  L 6.77083329999999 15.6458333  C 7.04697570000002 15.6458333  7.27083329999999 15.869691  7.27083329999999 16.1458333  C 7.27083329999999 16.4219757  7.04697570000002 16.6458333  6.77083329999999 16.6458333  L 3.64583333000002 16.6458333  C 3.36969096000001 16.6458333  3.14583333000002 16.4219757  3.14583333000002 16.1458333  C 3.14583333000002 15.869691  3.36969096000001 15.6458333  3.64583333000002 15.6458333  Z M 3.64583333000002 12.5208333  L 8.85416670000001 12.5208333  C 9.13030900000001 12.5208333  9.35416670000001 12.744691  9.35416670000001 13.0208333  C 9.35416670000001 13.2969757  9.13030900000001 13.5208333  8.85416670000001 13.5208333  L 3.64583333000002 13.5208333  C 3.36969096000001 13.5208333  3.14583333000002 13.2969757  3.14583333000002 13.0208333  C 3.14583333000002 12.744691  3.36969096000001 12.5208333  3.64583333000002 12.5208333  Z M 13.0208333 12.5208333  L 14.0625 12.5208333  C 14.3386424 12.5208333  14.5625 12.744691  14.5625 13.0208333  C 14.5625 13.2969757  14.3386424 13.5208333  14.0625 13.5208333  L 13.0208333 13.5208333  C 12.744691 13.5208333  12.5208333 13.2969757  12.5208333 13.0208333  C 12.5208333 12.744691  12.744691 12.5208333  13.0208333 12.5208333  Z M 3.64583333000002 9.39583332999999  L 7.8125 9.39583332999999  C 8.08864240000003 9.39583332999999  8.3125 9.61969096000001  8.3125 9.89583332999999  C 8.3125 10.1719757  8.08864240000003 10.3958333  7.8125 10.3958333  L 3.64583333000002 10.3958333  C 3.36969096000001 10.3958333  3.14583333000002 10.1719757  3.14583333000002 9.89583332999999  C 3.14583333000002 9.61969096000001  3.36969096000001 9.39583332999999  3.64583333000002 9.39583332999999  Z M 13.0208333 9.39583332999999  L 14.0625 9.39583332999999  C 14.3386424 9.39583332999999  14.5625 9.61969096000001  14.5625 9.89583332999999  C 14.5625 10.1719757  14.3386424 10.3958333  14.0625 10.3958333  L 13.0208333 10.3958333  C 12.744691 10.3958333  12.5208333 10.1719757  12.5208333 9.89583332999999  C 12.5208333 9.61969096000001  12.744691 9.39583332999999  13.0208333 9.39583332999999  Z M 3.64583333000002 6.27083332999999  L 9.89583329999999 6.27083332999999  C 10.1719757 6.27083332999999  10.3958333 6.49469096000001  10.3958333 6.77083332999999  C 10.3958333 7.04697571  10.1719757 7.27083332999999  9.89583329999999 7.27083332999999  L 3.64583333000002 7.27083332999999  C 3.36969096000001 7.27083332999999  3.14583333000002 7.04697571  3.14583333000002 6.77083332999999  C 3.14583333000002 6.49469096000001  3.36969096000001 6.27083332999999  3.64583333000002 6.27083332999999  Z M 13.0208333 6.27083332999999  L 14.0625 6.27083332999999  C 14.3386424 6.27083332999999  14.5625 6.49469096000001  14.5625 6.77083332999999  C 14.5625 7.04697571  14.3386424 7.27083332999999  14.0625 7.27083332999999  L 13.0208333 7.27083332999999  C 12.744691 7.27083332999999  12.5208333 7.04697571  12.5208333 6.77083332999999  C 12.5208333 6.49469096000001  12.744691 6.27083332999999  13.0208333 6.27083332999999  Z " fill-rule="nonzero" fill="#472c90" stroke="none" transform="matrix(1 0 0 1 288 199 )" />
  </g>
</svg>