<?xml version="1.0" encoding="utf-8"?>
<svg version="1.1" xmlns:xlink="http://www.w3.org/1999/xlink" width="25px" height="18px" xmlns="http://www.w3.org/2000/svg">
  <g transform="matrix(1 0 0 1 -175 -202 )">
    <path d="M 10.1880656 0  L 14.8133484 0  C 14.9335881 0  15.0494633 0.04523180999999  15.1381204 0.126774560000001  L 18.0865385 2.83894637  L 22.39819 2.83911671999999  C 23.7555561 2.83911671999999  24.911388 4.13483189999999  24.9951432 5.54617092999999  L 25 5.70946372  L 25 15.3880126  C 25 16.8261485  23.8312599 18  22.39819 18  L 2.60180994999999 18  C 1.16971604 18  0 16.8257084  0 15.3880126  L 0 5.70946372  C 0 4.23695056  1.19323969000001 2.83911671999999  2.60180994999999 2.83911671999999  L 6.91346154000001 2.83894637  L 9.86329361 0.126774560000001  C 9.92978643999999 0.0656174899999939  10.0115894 0.0248853399999973  10.0990613 0.00834158000000684  L 10.1880656 0  Z M 17.5753977 3.67764184999999  L 14.6259615 0.964334379999997  L 10.375 0.964334379999997  L 7.42601635 3.67764184999999  C 7.35952351 3.73879891000001  7.27772052 3.77953106999999  7.19024869000001 3.79607483000001  L 7.10124433999999 3.80441640000001  L 2.60180994999999 3.80441640000001  C 1.76005462000001 3.80441640000001  0.961538461999993 4.739847  0.961538461999993 5.70946372  L 0.961538461999993 15.3880126  C 0.961538461999993 16.2925881  1.70075907 17.0347003  2.60180994999999 17  L 22.39819 17  C 23.3001179 17.0347003  24.0384615 16.2931275  24.0384615 15.3880126  L 24.0384615 5.70946372  C 24.0384615 4.73923561000001  23.2408342 3.80441640000001  22.39819 3.80441640000001  L 17.9001697 3.80441640000001  C 17.77993 3.80441640000001  17.6640548 3.7591846  17.5753977 3.67764184999999  Z M 8.13122171999998 9.35488960000001  C 8.13122171999998 6.93202029  10.0871369 4.96845425999999  12.5005656 4.96845425999999  C 14.9139944 4.96845425999999  16.8699095 6.93202029  16.8699095 9.35488960000001  C 16.8699095 11.7777589  14.9139944 13.7413249  12.5005656 13.7413249  C 10.0871369 13.7413249  8.13122171999998 11.7777589  8.13122171999998 9.35488960000001  Z M 19.5707014 7.5804416  C 19.5707014 7.18864350000001  19.8874434 6.87066246000001  20.2777149 6.87066246000001  C 20.6679864 6.87066246000001  20.9847285 7.18864350000001  20.9847285 7.5804416  C 20.9847285 7.97223969999999  20.6679864 8.29022079999999  20.2777149 8.29022079999999  C 19.8874434 8.29022079999999  19.5707014 7.97223969999999  19.5707014 7.5804416  Z M 15.908371 9.35488960000001  C 15.908371 7.46514060000001  14.3829513 5.93375394  12.5005656 5.93375394  C 10.6181799 5.93375394  9.09276018 7.46514060000001  9.09276018 9.35488960000001  C 9.09276018 11.2446386  10.6181799 12.7760252  12.5005656 12.7760252  C 14.3829513 12.7760252  15.908371 11.2446386  15.908371 9.35488960000001  Z " fill-rule="nonzero" fill="#472c90" stroke="none" transform="matrix(1 0 0 1 175 202 )" />
  </g>
</svg>