<?xml version="1.0" encoding="utf-8"?>
<svg version="1.1" xmlns:xlink="http://www.w3.org/1999/xlink" width="13px" height="20px" xmlns="http://www.w3.org/2000/svg">
  <g transform="matrix(1 0 0 1 -42 -369 )">
    <path d="M 7.2222222 2.97520660999999  C 7.2222222 1.33249147999999  8.5157572 0  10.1111111 0  C 11.7059149 0  13 1.33275135999997  13 2.97520660999999  L 13 4.62809916999998  C 13 6.08888703999997  11.9772588 7.30396621  10.6293817 7.55553414999997  L 10.6296296 19.5041322  C 10.6296296 19.7779924  10.405772 20  10.1296296 20  C 9.8534873 20  9.6296296 19.7779924  9.6296296 19.5041322  L 9.6296241 7.56217686000002  C 8.263241 7.32613386000003  7.2222222 6.10242875  7.2222222 4.62809916999998  L 7.2222222 2.97520660999999  Z M 4.81481481 0.495867768999972  C 4.81481481 0.222007561999988  5.03038142 0  5.2962963 0  C 5.56221118 0  5.77777778 0.222007561999988  5.77777778 0.495867768999972  L 5.77777778 4.62809916999998  C 5.77777778 6.08856307000002  4.75549015 7.30342724000002  3.40805624 7.55536663999999  L 3.40740741 19.5041322  C 3.40740741 19.7779924  3.18354978 20  2.90740741 20  C 2.63126503 20  2.40740741 19.7779924  2.40740741 19.5041322  L 2.40752251 7.56219769  C 1.04108005 7.32620587000002  0 6.10247212000002  0 4.62809916999998  L 0 0.495867768999972  C 0 0.222007561999988  0.215566600000002 0  0.481481479999999 0  C 0.747396360000003 0  0.962962959999999 0.222007561999988  0.962962959999999 0.495867768999972  L 0.962962959999999 4.62809916999998  C 0.962962959999999 5.55233964000001  1.57655423 6.32879466999998  2.40715522 6.54903317999998  L 2.40740741 0.495867768999972  C 2.40740741 0.222007561999988  2.63126503 0  2.90740741 0  C 3.18354978 0  3.40740741 0.222007561999988  3.40740741 0.495867768999972  L 3.40836714 6.53852749999999  C 4.21948558 6.30494511000001  4.81481481 5.53795945000002  4.81481481 4.62809916999998  L 4.81481481 0.495867768999972  Z M 12.037037 2.97520660999999  C 12.037037 1.88047177999999  11.1740851 0.991735537000011  10.1111111 0.991735537000011  C 9.0476365 0.991735537000011  8.1851852 1.88016077999998  8.1851852 2.97520660999999  L 8.1851852 4.62809916999998  C 8.1851852 5.72366045000001  9.0473346 6.61157025  10.1111111 6.61157025  C 11.1743871 6.61157025  12.037037 5.72334952  12.037037 4.62809916999998  L 12.037037 2.97520660999999  Z " fill-rule="nonzero" fill="#970061" stroke="none" transform="matrix(1 0 0 1 42 369 )" />
  </g>
</svg>