<?xml version="1.0" encoding="utf-8"?>
<svg version="1.1" xmlns:xlink="http://www.w3.org/1999/xlink" width="20px" height="30px" xmlns="http://www.w3.org/2000/svg">
  <g transform="matrix(1 0 0 1 -176 -711 )">
    <path d="M 0 9.9579831866351  C 0 4.45808690849356  4.45767633 0  9.9579832 0  C 15.4574545 0  19.9159664 4.45851188849336  19.9159664 9.9579831866351  C 19.9159664 11.7644961960247  18.9035334 14.5825780950723  17.1026984 18.2005804938497  L 16.6896261 19.0176624935737  C 16.20844 19.9555627932568  15.6847466 20.9295285929276  15.1250677 21.931577592589  C 14.0868116 23.7904713919608  12.9749724 25.6582426913297  11.8631638 27.4440542907262  L 11.4101015 28.167075690482  L 10.7881678 29.143422690152  L 10.3787088 29.773663889939  C 10.1975182 30.0480106898463  9.81506959999999 30.0729512898379  9.59728659999999 29.8484857899138  L 9.5372576 29.773663889939  L 8.50586480000001 28.167075690482  L 8.05280260000001 27.4440542907262  C 6.94099399999999 25.6582426913297  5.8291548 23.7904713919608  4.79089868 21.931577592589  C 4.23121982000001 20.9295285929276  3.70752641999999 19.9555627932568  3.22634024000001 19.0176624935737  L 2.81326795000001 18.2005804938497  C 1.01243301 14.5825780950723  0 11.7644961960247  0 9.9579831866351  Z M 18.907563 9.9579831866351  C 18.907563 5.01543768830521  14.9005287 1.00840335965923  9.9579832 1.00840335965923  C 5.01462290000001 1.00840335965923  1.00840335999999 5.01499191830541  1.00840335999999 9.9579831866351  C 1.00840335999999 11.6813809960527  2.13890789999999 14.6889954950364  4.12355292999999 18.5573508937292  C 4.59904255000001 19.484147793416  5.11715849999999 20.4477407930904  5.6712862 21.4398508927552  C 6.70104480000001 23.2835306921322  7.80493559999999 25.1379494915055  8.90885710000001 26.9110927909063  L 9.35063880000001 27.6161964906681  L 9.9579832 28.5700498903457  L 10.5653276 27.6161964906681  L 11.0071093 26.9110927909063  C 12.1110308 25.1379494915055  13.2149216 23.2835306921322  14.2446802 21.4398508927552  C 14.7988078 20.4477407930904  15.3169238 19.484147793416  15.7924135 18.5573508937292  C 17.7770585 14.6889954950364  18.907563 11.6813809960527  18.907563 9.9579831866351  Z M 5.67226890000001 9.9579831866351  C 5.67226890000001 7.59171595743463  7.59127409999999 5.67226890808321  9.9579832 5.67226890808321  C 12.3238411 5.67226890808321  14.2436975 7.59212533743456  14.2436975 9.9579831866351  C 14.2436975 12.3246922958353  12.3242504 14.2436974951869  9.9579832 14.2436974951869  C 7.59086479999999 14.2436974951869  5.67226890000001 12.3251015958352  5.67226890000001 9.9579831866351  Z M 13.2352941 9.9579831866351  C 13.2352941 8.14905112724629  11.7669153 6.68067226774244  9.9579832 6.68067226774244  C 8.14825189999999 6.68067226774244  6.6806723 8.14858978724643  6.6806723 9.9579831866351  C 6.6806723 11.7681757960233  8.14779060000001 13.2352940955276  9.9579832 13.2352940955276  C 11.7673766 13.2352940955276  13.2352941 11.7677144960235  13.2352941 9.9579831866351  Z " fill-rule="nonzero" fill="#00c5c6" stroke="none" transform="matrix(1 0 0 1 176 711 )" />
  </g>
</svg>