<?xml version="1.0" encoding="utf-8"?>
<svg version="1.1" xmlns:xlink="http://www.w3.org/1999/xlink" width="375px" height="150px" xmlns="http://www.w3.org/2000/svg">
  <g>
    <path d="M 2.31827615 1.08284694  L 2.50919914 1.00367966  C 5.43813133 -0.167893219  10.1868687 -0.167893219  13.1158009 1.00367966  L 187.4995 70.757  L 361.884199 1.00367966  C 364.704652 -0.124501631  369.212607 -0.166286123  372.15806 0.87832618  L 372.490801 1.00367966  C 375.419733 2.17525253  375.419733 4.07474747  372.490801 5.24632034  L 198.1065 75  L 372.490801 144.75368  C 375.354646 145.899218  375.418287 147.740685  372.681724 148.917153  L 372.490801 148.99632  C 369.561869 150.167893  364.813131 150.167893  361.884199 148.99632  L 187.4995 79.242  L 13.1158009 148.99632  C 10.2953476 150.124502  5.78739335 150.166286  2.84194005 149.121674  L 2.50919914 148.99632  C -0.419733047 147.824747  -0.419733047 145.925253  2.50919914 144.75368  L 176.8925 75  L 2.50919914 5.24632034  C -0.354645665 4.10078242  -0.418286661 2.25931506  2.31827615 1.08284694  Z " fill-rule="nonzero" fill="#00c5c6" stroke="none" />
  </g>
</svg>