<?xml version="1.0" encoding="utf-8"?>
<svg version="1.1" xmlns:xlink="http://www.w3.org/1999/xlink" width="25px" height="25px" xmlns="http://www.w3.org/2000/svg">
  <g transform="matrix(1 0 0 1 -326 -60 )">
    <path d="M 0.109424492000016 0.23652783  L 0.167279942999983 0.167279942999997  C 0.362542088999987 -0.0279822031000023  0.679124578000028 -0.0279822031000023  0.874386723999976 0.167279942999997  L 12.4998333 11.7928333  L 24.1256133 0.167279942999997  C 24.2991796 -0.00628640915000034  24.568604 -0.0255715593999994  24.7634722 0.109424492000002  L 24.8327201 0.167279942999997  C 25.0279822 0.362542089000002  25.0279822 0.679124578  24.8327201 0.874386723999997  L 13.2068333 12.4998333  L 24.8327201 24.1256133  C 25.0062864 24.2991796  25.0255716 24.568604  24.8905755 24.7634722  L 24.8327201 24.8327201  C 24.6374579 25.0279822  24.3208754 25.0279822  24.1256133 24.8327201  L 12.4998333 13.2068333  L 0.874386723999976 24.8327201  C 0.70082037200001 25.0062864  0.431395970999972 25.0255716  0.23652783 24.8905755  L 0.167279942999983 24.8327201  C -0.0279822031000094 24.6374579  -0.0279822031000094 24.3208754  0.167279942999983 24.1256133  L 11.7928333 12.4998333  L 0.167279942999983 0.874386723999997  C -0.00628640914999323 0.700820372000003  -0.0255715594000208 0.431395971000001  0.109424492000016 0.23652783  Z " fill-rule="nonzero" fill="#ffffff" stroke="none" transform="matrix(1 0 0 1 326 60 )" />
  </g>
</svg>