<?xml version="1.0" encoding="utf-8"?>
<svg version="1.1" xmlns:xlink="http://www.w3.org/1999/xlink" width="25px" height="25px" xmlns="http://www.w3.org/2000/svg">
  <g transform="matrix(1 0 0 1 -326 -60 )">
    <path d="M 5.93318076999998 2.85703346  C 7.00956294000002 1.06306318  9.13568929000002 0  12.4995833 0  C 15.8634774 0  17.9896037 1.06306318  19.0659859 2.85703346  C 19.4054598 3.42282327  19.6156293 4.02551536999999  19.7217497 4.63570742  C 19.7791247 4.96561364999999  19.8011191 5.26389901  19.7997754 5.51713888  L 19.7921302 5.73513684  L 19.7756992 5.85548729999999  L 19.416 7.291  L 19.79125 7.29166667  C 20.8913919 7.29166667  21.7930267 8.14546922  21.86935 9.22626993999999  L 21.8745833 9.375  C 21.8745833 10.1464109  21.4547937 10.8202218  20.8313089 11.1803383  L 20.8228024 12.0813105  C 20.5760831 13.3149071  19.5303223 14.4777651  18.3854216 14.5765513  L 18.22875 14.5833333  L 14.9631348 14.5846069  C 14.8020863 14.8621054  14.5165945 15.0584171  14.1830428 15.0971586  L 14.0615625 15.1041667  L 11.9782292 15.1041667  C 11.4029326 15.1041667  10.9365625 14.6377966  10.9365625 14.0625  C 10.9365625 13.528296  11.3386877 13.0880134  11.8567488 13.0278414  L 11.9782292 13.0208333  L 14.0615625 13.0208333  C 14.4470911 13.0208333  14.7837024 13.2302737  14.9638235 13.5415817  L 18.22875 13.5416667  C 18.829896 13.5416667  19.5369557 12.8241908  19.7544542 12.1196796  L 19.79125 11.9791667  L 19.79125 11.4583333  L 18.7495833 11.4583333  C 18.461935 11.4583333  18.22875 11.2251483  18.22875 10.9375  L 18.22875 7.8125  C 18.22875 7.80739985  18.2288233 7.80231682999999  18.2289689 7.79725191999999  C 18.2290456 7.79121497  18.2293361 7.78513227000001  18.2297353 7.77903972999999  L 18.2329228 7.74625734  C 18.234804 7.73143689  18.2373081 7.71681076  18.2404079 7.70240602  L 18.2443008 7.68617936  L 18.7522174 5.67694075  L 18.7543915 5.64293628999999  C 18.7885057 5.00329484  18.6454627 4.18079756  18.1727641 3.39296654  C 17.2960213 1.93172849  15.5158976 1.04166667  12.4995833 1.04166667  C 9.48326903999998 1.04166667  7.70314538999997 1.93172849  6.82640257000003 3.39296654  C 6.40097380999998 4.10201446000001  6.24256610999998 4.83914205000001  6.24000811000002 5.4457757  L 6.24593750000003 5.66770833  L 6.76333017000002 8.76854219000001  C 6.79554979 8.96185993  6.71646851000003 9.15381304  6.56442910999999 9.26910513  L 6.48250708 9.32001416  C 5.88728596999999 9.61762471999999  6.32029276999998 11.3086533  7.17713415999998 11.4490557  L 7.29124999999999 11.4583333  C 7.57889831 11.4583333  7.81208333000001 11.6915184  7.81208333000001 11.9791667  C 7.81208333000001 13.357606  8.78489122999997 14.7296729  9.96322056999998 15.6297842  C 10.0612648 15.6620535  10.1473513 15.7246343  10.2097659 15.8085584  C 10.9773178 16.3405121  11.8070437 16.6666667  12.4995833 16.6666667  C 13.0935786 16.6666667  14.1088402 16.2895773  14.9420706 15.6956698  L 14.9521958 15.6877785  C 15.0148628 15.6454915  15.0864721 15.6169216  15.1619996 15.604871  C 15.1740704 15.6034842  15.1857309 15.602042  15.1974064 15.600996  L 15.2936362 15.6008454  L 15.3460852 15.6089845  C 15.3568031 15.6111165  15.3674562 15.6135842  15.3780274 15.6163846  L 15.3859894 15.6183408  L 21.9577741 17.4858317  C 23.7171365 18.14517  24.9058185 19.7873706  24.994653 21.650052  L 25 21.8745833  L 25 24.47875  C 25 24.7344374  24.815755 24.9470921  24.5727871 24.991192  L 24.4791667 25  L 0.520833332999985 25  C 0.265145948999987 24.9995833  0.0524912809000284 24.8153384  0.00839132230998985 24.5723705  L 0 24.47875  L 0 21.8745833  C 0 19.9952241  1.12028470000001 18.3062612  2.86955053000003 17.5575807  L 3.08245010000002 17.4723004  L 8.67139362 15.8960706  C 7.73652645999999 15.0000814  7.01658250999998 13.849867  6.82239557000003 12.628213  L 6.79489582999997 12.4270833  L 6.69672163000001 12.3971383  C 5.31371508000001 11.900827  4.70919765999997 9.73636173  5.57861508000002 8.72825251  L 5.68239583000002 8.61979167  L 5.21050145999999 5.78099152  L 5.20458681999997 5.698413  C 5.18926161000002 5.41106538  5.20569823 5.04809021  5.27741696999999 4.63570742  C 5.38353733000002 4.02551536999999  5.59370688000001 3.42282327  5.93318076999998 2.85703346  Z M 15.5466794 16.5439136  L 15.336 16.687  L 21.6327606 18.4745759  L 21.8185217 18.5506283  C 23.099115 19.1185506  23.9583333 20.4237503  23.9583333 21.8745833  L 23.9573958 24  L 1.04072917000002 24  L 1.04166666999998 21.8745833  L 1.04746404000002 21.6683272  C 1.12832371000002 20.2323722  2.04864567999999 18.9702079  3.40673240000001 18.4612516  L 9.66252299000001 16.6979299  C 10.5928589 17.3283339  11.612006 17.7083333  12.4995833 17.7083333  C 13.3292054 17.7083333  14.5482984 17.2555368  15.5466794 16.5439136  Z M 20.8329167 9.375  C 20.8329167 8.80014831  20.3661017 8.33333333  19.79125 8.33333333  L 19.2698958 8.33333333  L 19.2698958 10.4166667  L 19.79125 10.4166667  C 20.3661017 10.4166667  20.8329167 9.94985169  20.8329167 9.375  Z M 14.7154143 8.33263574999999  C 15.1643847 8.32905024  15.3307838 8.34024411999999  15.5565829 8.43020980999999  C 15.939796 8.58289436  16.1454167 8.92196896  16.1454167 9.375  C 16.1454167 9.66264830999999  15.9122316 9.89583333  15.6245833 9.89583333  C 15.3688959 9.89583333  15.1562413 9.71158837  15.1121413 9.46862045  L 15.1042708 9.38333333  L 15.0671823 9.3800407  C 15.0148276 9.37607942  14.9415653 9.37406489  14.8378933 9.37386673  L 14.2340527 9.37467517  C 14.1965173 9.37530787  14.1643631 9.37630793  14.1367559 9.37768681999999  L 14.0605208 9.38333333  L 14.053692 9.46862045  C 14.0151045 9.68121737999999  13.8474674 9.84885455  13.6348705 9.88744201  L 13.54125 9.89583333  C 13.2536017 9.89583333  13.0204167 9.66264830999999  13.0204167 9.375  C 13.0204167 8.92196896  13.2260374 8.58289436  13.6092505 8.43020980999999  C 13.8068247 8.35148983000001  13.9589207 8.33307952  14.2946328 8.33210895000001  L 14.7154143 8.33263574999999  Z M 10.5487476 8.33263574999999  C 10.997718 8.32905024  11.1641171 8.34024411999999  11.3899162 8.43020980999999  C 11.7731293 8.58289436  11.97875 8.92196896  11.97875 9.375  C 11.97875 9.66264830999999  11.745565 9.89583333  11.4579167 9.89583333  C 11.2022293 9.89583333  10.9895746 9.71158837  10.9454747 9.46862045  L 10.9376042 9.38333333  L 10.9005156 9.3800407  C 10.8481609 9.37607942  10.7748986 9.37406489  10.6712266 9.37386673  L 10.067386 9.37467517  C 10.0110829 9.37562421  9.96688753000001 9.37739984  9.93198439000003 9.3800407  L 9.89385417 9.38333333  L 9.88702533999998 9.46862045  C 9.84843788000001 9.68121737999999  9.68080071999998 9.84885455  9.46820378000001 9.88744201  L 9.37458333000001 9.89583333  C 9.08693503000001 9.89583333  8.85374999999999 9.66264830999999  8.85374999999999 9.375  C 8.85374999999999 8.92196896  9.05937069999999 8.58289436  9.44258380999997 8.43020980999999  C 9.64015802 8.35148983000001  9.79225407000001 8.33307952  10.1279661 8.33210895000001  L 10.5487476 8.33263574999999  Z M 12.1312986 3.79838188  C 12.3346966 3.59498382  12.66447 3.59498382  12.8678681 3.79838188  C 12.9515891 3.88210288  13.0223214 3.97522188  13.0984482 4.09364120000001  L 13.3147673 4.44741899  C 13.3959458 4.57526973  13.4718022 4.67788091  13.5595814 4.77422396  C 14.1081411 5.37630161999999  15.156281 5.72916667  17.1870833 5.72916667  C 17.4747316 5.72916667  17.7079167 5.96235169000001  17.7079167 6.25  C 17.7079167 6.53764830999999  17.4747316 6.77083333  17.1870833 6.77083333  C 14.888719 6.77083333  13.5628332 6.32446277  12.7895852 5.47577604  C 12.7012081 5.37877671  12.6226451 5.28002056  12.5471573 5.17309483  L 12.4990625 5.10104167  L 12.4520094 5.17309483  L 12.3356289 5.32815784  L 12.2095814 5.47577604  C 11.4363335 6.32446277  10.1104476 6.77083333  7.81208333000001 6.77083333  C 7.52443503000001 6.77083333  7.29124999999999 6.53764830999999  7.29124999999999 6.25  C 7.29124999999999 5.96235169000001  7.52443503000001 5.72916667  7.81208333000001 5.72916667  C 9.84288571000002 5.72916667  10.8910256 5.37630161999999  11.4395852 4.77422396  C 11.4981047 4.70999526  11.5513252 4.64298072  11.6043562 4.56755919  L 11.6843993 4.44741899  C 11.7198239 4.39162758000001  11.8616022 4.15448875999999  11.9007185 4.09364120000001  C 11.9768452 3.97522188  12.0475776 3.88210288  12.1312986 3.79838188  Z " fill-rule="nonzero" fill="#ffffff" stroke="none" transform="matrix(1 0 0 1 326 60 )" />
  </g>
</svg>