<?xml version="1.0" encoding="utf-8"?>
<svg version="1.1" xmlns:xlink="http://www.w3.org/1999/xlink" width="15px" height="15px" xmlns="http://www.w3.org/2000/svg">
  <g transform="matrix(1 0 0 1 -40 -825 )">
    <path d="M 7.15506986 0.832735015000026  C 6.96457021000001 0.642235361000019  6.96457021000001 0.333374395000021  7.15506986 0.142874741000014  C 7.34556952 -0.0476249135999751  7.65443048 -0.0476249135999751  7.84493014 0.142874741000014  L 14.8571253 7.15506986000003  C 15.0476249 7.34556952000003  15.0476249 7.65443047999997  14.8571253 7.84493013999997  L 7.84493014 14.8571253  C 7.65443048 15.0476249  7.34556952 15.0476249  7.15506986 14.8571253  C 6.96457021000001 14.6666256  6.96457021000001 14.3577646  7.15506986 14.167265  L 13.8223348 7.5  L 7.15506986 0.832735015000026  Z M 0.142874741 0.832735015000026  C -0.0476249136000035 0.642235361000019  -0.0476249136000035 0.333374395000021  0.142874741 0.142874741000014  C 0.333374395000007 -0.0476249135999751  0.642235361000004 -0.0476249135999751  0.832735014999997 0.142874741000014  L 7.84493014 7.15506986000003  C 8.03542978999999 7.34556952000003  8.03542978999999 7.65443047999997  7.84493014 7.84493013999997  L 0.832735014999997 14.8571253  C 0.642235361000004 15.0476249  0.333374395000007 15.0476249  0.142874741 14.8571253  C -0.0476249136000035 14.6666256  -0.0476249136000035 14.3577646  0.142874741 14.167265  L 6.81013973 7.5  L 0.142874741 0.832735015000026  Z " fill-rule="nonzero" fill="#472c90" stroke="none" transform="matrix(1 0 0 1 40 825 )" />
  </g>
</svg>