<?xml version="1.0" encoding="utf-8"?>
<svg version="1.1" xmlns:xlink="http://www.w3.org/1999/xlink" width="31px" height="30px" xmlns="http://www.w3.org/2000/svg">
  <g transform="matrix(1 0 0 1 -40 -562 )">
    <path d="M 0 15  C 0 6.71572875000004  6.71572875 0  15 0  C 17.1498981 0  19.2369079 0.452878527000053  21.1552928 1.31717256000002  C 21.4070628 1.43060304000005  21.5192091 1.72665653000001  21.4057787 1.97842653999999  C 21.2923482 2.23019654999996  20.9962947 2.34234289999995  20.7445247 2.22891242000003  C 18.9546404 1.42251203000001  17.0075692 1  15 1  C 7.2680135 1  1 7.26801350000005  1 15  C 1 22.7319864999999  7.2680135 29  15 29  C 22.7319865 29  29 22.7319864999999  29 15  C 29 13.0769481999999  28.6123529 11.2090856  27.8702804 9.48094987000002  C 27.7613237 9.22721175000004  27.8786922 8.93318944999999  28.1324303 8.82423269000003  C 28.3861684 8.71527591999995  28.6801907 8.83264441000006  28.7891475 9.08638253000004  C 29.5845049 10.9386082  30 12.9406552  30 15  C 30 23.2842712  23.2842712 30  15 30  C 6.71572875 30  0 23.2842712  0 15  Z M 21.6513926 4.20749494999995  L 25.8308359 0.142568728000015  C 26.147768 -0.165679339000008  26.6794447 0.0588867868999614  26.6794447 0.500998521000042  L 26.6790014 3.39099852000004  L 29.5965609 3.22881762999998  C 30.0217477 3.20521919999999  30.2666742 3.68104616000005  30.038026 4.00975735999998  L 29.9816745 4.07770807999998  L 25.6963676 8.45795711000005  C 25.5688982 8.58825062000005  25.3806247 8.63885375999996  25.2050108 8.59002135000003  L 22.724 7.89999999999998  L 15.9686863 14.7316885  C 15.7745079 14.9280283000001  15.4579302 14.9297806  15.2615903 14.7356021000001  C 15.087066 14.5629991  15.0662899 14.2936856  15.2002053 14.0980732  L 15.2576766 14.0285062  L 22.025 7.18399999999997  L 21.5101441 4.66612401999998  C 21.4828234 4.53255776000003  21.5114302 4.39521726999999  21.5865135 4.28478984000003  L 21.6513926 4.20749494999995  Z M 6 15  C 6 10.0294373  10.0294373 6  15 6  C 16.310127 6  17.5815965 6.28043543000001  18.7473751 6.81499262  C 18.9983867 6.93009170000005  19.1085655 7.22688302999995  18.9934665 7.47789461000002  C 18.8783674 7.72890618999998  18.5815761 7.83908503999999  18.3305645 7.72398596000005  C 17.2949088 7.24909542  16.165532 7  15 7  C 10.581722 7  7 10.581722  7 15  C 7 19.418278  10.581722 23  15 23  C 19.418278 23  23 19.418278  23 15  C 23 13.8001346999999  22.7359911 12.6387295  22.2337769 11.57883  C 22.1155341 11.3292839  22.2219763 11.0311321  22.4715224 10.9128892  C 22.7210684 10.7946463  23.0192203 10.9010886  23.1374631 11.1506346  C 23.7027653 12.3436784  24 13.6512478  24 15  C 24 19.9705627  19.9705627 24  15 24  C 10.0294373 24  6 19.9705627  6 15  Z M 11 15  C 11 12.7908609999999  12.790861 11  15 11  C 15.2024773 11  15.4032391 11.0150844  15.6010895 11.0449335  C 15.8741419 11.0861281  16.0620997 11.3408757  16.0209051 11.6139281  C 15.9797105 11.8869805  15.7249629 12.0749384  15.4519105 12.0337436999999  C 15.3033958 12.0113377  15.1524992 12  15 12  C 13.3431458 12  12 13.3431458  12 15  C 12 16.6568542  13.3431458 18  15 18  C 16.6568542 18  18 16.6568542  18 15  C 18 14.8103526  17.9824657 14.6232116  17.9479364 14.4401041  C 17.8967651 14.1687444  18.0752631 13.9072813  18.3466228 13.8561099999999  C 18.6179826 13.8049387  18.8794456 13.9834367  18.930617 14.2547964  C 18.9766532 14.4989248000001  19 14.7481019000001  19 15  C 19 17.2091390000001  17.209139 19  15 19  C 12.790861 19  11 17.2091390000001  11 15  Z M 25.6794447 3.91924162999999  L 25.6790014 1.68499852000002  L 22.5440014 4.73299852000002  L 22.9950014 6.93699851999997  L 25.1880014 7.54699851999999  L 28.3660014 4.29799851999996  L 26.2071527 4.41847329999996  C 25.9492211 4.43278884999995  25.7281229 4.24945450999996  25.6864826 4.00339830999997  L 25.6794447 3.91924162999999  Z " fill-rule="nonzero" fill="#0c96df" stroke="none" transform="matrix(1 0 0 1 40 562 )" />
  </g>
</svg>