<?xml version="1.0" encoding="utf-8"?>
<svg version="1.1" xmlns:xlink="http://www.w3.org/1999/xlink" width="19px" height="25px" xmlns="http://www.w3.org/2000/svg">
  <g transform="matrix(1 0 0 1 -328 -141 )">
    <path d="M 0.53773584999999 8  L 6.13915093999998 8  C 6.43613425000001 8  6.67688679000003 8.22890705  6.67688679000003 8.51127819999999  C 6.67688679000003 8.79364935000001  6.43613425000001 9.02255639000001  6.13915093999998 9.02255639000001  L 1 9.02255639000001  L 1 24  L 18 24  L 18 9.02255639000001  L 12.8608491 9.02255639000001  C 12.5638657 9.02255639000001  12.3231132 8.79364935000001  12.3231132 8.51127819999999  C 12.3231132 8.22890705  12.5638657 8  12.8608491 8  L 18.4622642 8  C 18.7592475 8  19 8.22890705  19 8.51127819999999  L 19 24.4887218  C 19 24.771093  18.7592475 25  18.4622642 25  L 0.53773584999999 25  C 0.240752540000017 25  0 24.771093  0 24.4887218  L 0 8.51127819999999  C 0 8.22890705  0.240752540000017 8  0.53773584999999 8  Z M 9.48956440000001 0.000101573389997611  L 9.5 0  C 9.50379220000002 0  9.5075746 4.35481092893042E-05  9.51134660000002 0.000130185968004071  C 9.53420699999998 0.000607543392987964  9.5569592 0.00254536617998724  9.57953359999999 0.00593531038001061  C 9.58642029999999 0.00763141432000225  9.5927853 0.00881969501000412  9.59910710000003 0.0101309696999863  C 9.69982019999998 0.0281258439999874  9.796539 0.0765714995999929  9.87485179999999 0.154493126000006  L 14.8447313 5.09954807  C 15.0517562 5.30553891  15.0517562 5.63951603999999  14.8447313 5.84550687000001  C 14.6377064 6.05149771000001  14.3020527 6.05149771000001  14.0950277 5.84550687000001  L 10 1.77000000000001  L 10 14.4842407  C 10 14.7374371  9.82312480000002 14.9480201  9.58987560000003 14.9916904  L 9.5 15  C 9.22385759999997 15  9 14.7690867  9 14.4842407  L 9 1.77000000000001  L 4.90497226999997 5.84550687000001  C 4.72095010999999 6.02860984  4.43529532999997 6.04895461000001  4.22868813999997 5.90654119999999  L 4.15526869000001 5.84550687000001  C 3.94824376999998 5.63951603999999  3.94824376999998 5.30553891  4.15526869000001 5.09954807  L 9.12514820000001 0.154493126000006  C 9.203461 0.0765714995999929  9.30017980000002 0.0281258439999874  9.4013794 0.00915615956000693  C 9.43292700000001 0.00348643685001093  9.46606880000002 0  9.5 0  L 9.42046640000001 0.00593531038001061  C 9.44336909999998 0.00249606797999036  9.46645480000001 0.000551488980988779  9.48956440000001 0.000101573389997611  Z " fill-rule="nonzero" fill="#ffffff" stroke="none" transform="matrix(1 0 0 1 328 141 )" />
  </g>
</svg>