<?xml version="1.0" encoding="utf-8"?>
<svg version="1.1" xmlns:xlink="http://www.w3.org/1999/xlink" width="30px" height="30px" xmlns="http://www.w3.org/2000/svg">
  <g transform="matrix(1 0 0 1 -40 -322 )">
    <path d="M 21.302521 30  L 8.69747899 30  C 8.41901609 30  8.19327731 29.7742603  8.19327731 29.4957962  L 8.19327731 28.8655415  C 8.19327731 27.9479513  8.88740317 27.0277576  9.77038434 26.7735662  L 12.605042 25.9641391  L 12.6055467 24.8533212  C 11.4624744 24.0205493  10.7142857 22.60866  10.7142857 21.0139538  C 10.7142857 18.4671491  12.6225613 16.3866235  15 16.3866235  C 17.3765853 16.3866235  19.2857143 18.4676004  19.2857143 21.0139538  C 19.2857143 22.6079477  18.5375945 24.0195769  17.3950023 24.8525292  L 17.394958 25.9641803  L 20.2291566 26.7737958  C 21.1122065 27.0275276  21.8067227 27.9475787  21.8067227 28.8655415  L 21.8067227 29.4957962  C 21.8067227 29.7742603  21.5809839 30  21.302521 30  Z M 2.5210084 4.62733036999998  C 2.5210084 2.08052563000001  4.42928398 0  6.80672269 0  C 9.18330802 0  11.092437 2.08097687999998  11.092437 4.62733036999998  C 11.092437 6.22128150999998  10.3443572 7.63287786000001  9.20181676 8.46583879000002  L 9.20168067 9.57717867999997  L 12.0358793 10.3867941  C 12.9189292 10.640526  13.6134454 11.5605771  13.6134454 12.4785398  L 13.6134454 13.1087946  C 13.6134454 13.3872586  13.3877066 13.6129984  13.1092437 13.6129984  L 7.436 13.612  L 7.43697479 13.6133765  L 0.504201680999998 13.6133765  C 0.225738782000001 13.6133765  0 13.3876368  0 13.1091727  L 0 12.478918  C 0 11.5613278  0.694125855999999 10.6411341  1.57710703 10.3869427  L 4.41176471 9.57751560999998  L 4.41125341 8.46595733999999  C 3.26875375 7.63308917000001  2.5210084 6.22156397999998  2.5210084 4.62733036999998  Z M 18.907563 4.62733036999998  C 18.907563 2.08052563000001  20.8158386 0  23.1932773 0  C 25.5698626 0  27.4789916 2.08097687999998  27.4789916 4.62733036999998  C 27.4789916 6.22128150999998  26.7309119 7.63287786000001  25.5883714 8.46583879000002  L 25.5882353 9.57681846999998  L 28.4215871 10.3873079  C 29.3049912 10.6394716  30 11.5596771  30 12.4780356  L 30 13.1082904  C 30 13.3867544  29.7742612 13.6124942  29.4957983 13.6124942  L 23.823 13.612  L 23.8235294 13.6133765  L 16.8907563 13.6133765  C 16.6122934 13.6133765  16.3865546 13.3876368  16.3865546 13.1091727  L 16.3865546 12.478918  C 16.3865546 11.5613278  17.0806805 10.6411341  17.9636616 10.3869427  L 20.7983193 9.57751560999998  L 20.7978998 8.46602422000001  C 19.6553484 7.63316473999998  18.907563 6.22160666000002  18.907563 4.62733036999998  Z M 9.20168067 29  L 20.7983193 29  L 20.7983193 28.8655415  C 20.7983193 28.3977109  20.4019783 27.8726634  19.9514263 27.7432031  L 16.7522667 26.8293337  C 16.5357995 26.7674979  16.3865546 26.5696493  16.3865546 26.3445225  L 16.3865474 25.3942086  C 15.9521088 25.5543254  15.4858213 25.6412842  15 25.6412842  C 14.5140042 25.6412842  14.0476136 25.5543443  13.6131214 25.3942536  L 13.6134454 26.3445225  C 13.6134454 26.5696687  13.4641752 26.7675294  13.2476829 26.8293481  L 10.0483077 27.7429179  C 9.59791247 27.8725776  9.20168067 28.397857  9.20168067 28.8655415  L 9.20168067 29  Z M 18.2773109 21.0139538  C 18.2773109 19.0060517  16.7993291 17.3950311  15 17.3950311  C 13.1998741 17.3950311  11.7226891 19.0055538  11.7226891 21.0139538  C 11.7226891 23.0223538  13.1998741 24.6328766  15 24.6328766  C 16.7993291 24.6328766  18.2773109 23.021856  18.2773109 21.0139538  Z M 24.5798247 9.00758510000003  C 24.1453861 9.16770193000002  23.6790986 9.25466073000001  23.1932773 9.25466073000001  C 22.7072816 9.25466073000001  22.2408909 9.16772078999998  21.8063987 9.00763010000003  L 21.8067227 9.95789897999998  C 21.8067227 10.1830452  21.6574525 10.380906  21.4409602 10.4427246  L 18.241585 11.3562944  C 17.7911898 11.4859542  17.394958 12.0112335  17.394958 12.478918  L 17.394958 13  L 28.9915966 13  L 28.9915966 12.4780356  C 28.9915966 12.0102096  28.5953707 11.4855986  28.1445271 11.3569073  L 24.9453674 10.4417774  C 24.7289883 10.3798814  24.5798319 10.1820754  24.5798319 9.95701663  L 24.5798247 9.00758510000003  Z M 8.19342664 9.00752739000001  C 7.7589435 9.16768103999999  7.29260236 9.25466073000001  6.80672269 9.25466073000001  C 6.32072693 9.25466073000001  5.85433632 9.16772078999998  5.41984404 9.00763010000003  L 5.42016807 9.95789897999998  C 5.42016807 10.1830452  5.27089784 10.380906  5.05440558 10.4427246  L 1.8550304 11.3562944  C 1.40463516 11.4859542  1.00840336 12.0112335  1.00840336 12.478918  L 1.00840336 13  L 12.605042 13  L 12.605042 12.4785398  C 12.605042 12.0107093  12.208701 11.4856618  11.758149 11.3562015  L 8.55898937 10.4423321  C 8.34252223 10.3804962  8.19327731 10.1826477  8.19327731 9.95752083000002  L 8.19342664 9.00752739000001  Z M 10.0840336 4.62733036999998  C 10.0840336 2.61942821999997  8.60605174 1.0084076  6.80672269 1.0084076  C 5.00659677 1.0084076  3.52941176 2.61893036999999  3.52941176 4.62733036999998  C 3.52941176 6.63573036000003  5.00659677 8.24625314000002  6.80672269 8.24625314000002  C 8.60605174 8.24625314000002  10.0840336 6.63523251999999  10.0840336 4.62733036999998  Z M 26.4705882 4.62733036999998  C 26.4705882 2.61942821999997  24.9926064 1.0084076  23.1932773 1.0084076  C 21.3931514 1.0084076  19.9159664 2.61893036999999  19.9159664 4.62733036999998  C 19.9159664 6.63573036000003  21.3931514 8.24625314000002  23.1932773 8.24625314000002  C 24.9926064 8.24625314000002  26.4705882 6.63523251999999  26.4705882 4.62733036999998  Z " fill-rule="nonzero" fill="#0c96df" stroke="none" transform="matrix(1 0 0 1 40 322 )" />
  </g>
</svg>