<?xml version="1.0" encoding="utf-8"?>
<svg version="1.1" xmlns:xlink="http://www.w3.org/1999/xlink" width="22px" height="30px" xmlns="http://www.w3.org/2000/svg">
  <g transform="matrix(1 0 0 1 -44 -262 )">
    <path d="M 1.021 28.332  L 14.3982941 16.009695  C 14.6049131 15.8193583  14.9281424 15.8310164  15.1202469 16.035734  C 15.3123514 16.2404517  15.3005851 16.5607065  15.093966 16.7510431  L 1.81 28.987  L 9.501548 28.9877301  C 9.7523274 28.9877301  9.9609002 29.1667755  10.0041537 29.4028867  L 10.0123839 29.4938651  C 10.0123839 29.7733957  9.7836749 30  9.501548 30  L 0.510835909999997 30  C 0.505324279999996 30  0.499833029999998 29.9999135  0.494363469999996 29.9997418  C 0.472569849999999 29.9990562  0.450430779999998 29.9969396  0.42848987 29.9934046  C 0.417336429999999 29.991654  0.406904390000001 29.9896289  0.396591229999999 29.9872945  C 0.38099888 29.9837225  0.364927039999998 29.9792814  0.349069329999999 29.9740527  C 0.335270659999999 29.9695333  0.321816720000001 29.9644377  0.308649299999999 29.9588091  C 0.29326674 29.9522602  0.277891519999997 29.9447927  0.262857310000001 29.9365209  C 0.25337794 29.9312395  0.244280719999999 29.9258438  0.235372599999998 29.9201816  C 0.200030650000002 29.8978248  0.16677043 29.8705246  0.136718999999999 29.8385001  L 0.192956989999999 29.890093  C 0.182075400000002 29.8815116  0.171555300000001 29.8724995  0.161422989999998 29.8630825  L 0.136718999999999 29.8385001  C 0.132865049999999 29.8343931  0.129093150000003 29.8302396  0.125403239999997 29.8260416  C 0.11702374 29.8165271  0.108702629999996 29.8063038  0.100785619999996 29.7957649  C 0.0916782199999986 29.7836434  0.0835249100000013 29.7717313  0.0759424000000024 29.7595776  C 0.0664198500000026 29.7442908  0.0574723000000006 29.728065  0.0494246000000018 29.7113325  C 0.0444822700000032 29.701071  0.0400359500000036 29.690949  0.0359408300000013 29.6807248  C 0.0299136699999991 29.6657105  0.0245492000000027 29.6502041  0.0199431400000023 29.6343792  C 0.0159461800000003 29.6204941  0.0126511400000027 29.6070355  0.00992069000000129 29.5934918  C 0.00344547000000262 29.5616864  0 29.5281744  0 29.4938651  L 0.0045636600000023 29.5616793  C 0.00181297999999686 29.5413886  0.000306799999997054 29.5209732  4.07100000003879E-05 29.5005532  L 0 29.4938651  L 0 21.2116571  C 0 20.9321265  0.228709029999997 20.7055221  0.510835909999997 20.7055221  C 0.792962799999998 20.7055221  1.02167183 20.9321265  1.02167183 21.2116571  L 1.021 28.332  Z M 12.498452 0  L 21.4891641 0  L 21.5052445 0.000252883760992972  C 21.5274301 0.000945846622983026  21.5495692 0.00306253099000742  21.5715101 0.00659747038997693  C 21.5826636 0.00834804869998607  21.5930956 0.0103731991000018  21.6034088 0.012707601499983  C 21.6190011 0.0162796304999802  21.635073 0.0207206901000063  21.6509307 0.025949418200014  C 21.6647293 0.0304687478000005  21.6781833 0.0355643652999902  21.6913507 0.0411930207000069  C 21.7067333 0.0477419362999854  21.7221085 0.0552093873000103  21.7371427 0.0634811807000233  C 21.7455566 0.0681747096999743  21.7536267 0.0729222273999994  21.7615498 0.0778796266999962  C 21.7981018 0.100650198999972  21.832387 0.128579593999973  21.863281 0.161502023000025  L 21.807043 0.109909102000017  C 21.8168054 0.117607814999985  21.8262767 0.125653259999979  21.8354382 0.134026630999983  L 21.863281 0.161502023000025  C 21.8671349 0.165609012999994  21.8709068 0.169762504000005  21.8745968 0.173960512999997  C 21.8829763 0.183475040000019  21.8912974 0.193698304000009  21.8992144 0.20423721100002  C 21.9083218 0.216358737000007  21.9164751 0.228270776999977  21.9240576 0.24042446499999  C 21.9335802 0.255711317000021  21.9425277 0.271937104000017  21.9505754 0.288669561999995  C 21.9555177 0.298931137000011  21.9599641 0.309053117000019  21.9640592 0.319277252000006  C 21.9700863 0.334291563000022  21.9754508 0.349797973000022  21.9800569 0.365622920000021  C 21.9840538 0.379507950000004  21.9873489 0.392966623999996  21.9900793 0.40651032400001  C 21.9965545 0.438315731999978  22 0.471827716999996  22 0.506137029000001  L 21.9963341 0.445312897000008  C 21.9982335 0.460967523000022  21.9993943 0.47668801399999  21.9998187 0.492419411000014  L 22 0.506137029000001  L 22 8.78834504000002  C 22 9.06787564000001  21.771291 9.29447997  21.4891641 9.29447997  C 21.2070372 9.29447997  20.9783282 9.06787564000001  20.9783282 8.78834504000002  L 20.978 1.66699999999997  L 8.3509319 13.3001231  C 8.1672706 13.4693113  7.8914727 13.4788986  7.6975305 13.3351607  L 7.6289791 13.2740841  C 7.4368746 13.0693664  7.4486409 12.7491116  7.65526 12.558775  L 20.189 1.012  L 12.498452 1.01227196000002  C 12.2476726 1.01227196000002  12.0390998 0.833226566999997  11.9958463 0.597115422999991  L 11.9876161 0.506137029000001  C 11.9876161 0.226606423000021  12.2163251 0  12.498452 0  Z " fill-rule="nonzero" fill="#0c96df" stroke="none" transform="matrix(1 0 0 1 44 262 )" />
  </g>
</svg>