<?xml version="1.0" encoding="utf-8"?>
<svg version="1.1" xmlns:xlink="http://www.w3.org/1999/xlink" width="30px" height="30px" xmlns="http://www.w3.org/2000/svg">
  <g transform="matrix(1 0 0 1 -40 -502 )">
    <path d="M 0.504189691922154 17.6930817  L 5.54608660914373 17.6930817  C 5.82454288910074 17.6930817  6.05027630906589 17.9194092  6.05027630906589 18.1985983  L 6.04999999906593 18.956  L 9.32813953855982 18.9568733  C 10.6261687983594 18.9568733  11.8113089981764 19.3733499  13.0325400979879 20.1234819  L 13.3150710979443 20.3024745  C 13.5384025979098 20.4481841  13.7553220978763 20.5990365  14.0058132978376 20.780401  L 14.5590069977522 21.1842220999999  C 14.6298392977413 21.2351468000001  14.6936901977314 21.2793738  14.7494094977228 21.3170691  L 14.9769438976877 21.4661899  L 15.0002735976841 21.4844564  L 19.411933397003 21.4844564  C 20.3152851968635 21.4844564  20.7964125967892 22.2575039  20.8553156967801 23.080958  L 25.5760845960513 21.5828102  C 27.1724023958048 21.1265602  28.4119685956134 21.5312322  29.8522431953911 22.9752973  C 30.0955858953535 23.2192804  30.0290145953638 23.6305908  29.7212076954113 23.7848993  C 28.0678327956666 24.6137624  26.5824835958959 25.3833983  24.9024247961553 26.2739199  L 21.8573237966254 27.8907959000001  L 20.8394770967826 28.4173704999999  C 19.0439355970598 29.3248621  17.967248097226 29.7400106  16.8924885973919 29.9138151  C 15.6372784975857 30.1168012000001  14.4403808977705 29.9653827  12.6011063980545 29.4153835  L 12.4780784980735 29.3777097  C 12.2909291981024 29.3193601  12.0264188981432 29.2331588  11.7083258981923 29.1275466  L 6.04999999906593 27.197  L 6.05027630906589 28.3089307  C 6.05027630906589 28.5881198  5.82454288910074 28.8144473  5.54608660914373 28.8144473  L 0.504189691922154 28.8144473  C 0.225733413965146 28.8144473  0 28.5881198  0 28.3089307  L 0 18.1985983  C 0 17.9194092  0.225733413965146 17.6930817  0.504189691922154 17.6930817  Z M 21.4286921966916 10.615849  C 21.4286921966916 10.3366599  21.6544255966567 10.1103323999999  21.9328817966138 10.1103323999999  C 22.2113380965708 10.1103323999999  22.4370714965359 10.3366599  22.4370714965359 10.615849  L 22.4370714965359 16.9348068  C 22.4370714965359 17.2139959  22.2113380965708 17.4403234  21.9328817966138 17  L 10.5886137983652 17  C 10.3101574984082 17.4403234  10.0844240984431 17.2139959  10.0844240984431 16.9348068  L 10.0844240984431 10.615849  C 10.0844240984431 10.3366599  10.3101574984082 10.1103323999999  10.5886137983652 10.1103323999999  C 10.8670700983222 10.1103323999999  11.0928034982874 10.3366599  11.0928034982874 10.615849  L 11.0928034982874 16.4292902  L 13.8649999978594 16.429  L 13.8652164978593 11.8796406  C 13.8652164978593 11.6004515  14.0909498978245 11.3741240000001  14.3694061977815 11.3741240000001  L 18.1508288971977 11.3741240000001  C 18.4292851971547 11.3741240000001  18.6550185971198 11.6004515  18.6550185971198 11.8796406  L 18.6549999971198 16.429  L 21.4286921966916 16.4292902  L 21.4286921966916 10.615849  Z M 6.47698184900001 8.33814831000001  L 15.9305385975405 0.123503228999994  C 16.1200447975112 -0.0411677430000168  16.4014507974678 -0.0411677430000168  16.5909569974385 0.123503228999994  L 26.044513795979 8.33814831000001  C 26.2549400959465 8.52099779000002  26.2776846959429 8.84025980000001  26.0953151959711 9.05123996999998  C 25.9129456959993 9.26222014000001  25.5945216960484 9.28502457000002  25.3840952960809 9.10217509  L 16.2607477974895 1.17446451000001  L 7.13740030889805 9.10217509  C 6.92697393893053 9.28502457000002  6.60854995897969 9.26222014000001  6.42618042900785 9.05123996999998  C 6.24381090903601 8.84025980000001  6.2665554890325 8.52099779000002  6.47698184900001 8.33814831000001  Z M 20.0421704969057 0  L 23.1933560964191 0  C 23.4718123963762 0  23.6975457963413 0.226327500000025  23.6975457963413 0.50551661999998  L 23.6975457963413 3.66499549999997  C 23.6975457963413 3.94418461999999  23.4718123963762 4.17051212000001  23.1933560964191 4.17051212000001  C 22.9148997964621 4.17051212000001  22.689166396497 3.94418461999999  22.689166396497 3.66499549999997  L 22.689166396497 1.01103324000002  L 20.0421704969057 1.01103324000002  C 19.7637141969486 1.01103324000002  19.5379807969835 0.784705739999993  19.5379807969835 0.50551661999998  C 19.5379807969835 0.226327500000025  19.7637141969486 0  20.0421704969057 0  Z M 6.04999999906593 19.967  L 6.04949903906601 26.1288788000001  C 6.6798066989687 26.3436885  7.83107140879095 26.7406139  9.0211991186072 27.1485559  L 12.0303510981426 28.169588  L 12.88930639801 28.4465226999999  C 14.5959098977465 28.9568493  15.6515371975835 29.0903957  16.7319218974167 28.9156815  C 17.572032697287 28.7798232  18.4511839971513 28.4620304  19.8253084969391 27.7928341000001  L 20.40243749685 27.5060123  L 21.0018263967575 27.1985357  L 25.2931634960949 24.9248516  C 26.4241827959203 24.3298814  27.4919322957555 23.7780198  28.6178648955816 23.2089728  L 28.4424514956087 23.0682552  C 27.5739325957428 22.4010728  26.8262431958583 22.2767621  25.8665421960064 22.5508817  L 20.655150496811 24.207543  C 20.4281132968461 24.680021  20.0137075969101 25.0230727000001  19.411933397003 25.0230727000001  L 12.4793250980733 25.0230727000001  C 12.2008687981163 25.0230727000001  11.9751353981511 24.7967452  11.9751353981511 24.5175561  C 11.9751353981511 24.238367  12.2008687981163 24.0120395  12.4793250980733 24.0120395  L 19.411933397003 24.0120395  C 19.5939348969749 24.0120395  19.7196232969555 23.8668533  19.7889986969447 23.6663252  C 19.7922472969442 23.6463834  19.7982692969433 23.628242  19.8052791969422 23.6105153  L 19.7889986969447 23.6663252  C 19.9438415969208 23.2187545  19.8181531969402 22.4954896  19.411933397003 22.4954896  L 15.0002735976841 22.4954896  C 14.7044015977298 22.4954896  14.4656473977666 22.3611963  13.9713938978429 22.0058541  L 13.187137497964 21.436808  C 13.0406343979866 21.3335676  12.9036901980078 21.2403188  12.7650860980292 21.1498884  C 11.5920635982103 20.3845657000001  10.499160898379 19.9679065  9.32813953855982 19.9679065  L 6.04999999906593 19.967  Z M 5.04189691922157 27.8034141000001  L 5.04189691922157 18.7041149  L 1.00837937984432 18.7041149  L 1.00837937984432 27.8034141000001  L 5.04189691922157 27.8034141000001  Z M 17.6466391972755 16.4292902  L 17.6466391972755 12.3851572  L 14.8735958977036 12.3851572  L 14.8735958977036 16.4292902  L 17.6466391972755 16.4292902  Z " fill-rule="nonzero" fill="#0c96df" stroke="none" transform="matrix(1 0 0 1 40 502 )" />
  </g>
</svg>