<?xml version="1.0" encoding="utf-8"?>
<svg version="1.1" xmlns:xlink="http://www.w3.org/1999/xlink" width="30px" height="26px" xmlns="http://www.w3.org/2000/svg">
  <g transform="matrix(1 0 0 1 -40 -204 )">
    <path d="M 5.707 4  L 22.2063585 0.0163526199999922  C 22.4873551 -0.0515064299999892  22.7765463 0.0981996799999934  22.8460042 0.347479079999999  L 23.9587594 4.34063151999999  C 25.7420304 5.04920598000001  27 6.78596906999999  27 8.81526099999999  L 27 11.9076305  C 27 11.9396061  26.9968515 11.9708604  26.9908419 12.0011113  L 27.4325301 12  C 28.8625953 12  30 13.2374745  30 14.7438272  L 30 16.2561728  C 30 17.7633519  28.862936 19  27.4325301 19  L 26.9910434 18.9999088  C 26.9969218 19.0298421  27 19.0607532  27 19.0923695  L 27 21.184739  C 27 23.843435  24.8406728 26  22.1697248 26  L 2.97247706 26  C 1.32951069 26  0 24.67219  0 23.0401606  L 0 6.95983935999999  C 0 5.32781  1.32951069 4  2.97247706 4  L 5.707 4  Z M 5.57571577 5  C 5.53620648 4.97667956999999  5.49693906 4.97654381000001  5.45855741 4.97263654  L 2.97247706 4.97188754999999  C 1.88076454 4.97188754999999  0.990825688000001 5.86068800000001  1 6.95983935999999  L 1 23.0401606  C 0.990825688000001 24.139312  1.88076454 25.0281124  2.97247706 25  L 22.1697248 25  C 24.289419 25.0281124  26.0091743 23.310557  26.0091743 21.184739  L 26.0091743 19.0923695  C 26.0091743 19.0607532  26.0122525 19.0298421  26.0181309 18.9999088  L 22.5674699 19  C 21.1378998 19  20 17.7629368  20 16.2561728  L 20 14.7438272  C 20 13.2378898  21.1382406 12  22.5674699 12  L 26.0183324 12.0011113  C 26.0123228 11.9708604  26.0091743 11.9396061  26.0091743 11.9076305  L 26.0091743 8.81526099999999  C 26.0091743 6.68944302  24.289419 4.97188754999999  22.1697248 5  L 5.57571577 5  Z M 29.0361446 14.7438272  C 29.0361446 13.7428041  28.3080189 12.9506173  27.4325301 12.9506173  L 22.5674699 12.9506173  C 21.6927225 12.9506173  20.9638554 13.7432943  20.9638554 14.7438272  L 20.9638554 16.2561728  C 20.9638554 17.2574632  21.6922944 18.0493827  22.5674699 18.0493827  L 27.4325301 18.0493827  C 28.3084468 18.0493827  29.0361446 17.2579532  29.0361446 16.2561728  L 29.0361446 14.7438272  Z M 22.8094556 4.04178364000001  L 21.9672202 1.01990888  L 9.625 4  L 22.1697248 4  C 22.3866369 4  22.6001746 4.01422325999999  22.8094556 4.04178364000001  Z M 3.44444444 23  L 4.55555556 23  C 4.80101544 23  5 23.2238576  5 23.5  C 5 23.7761424  4.80101544 24  4.55555556 24  L 3.44444444 24  C 3.19898456 24  3 23.7761424  3 23.5  C 3 23.2238576  3.19898456 23  3.44444444 23  Z M 6.44444444 23  L 7.55555556 23  C 7.80101544 23  8 23.2238576  8 23.5  C 8 23.7761424  7.80101544 24  7.55555556 24  L 6.44444444 24  C 6.19898456 24  6 23.7761424  6 23.5  C 6 23.2238576  6.19898456 23  6.44444444 23  Z M 10.4444444 23  L 11.5555556 23  C 11.8010154 23  12 23.2238576  12 23.5  C 12 23.7761424  11.8010154 24  11.5555556 24  L 10.4444444 24  C 10.1989846 24  10 23.7761424  10 23.5  C 10 23.2238576  10.1989846 23  10.4444444 23  Z M 14.4444444 23  L 15.5555556 23  C 15.8010154 23  16 23.2238576  16 23.5  C 16 23.7761424  15.8010154 24  15.5555556 24  L 14.4444444 24  C 14.1989846 24  14 23.7761424  14 23.5  C 14 23.2238576  14.1989846 23  14.4444444 23  Z M 18.4444444 23  L 19.5555556 23  C 19.8010154 23  20 23.2238576  20 23.5  C 20 23.7761424  19.8010154 24  19.5555556 24  L 18.4444444 24  C 18.1989846 24  18 23.7761424  18 23.5  C 18 23.2238576  18.1989846 23  18.4444444 23  Z M 22.4444444 7  L 23.5555556 7  C 23.8010154 7  24 7.22385763  24 7.5  C 24 7.77614237  23.8010154 8  23.5555556 8  L 22.4444444 8  C 22.1989846 8  22 7.77614237  22 7.5  C 22 7.22385763  22.1989846 7  22.4444444 7  Z M 3.44444444 7  L 4.55555556 7  C 4.80101544 7  5 7.22385763  5 7.5  C 5 7.77614237  4.80101544 8  4.55555556 8  L 3.44444444 8  C 3.19898456 8  3 7.77614237  3 7.5  C 3 7.22385763  3.19898456 7  3.44444444 7  Z M 6.44444444 7  L 7.55555556 7  C 7.80101544 7  8 7.22385763  8 7.5  C 8 7.77614237  7.80101544 8  7.55555556 8  L 6.44444444 8  C 6.19898456 8  6 7.77614237  6 7.5  C 6 7.22385763  6.19898456 7  6.44444444 7  Z M 10.4444444 7  L 11.5555556 7  C 11.8010154 7  12 7.22385763  12 7.5  C 12 7.77614237  11.8010154 8  11.5555556 8  L 10.4444444 8  C 10.1989846 8  10 7.77614237  10 7.5  C 10 7.22385763  10.1989846 7  10.4444444 7  Z M 14.4444444 7  L 15.5555556 7  C 15.8010154 7  16 7.22385763  16 7.5  C 16 7.77614237  15.8010154 8  15.5555556 8  L 14.4444444 8  C 14.1989846 8  14 7.77614237  14 7.5  C 14 7.22385763  14.1989846 7  14.4444444 7  Z M 18.4444444 7  L 19.5555556 7  C 19.8010154 7  20 7.22385763  20 7.5  C 20 7.77614237  19.8010154 8  19.5555556 8  L 18.4444444 8  C 18.1989846 8  18 7.77614237  18 7.5  C 18 7.22385763  18.1989846 7  18.4444444 7  Z M 22.4444444 23  L 23.5555556 23  C 23.8010154 23  24 23.2238576  24 23.5  C 24 23.7761424  23.8010154 24  23.5555556 24  L 22.4444444 24  C 22.1989846 24  22 23.7761424  22 23.5  C 22 23.2238576  22.1989846 23  22.4444444 23  Z M 22 15  C 22 14.4496316  22.4460631 14  23 14  C 23.5539369 14  24 14.4496316  24 15  C 24 15.5503684  23.5539369 16  23 16  C 22.4460631 16  22 15.5503684  22 15  Z " fill-rule="nonzero" fill="#0c96df" stroke="none" transform="matrix(1 0 0 1 40 204 )" />
  </g>
</svg>