<?xml version="1.0" encoding="utf-8"?>
<svg version="1.1" xmlns:xlink="http://www.w3.org/1999/xlink" width="20px" height="30px" xmlns="http://www.w3.org/2000/svg">
  <g transform="matrix(1 0 0 1 -45 -382 )">
    <path d="M 6.4797468 12.605042000145  L 13.5189873 12.605042000145  C 13.6271603 12.605042000145  13.7324901 12.6395401001446  13.8195435 12.7034817001441  C 17.1166442 15.125231100124  20 19.4009652000883  20 22.5630252000619  C 20 27.6193374000198  16.9345765 30  10 30  C 3.06542345 30  0 27.6193374000198  0 22.5630252000619  C 0 19.4013195000883  2.88281074 15.1258033001239  6.1791021 12.7035467001441  C 6.2661719 12.6395641001446  6.3715362 12.605042000145  6.4797468 12.605042000145  Z M 9.5295055 0.316945877247379  C 9.6992565 -0.105648625749126  10.299984 -0.105648625749126  10.469735 0.316945877247379  L 11.5428695 2.98850961022509  L 15.49637 1.30127141023918  C 15.9592647 1.1037214902408  16.3964691 1.62711471023644  16.1171141 2.04438665023294  L 15.8941759 2.39299735023003  C 15.8458 2.4709395102294  15.792305 2.55830924022865  15.7344268 2.65436761022789  L 15.5169302 3.02276924022481  C 15.3000357 3.3978004302217  15.0858817 3.79176574021842  14.8828745 4.19607408021505  C 14.536845 4.8852252402093  14.2493317 5.55327102020373  14.0400928 6.17835013019852  C 13.7987804 6.8992455601925  13.6705063 7.53792116018718  13.6705063 8.0672268901828  C 13.6705063 8.34568979018045  13.4438151 8.57142857017859  13.1641772 8.57142857017859  L 6.8350633 8.57142857017859  C 6.5554254 8.57142857017859  6.3287342 8.34568979018045  6.3287342 8.0672268901828  C 6.3287342 7.53792116018718  6.2004601 6.8992455601925  5.9591477 6.17835013019852  C 5.7499088 5.55327102020373  5.4623955 4.8852252402093  5.116366 4.19607408021505  C 4.91335884 3.79176574021842  4.69920481 3.3978004302217  4.48231033 3.02276924022481  L 4.26481371 2.65436761022789  C 4.2069355 2.55830924022865  4.1534405 2.4709395102294  4.10506464 2.39299735023003  L 3.88212643 2.04438665023294  C 3.60277137 1.62711471023644  4.03997577 1.1037214902408  4.50287053 1.30127141023918  L 8.456371 2.98850961022509  L 9.5295055 0.316945877247379  Z M 18.9873418 22.5630252000619  C 18.9873418 19.8171567000849  16.3594648 15.8806751001177  13.3507377 13.6134454001365  L 6.6480576 13.6134454001365  L 6.3757133 13.8241182001348  C 3.48322601 16.1186285001157  1.01265823 19.9006680000842  1.01265823 22.5630252000619  C 1.01265823 26.999835600025  3.57731861 28.9915966000084  10 28.9915966000084  C 16.4226814 28.9915966000084  18.9873418 26.999835600025  18.9873418 22.5630252000619  Z M 5.5692405 10.084033600166  L 14.43 10.084033600166  C 14.7096378 10.084033600166  14.9363291 10.3097724001641  14.9363291 10.5882353001618  C 14.9363291 10.8666982001594  14.7096378 11.0924370001576  14.43 11.0924370001576  L 5.5692405 11.0924370001576  C 5.2896027 11.0924370001576  5.0629114 10.8666982001594  5.0629114 10.5882353001618  C 5.0629114 10.3097724001641  5.2896027 10.084033600166  5.5692405 10.084033600166  Z M 10.7953283 3.84271799021796  L 9.9996203 1.86180625023446  L 9.2039122 3.84271799021796  C 9.098262 4.10573378021576  8.7958156 4.23048480021474  8.5343447 4.11889665021568  L 5.5433815 2.84244118022629  C 5.7067198 3.13498225022388  5.8673661 3.43690496022135  6.022115 3.74510239021879  C 6.3881109 4.47401846021274  6.6939519 5.18464915020678  6.9198396 5.85946499020116  C 7.1247113 6.47149745019608  7.2595422 7.04107664019135  7.3140456 7.56302521018695  L 12.6851949 7.56302521018695  C 12.7396983 7.04107664019135  12.8745292 6.47149745019608  13.0794009 5.85946499020116  C 13.3052886 5.18464915020678  13.6111296 4.47401846021274  13.9771255 3.74510239021879  C 14.1318744 3.43690496022135  14.2925208 3.13498225022388  14.455859 2.84244118022629  L 11.4648958 4.11889665021568  C 11.2034249 4.23048480021474  10.9009785 4.10573378021576  10.7953283 3.84271799021796  Z M 10.1262025 16.2605042001145  C 10.1262025 15.9820413001168  10.3528938 15.7563025001187  10.6325316 15.7563025001187  C 10.9121695 15.7563025001187  11.1388608 15.9820413001168  11.1388608 16.2605042001145  L 11.1391459 17.0701567001077  C 12.2235901 17.3021684001058  13.0375949 18.2634560000978  13.0375949 19.4117647000882  C 13.0375949 19.6902276000859  12.8109037 19.915966400084  12.5312658 19.915966400084  C 12.251628 19.915966400084  12.0249367 19.6902276000859  12.0249367 19.4117647000882  C 12.0249367 18.6473034000946  11.400506 18.0252101000998  10.6325316 18.0252101000998  C 9.8645573 18.0252101000998  9.2401266 18.6473034000946  9.2401266 19.4117647000882  C 9.2401266 20.1777725000819  9.8635787 20.7983193000767  10.6325316 20.7983193000767  C 11.9598861 20.7983193000767  13.0375949 21.8719941000677  13.0375949 23.1932773000567  C 13.0375949 24.3434180000471  12.2237369 25.3037858000392  11.1385048 25.5351492000372  L 11.1388608 26.3445378000305  C 11.1388608 26.6230007000281  10.9121695 26.8487395000263  10.6325316 26.8487395000263  C 10.3528938 26.8487395000263  10.1262025 26.6230007000281  10.1262025 26.3445378000305  L 10.1265585 25.5351492000372  C 9.0413264 25.3037858000392  8.2274684 24.3434180000471  8.2274684 23.1932773000567  C 8.2274684 22.9148144000591  8.4541596 22.6890756000609  8.7337975 22.6890756000609  C 9.0134353 22.6890756000609  9.2401266 22.9148144000591  9.2401266 23.1932773000567  C 9.2401266 23.9592851000503  9.8635787 24.5798319000452  10.6325316 24.5798319000452  C 11.4014845 24.5798319000452  12.0249367 23.9592851000503  12.0249367 23.1932773000567  C 12.0249367 22.4288160000631  11.400506 21.8067227000683  10.6325316 21.8067227000683  L 10.4678841 21.8011991000683  C 9.2165322 21.716960000069  8.2274684 20.6796758000777  8.2274684 19.4117647000882  C 8.2274684 18.2634560000978  9.0414732 17.3021684001058  10.1259174 17.0701567001077  L 10.1262025 16.2605042001145  Z " fill-rule="nonzero" fill="#0c96df" stroke="none" transform="matrix(1 0 0 1 45 382 )" />
  </g>
</svg>