<?xml version="1.0" encoding="utf-8"?>
<svg version="1.1" xmlns:xlink="http://www.w3.org/1999/xlink" width="31px" height="31px" xmlns="http://www.w3.org/2000/svg">
  <g transform="matrix(1 0 0 1 -40 -682 )">
    <path d="M 25.8392857 30  L 4.41071429 30  C 2.04359592 30.125  0.125 28.2064041  0.125 25.8392857  L 0.125 4.41071428999999  C 0.125 2.04359592000003  2.04359592 0.125  4.41071429 0.125  L 25.8392857 0.125  C 28.2055529 0.125  30.125 2.04400519000001  30 4.41071428999999  L 30 25.8392857  C 30.125 28.2059948  28.2055529 30.125  25.8392857 30  Z M 29 25.8392857  L 29 15  L 16 15  L 16 29.116  L 25.8392857 29.1165966  C 27.6486791 29.1165966  29.1165966 27.649017  29 25.8392857  Z M 15 29  L 15 15  L 1.133 15  L 1.13340336 25.8392857  C 1.13340336 27.6494783000001  2.60052172 29.1165966  4.41071429 29  L 15 29  Z M 15 14.116  L 15 1.13300000000004  L 4.41071429 1.13340335999999  C 2.60052172 1.13340335999999  1.13340336 2.60052171999996  1.13340336 4.41071428999999  L 1.133 14.116  L 15 14.116  Z M 29.1165966 4.41071428999999  C 29.1165966 2.60098297000002  27.6486791 1.13340335999999  25.8392857 1.13340335999999  L 16 1.13300000000004  L 16 14.116  L 29.116 14.116  L 29.1165966 4.41071428999999  Z M 3.99584823 19.2500701  L 4.05418986 19.1802403  C 4.25109286 18.9833373  4.57033571 18.9833373  4.76723871 19.1802403  L 6.932 21.345  L 9.09620666 19.1802403  C 9.27123156 19.0052154  9.54292003 18.9857682000001  9.73942572 19.1218986  L 9.80925552 19.1802403  C 10.0061585 19.3771432999999  10.0061585 19.6963861  9.80925552 19.8932890999999  L 7.645 22.058  L 9.80925552 24.2222571  C 9.98428041 24.397282  10.0037276 24.6689704  9.86759715 24.8654761  L 9.80925552 24.9353059  C 9.61235252 25.1322089  9.29310967 25.1322089  9.09620666 24.9353059  L 6.932 22.771  L 4.76723871 24.9353059  C 4.59221382 25.1103308  4.32052535 25.129778  4.12401966 24.9936476  L 4.05418986 24.9353059  C 3.85728685 24.7384029  3.85728685 24.4191601  4.05418986 24.2222571  L 6.219 22.058  L 4.05418986 19.8932890999999  C 3.87916497 19.7182642  3.85971776 19.4465758  3.99584823 19.2500701  Z M 18.9065126 22.8140756  L 25.2090336 22.8140756  C 25.4874965 22.8140756  25.7132353 23.0398144  25.7132353 23.3182773  C 25.7132353 23.5967402  25.4874965 23.822479  25.2090336 23.822479  L 18.9065126 23.822479  C 18.6280497 23.822479  18.4023109 23.5967402  18.4023109 23.3182773  C 18.4023109 23.0398144  18.6280497 22.8140756  18.9065126 22.8140756  Z M 18.9065126 20.2930672  L 25.2090336 20.2930672  C 25.4874965 20.2930672  25.7132353 20.518806  25.7132353 20.7972688999999  C 25.7132353 21.0757318  25.4874965 21.3014706  25.2090336 21.3014706  L 18.9065126 21.3014706  C 18.6280497 21.3014706  18.4023109 21.0757318  18.4023109 20.7972688999999  C 18.4023109 20.518806  18.6280497 20.2930672  18.9065126 20.2930672  Z M 6.8410918 4.54488806999996  L 6.93172269 4.53676470999994  C 7.21018559 4.53676470999994  7.43592437 4.76250348999997  7.43592437 5.04096638999999  L 7.435 7.68799999999999  L 10.0829832 7.68802520999998  C 10.3305058 7.68802520999998  10.5363698 7.86638672000004  10.5790615 8.10159599999997  L 10.5871849 8.19222689000003  C 10.5871849 8.47068979000005  10.3614461 8.69642856999997  10.0829832 8.69642856999997  L 7.435 8.69600000000003  L 7.43592437 11.3434874  C 7.43592437 11.59101  7.25756286 11.796874  7.02235358 11.8395657  L 6.93172269 11.8476891  C 6.65325979 11.8476891  6.42752101 11.6219503  6.42752101 11.3434874  L 6.427 8.69600000000003  L 3.78046218 8.69642856999997  C 3.53293961 8.69642856999997  3.32707559 8.51806706000002  3.28438387 8.28285777999997  L 3.2762605 8.19222689000003  C 3.2762605 7.91376399000001  3.50199929 7.68802520999998  3.78046218 7.68802520999998  L 6.427 7.68799999999999  L 6.42752101 5.04096638999999  C 6.42752101 4.79344380999999  6.60588251 4.58757978999995  6.8410918 4.54488806999996  Z M 18.9065126 7.68802520999998  L 25.2090336 7.68802520999998  C 25.4874965 7.68802520999998  25.7132353 7.91376399000001  25.7132353 8.19222689000003  C 25.7132353 8.47068979000005  25.4874965 8.69642856999997  25.2090336 8.69642856999997  L 18.9065126 8.69642856999997  C 18.6280497 8.69642856999997  18.4023109 8.47068979000005  18.4023109 8.19222689000003  C 18.4023109 7.91376399000001  18.6280497 7.68802520999998  18.9065126 7.68802520999998  Z " fill-rule="nonzero" fill="#0c96df" stroke="none" transform="matrix(1 0 0 1 40 682 )" />
  </g>
</svg>