<?xml version="1.0" encoding="utf-8"?>
<svg version="1.1" xmlns:xlink="http://www.w3.org/1999/xlink" width="30px" height="30px" xmlns="http://www.w3.org/2000/svg">
  <g transform="matrix(1 0 0 1 -40 -442 )">
    <path d="M 24.4537815 9.21052631999999  L 28.2352941 9.21052631999999  C 28.513757 9.21052631999999  28.7394958 9.44616592  28.7394958 9.73684211  L 28.739 28.947  L 29.4957983 28.9473684  C 29.7433209 28.9473684  29.9491849 29.1335528  29.9918766 29.3790783  L 30 29.4736842  C 30 29.7643604  29.7742612 30  29.4957983 30  L 0.504201680999998 30  C 0.225738782000001 30  0 29.7643604  0 29.4736842  C 0 29.183008  0.225738782000001 28.9473684  0.504201680999998 28.9473684  L 1.26 28.947  L 1.2605042 22.8947368  C 1.2605042 22.636358  1.43886571 22.4214649  1.67407499 22.3769007  L 1.76470588 22.3684211  L 5.54621849 22.3684211  C 5.82468139 22.3684211  6.05042017 22.6040607  6.05042017 22.8947368  L 6.05 28.947  L 9 28.947  L 9 16.3157895  C 8.82352941 16.0574106  9.00189092 15.8425175  9.2371002 15.7979533  L 9.32773109 15.7894737  L 13.1092437 15.7894737  C 13.3877066 15.7894737  13.6134454 16.0251133  14 16.3157895  L 14 28.947  L 16.386 28.947  L 16.3865546 18.9473684  C 16.3865546 18.6889896  16.5649161 18.4740965  16.8001254 18.4295323  L 16.8907563 18.4210526  L 20.6722689 18.4210526  C 20.9507318 18.4210526  21.1764706 18.6566922  21.1764706 18.9473684  L 21.176 28.947  L 24 28.947  L 24 9.73684211  C 23.9495798 9.47846327000002  24.1279413 9.26357014000001  24.3631506 9.21900597000001  L 24.4537815 9.21052631999999  Z M 21.9327731 0  L 26.9747899 0  C 26.9771699 0  26.9795461 1.72137924892013E-05  26.9819183 5.15286142217519E-05  C 27.0009691 0.000291854106990286  27.0208016 0.00176095181001301  27.0405194 0.00444922819997373  C 27.0523621 0.00605279992998931  27.0636121 0.00800469690000227  27.0747298 0.0103383287000156  C 27.0888144 0.0133201360999919  27.1029414 0.0169494471999769  27.1169311 0.0212270074999878  C 27.1318506 0.0257856718000085  27.1460966 0.0309076254000047  27.1600383 0.0366596128000083  C 27.1706286 0.0410108959000013  27.1814823 0.0459383812000169  27.1921969 0.051285850700026  C 27.2091116 0.0597677967999744  27.2252941 0.0690480919000152  27.2409063 0.0791945826999836  C 27.2680148 0.0968013052000174  27.2937482 0.117249467000022  27.3178745 0.140635003999989  L 27.2605133 0.0926066449999894  C 27.27812 0.105269645000021  27.2949174 0.11907064899998  27.3108082 0.133907915000009  C 27.3239419 0.146516111999972  27.3298393 0.152516773000002  27.3355665 0.158630279000022  C 27.3479943 0.171896334999985  27.3601759 0.186384261000001  27.3715777 0.201541734999978  C 27.3786917 0.210913957000002  27.385223 0.220221046000006  27.3914267 0.229697395000017  C 27.4009857 0.244387089999975  27.4101086 0.259965609999995  27.4184523 0.276048974999981  C 27.4251497 0.288905053999997  27.4311967 0.301856147000024  27.4367074 0.314999752999995  C 27.4427148 0.329275756000015  27.4481948 0.344073374999994  27.4530367 0.359176233000028  C 27.457838 0.374292228999991  27.462089 0.389944931999992  27.4656355 0.405741094999996  C 27.4744191 0.444691298999999  27.4789916 0.484946144999981  27.4789916 0.526315789000023  L 27.4724807 0.441857292000009  C 27.4759464 0.464208570999972  27.4780312 0.48675872299998  27.4787298 0.509356851000007  L 27.4789916 0.526315789000023  L 27.4789916 5.78947368000001  C 27.4789916 6.08014987000001  27.2532528 6.31578947000003  26.9747899 6.31578947000003  C 26.696327 6.31578947000003  26.4705882 6.08014987000001  26.4705882 5.78947368000001  L 26.47 1.86599999999999  L 19.1509883 10.0949743  C 19.0356697 10.2246104  18.8672559 10.2836845  18.7033693 10.2568163  L 18.62207 10.2361491  L 11.3255002 7.69728415999998  L 3.97824424 14.0885375  C 3.76432311 14.2746239  3.44639133 14.2444533  3.26812372 14.0211497  C 3.08985612 13.7978461  3.11875901 13.4659699  3.33268013 13.2798835  L 10.8957053 6.70093616999998  C 11.0298471 6.5842485  11.2122771 6.54831669999999  11.37793 6.60595616000001  L 18.6329536 9.13036497000002  L 25.819 1.05200000000002  L 21.9327731 1.05263158000002  C 21.6852505 1.05263158000002  21.4793865 0.866447198999992  21.4366948 0.620921717999977  L 21.4285714 0.526315789000023  C 21.4285714 0.235639605000017  21.6543102 0  21.9327731 0  Z M 27.731 28.947  L 27.7310924 10.2631579  L 25 10.2631579  L 25 28.947  L 27.731 28.947  Z M 20.168 28.947  L 20.1680672 19.4736842  L 17.394958 19.4736842  L 17.394 28.947  L 20.168 28.947  Z M 13 28.947  L 13 16.8421053  L 10 16.8421053  L 10 28.947  L 13 28.947  Z M 5.042 28.947  L 5.04201681 23.4210526  L 2.26890756 23.4210526  L 2.268 28.947  L 5.042 28.947  Z " fill-rule="nonzero" fill="#0c96df" stroke="none" transform="matrix(1 0 0 1 40 442 )" />
  </g>
</svg>