<?xml version="1.0" encoding="utf-8"?>
<svg version="1.1" xmlns:xlink="http://www.w3.org/1999/xlink" width="30px" height="30px" xmlns="http://www.w3.org/2000/svg">
  <g transform="matrix(1 0 0 1 -40 -622 )">
    <path d="M 13.1092437 0  L 16.8907563 0  C 17.1692192 0  17.394958 0.225738782000008  17.394958 0.50420168100004  L 17.394958 4.20281175000002  C 18.7368219 4.53780251000001  19.7398308 4.85544507999998  20.4840748 5.23576664999996  L 23.1103599 2.61062485000002  C 23.3072755 2.41379502999996  23.6264585 2.41382977000001  23.8233312 2.61070245999997  L 27.3892975 6.17666885000006  C 27.5862309 6.37360218000003  27.5861961 6.69290492000005  27.3892199 6.88979534999999  L 24.7641748 9.51369707000003  C 25.1450038 10.2596415  25.4640332 11.2661341  25.798428 12.605042  L 29.4957983 12.605042  C 29.7742612 12.605042  30 12.8307808  30 13.1092437  L 30 16.8907563  C 30 17.1692192  29.7742612 17.394958  29.4957983 17.394958  L 25.7992943 17.394958  L 25.7077341 17.7534713  C 25.4037469 18.920493  25.1098368 19.8094542  24.7642675 20.4853695  L 27.3893752 23.1116204  C 27.586205 23.308536  27.5861702 23.627719  27.3892975 23.8245917  L 23.8245917 27.3892975  C 23.6277493 27.5861399  23.3086261 27.5862094  23.111698 27.3894527  L 20.4843105 24.7643518  C 19.7414634 25.1444541  18.7405379 25.4620152  17.394958 25.7992937  L 17.394958 29.4957983  C 17.394958 29.7742612  17.1692192 30  16.8907563 30  L 13.1092437 30  C 12.8307808 30  12.605042 29.7742612  12.605042 29.4957983  L 12.605042 25.7992918  C 11.2589779 25.461878  10.2575676 25.1440575  9.51340524 24.7632062  L 6.88853482 27.3892198999999  C 6.69166899 27.5861715  6.37241489 27.5862344  6.17547137 27.3893606  L 2.60950499 23.8246547  C 2.41254256 23.6277619  2.41251434 23.3084704  2.60944196 23.1115428000001  L 5.23569281 20.4852919  C 4.85558415 19.741793  4.53797595 18.7405236  4.20070574 17.394958  L 0.504201680999998 17.394958  C 0.225738782000001 17.394958  0 17.1692192  0 16.8907563  L 0 13.1092437  C 0 12.8307808  0.225738782000001 12.605042  0.504201680999998 12.605042  L 4.20070574 12.605042  C 4.53796423 11.2595232  4.85556206 10.2582766  5.23565317 9.51478560999999  L 2.60951959 6.88979531999996  C 2.4125434 6.69290488000001  2.41250864 6.37360217000003  2.60944196 6.17666885000006  L 6.17540835 2.61070245999997  C 6.37228104 2.41382977000001  6.69146402 2.41379502999996  6.88837957 2.61062485000002  L 9.51466931 5.23577122999995  C 10.1234815 4.92468643999996  10.9054489 4.65564542000004  11.9055216 4.38442535000001  L 12.605042 4.20280385000001  L 12.605042 0.50420168100004  C 12.605042 0.225738782000008  12.8307808 0  13.1092437 0  Z M 16.3865546 4.59831932999998  L 16.3865546 1.00840335999999  L 13.6134454 1.00840335999999  L 13.6134454 4.59831932999998  C 13.6134454 4.83126704000006  13.4538632 5.03388947999997  13.2274025 5.08848035999995  C 11.5610474 5.49017379999998  10.3988741 5.85872131999997  9.69013281 6.29162815999996  C 9.4914546 6.41298295000001  9.23552077 6.38253153000005  9.07086413 6.21794657999999  L 6.53201039 3.68019813000001  L 3.67909287 6.53311565000001  L 6.21779133 9.07070887999998  C 6.38250594 9.23535177999997  6.41302568 9.49138465999999  6.29162816 9.69013281000002  C 5.91648064 10.3043124  5.58964696 11.2571594  5.2459138 12.5871664  L 5.0858303 13.2279366  C 5.03104094 13.4541383  4.8285409 13.6134454  4.59579832 13.6134454  L 1.00840336 13.6134454  L 1.00840336 16.3865546  L 4.59579832 16.3865546  C 4.8285409 16.3865546  5.03104094 16.5458617  5.0858303 16.7720634  C 5.49022627 18.4416411  5.85876563 19.6011985  6.29162816 20.3098672  C 6.41300431 20.5085804  6.38251874 20.7645637000001  6.21786897 20.9292134999999  L 3.67907827 23.4680042  L 6.53179212 26.3197097  L 9.06944838 23.7809482  C 9.23414217 23.6161826  9.4902737 23.5857008  9.68903684 23.7072118999999  C 10.3040481 24.0831904  11.2568209 24.4102163  12.5870425 24.7540463  L 13.2279366 24.9141697  C 13.4541383 24.9689591  13.6134454 25.1714591  13.6134454 25.4042017  L 13.6134454 28.9915966  L 16.3865546 28.9915966  L 16.3865546 25.4042017  C 16.3865546 25.1714591  16.5458617 24.9689591  16.7720634 24.9141697  C 18.4417021 24.509759  19.6008481 24.1412633  20.3083478 23.7085301  C 20.5070146 23.5870179999999  20.7630542 23.6173755999999  20.9277978 23.7819759  L 23.467912 26.3198794  L 26.3198019 23.4679896  L 23.7820534 20.9291359  C 23.6174685 20.7644792  23.587017 20.5085454  23.7083718 20.3098672  C 24.0835194 19.6956876  24.410353 18.7428406  24.7540862 17.4128336  L 24.9141697 16.7720634  C 24.9689591 16.5458617  25.1714591 16.3865546  25.4042017 16.3865546  L 28.9915966 16.3865546  L 28.9915966 13.6134454  L 25.4029412 13.6134454  C 25.1699935 13.6134454  24.967371 13.4538632  24.9127801 13.2274025  C 24.5127423 11.5679152  24.1416492 10.3991789  23.7082141 9.68861385000002  C 23.5869948 9.48988931999997  23.617574 9.23401133000004  23.7822087 9.06944834000001  L 26.3196466 6.53311560999998  L 23.4667291 3.68019813000001  L 20.9278754 6.21794657999999  C 20.7632187 6.38253153000005  20.5072849 6.41298295000001  20.3086067 6.29162815999996  C 19.6941849 5.91633267999998  18.7388163 5.58917597000004  17.4116487 5.24745839000002  L 16.7725975 5.08848035999995  C 16.5461368 5.03388947999997  16.3865546 4.83126704000006  16.3865546 4.59831932999998  Z M 8.82365546 15  C 8.82365546 11.5891842  11.5893102 8.82352940999999  15.0001261 8.82352940999999  C 18.4109419 8.82352940999999  21.1765966 11.5891842  21.1765966 15  C 21.1765966 18.4116583  18.41136 21.1764706  15.0001261 21.1764706  C 11.5888921 21.1764706  8.82365546 18.4116583  8.82365546 15  Z M 20.1681933 15  C 20.1681933 12.14611  17.8540161 9.83193276999998  15.0001261 9.83193276999998  C 12.146236 9.83193276999998  9.83205882 12.14611  9.83205882 15  C 9.83205882 17.8546979  12.1457833 20.1680672  15.0001261 20.1680672  C 17.8544688 20.1680672  20.1681933 17.8546979  20.1681933 15  Z " fill-rule="nonzero" fill="#0c96df" stroke="none" transform="matrix(1 0 0 1 40 622 )" />
  </g>
</svg>