<?xml version="1.0" encoding="utf-8"?>
<svg version="1.1" xmlns:xlink="http://www.w3.org/1999/xlink" width="30px" height="30px" xmlns="http://www.w3.org/2000/svg">
  <g transform="matrix(1 0 0 1 -40 -742 )">
    <path d="M 7.16168424 3.39610963999996  C 8.44003908 1.26548243000002  10.9709614 0  14.9994958 0  C 19.0280302 0  21.5589525 1.26548243000002  22.8373074 3.39610963999996  C 23.2396139 4.06663185000002  23.4888485 4.78136080000002  23.6147376 5.50523525999995  C 23.699784 5.99426020999999  23.7192502 6.42414481000003  23.7011831 6.76290868000001  L 23.6983808 6.80525967000005  L 23.6819206 6.92912601  L 23.208 8.82299999999998  L 23.8230252 8.82367770999997  C 25.1451856 8.82367770999997  26.2179832 9.89649334000001  26.2179832 11.2186759  C 26.2179832 12.1309171  25.7072968 12.9244516  24.9563722 13.3288266  L 24.9476877 14.4688732  C 24.6462476 15.9760991000001  23.3220374 17.3952503  21.9322689 17.3952503  L 17.7631586 17.3951815  C 17.5888107 17.696637  17.2629019 17.8994605  16.8896218 17.8994605  L 14.3686134 17.8994605  C 13.8116876 17.8994605  13.3602101 17.4479753000001  13.3602101 16.8910402  C 13.3602101 16.334105  13.8116876 15.8826199  14.3686134 15.8826199  L 16.8896218 15.8826199  C 17.26252 15.8826199  17.5881438 16.0850286  17.762623 16.385974  L 21.9322689 16.38683  C 22.7764059 16.38683  23.7428787 15.3510646  23.9490756 14.3699894  L 23.9499764 13.6103629  C 23.9079364 13.6125612  23.8656101 13.6136742  23.8230252 13.6136742  L 22.562521 13.6136742  C 22.2840581 13.6136742  22.0583193 13.3879316  22.0583193 13.109464  L 22.0583193 9.32788786000003  L 22.0584407 9.31274714999995  C 22.0595399 9.27729375000001  22.0644197 9.24141470999996  22.0733735 9.20559893999996  L 22.063 9.26700000000005  L 22.0664427 9.23725545000002  C 22.0675596 9.23110162  22.0687883 9.22498669000004  22.0701264 9.21891286000005  L 22.0733735 9.20559893999996  L 22.6910737 6.75666630000001  L 22.6986922 6.56847590999996  C 22.7015679 6.32224093000002  22.6805233 6.01886480999997  22.6212468 5.67801917999998  C 22.5155613 5.07031752  22.3070323 4.47231976  21.9726086 3.91493761000004  C 20.8875181 2.10642298000005  18.6915496 1.00842031000002  14.9994958 1.00842031000002  C 11.307442 1.00842031000002  9.11147352 2.10642298000005  8.02638299 3.91493761000004  C 7.69195932 4.47231976  7.48343027 5.07031752  7.3777448 5.67801917999998  C 7.30661299 6.08703393999997  7.29053514 6.44209259000002  7.30478076 6.70920259000002  L 7.3064149 6.73545968999997  L 7.93381206 10.5055216  C 7.97020128 10.7238606  7.8599352 10.9404015  7.66195643 11.0393925  L 7.57699374 11.0913642  C 6.83408517 11.6381271  7.48346172 13.8657793  8.69697479 13.8657793  L 8.78760568 13.8739028  C 9.02281496 13.9165952  9.20117647 14.1224627  9.20117647 14.3699894  C 9.20117647 16.0870036  10.4059149 17.7875811  11.8676039 18.8985759  C 11.9756257 18.9296447  12.0710137 18.9977759  12.1364778 19.0917343  C 13.0912979 19.7595438  14.1296221 20.1684062  14.9994958 20.1684062  C 15.7467929 20.1684062  17.00001 19.7029274  18.0282734 18.9699924  C 18.0285964 18.9697622  18.0289196 18.9695324  18.0292429 18.969303  C 18.1495797 18.8834369  18.3054907 18.851772  18.4578654 18.8950306  L 18.4127833 18.8848057  C 18.4261504 18.887281  18.4394196 18.8902939  18.4525559 18.8938385  L 18.4578654 18.8950306  L 26.400467 21.1516648  C 28.5653972 21.9630072  30 24.0321730000001  30 26.3444764  L 30 29.4957898  C 30 29.7742574  29.7742612 30  29.4957983 30  L 0.504201680999998 30  C 0.225738782000001 30  0 29.7742574  0 29.4957898  L 0 26.3444764  C 0 24.0318338  1.43366007 21.9628881  3.6382206 21.1385653999999  L 10.6148607 19.1686088  C 9.34186579 18.0061480000001  8.36664237 16.4520171  8.2137032 14.8155447  C 6.40165237 14.3655495  5.61084381 11.4490557  6.88614591 10.3528516  L 6.30451906 6.85700787999997  L 6.29203259 6.58608141000002  C 6.28805181 6.27920716000006  6.31338196 5.91275604999998  6.38425395 5.50523525999995  C 6.51014305 4.78136080000002  6.75937767 4.06663185000002  7.16168424 3.39610963999996  Z M 26.0858321 22.1088518  L 18.4110639 19.9308792  C 17.2640235 20.696867  15.920122 21.1768264999999  14.9994958 21.1768264999999  C 13.9348718 21.1768264999999  12.7060559 20.7112176000001  11.587969 19.942133  L 3.95214767 22.0959528  C 2.18127415 22.7596161  1.00840336 24.4522112  1.00840336 26.3444764  L 1.00840336 29  L 28.9915966 29  L 28.9915966 26.3444764  C 28.9915966 24.4526540000001  27.8178802 22.7597716  26.0858321 22.1088518  Z M 25.2095798 11.2186759  C 25.2095798 10.4534285  24.5882598 9.83209801999999  23.8230252 9.83209801999999  L 23.0667227 9.83209801999999  L 23.0667227 12.6052539  L 23.8230252 12.6052539  C 24.5882598 12.6052539  25.2095798 11.9839234  25.2095798 11.2186759  Z M 17.0542808 10.0838884  L 17.9867276 10.0838884  C 18.2953221 10.0892844  18.4564 10.1145201  18.6520664 10.1924812  C 19.0653238 10.3571392  19.2852101 10.7197442  19.2852101 11.2186759  C 19.2852101 11.4971435  19.0594713 11.7228861  18.7810084 11.7228861  C 18.5025455 11.7228861  18.2768067 11.4971435  18.2768067 11.2186759  C 18.2768067 11.1140093  18.2883767 11.1330888  18.2788211 11.1292815  L 18.2463056 11.1185948999999  C 18.2102818 11.1088952  18.1627203 11.1021001  18.0945062 11.0977061999999  L 17.9278405 11.0919707  L 17.1131578 11.0919727  C 16.9134934 11.0948175  16.8203825 11.1059989  16.7587275 11.1299925  L 16.7642017 11.2186759  C 16.7642017 11.4971435  16.5384629 11.7228861  16.26 11.7228861  C 15.9815371 11.7228861  15.7557983 11.4971435  15.7557983 11.2186759  C 15.7557983 10.7197442  15.9756846 10.3571392  16.388942 10.1924812  C 16.5846084 10.1145201  16.7456863 10.0892844  17.0542808 10.0838884  Z M 12.012264 10.0838884  L 12.9447108 10.0838884  C 13.2533053 10.0892844  13.4143832 10.1145201  13.6100496 10.1924812  C 14.023307 10.3571392  14.2431933 10.7197442  14.2431933 11.2186759  C 14.2431933 11.4971435  14.0174545 11.7228861  13.7389916 11.7228861  C 13.4605287 11.7228861  13.2347899 11.4971435  13.2347899 11.2186759  C 13.2347899 11.1140093  13.2463599 11.1330888  13.2368043 11.1292815  L 13.2042888 11.1185948999999  C 13.168265 11.1088952  13.1207035 11.1021001  13.0524894 11.0977061999999  L 12.8858237 11.0919707  L 12.071141 11.0919727  C 11.8714766 11.0948175  11.7783657 11.1059989  11.7167107 11.1299925  L 11.7221849 11.2186759  C 11.7221849 11.4971435  11.4964461 11.7228861  11.2179832 11.7228861  C 10.9395203 11.7228861  10.7137815 11.4971435  10.7137815 11.2186759  C 10.7137815 10.7197442  10.9336678 10.3571392  11.3469252 10.1924812  C 11.5425915 10.1145201  11.7036695 10.0892844  12.012264 10.0838884  Z M 14.3808499 4.89584444000002  C 14.4685184 4.75946893000003  14.5490688 4.65342274  14.6429714 4.55951859000004  C 14.8398744 4.36261228000001  15.1591172 4.36261228000001  15.3560202 4.55951859000004  C 15.4499228 4.65342274  15.5304732 4.75946893000003  15.6181417 4.89584444000002  C 15.6640576 4.96727048000002  15.8353779 5.25382614  15.8795248 5.32335581999996  L 15.9802227 5.47444693  C 16.0471122 5.56952720000004  16.11458 5.65446284999996  16.1890066 5.73615186999996  C 16.879999 6.49457095000002  18.1819459 6.93288962999998  20.6717647 6.93288962999998  C 20.9502276 6.93288962999998  21.1759664 7.15863220000006  21.1759664 7.43709978000004  C 21.1759664 7.71556736000002  20.9502276 7.94130994  20.6717647 7.94130994  C 17.922928 7.94130994  16.3521043 7.41247010999996  15.4435985 6.41531285999997  C 15.2886023 6.24519227999997  15.1590978 6.07000814000003  15.028228 5.86389343999997  L 14.9994958 5.81777025999997  L 14.8393542 6.06065598999999  C 14.750725 6.18623494999997  14.6587239 6.30189914000005  14.5553931 6.41531285999997  C 13.6468873 7.41247010999996  12.0760636 7.94130994  9.32722689 7.94130994  C 9.04876399 7.94130994  8.82302521 7.71556736000002  8.82302521 7.43709978000004  C 8.82302521 7.15863220000006  9.04876399 6.93288962999998  9.32722689 6.93288962999998  C 11.8170457 6.93288962999998  13.1189926 6.49457095000002  13.809985 5.73615186999996  C 13.9216248 5.61361834000002  14.0176077 5.48377989000005  14.1194668 5.32335581999996  L 14.3808499 4.89584444000002  Z " fill-rule="nonzero" fill="#0c96df" stroke="none" transform="matrix(1 0 0 1 40 742 )" />
  </g>
</svg>