<?xml version="1.0" encoding="utf-8"?>
<svg version="1.1" xmlns:xlink="http://www.w3.org/1999/xlink" width="24px" height="30px" xmlns="http://www.w3.org/2000/svg">
  <g transform="matrix(1 0 0 1 -43 -935 )">
    <path d="M 17.0129782 0.0187190302999625  C 17.9724632 -0.167785969999954  18.8155328 1.06165192000003  19.1909312 2.71229105999998  L 19.1743513 2.72551467000005  C 20.5780263 1.58884107999995  22.1273446 1.10928868999997  22.7727831 1.90633885  C 23.4182216 2.70338901000002  22.6270272 4.11914650000006  21.2233522 5.25582010000005  C 21.0907434 5.36320458  20.9559388 5.46504324  20.8199857 5.56070526999997  C 21.3820486 6.47872625000002  21.557522 7.62209938000001  21.2202257 8.71862381000005  L 21.1567889 8.90765111999997  L 20.7918236 9.90872803000002  C 21.0224197 9.94565221000005  21.2194517 10.1414032  21 10.4084956  L 21 29.494775  C 21.2194517 29.773803  20.9932548 30  20.7142267 30  L 0.505225039999999 30  C 0.226196960000003 30  0 29.773803  0 29.494775  L 0 10.4084956  C 0 10.0049747  0.449723779999999 9.76428986999997  0.785473469999999 9.98812299999997  L 2.30147811 10.9979964  C 1.36871486 5.97077109999998  2.02722973 1.87977474000002  4.20118074 1.29726632999996  C 6.61234067 0.65119796800002  9.5679474 4.69504695000001  11.2034552 10.3215963  L 12.8221793 5.87410131000001  C 13.3391288 4.45379430000003  14.6004321 3.51958624999997  16.0052109 3.35167132000004  C 15.7298764 1.67231764999997  16.049756 0.205950455999982  17.0129782 0.0187190302999625  Z M 17.0658113 13.0743129  L 13.977556 11.0150453  L 10.8899743 13.0743129  C 10.7202695 13.1874494  10.4991822 13.1874494  10.3294774 13.0743129  L 7.2408853 11.0150453  L 4.15364041 13.0743129  C 4.01221975 13.1685934  3.83511681 13.1843067999999  3.68180206 13.1214531000001  L 3.59314355 13.0743129  L 1 11.3525357  L 1 29  L 20 29  L 20 11.3515252  L 17.6263082 13.0743129  C 17.4848875 13.1685934  17.3077846 13.1843067999999  17.1544698 13.1214531000001  L 17.0658113 13.0743129  Z M 17.4411609 4.50859401000002  C 16.0103871 3.98783492999996  14.4339592 4.67893757000002  13.8362507 6.05759793000004  L 13.7716918 6.21969559000001  L 11.984 11.129  L 13.6976444 9.98812299999997  C 13.8107809 9.91269864000003  13.9467541 9.88755719000005  14.075115 9.91269864000003  L 14.1694827 9.94098278000001  L 14.2581412 9.98812299999997  L 17.3453861 12.0457044  L 19.449 10.643  L 20.2072764 8.56205682999996  C 20.7280355 7.13128300999995  20.0369328 5.55485509000005  18.6582725 4.95714662  L 18.4961748 4.89258766  L 17.4411609 4.50859401000002  Z M 10.4000936 11.2014329  C 8.9439518 5.76703789999999  6.15663322 1.81939930999999  4.46270447 2.27328616  C 3.72372774 2.47129437000001  3.2158409 3.52104292000001  3.00929798 5.10864547000006  L 3.12113855 5.06743993999999  C 3.89980092 4.78081279000003  4.47862611 4.58554750999997  4.86271882 4.48040367999999  C 5.1318453 4.40673139  5.40973862 4.56517832999998  5.4834109 4.83430481999994  C 5.55708319 5.10343131000002  5.39863626 5.38132461999999  5.12950977 5.45499690999998  L 4.74910493 5.56912534000003  C 4.31168656 5.70885962  3.70366446 5.92530528999998  2.92897056 6.21750693000001  L 2.91793209 6.21981201000006  C 2.88856532 6.95807182999999  2.91204789 7.77468452999994  2.99317006 8.64824791000001  C 4.72188363 7.98984365000001  6.13378582 7.65782596999998  7.2415589 7.65782596999998  C 7.520587 7.65782596999998  7.746784 7.88402293000001  7.746784 8.16305102000001  C 7.746784 8.4420791  7.520587 8.66827606000004  7.2415589 8.66827606000004  C 6.22889658 8.66827606000004  4.84902674 9.00494609999998  3.11572278 9.68459146999999  C 3.1873683 10.2210494  3.28188013 10.7737149  3.39779416 11.338795  L 3.46537507 11.6584649  L 3.335 11.686  L 3.87305516 12.0457044  L 6.96131049 9.98812299999997  C 7.1027312 9.89384256000005  7.2798341 9.87812914999995  7.4331488 9.94098278000001  L 7.5218073 9.98812299999997  L 10.6097259 12.0457044  L 10.61 12.044  L 10.5605882 11.8283743  C 10.5096629 11.6197014000001  10.4561543 11.4106545  10.4000936 11.2014329  Z M 21.9875159 2.54223568999998  C 21.9624428 2.51127296000004  21.7533408 2.49517752999998  21.3910417 2.60731807000002  C 20.9184628 2.75359292999997  20.3493075 3.07426020000003  19.8102481 3.51078186999996  C 19.6517215 3.63915420000001  19.5021717 3.77233417000002  19.3637444 3.90771076999999  C 19.3700721 4.00139899999999  19.373587 4.09386483000003  19.3750307 4.18498924999994  C 19.6734275 4.34625176999998  19.9436079 4.54447769000001  20.182275 4.77092532999995  C 20.3187032 4.67966432000003  20.4541758 4.57848054999999  20.5874554 4.47055290000003  C 21.1265147 4.03403122999998  21.5585087 3.54398376999995  21.7998418 3.11214414000005  C 21.984858 2.78107746000001  22.012589 2.57319843000005  21.9875159 2.54223568999998  Z M 17.6208728 1.44386654000004  C 17.4154181 1.12508050999998  17.2448908 1.00300216000005  17.2057812 1.01060429999995  C 17.1666716 1.01820642999996  17.0542927 1.19527617999995  16.9832178 1.56781410999997  C 16.8913754 2.04920469000001  16.9061502 2.69462840000006  17.0351092 3.36863002999996  C 17.2232022 3.39570298000001  17.4111433 3.43825036999999  17.5977279 3.49564470999997  L 17.7867552 3.55908152999996  L 18.1808113 3.70356303999995  C 18.223778 3.65113215999997  18.2682182 3.59880186999999  18.3140578 3.54665577000003  C 18.2984298 3.41729196999995  18.2769584 3.28512697999997  18.2510956 3.15207448000001  C 18.1187429 2.47117879999996  17.8888655 1.85968742  17.6208728 1.44386654000004  Z " fill-rule="nonzero" fill="#0c96df" stroke="none" transform="matrix(1 0 0 1 43 935 )" />
  </g>
</svg>