<?xml version="1.0" encoding="utf-8"?>
<svg version="1.1" xmlns:xlink="http://www.w3.org/1999/xlink" width="25px" height="25px" xmlns="http://www.w3.org/2000/svg">
  <g transform="matrix(1 0 0 1 -25 -63 )">
    <path d="M 9.89148581 0  L 21.3689482 0  C 21.6455516 0  21.869783 0.225085362999998  21.869783 0.502742230000003  L 21.869 14.853  L 24.4991653 14.8537477  C 24.7450349 14.8537477  24.9495242 15.0315929  24.9919309 15.2661214  L 25 15.3564899  L 25 24.4972578  C 25 24.7749146  24.7757687 25  24.4991653 25  L 0.500834725000001 25  C 0.224231344 25  0 24.7749146  0 24.4972578  L 0 15.3564899  C 0 15.0788331  0.224231344 14.8537477  0.500834725000001 14.8537477  L 3.13 14.853  L 3.13021703 2.78793419  C 3.13021703 2.54112807999999  3.30738747 2.33585995999999  3.54102608 2.29329181  L 3.63105175 2.28519196000001  L 9.39 2.285  L 9.39065109 0.502742230000003  C 9.39065109 0.255936126000002  9.56782153 0.0506680005999982  9.80146013 0.0080998504200025  L 9.89148581 0  Z M 20.868 14.853  L 20.8681135 1  L 10.3923205 1  L 10.392 17.138  L 16.6944908 17.1389397  L 16.6944908 15.3564899  C 16.6944908 15.0788331  16.9187222 14.8537477  17.1953255 14.8537477  L 20.868 14.853  Z M 7.30383973 17.6416819  L 7.30383973 15.8592322  L 1.00166945 15.8592322  L 1.00166945 24  L 23.9983306 24  L 23.9983306 15.8592322  L 17.6961603 15.8592322  L 17.6961603 17.6416819  C 17.6961603 17.9193388  17.4719289 18.1444241  17.1953255 18.1444241  L 7.80467446 18.1444241  C 7.52807108 18.1444241  7.30383973 17.9193388  7.30383973 17.6416819  Z M 9.39 17.138  L 9.39 3.29000000000001  L 4.13188648 3.29067642  L 4.131 14.853  L 7.80467446 14.8537477  C 8.05054413 14.8537477  8.25503343 15.0315929  8.29744006 15.2661214  L 8.30550918 15.3564899  L 8.30550918 17.1389397  L 9.39 17.138  Z M 11.9782972 12.5685558  L 19.2821369 12.5685558  C 19.5587403 12.5685558  19.7829716 12.7936411  19.7829716 13.071298  C 19.7829716 13.3489549  19.5587403 13.5740402  19.2821369 13.5740402  L 11.9782972 13.5740402  C 11.7016938 13.5740402  11.4774624 13.3489549  11.4774624 13.071298  C 11.4774624 12.7936411  11.7016938 12.5685558  11.9782972 12.5685558  Z M 11.9782972 10.2833638  L 19.2821369 10.2833638  C 19.5587403 10.2833638  19.7829716 10.5084492  19.7829716 10.786106  C 19.7829716 11.0637629  19.5587403 11.2888483  19.2821369 11.2888483  L 11.9782972 11.2888483  C 11.7016938 11.2888483  11.4774624 11.0637629  11.4774624 10.786106  C 11.4774624 10.5084492  11.7016938 10.2833638  11.9782972 10.2833638  Z M 11.9782972 7.99817185000001  L 19.2821369 7.99817185000001  C 19.5587403 7.99817185000001  19.7829716 8.22325721  19.7829716 8.50091408  C 19.7829716 8.77857093999999  19.5587403 9.00365631  19.2821369 9.00365631  L 11.9782972 9.00365631  C 11.7016938 9.00365631  11.4774624 8.77857093999999  11.4774624 8.50091408  C 11.4774624 8.22325721  11.7016938 7.99817185000001  11.9782972 7.99817185000001  Z M 11.9782972 5.71297989  L 19.2821369 5.71297989  C 19.5587403 5.71297989  19.7829716 5.93806524999999  19.7829716 6.21572212  C 19.7829716 6.49337899  19.5587403 6.71846435  19.2821369 6.71846435  L 11.9782972 6.71846435  C 11.7016938 6.71846435  11.4774624 6.49337899  11.4774624 6.21572212  C 11.4774624 5.93806524999999  11.7016938 5.71297989  11.9782972 5.71297989  Z M 14.0651085 3.42778792999999  L 19.2821369 3.42778792999999  C 19.5587403 3.42778792999999  19.7829716 3.6528733  19.7829716 3.93053016  C 19.7829716 4.20818703  19.5587403 4.43327239  19.2821369 4.43327239  L 14.0651085 4.43327239  C 13.7885051 4.43327239  13.5642738 4.20818703  13.5642738 3.93053016  C 13.5642738 3.6528733  13.7885051 3.42778792999999  14.0651085 3.42778792999999  Z " fill-rule="nonzero" fill="#ffffff" stroke="none" transform="matrix(1 0 0 1 25 63 )" />
  </g>
</svg>