<?xml version="1.0" encoding="utf-8"?>
<svg version="1.1" xmlns:xlink="http://www.w3.org/1999/xlink" width="30px" height="20px" xmlns="http://www.w3.org/2000/svg">
  <g transform="matrix(1 0 0 1 -40 -1060 )">
    <path d="M 0.505166232999997 0  L 29.4958148 0  C 29.7742686 0  30 0.228759619999892  30 0.510948910000025  L 30 9.27007299999991  C 30 9.55226229999994  29.7742686 9.78102190000004  29.4958148 9.78102190000004  L 22.791 9.78099999999995  L 14.1194656 19.8255133  C 14.0428746 19.9142201  13.9390372 19.9726674999999  13.8261272 19.9924982  L 13.7400275 20  L 0.505166232999997 20  C 0.22671244 20  0.000981040802997768 19.7712403999999  0.000981040802997768 19.4890511000001  C 0.000981040802997768 19.2068618000001  0.22671244 18.9781022  0.505166232999997 19  L 13.5112443 19  L 24.0745249 6.74382979999996  C 24.257888 6.53146070000003  24.5764133 6.50994080000009  24.7859712 6.69576370000004  C 24.995529 6.88158670000007  25.016764 7.20438510000008  24.8334009 7.41675420000001  L 23.673 8.75900000000001  L 28.9916296 8.75912410000001  L 28.9916296 1  L 1.00935143 1  L 1.00935143 8.75912410000001  L 6.578 8.75900000000001  L 11.469895 3.09419473000003  C 11.5656338 2.98331116999998  11.7039449 2.91970803000004  11.8493331 3  L 24.4539629 3  C 24.887138 2.91970803000004  25.1186487 3.43674832000011  24.8334009 3.76711913999998  L 13.4892341 16.9058053000001  C 13.3934953 17.0166888000001  13.2551842 17.0802920000001  13.109796 17  L 0.505166232999997 17  C 0.0719910835999968 17.0802920000001  -0.159519623999998 16.5632516999999  0.125728207999998 16.2328809000001  L 5.695 9.78099999999995  L 0.505166232999997 9.78102190000004  C 0.257651750999997 9.78102190000004  0.0517944678000006 9.60027360000004  0.00910413927000064 9.36191669999994  L 0.000981040802997768 9.27007299999991  L 0.000981040802997768 0.510948910000025  C 0.000981040802997768 0.228759619999892  0.22671244 0  0.505166232999997 0  Z M 12.8810128 16  L 23.3428556 4  L 12.0781163 4  L 1.61627354 16  L 12.8810128 16  Z M 13.4300797 6.76470049999989  L 13.9434299 6.04786050000007  C 14.1066958 5.81926679999992  14.4219076 5.76808370000003  14.6474753 5.93353980000006  C 14.8730429 6.09899590000009  14.9235485 6.41843640000002  14.7602826 6.64703000000009  L 14.5071205 7.00244870000006  C 14.9999554 7.39941580000004  14.9963362 8.19835590000002  14.456848 8.95281150000005  C 14.2934546 9.18131160000007  13.9782142 9.23231400000009  13.7527389 9.06672870000011  C 13.5272636 8.90114330000006  13.4769363 8.58167400000002  13.6403297 8.3531739  C 13.9717802 7.88965179999991  13.9429861 7.7747182999999  13.6937594 7.7697326  C 13.1368825 7.76196189999996  12.2533833 8.2788101000001  11.8051616 8.90709719999995  C 11.4741161 9.3711346  11.5028854 9.48605199999997  11.7536561 9.48955230000001  L 11.8895008 9.4966558000001  C 12.9870971 9.59588099999996  13.2224068 10.6817054000001  12.5043909 11.6944174  C 11.9356536 12.4897768000001  10.9208744 13.1286700999999  10.0597912 13.2369446  L 9.54824043 13.9545989000001  C 9.38514585 14.1833182  9.06997242 14.2347437999999  8.84428088 14.0694613000001  C 8.61858934 13.9041787000001  8.56784448 13.5847772  8.73093907 13.3560580000001  L 8.98443703 13.0000379000001  C 8.49102522 12.6040327000001  8.49440269 11.8049638  9.03273961 11.0489024000001  C 9.19567635 10.8200675999999  9.51081422 10.7684187  9.73661974 10.9335412999999  C 9.96242527 11.0986637999999  10.0133905 11.4180292999999  9.85045374 11.6468640999999  C 9.51899237 12.1123814  9.54762065 12.2266529000001  9.79867801 12.2311580999999  C 10.3546012 12.2400236999999  11.238117 11.7237474999999  11.686679 11.0964561000001  C 12.017764 10.6294803000001  11.9890951 10.5153313000001  11.7387814 10.5113384000001  L 11.6027915 10.5044806999999  C 10.5040234 10.4070512999999  10.2684945 9.31691490000003  10.9879879 8.3083772  C 11.554648 7.51407109999991  12.5678979 6.87510229999998  13.4300797 6.76470049999989  Z " fill-rule="nonzero" fill="#472c90" stroke="none" transform="matrix(1 0 0 1 40 1060 )" />
  </g>
</svg>