<?xml version="1.0" encoding="utf-8"?>
<svg version="1.1" xmlns:xlink="http://www.w3.org/1999/xlink" width="20px" height="12px" xmlns="http://www.w3.org/2000/svg">
  <g transform="matrix(1 0 0 1 -332 -70 )">
    <path d="M 19.760622085 0.0719919402562562  L 19.832675613 0.125507510255108  C 20.0150047112 0.288142830251607  20.0504231858 0.555885160245859  19.92860308 0.758638720241494  L 19.87552981 0.831292740239935  L 10.37140304 11.6646261000072  C 10.19598065 11.8645823000029  9.90144279999998 11.8867996000024  9.6995503 11.7312781000058  L 9.62859700000001 11.6646261000072  L 0.124470200000019 0.831292740239935  C -0.0569823000000156 0.624463050244386  -0.0377958000000262 0.308472240251173  0.167324399999984 0.125507510255094  C 0.349653499999988 -0.0371277997414107  0.617520500000012 -0.0399123597413459  0.802235399999972 0.106739790255498  L 0.867276300000015 0.168718850254165  L 10 10.5781725000305  L 19.132723729 0.168718850254179  C 19.294014854 -0.0151297597418694  19.559544294 -0.0508434097411074  19.760622085 0.0719919402562562  Z " fill-rule="nonzero" fill="#ffffff" stroke="none" transform="matrix(1 0 0 1 332 70 )" />
  </g>
</svg>