<?xml version="1.0" encoding="utf-8"?>
<svg version="1.1" xmlns:xlink="http://www.w3.org/1999/xlink" width="30px" height="15px" xmlns="http://www.w3.org/2000/svg">
  <g transform="matrix(1 0 0 1 -141 -494 )">
    <path d="M 9.95798318999999 0  L 16.8907563 0  C 17.1382789 0  17.3441429 0.179873040000018  17.3868346 0.417075629999999  L 17.394958 0.508474579999984  L 17.3945798 5  L 28.2352941 5  C 28.4828167 5.08474580000001  28.6886807 5.26461879999999  28.7313724 5.50182139999998  L 28.7394958 5.59322029999998  L 28.739 11.44  L 29.4957983 11.440678  C 29.7742612 11.440678  30 11.6683298  30 11.9491525  C 30 12.1987728  29.8216385 12.4063814  29.5864292 12.4494349  L 29.4957983 12.4576271  L 23.6556199 12.4575125  C 23.4154419 13.8999826  22.170592 15  20.6722689 15  C 19.1731704 15  17.9289364 13.9003044  17.6888933 12.4576118  L 8.52956950999999 12.4575125  C 8.28939149000001 13.8999826  7.04454161000001 15  5.54621849 15  C 4.04712000000001 15  2.80288601999999 13.9003044  2.56284285999999 12.4576118  L 0.504201681000012 12.4576271  C 0.256679104 12.4576271  0.0508150887000056 12.2777541  0.00812336410999137 12.0405515  L 0 11.9491525  L 0 7.5  C 0 6.22097350000001  0.984102650000011 5.17523829999999  2.23090156000001 5.09031420000002  L 2.39495797999999 5.08474580000001  L 7.125 5.08474580000001  L 9.5070115 0.281077830000015  C 9.57818462 0.137525279999977  9.71128739 0.0380340400000136  9.86419734 0.00885786999998572  L 9.95798318999999 0  Z M 16.394678 5.68461930000001  L 16.3865546 5.59322029999998  L 16.3861765 1.01694915000002  L 10.2692017 1.01694915000002  L 7.88794648000001 5.82061709999999  C 7.81677336999999 5.96416959999999  7.68367058999999 6.0636609  7.53076064000001 6.09283699999997  L 7.43697478999999 6.10169489999998  L 2.39495797999999 6.10169489999998  C 1.67355085 6.10169489999998  1.08185824 6.65560649999998  1.01474356 7.36522009999999  L 1.00840335999999 7.5  L 1.00802521 11.440678  L 2.56284285999999 11.4406933  C 2.80288601999999 9.99800069999998  4.04712000000001 8.89830510000002  5.54621849 8.89830510000002  C 7.04423844999999 8.89830510000002  8.28888773 9.99787739999999  8.5294236 11.439917  L 17.6888933 11.4406933  C 17.9289364 9.99800069999998  19.1731704 8.89830510000002  20.6722689 8.89830510000002  C 22.1702889 8.89830510000002  23.4149382 9.99787739999999  23.655474 11.439917  L 27.731 11.44  L 27.7307143 6.10169489999998  L 16.8907563 6.10169489999998  C 16.6432337 6.10169489999998  16.4373697 5.9218219  16.394678 5.68461930000001  Z M 7.56302521000001 11.9491525  C 7.56302521000001 10.8265855  6.65935223 9.91525419999999  5.54621849 9.91525419999999  C 4.43229848999999 9.91525419999999  3.52941175999999 10.8261071  3.52941175999999 11.9491525  C 3.52941175999999 13.072198  4.43229848999999 13.9830508  5.54621849 13.9830508  C 6.65935223 13.9830508  7.56302521000001 13.0717196  7.56302521000001 11.9491525  Z M 22.6890756 11.9491525  C 22.6890756 10.8265855  21.7854026 9.91525419999999  20.6722689 9.91525419999999  C 19.5583489 9.91525419999999  18.6554622 10.8261071  18.6554622 11.9491525  C 18.6554622 13.072198  19.5583489 13.9830508  20.6722689 13.9830508  C 21.7854026 13.9830508  22.6890756 13.0717196  22.6890756 11.9491525  Z M 11.8487395 2.54237288000002  L 13.1092437 2.54237288000002  C 13.3877066 2.54237288000002  13.6134454 2.77002470000002  13.6134454 3.05084749999997  C 13.6134454 3.30046770000001  13.4350839 3.50807630000003  13.1998746 3.55112980000001  L 13.1092437 3.55932200000001  L 12.159958 3.55932200000001  L 11.039207 5.82061709999999  C 10.9285115 6.04388419999998  10.676915 6.14913330000002  10.4474451 6.08156129999998  L 10.3627494 6.04801379999998  C 10.1413585 5.9363803  10.0369938 5.68265150000002  10.103998 5.45123699999999  L 10.1372636 5.3658236  L 11.3977678 2.82345070999997  C 11.4689409 2.67989815999999  11.6020437 2.58040691999997  11.7549536 2.55123075  L 11.8487395 2.54237288000002  Z " fill-rule="nonzero" fill="#00c5c6" stroke="none" transform="matrix(1 0 0 1 141 494 )" />
  </g>
</svg>