<?xml version="1.0" encoding="utf-8"?>
<svg version="1.1" xmlns:xlink="http://www.w3.org/1999/xlink" width="30px" height="15px" xmlns="http://www.w3.org/2000/svg">
  <g transform="matrix(1 0 0 1 -40 -1123 )">
    <path d="M 9.95798319 0  L 21.9327731 0  C 22.1237506 0  22.2983371 0.108814769999981  22.3837448 0.281077829999958  L 24.7653953 5.08474580000006  L 26.3445378 5.08474580000006  C 27.6670817 5.08474580000006  28.7394958 6.16575020000005  28.7394958 7.5  L 28.739 11.4400000000001  L 29.4957983 11.4406779999999  C 29.7433209 11.4406779999999  29.9491849 11.620551  29.9918766 11.8577536  L 30 11.9491525000001  C 30 12.2299753  29.7742612 12.4576271000001  29.4957983 12.4576271000001  L 26.1766283 12.4575124999999  C 25.9364503 13.8999825999999  24.6916004 15  23.1932773 15  C 21.6941788 15  20.4499448 13.9003044000001  20.2099017 12.4576118  L 8.52956951 12.4575124999999  C 8.28939149 13.8999825999999  7.04454161 15  5.54621849 15  C 4.04712 15  2.80288602 13.9003044000001  2.56284286 12.4576118  L 0.504201680999998 12.4576271000001  C 0.225738782000001 12.4576271000001  0 12.2299753  0 11.9491525000001  L 0 7.5  C 0 6.16536369999994  1.0715371 5.08474580000006  2.39495798 5.08474580000006  L 7.12536101 5.08474580000006  L 9.5070115 0.281077829999958  C 9.59241924 0.108814769999981  9.76700568 0  9.95798319 0  Z M 24.4537815 6.10169489999998  C 24.262804 6.10169489999998  24.0882176 5.99288010000009  24.0028098 5.82061709999994  L 21.6211593 1  L 10.269597 1  L 7.88794648 5.82061709999994  C 7.80253874 5.99288010000009  7.6279523 6.10169489999998  7.43697479 6.10169489999998  L 2.39495798 6.10169489999998  C 1.6284629 6.10169489999998  1.00840336 6.72700920000011  1.00840336 7.5  L 1.00840336 11.4406779999999  L 2.56284286 11.4406933  C 2.80288602 9.99800069999992  4.04712 8.89830510000002  5.54621849 8.89830510000002  C 7.04423845 8.89830510000002  8.28888773 9.99787740000011  8.5294236 11.4399169999999  L 20.2099017 11.4406933  C 20.4499448 9.99800069999992  21.6941788 8.89830510000002  23.1932773 8.89830510000002  C 24.6912973 8.89830510000002  25.9359466 9.99787740000011  26.1764824 11.4399169999999  L 27.731 11.4400000000001  L 27.7310924 7.5  C 27.7310924 6.77294170000005  27.1811507 6.17582670000002  26.4780643 6.10809360000007  L 26.3445378 6.10169489999998  L 24.4537815 6.10169489999998  Z M 7.56302521 11.9491525000001  C 7.56302521 10.8265855  6.65935223 9.91525419999994  5.54621849 9.91525419999994  C 4.43229849 9.91525419999994  3.52941176 10.8261070999999  3.52941176 11.9491525000001  C 3.52941176 13.0721980000001  4.43229849 13.9830508  5.54621849 13.9830508  C 6.65935223 13.9830508  7.56302521 13.0717196000001  7.56302521 11.9491525000001  Z M 25.210084 11.9491525000001  C 25.210084 10.8265855  24.3064111 9.91525419999994  23.1932773 9.91525419999994  C 22.0793573 9.91525419999994  21.1764706 10.8261070999999  21.1764706 11.9491525000001  C 21.1764706 13.0721980000001  22.0793573 13.9830508  23.1932773 13.9830508  C 24.3064111 13.9830508  25.210084 13.0717196000001  25.210084 11.9491525000001  Z M 11.8487395 2.54237289999992  L 13.1092437 2.54237289999992  C 13.3877066 2.54237289999992  13.6134454 2.77002470000002  13.6134454 3.05084749999992  C 13.6134454 3.33167019999996  13.3877066 3.55932200000007  13.1092437 3.55932200000007  L 12.1603533 3.55932200000007  L 11.039207 5.82061709999994  C 10.9146746 6.07179259999998  10.6118142 6.17360159999998  10.3627494 6.04801380000004  C 10.1136847 5.92242609999994  10.0127312 5.61699909999993  10.1372636 5.36582360000011  L 11.3977678 2.82345069999997  C 11.4831755 2.65118759999996  11.657762 2.54237289999992  11.8487395 2.54237289999992  Z " fill-rule="nonzero" fill="#00c5c6" stroke="none" transform="matrix(1 0 0 1 40 1123 )" />
  </g>
</svg>