<?xml version="1.0" encoding="utf-8"?>
<svg version="1.1" xmlns:xlink="http://www.w3.org/1999/xlink" width="30px" height="30px" xmlns="http://www.w3.org/2000/svg">
  <g transform="matrix(1 0 0 1 -40 -995 )">
    <path d="M 9.05549522 10.6493782941618  C 10.5508486 9.1564347849815  13.9582146 10.4116533942923  16.7830502 13.2321600927438  C 19.6078108 16.0566261911932  20.8627565 19.4615959893238  19.3669772 20.9565074885031  C 19.0838133 21.2395070883477  18.7321608 21.4239830882464  18.328934 21.5179441881949  L 2.83730803 29.772583383663  C 2.0884664 30.1724173834436  1.16678161 30.0358228835186  0.564171682000001 29.4352706838482  C -0.0357270509000003 28.8340118841782  -0.172505661999999 27.9126489846841  0.227603066999997 27.1658717850941  L 8.49511335 11.6848674935933  C 8.58920691 11.2829577938139  8.77335597 10.9322273940065  9.05549522 10.6493782941618  Z M 24.9710137 16.8325797907671  C 25.4143601 17.2756689905239  25.4143601 17.9951214901289  24.9710137 18.4382105898857  C 24.5276673 18.8812997896424  23.8077972 18.8812997896424  23.3644507 18.4382105898857  C 22.9211043 17.9951214901289  22.9211043 17.2756689905239  23.3644507 16.8325797907671  C 23.8077972 16.3894905910105  24.5276673 16.3894905910105  24.9710137 16.8325797907671  Z M 20.2787264 15.6166911914347  C 20.0816383 15.4195138915429  20.0818034 15.0999913917184  20.2790951 14.9030176918265  C 22.9226596 12.2637135932755  27.2083587 12.2637135932755  29.8519232 14.9030176918265  C 30.0492149 15.0999913917184  30.0493799 15.4195138915429  29.8522918 15.6166911914347  C 29.6552037 15.8138683913265  29.3354957 15.8140332913264  29.138204 15.6170595914345  C 26.8889349 13.3714153926674  23.2420833 13.3714153926674  20.9928142 15.6170595914345  C 20.7955225 15.8140332913264  20.4758145 15.8138683913265  20.2787264 15.6166911914347  Z M 18.720677 9.45267439481879  C 19.1640234 9.00958520506202  19.8838935 9.00958520506202  20.3281519 9.45358818481831  C 20.7388428 9.86614561459181  20.7681778 10.5164392942348  20.4154269 10.9618737939903  L 20.32724 11.0608283939359  L 20.2282062 11.1489940938875  C 19.7824658 11.5016569936939  19.1323558 11.47226839371  18.720677 11.0608283939359  C 18.2774826 10.6178911941791  18.2774826 9.89788080457433  18.720677 9.45267439481879  Z M 22.5314494 9.77667483464099  L 26.9610039 8.30311603544989  C 27.2255996 8.21509423549824  27.511494 8.35811123541971  27.5995669 8.62255344527461  C 27.6876398 8.88699564512939  27.5445398 9.17272417497255  27.2799441 9.26074597492421  L 22.8503896 10.7343047941152  C 22.5857939 10.8223265940669  22.2998995 10.6793095941454  22.2118266 10.4148673942906  C 22.1237537 10.1504251944357  22.2668537 9.86469663459264  22.5314494 9.77667483464099  Z M 14.3726119 0.86129613153556  C 14.1755237 0.664119004643781  14.1756886 0.344596504819253  14.3729802 0.147622652927352  C 14.5702718 -0.0493511983645108  14.8899797 -0.0491864111646092  15.087068 0.147990715927146  C 17.7304753 2.79259070847527  17.7304753 7.07475479612436  15.0867917 9.71554114467453  C 14.8895509 9.91256579456636  14.5698429 9.91248333456637  14.3727038 9.71535696467461  C 14.1755648 9.51823060478286  14.1756473 9.1987080749582  14.3728881 9.00168341506636  C 16.6220382 6.75499821629981  16.6220382 3.11173733830003  14.3726119 0.86129613153556  Z M 19.2594055 7.146392896085  L 20.7363444 2.71814685851617  C 20.8245304 2.45374230866134  21.110486 2.31084748873975  21.3750441 2.39898232869132  C 21.6396021 2.487117178643  21.7825799 2.77290682848607  21.6943939 3.03731137834091  L 20.2174549 7.46555741590974  C 20.1292689 7.72996196576457  19.8433133 7.87285679568617  19.5787553 7.78472194573448  C 19.3141973 7.69658709578291  19.1712195 7.41079744593984  19.2594055 7.146392896085  Z M 9.33820146 5.76398329684389  C 9.78154787 5.32089410708724  10.501418 5.32089410708724  10.9447644 5.76398329684389  C 11.3563019 6.17528198661816  11.3858286 6.82470991626162  11.0333446 7.27017895601697  L 10.9452209 7.36915764596271  L 10.846123 7.45772386591405  C 10.4000589 7.81198062571956  9.74908477 7.7823670757358  9.33820146 7.36961411596248  C 8.89485504 6.92652493620572  8.89485504 6.20707247660064  9.33820146 5.76398329684389  Z M 24.201509 4.21157395769623  C 24.6448555 3.76848477793948  25.3647256 3.76848477793948  25.808072 4.21157395769623  C 26.2514184 4.65466314745299  26.2514184 5.37411559705796  25.808072 5.81720478681472  L 25.7081818 5.90579220676604  C 25.2627821 6.2564743165736  24.6138443 6.22718968658968  24.201509 5.81720478681472  C 23.7581626 5.37411559705796  23.7581626 4.65466314745299  24.201509 4.21157395769623  Z M 11.6391528 18.373824789921  C 10.0930045 16.8271011907702  9.01746976 15.1074190917143  8.60601307 13.6220079925299  L 1.11817871 27.6417442848329  C 0.927844221999997 27.9969917846379  0.992964712999999 28.435653984397  1.27825885 28.72159778424  C 1.56546181 29.0078186840828  2.00460717 29.0729003840471  2.36178715 28.8821890841518  L 16.3907512 21.4057282882564  C 14.9048973 20.9937454884827  13.1848634 19.9186385890729  11.6391528 18.373824789921  Z M 16.0690475 13.9459187923519  C 13.5924606 11.4731270937096  10.7194204 10.4147454942906  9.76995072 11.3626834937702  C 8.81987631 12.3151493932473  9.87718775 15.1831767916727  12.3534107 17.6603211903127  C 14.8301457 20.1356190889538  17.7021388 21.1930327883732  18.6528893 20.242833888895  C 19.6036044 19.2926703894166  18.5456955 16.4223086909925  16.0690475 13.9459187923519  Z " fill-rule="nonzero" fill="#c508c4" stroke="none" transform="matrix(1 0 0 1 40 995 )" />
  </g>
</svg>