<?xml version="1.0" encoding="utf-8"?>
<svg version="1.1" xmlns:xlink="http://www.w3.org/1999/xlink" width="20px" height="30px" xmlns="http://www.w3.org/2000/svg">
  <g transform="matrix(1 0 0 1 -45 -875 )">
    <path d="M 11.3924051 4.28571428999999  C 11.3924051 1.91944705000003  13.3195073 0  15.6962025 0  C 18.0720429 0  20 1.91985642999998  20 4.28571428999999  L 20 6.80672269000002  C 20 9.00266662000001  18.3405756 10.8131822  16 11.0630183  L 16 29.4957983  C 16.2025316 29.7742612  15.9758404 30  15.6962025 30  C 15.4165647 30  15.1898734 29.7742612  15 29.4957983  L 15 11.0630242  C 13.0510937 10.813237  11.3924051 9.00304635999998  11.3924051 6.80672269000002  L 11.3924051 4.28571428999999  Z M 7.5949367 0.50420168100004  C 7.5949367 0.225738782000008  7.821628 0  8.1012658 0  C 8.3809037 0  8.6075949 0.225738782000008  8.6075949 0.50420168100004  L 8.6075949 6.80672269000002  C 8.6075949 9.00266662000001  6.9481705 10.8131822  5 11.0630183  L 5 29.4957983  C 4.81012658 29.7742612  4.58343532 30  4.30379747 30  C 4.02415962 30  3.79746835 29.7742612  4 29.4957983  L 4 11.0630242  C 1.65868862 10.813237  0 9.00304635999998  0 6.80672269000002  L 0 0.50420168100004  C 0 0.225738782000008  0.226691270000003 0  0.506329110000003 0  C 0.785966959999996 0  1.01265823 0.225738782000008  1.01265823 0.50420168100004  L 1.01265823 6.80672269000002  C 1.01265823 8.44551770999999  2.22017586 9.80313056  3.79765955 10.0455288000001  L 3.79746835 0.50420168100004  C 3.79746835 0.225738782000008  4.02415962 0  4.30379747 0  C 4.58343532 0  4.81012658 0.225738782000008  4.81012658 0.50420168100004  L 4.81074409 10.0453643  C 6.3872698 9.80247994000001  7.5949367 8.44475536000004  7.5949367 6.80672269000002  L 7.5949367 0.50420168100004  Z M 18.9873418 4.28571428999999  C 18.9873418 2.47678223000003  17.5127672 1.00840335999999  15.6962025 1.00840335999999  C 13.8788352 1.00840335999999  12.4050633 2.47632089000001  12.4050633 4.28571428999999  L 12.4050633 6.80672269000002  C 12.4050633 8.61691525000003  13.878372 10.0840336  15.6962025 10.0840336  C 17.5132305 10.0840336  18.9873418 8.61645400999998  18.9873418 6.80672269000002  L 18.9873418 4.28571428999999  Z " fill-rule="nonzero" fill="#970061" stroke="none" transform="matrix(1 0 0 1 45 875 )" />
  </g>
</svg>