<?xml version="1.0" encoding="utf-8"?>
<svg version="1.1" xmlns:xlink="http://www.w3.org/1999/xlink" width="17px" height="12px" xmlns="http://www.w3.org/2000/svg">
  <g transform="matrix(1 0 0 1 -55 -441 )">
    <path d="M 15.1913354 0.293088609999984  C 15.581936 -0.0975119999999947  16.2151596 -0.0977230699999723  16.6060205 0.292617059999998  C 16.9965447 0.682620929999985  16.9969665 1.31536395000001  16.6069626 1.70588815999997  L 6.7069969 11.6058542  L 6.681 11.627  L 6.6567444 11.6561067  C 6.2962604 12.0165907  5.72902939 12.0443202  5.33673819 11.7392953  L 5.24253085 11.6561067  L 0.29278343 6.70635929999997  L 0.209396319999996 6.61189100000001  C -0.0953671600000021 6.21963249999999  -0.0674354000000008 5.6526245  0.293048540000001 5.29241080000003  C 0.683762170000001 4.90199009999998  1.3169601 4.90210880000001  1.7075273 5.29267600000003  L 5.949 9.53399999999999  L 15.1913354 0.293088609999984  Z " fill-rule="nonzero" fill="#ffffff" stroke="none" transform="matrix(1 0 0 1 55 441 )" />
  </g>
</svg>