<?xml version="1.0" encoding="utf-8"?>
<svg version="1.1" xmlns:xlink="http://www.w3.org/1999/xlink" width="27px" height="40px" xmlns="http://www.w3.org/2000/svg">
  <g transform="matrix(1 0 0 1 -47 -185 )">
    <path d="M 8.5067797 16.9491525  L 17.9322034 16.9491525  C 18.0408347 16.9491525  18.1466108 16.983943  18.2340331 17.0484264  C 22.6097083 20.2759595  26.440678 25.9808822  26.440678 30.1694915  C 26.440678 36.8642492  22.4199421 40  13.220339 40  C 4.0207359 40  0 36.8642492  0 30.1694915  C 0 25.9813494  3.8302531 20.2767059  8.204861 17.048492  C 8.2922997 16.9839672  8.3981105 16.9491525  8.5067797 16.9491525  Z M 13.6919373 0.319631858999998  C 13.521467 -0.106543952999999  12.918194 -0.106543952999999  12.7477237 0.319631858999998  L 11.2455932 4.07254237000001  L 5.7930098 1.73602794999999  C 5.3281536 1.53680387  4.8890967 2.06463263000001  5.1696354 2.48544078  L 5.4167749 2.87126995  C 5.4955333 2.99757966999999  5.5860922 3.14534316999999  5.6863595 3.31245547  C 6.0772846 3.96399728  6.4683198 4.66786067000001  6.8328336 5.39688827000001  C 7.2995031 6.33022715000001  7.6875462 7.23566102999999  7.9705 8.08452259000001  C 8.2989048 9.06973704000001  8.4740678 9.94555184999999  8.4740678 10.6779661  C 8.4740678 10.9587889  8.7017196 11.1864407  8.9825424 11.1864407  L 17.4571186 11.1864407  C 17.7379414 11.1864407  17.9655932 10.9587889  17.9655932 10.6779661  C 17.9655932 9.94555184999999  18.1407562 9.06973704000001  18.469161 8.08452259000001  C 18.7521149 7.23566102999999  19.1401579 6.33022715000001  19.6068274 5.39688827000001  C 19.8802127 4.85011757000001  20.1685164 4.31750173  20.4605031 3.81049779  L 20.7533015 3.31245547  C 20.9872587 2.92252678  21.1683584 2.63794152  21.2700256 2.48544078  L 21.3122038 2.41023934  C 21.4988213 2.00505088  21.0841629 1.54852294  20.6466512 1.73602794999999  L 15.1933898 4.07254237000001  L 13.6919373 0.319631858999998  Z M 17.6303737 17.8668278  L 17.7632203 17.9661017  L 8.6747458 17.9661017  L 8.5272072 18.0787189  C 4.5979717 21.0964972  1.17944655 26.2027255  1.02257044 29.9073093  L 1.01694915 30.1694915  C 1.01694915 36.2394974  4.5348001 38.9830508  13.220339 38.9830508  C 21.9058779 38.9830508  25.4237288 36.2394974  25.4237288 30.1694915  C 25.4237288 26.3600834  21.7715287 20.9213769  17.6303737 17.8668278  Z M 7.2876271 14  L 19.1520339 14  C 19.4328567 13.559322  19.6605085 13.7869739  19.6605085 14.0677966  C 19.6605085 14.3174168  19.4806354 14.5250255  19.2434328 14.568079  L 19.1520339 15  L 7.2876271 15  C 7.0068044 14.5762712  6.7791525 14.3486194  6.7791525 14.0677966  C 6.7791525 13.8181764  6.9590256 13.6105678  7.1962282 13.5675142  L 7.2876271 14  Z M 11.997022 4.93460543  L 13.2194915 1.87694915  L 14.442639 4.93460543  L 14.484997 5.01772034999999  C 14.615724 5.22486506000001  14.8816403 5.31315465  15.1150437 5.21312459000001  L 19.5815254 3.29864406999999  L 19.2792995 3.83513742  C 19.0808632 4.19502201  18.8857462 4.56508316  18.6972404 4.94209477999999  C 18.21052 5.91553556  17.8040716 6.86391524000001  17.5043983 7.76293502999999  L 17.390484 8.11926853  C 17.175015 8.82424148999999  17.0342145 9.48273799  16.9772811 10.0891387  L 16.9710169 10.1691525  L 9.4679661 10.1691525  L 9.4623799 10.0891387  C 9.3959576 9.3816712  9.2153829 8.60329555000001  8.9352627 7.76293502999999  C 8.6355894 6.86391524000001  8.229141 5.91553556  7.7424206 4.94209477999999  L 7.455115 4.38219346  C 7.260821 4.01293884  7.0615617 3.65224773  6.8584746 3.29864406999999  L 11.3246173 5.21312459000001  C 11.5871962 5.32565840000001  11.8909242 5.19985016999999  11.997022 4.93460543  Z M 13.5588136 21.6949153  C 13.5588136 21.4140925  13.7864654 21.1864407  14.0672881 21.1864407  C 14.3169084 21.1864407  14.524517 21.3663137  14.5675705 21.6035163  L 14.5757627 21.6949153  L 14.5755159 22.9236028  C 16.0176895 23.1659976  17.1181356 24.4222252  17.1181356 25.9322034  C 17.1181356 26.2130261  16.8904838 26.440678  16.609661 26.440678  C 16.3288383 26.440678  16.1011864 26.2130261  16.1011864 25.9322034  C 16.1011864 24.8106936  15.1892178 23.8983051  14.0672881 23.8983051  C 12.9453585 23.8983051  12.0333898 24.8106936  12.0333898 25.9322034  C 12.0333898 27.0047539  12.8631744 27.8829087  13.9155066 27.960525  L 14.0672881 27.9661017  C 15.7509681 27.9661017  17.1181356 29.3338986  17.1181356 31.0169492  C 17.1181356 32.5290545  16.0184862 33.7836535  14.5756603 34.0256361  L 14.5757627 35.2542373  C 14.5757627 35.53506  14.3481109 35.7627119  14.0672881 35.7627119  C 13.8176679 35.7627119  13.6100593 35.5828388  13.5670058 35.3456362  L 13.5588136 35.2542373  L 13.5579201 34.0254689  C 12.115584 33.7830761  11.0164407 32.5287066  11.0164407 31.0169492  C 11.0164407 30.7361264  11.2440925 30.5084746  11.5249153 30.5084746  C 11.805738 30.5084746  12.0333898 30.7361264  12.0333898 31.0169492  C 12.0333898 32.1405735  12.9440831 33.0508475  14.0672881 33.0508475  C 15.1904931 33.0508475  16.1011864 32.1405735  16.1011864 31.0169492  C 16.1011864 29.9464171  15.2702398 29.0664273  14.2189112 28.9886401  L 14.0672881 28.9830508  C 12.3825424 28.9830508  11.0164407 27.6175781  11.0164407 25.9322034  C 11.0164407 24.4225307  12.1164415 23.1665059  13.558185 22.9237501  L 13.5588136 21.6949153  Z " fill-rule="nonzero" fill="#0c96df" stroke="none" transform="matrix(1 0 0 1 47 185 )" />
  </g>
</svg>