<?xml version="1.0" encoding="utf-8"?>
<svg version="1.1" xmlns:xlink="http://www.w3.org/1999/xlink" width="375px" height="425px" xmlns="http://www.w3.org/2000/svg">
  <g>
    <path d="M 7.51252086499165 369  L 7.21502503518998 369.366644  C -2.50317194833122 369.032247  -2.40400667839733 352.312391  7.51252086499165 352.312391  L 8.16237061455842 352.306103  C 29.5672717802885 351.891652  46.9532553686978 331.039939  47 305.213787  L 47 203.228621  C 46.9532553686978 135.065493  82.0623246452918 74.7394527  134.496516910336 49.4982898  C 140.162423906558 20.9216745  161.906446892062 0  187.499999875 0  C 213.083534857944 0  234.779248843481 20.909376  240.454596839697 49.4978312  L 244.355062837097 51.4569349  C 294.632354803578 77.7695215  328.046744781302 136.791249  328 203.228621  L 328 305.213787  C 328.046744781302 331.321281  345.756211769496 352.312391  367.487478755008 352.312391  C 377.504173748331 352.312391  377.504173748331 369.371728  367.487478755008 369  L 241.487921839008 369  C 237.948945841367 400.711997  215.180139856547 425  187.499999875 425  C 159.789584893474 425  137.044715908637 400.7255  133.511130910993 369  L 7.51252086499165 369  Z M 187.499999875 407.940663  C 206.777650862148 407.940663  222.928386851381 391.360924  226.295946849136 369  L 148.702279900865 369  C 152.063223898624 391.37448  168.19460988787 407.940663  187.499999875 407.940663  Z M 62 305.213787  C 61.9782971586811 323.801202  55.2546177631636 340.579496  44.4957900703361 352  L 330.485802779676 352  L 328.24466978117 349.722772  C 318.80944778746 338.176658  313.021702791319 322.479174  313 305.213787  L 313 203.228621  C 313.021702791319 140.426216  279.907974813395 85.1248598  231.106577845929 63.5974993  C 228.589414847607 62.4871238  226.790813848806 59.9282565  226.39558484907 56.8951784  C 223.415638851056 34.0263366  206.917336862055 17.0593368  187.499999875 17.0593368  C 168.065915887956 17.0593368  151.521508898986 34.0454267  148.558176900961 56.8896748  C 148.164394901224 59.9253282  146.364896902423 62.4869094  143.845736904103 63.5978219  C 95.0525105366317 85.1149189  61.9782971586811 140.399588  62 203.228621  L 62 305.213787  Z " fill-rule="nonzero" fill="#00c5c6" stroke="none" />
  </g>
</svg>