<?xml version="1.0" encoding="utf-8"?>
<svg version="1.1" xmlns:xlink="http://www.w3.org/1999/xlink" width="31px" height="18px" xmlns="http://www.w3.org/2000/svg">
  <g transform="matrix(1 0 0 1 -172 -26 )">
    <path d="M 2.66281924242321 11  L 16.699271202826 11  C 16.9754133714421 11.3066313934412  17.1995696151908 11.5301899905382  17.1999383713772 11.8063320884437  C 17.2003069861422 12.0824741863491  16.9767484597556 12.3066305008085  16.7006062911395 12  L 2.65928370851728 12  L 6.61509616771369 16.2821285087373  C 6.78866252751305 16.4556948685365  6.80794766288838 16.725119169178  6.67295164455035 16.9199873328928  L 6.61509616771366 16.9892352899237  C 6.41983400410055 17.184497453537  6.10325147942959 17.1844973828263  5.90798938652713 16.9892352899237  L 1.09966325324541 12.180909156642  C 1.09411877240558 12.1753646758023  1.08873172889059 12.1697223667393  1.08350215098469 12.1639877731702  C 1.07435706120185 12.1539600727031  1.06531397864327 12.1431797702046  1.05673096096973 12.1320268436455  C 1.0475114906246 12.1200881234624  1.03917284905464 12.1081916034125  1.0314118712985 12.0960328457413  C 1.02402827643149 12.0844232979073  1.0167268615146 12.0718536546278  1.00997217448983 12.0589523711969  C 1.00243341211075 12.044561319844  0.995886847824892 12.0303994983676  0.99003720091153 12.0160205880381  C 0.985718433108332 12.0054618857337  0.981616492528531 11.994307544961  0.97790851649188 11.9829746950816  C 0.972495281741715 11.9662812686938  0.968002862655197 11.9495867321484  0.964387793378535 11.9327416949957  C 0.95710187824227 11.8989945713151  0.953265046136863 11.8639541069056  0.953217090154965 11.8280233102055  L 0.958708467275528 11.9014748614873  C 0.955908246640263 11.8826904920634  0.954178819016988 11.8637773797077  0.953520311684883 11.8448339395422  L 0.953217090154965 11.8280233102055  C 0.953206999741184 11.8204638649531  0.953364712837669 11.8129433883555  0.953686764621153 11.8054653452357  C 0.954247330593006 11.7926088428771  0.955321659138889 11.7795507938729  0.956906433927941 11.76654314744  C 0.95915448901988 11.7478352445432  0.962407724685562 11.7296881763191  0.96661046333702 11.711907530829  C 0.968831061472656 11.7026573013388  0.971421801723977 11.6929568286769  0.974308961137979 11.6833262181649  C 0.979369384959682 11.6664104703341  0.985161317817585 11.6502924167341  0.991732355069132 11.6345808222543  C 0.996557489109392 11.6229993819147  1.00193902426255 11.6113659480136  1.00779124504461 11.5999110232192  C 1.01578713074454 11.5843606773697  1.02445872061347 11.5694074054152  1.03385582325313 11.5549693526746  C 1.05239495390325 11.5263726038695  1.07439401460223 11.4990716140987  1.09966325324541 11.4738023754555  L 1.05048407560884 11.5309796944625  C 1.06321458568101 11.5137095022867  1.07702952885495 11.4972872867049  1.09182863031802 11.4818135912303  L 1.09966325324541 11.4738023754555  L 5.92084583938811 6.65261978931289  C 6.11610800300124 6.45735762569961  6.43269047110365 6.4573576398418  6.62795262057466 6.65261978931289  C 6.82321476297457 6.84788193171266  6.82321478418777 7.16446440688628  6.62795262057466 7.35972657049933  L 2.66281924242321 11  Z M 25.0920106006035 1.0107647229454  L 29.900336712672 5.81909083501409  C 29.9029884338122 5.82174255615405  29.9056041741773 5.82441668161914  29.9081838133471 5.82711248330088  C 29.9221404416988 5.84168775499143  29.9354349046429 5.85738580144698  29.9477370839339 5.87386824216173  C 29.9549137209497 5.88341779179086  29.9616635051082 5.89316650589376  29.9680276332282 5.90309100674244  C 29.9762177125119 5.91594810222205  29.9838392874896 5.92911589087544  29.9908607348609 5.94264537072831  C 29.9968208344698 5.95406934991365  30.002358169147 5.96586730366266  30.007409512162 5.97782187873509  C 30.0138832027301 5.99312255154427  30.0195965576399 6.00873822416088  30.0245324613716 6.02469577017814  C 30.0286079738354 6.03799655833382  30.032168105865 6.05151956045233  30.0351535814058 6.06514331609492  C 30.042723785995 6.09943100452483  30.0467338811821 6.13523851645027  30.0467829176232 6.17197671030044  L 30.0421044714705 6.10420061159084  C 30.0442383097254 6.11972888651644  30.0456423275151 6.13533828214599  30.0463163911964 6.15097321210874  L 30.0467829176232 6.17197671030044  C 30.0467905289206 6.17767488504182  30.0467027734335 6.18335090542064  30.0465211587136 6.1890032638853  C 30.0458926461441 6.20854150883997  30.0440871564585 6.22832787544303  30.0411099724518 6.24797100059686  C 30.0397327540091 6.25732311073898  30.0380754208719 6.26651226246668  30.0361706555156 6.27561056652939  C 30.032645864683 6.29221867129172  30.0283229532341 6.30865913022831  30.0231512145416 6.32488775623688  C 30.018912027364 6.33827096546611  30.0140597948705 6.35148883686634  30.0086792334034 6.36443204677971  C 30.0036937423944 6.37645692721685  29.998197717461 6.38836641065564  29.9922088079884 6.40008896617405  C 29.9844803974493 6.41511684001534  29.9761281511448 6.42957848890933  29.9670970780878 6.44356086506946  C 29.9484925619808 6.47252350557142  29.9261164210344 6.50041790783825  29.9003367128135 6.52619761605911  L 29.9454807389342 6.47441809990391  C 29.9359055238745 6.48704914762902  29.9257437665683 6.49921131001929  29.9150360160538 6.51086403803606  L 29.9003367128135 6.52619761605911  L 25.0791541111144 11.3473802177582  C 24.8838919687145 11.5426423601582  24.567309493541 11.5426423813713  24.3720473299279 11.3473802177582  C 24.1767852370254 11.1521181248559  24.1767851875279 10.8355355789715  24.3720473299279 10.6402734365718  L 28.3378664743778 7  L 15.1031877964327 7  C 14.8577281931338 6.69225625688136  14.6533437156473 6.51565386340621  14.6106963803334 6.28246133239509  L 14.6025206915212 6.19259656700092  C 14.6021520272587 5.91645441959804  14.8257105748584 5.69229812635194  15.1018527222613 6  L 28.3399877947214 6  L 24.3849038181442 1.7178715054049  C 24.2113374583448 1.54430514560545  24.1920523668101 1.27488080112335  24.3270483900979 1.0800126324591  L 24.3849038195584 1.0107647228042  C 24.5801659654938 0.815502576868539  24.8967485077011 0.815502630043056  25.0920106006035 1.0107647229454  Z " fill-rule="nonzero" fill="#472c90" stroke="none" transform="matrix(1 0 0 1 172 26 )" />
  </g>
</svg>