<?xml version="1.0" encoding="utf-8"?>
<svg version="1.1" xmlns:xlink="http://www.w3.org/1999/xlink" width="25px" height="25px" xmlns="http://www.w3.org/2000/svg">
  <g transform="matrix(1 0 0 1 -327 -63 )">
    <path d="M 4.36300175000002 12.5  C 4.36300175000002 8.00605259  8.00605259000002 4.36300175  12.5 4.36300175  C 16.9939474 4.36300175  20.6369983 8.00605259  20.6369983 12.5  C 20.6369983 16.9939474  16.9939474 20.6369983  12.5 20.6369983  C 8.00605259000002 20.6369983  4.36300175000002 16.9939474  4.36300175000002 12.5  Z M 11.9982548 22.3167539  C 11.9982548 22.0396477  12.2228938 21.8150087  12.5 21.8150087  C 12.7771062 21.8150087  13.0017452 22.0396477  13.0017452 22.3167539  L 13.0017452 24.4982548  C 13.0017452 24.775361  12.7771062 25  12.5 25  C 12.2228938 25  11.9982548 24.775361  11.9982548 24.4982548  L 11.9982548 22.3167539  Z M 3.66102845 20.6304874  L 5.20444031 19.0870756  C 5.40038399999997 18.8911319  5.71807149 18.8911319  5.91401517999998 19.0870756  C 6.10995887000001 19.2830193  6.10995887000001 19.6007067  5.91401517999998 19.7966504  L 4.37060331999999 21.3400623  C 4.17465963000001 21.536006  3.85697213999998 21.536006  3.66102845 21.3400623  C 3.46508476000002 21.1441186  3.46508476000002 20.8264311  3.66102845 20.6304874  Z M 19.0870756 19.7966504  C 18.8911319 19.6007067  18.8911319 19.2830193  19.0870756 19.0870756  C 19.2830193 18.8911319  19.6007067 18.8911319  19.7966504 19.0870756  L 21.3389716 20.6293967  C 21.5349152 20.8253404  21.5349152 21.1430279  21.3389716 21.3389716  C 21.1430279 21.5349152  20.8253404 21.5349152  20.6293967 21.3389716  L 19.0870756 19.7966504  Z M 22.3167539 11.9982548  L 24.4982548 11.9982548  C 24.775361 11.9982548  25 12.2228938  25 12.5  C 25 12.7771062  24.775361 13.0017452  24.4982548 13.0017452  L 22.3167539 13.0017452  C 22.0396477 13.0017452  21.8150087 12.7771062  21.8150087 12.5  C 21.8150087 12.2228938  22.0396477 11.9982548  22.3167539 11.9982548  Z M 0.501745201000006 11.9982548  L 2.68324607 11.9982548  C 2.96035230000001 11.9982548  3.18499127000001 12.2228938  3.18499127000001 12.5  C 3.18499127000001 12.7771062  2.96035230000001 13.0017452  2.68324607 13.0017452  L 0.501745201000006 13.0017452  C 0.224638977999973 13.0017452  0 12.7771062  0 12.5  C 0 12.2228938  0.224638977999973 11.9982548  0.501745201000006 11.9982548  Z M 3.66157382 4.37169407  C 3.46563013000002 4.17575038  3.46563013000002 3.85806289  3.66157382 3.66211920000001  C 3.85751750999998 3.46617551  4.17520500000001 3.46617551  4.37114868999998 3.66211920000001  L 5.91346980999998 5.20444031  C 6.10941350000002 5.400384  6.10941350000002 5.71807149  5.91346980999998 5.91401518000001  C 5.71752612 6.10995887  5.39983862999998 6.10995887  5.20389494 5.91401518000001  L 3.66157382 4.37169407  Z M 19.0875119 5.20444031  L 20.629833 3.66211920000001  C 20.8257767 3.46617551  21.1434642 3.46617551  21.3394079 3.66211920000001  C 21.5353515 3.85806289  21.5353515 4.17575038  21.3394079 4.37169407  L 19.7970867 5.91401518000001  C 19.601143 6.10995887  19.2834556 6.10995887  19.0875119 5.91401518000001  C 18.8915682 5.71807149  18.8915682 5.400384  19.0875119 5.20444031  Z M 11.9982548 0.501745200999999  C 11.9982548 0.224638978000002  12.2228938 0  12.5 0  C 12.7771062 0  13.0017452 0.224638978000002  13.0017452 0.501745200999999  L 13.0017452 2.68324607  C 13.0017452 2.9603523  12.7771062 3.18499127  12.5 3.18499127  C 12.2228938 3.18499127  11.9982548 2.9603523  11.9982548 2.68324607  L 11.9982548 0.501745200999999  Z M 19.6335079 12.5  C 19.6335079 8.56026504  16.439735 5.36649215  12.5 5.36649215  C 8.56026503999999 5.36649215  5.36649215 8.56026504  5.36649215 12.5  C 5.36649215 16.439735  8.56026503999999 19.6335079  12.5 19.6335079  C 16.439735 19.6335079  19.6335079 16.439735  19.6335079 12.5  Z " fill-rule="nonzero" fill="#ffffff" stroke="none" transform="matrix(1 0 0 1 327 63 )" />
  </g>
</svg>