<?xml version="1.0" encoding="utf-8"?>
<svg version="1.1" xmlns:xlink="http://www.w3.org/1999/xlink" width="40px" height="19px" xmlns="http://www.w3.org/2000/svg">
  <g transform="matrix(1 0 0 1 -50 -206 )">
    <path d="M 13.220339 0  L 22.5423729 0  C 22.7919931 0  22.9996017 0.173825599999986  23.0426553 0.40305330000001  L 23.0508475 0.491379300000005  L 23.050678 6.5517241  L 37.7966102 6.5517241  C 38.0462304 6.5517241  38.253839 6.72554969999999  38.2968925 6.95477740000001  L 38.3050847 7.04310340000001  L 38.305 14.741  L 39.4915254 14.7413793  C 39.7723482 14.7413793  40 14.9652369  40 15.2413793  C 40 15.4868392  39.820127 15.6909877  39.5829244 15.7333236  L 39.4915254 15.7413793  L 31.4900973 15.7417654  C 31.2327342 17.5809372  29.6005054 19  27.6271186 19  C 25.6526783 19  24.0213281 17.581381  23.7641182 15.741876  L 11.1511143 15.7417654  C 10.8937512 17.5809372  9.26152233 19  7.28813559 19  C 5.30764305 19  3.67234726 17.5726708  3.42280864 15.7249484  L 0.508474575999998 15.7241379  C 0.25885435 15.7241379  0.0512457251000029 15.5503123  0.00819220617999861 15.3210847  L 0 15.2327586  L 0 9.5  C 0 7.92896049999999  1.26918524 6.64633760000001  2.87149026 6.55672559999999  L 3.05084746 6.5517241  L 9.51508475 6.5517241  L 12.7655455 0.271627800000005  C 12.8373218 0.132901599999997  12.9715525 0.03675530000001  13.1257583 0.00856010000001106  L 13.220339 0  Z M 22.0420905 7.1314295  L 22.0338983 7.04310340000001  L 22.0337288 0.982430999999991  L 13.5340678 0.982430999999991  L 10.285302 7.262855  C 10.2135257 7.40158120000001  10.0792949 7.4977274  9.92508912 7.5259227  L 9.83050847 7.53448280000001  L 3.05084746 7.53448280000001  C 1.97768828 7.53448280000001  1.1000868 8.3354387  1.02252212 9.35319459999999  L 1.01694915 9.5  L 1.01644068 14.7410517  L 3.42274997 14.7410035  C 3.67209083 12.8930703  5.30748777 11.4655172  7.28813559 11.4655172  C 9.2677265 11.4655172  10.904011 12.8935169  11.1535009 14.7411108  L 23.761733 14.7410035  C 24.0110739 12.8930703  25.6464708 11.4655172  27.6271186 11.4655172  C 29.6067095 11.4655172  31.2429941 12.8935169  31.4924839 14.7411108  L 37.288 14.741  L 37.2879661 7.53448280000001  L 22.5423729 7.53448280000001  C 22.2927527 7.53448280000001  22.085144 7.36065719999999  22.0420905 7.1314295  Z M 10.1694915 15.2327586  C 10.1694915 13.6958641  8.87849928 12.4482759  7.28813559 12.4482759  C 5.69670157 12.4482759  4.40677966 13.6952603  4.40677966 15.2327586  C 4.40677966 16.7702569  5.69670157 18.0172414  7.28813559 18.0172414  C 8.87849928 18.0172414  10.1694915 16.7696532  10.1694915 15.2327586  Z M 30.5084746 15.2327586  C 30.5084746 13.6958641  29.2174823 12.4482759  27.6271186 12.4482759  C 26.0356846 12.4482759  24.7457627 13.6952603  24.7457627 15.2327586  C 24.7457627 16.7702569  26.0356846 18.0172414  27.6271186 18.0172414  C 29.2174823 18.0172414  30.5084746 16.7696532  30.5084746 15.2327586  Z M 15.7627119 3.27586210000001  L 17.4576271 3.27586210000001  C 17.7384499 3.27586210000001  17.9661017 3.49586009999999  17.9661017 3.76724139999999  C 17.9661017 4.00846920000001  17.7862287 4.20909789999999  17.5490261 4.25070389999999  L 17.4576271 4.25862069999999  L 16.0764407 4.25796550000001  L 14.5225901 7.262855  C 14.4109565 7.47861570000001  14.1572278 7.5803263  13.9258132 7.5150261  L 13.8403999 7.4826065  C 13.6171327 7.3747261  13.5118836 7.1295279  13.5794556 6.90589370000001  L 13.6130031 6.82335190000001  L 15.3079184 3.54748989999999  C 15.3796947 3.40876370000001  15.5139254 3.31261739999999  15.6681312 3.2844221  L 15.7627119 3.27586210000001  Z " fill-rule="nonzero" fill="#00c5c6" stroke="none" transform="matrix(1 0 0 1 50 206 )" />
  </g>
</svg>