<?xml version="1.0" encoding="utf-8"?>
<svg version="1.1" xmlns:xlink="http://www.w3.org/1999/xlink" width="25px" height="26px" xmlns="http://www.w3.org/2000/svg">
  <g transform="matrix(1 0 0 1 -40 -447 )">
    <path d="M 12.4098107 0.508083786930001  L 12.5 0.5  C 12.7771062 0.5  13.0017452 0.724638977999973  13.0017452 1.00174520100001  L 13 1.00174520100001  L 13 12.498  L 21.5533962694882 12.4981895365987  L 24.4982548 12.4982548  C 24.7445714 12.4982548  24.9494325 12.6757473  24.9919162 12.9098107  L 25 13  C 25 13.2771062  24.775361 13.5017452  24.4982548 13.5017452  L 20.194205182154 13.5014662309912  L 13 13.501  L 13 24.9982548  C 13.0017452 25.2445714  12.8242527 25.4494325  12.5901893 25.4919162  L 12.5 25.5  C 12.2228938 25.5  11.9982548 25.275361  11.9982548 24.9982548  L 12 24.9982548  L 12 13.501  L 5.04856360727325 13.5014504701827  L 0.501745200999999 13.5017452  C 0.255428557999998 13.5017452  0.0505675166999993 13.3242527  0.00808378693000122 13.0901893  L 0 13  C 0 12.7228938  0.224638978000002 12.4982548  0.501745200999999 12.4982548  L 5.04856269200835 12.4981540255202  L 12 12.498  L 12 1.00174520100001  C 11.9982548 0.755428558000006  12.1757473 0.550567516700028  12.4098107 0.508083786930001  Z " fill-rule="nonzero" fill="#472c90" stroke="none" transform="matrix(1 0 0 1 40 447 )" />
  </g>
</svg>