<?xml version="1.0" encoding="utf-8"?>
<svg version="1.1" xmlns:xlink="http://www.w3.org/1999/xlink" width="23px" height="18px" xmlns="http://www.w3.org/2000/svg">
  <g transform="matrix(1 0 0 1 -302 -701 )">
    <path d="M 4.85951699999998 12.692597  L 7.18909000000002 14.9826  C 7.284424 15.078655  7.38069100000001 15.172547  7.53353700000002 15.319475  C 7.61021 15.396711  7.68766900000003 15.471227  7.79479500000002 15.572349  C 7.82440500000001 15.5988199999999  7.83068500000002 15.6052549999999  7.89969000000002 15.6770710000001  C 7.92291399999999 15.701241  7.94068199999998 15.71946  7.94994400000002 15.728428  C 8.16146500000002 15.936009  8.40468499999997 16.109796  8.66936800000002 16.242782  C 8.937794 16.376889  9.225461 16.469927  9.52203500000002 16.5186160000001  C 9.85337399999997 16.572821  10.188435 16.6021029999999  10.534995 16.606418  C 10.636378 16.6091730000001  10.680573 16.610328  10.735503 16.611584  C 10.846129 16.614114  10.937755 16.6153850000001  11.024789 16.6153850000001  L 17.015914 16.6153850000001  L 17.015914 18  L 17.014037 17.307692  L 17.014037 16.6153850000001  L 17.619016 16.6153850000001  C 17.752009 16.6153850000001  17.861505 16.613148  18.118622 16.606207  C 18.455317 16.60212  18.791208 16.572827  19.122755 16.518686  C 19.418509 16.47012  19.70494 16.377234  19.97323 16.2426809999999  C 20.239091 16.109961  20.481888 15.936656  20.690946 15.7308390000001  C 20.902462 15.52121  21.08027 15.281119  21.214059 15.026923  C 21.350028 14.759926  21.445406 14.474748  21.496005 14.1871610000001  C 21.550055 13.860854  21.57933 13.531043  21.583843 13.188658  C 21.589255 13.009644  21.592048 12.854209  21.592048 12.706154  L 21.592048 5.59037999999998  C 21.592048 5.44211300000006  21.592048 5.44211300000006  21.592048 5.30346099999997  C 21.591196 5.23994900000002  21.591196 5.23994900000002  21.590445 5.17731700000002  C 21.588236 4.993019  21.586899 4.91244099999994  21.583588 4.79953799999998  C 21.57933 4.46895700000005  21.550055 4.13914599999998  21.497141 3.81949199999997  C 21.445406 3.52525200000002  21.350028 3.24007400000005  21.217036 2.97885599999995  C 21.080823 2.71751599999993  20.903953 2.47869100000003  20.692594 2.27078900000004  C 20.481888 2.06334400000003  20.239091 1.890039  19.972056 1.75673099999995  C 19.70494 1.62276599999996  19.418509 1.52988000000005  19.119026 1.48069199999998  C 18.790021 1.42487700000004  18.456897 1.39582599999994  18.107763 1.39357900000005  C 17.861505 1.38685199999998  17.752009 1.38461499999994  17.619016 1.38461499999994  L 11.022911 1.38461499999994  C 10.935878 1.38461499999994  10.844251 1.38588600000003  10.733626 1.38841600000001  C 10.678696 1.38967200000002  10.6345 1.39082699999994  10.517998 1.39383299999997  C 10.184974 1.39584300000001  9.852687 1.42488300000002  9.520556 1.48131799999999  C 9.22358300000002 1.53007300000002  8.93591700000002 1.62311099999999  8.66891700000002 1.75650300000007  C 8.402807 1.89020400000004  8.15958699999999 2.06399099999999  7.93387000000001 2.28511900000001  C 7.85891199999997 2.36400600000002  7.82911100000001 2.39489000000003  7.80339400000003 2.41896499999996  C 7.70158199999997 2.513417  7.61421799999999 2.59735999999998  7.51951600000001 2.69246399999997  C 7.36582399999998 2.83991500000002  7.279786 2.92374500000005  7.18130300000001 3.02328299999999  L 4.80655200000001 5.35949900000003  C 4.76807700000001 5.39062200000001  4.752771 5.40540299999998  4.73589099999998 5.42179699999997  C 4.70857699999999 5.44837400000006  4.70857699999999 5.44837400000006  4.68045100000001 5.47584200000006  C 4.56167900000003 5.59001899999998  4.51339100000001 5.63725599999998  4.45182399999999 5.700469  L 2.347328 7.76854300000002  C 2.32585999999998 7.78932199999997  2.32585999999998 7.78932199999997  2.30310400000002 7.81171100000006  C 2.27975600000002 7.83481699999993  2.27975600000002 7.83481699999993  2.25528700000001 7.85920099999998  C 2.20475800000003 7.90965099999994  2.179013 7.93523500000003  2.15175499999998 7.96184300000004  C 2.076618 8.03573200000005  2.04574400000001 8.06698600000004  2.01215100000002 8.10400700000002  C 1.83203600000002 8.27808600000003  1.696887 8.42501300000004  1.572046 8.58023400000002  L 1.52064799999999 8.63736500000005  C 1.49005899999997 8.66780800000004  1.46433999999999 8.70255999999995  1.44431100000003 8.74042699999995  C 1.39606400000002 8.90970200000004  1.39592399999998 9.08875999999998  1.44389000000001 9.25809200000003  C 1.46679 9.30138199999999  1.49578100000002 9.34134800000004  1.53005200000001 9.37679100000003  C 1.69663400000002 9.57388500000002  1.83692000000002 9.72563400000001  1.99118299999998 9.87613399999998  C 2.01237200000003 9.89733899999999  2.01237200000003 9.89733899999999  2.03318400000001 9.91819599999997  C 2.05350700000002 9.93856299999993  2.05350700000002 9.93856299999993  2.07351999999997 9.95859199999995  C 2.11403899999999 9.99905699999999  2.12973 10.014651  2.151858 10.036418  C 2.18177600000001 10.0656300000001  2.20611400000001 10.089773  2.25728199999998 10.140799  C 2.30678699999999 10.190158  2.32703700000002 10.210246  2.35437400000001 10.236947  L 4.44797799999998 12.298586  L 4.65292699999998 12.49546  L 4.78977700000002 12.628556  C 4.81429700000001 12.648473  4.83758999999998 12.669857  4.85951699999998 12.692597  Z M 17.619016 0  C 17.769348 0  17.887624 0.00241600000003928  18.131585 0.00924399999996695  C 18.542815 0.011698000000024  18.95314 0.0474819999999454  19.354663 0.115608999999949  C 19.792425 0.187494000000015  20.216386 0.324978999999985  20.610586 0.522681000000034  C 21.009067 0.721606999999949  21.372982 0.981362999999988  21.688571 1.29206899999997  C 22.003325 1.60167300000001  22.266994 1.95770400000004  22.473033 2.35307699999998  C 22.670704 2.74123399999996  22.809362 3.15582300000005  22.88571 3.590238  C 22.950993 3.98436100000004  22.986352 4.38271499999996  22.991241 4.77019599999994  C 22.99463 4.882295  22.99606 4.96846600000003  22.998367 5.16100000000006  C 22.999112 5.22312799999997  22.999112 5.22312799999997  23 5.29384600000003  L 23 12.706154  C 23 12.869176  22.997041 13.037967  22.991495 13.218  C 22.986352 13.617285  22.950993 14.015639  22.884574 14.416415  C 22.809362 14.8441769999999  22.670704 15.258766  22.468842 15.655019  C 22.265157 16.0422120000001  22.002679 16.3966330000001  21.688794 16.707712  C 21.372982 17.018637  21.009067 17.2783930000001  20.61176 17.476731  C 20.216386 17.675021  19.792425 17.812506  19.354038 17.884494  C 18.951356 17.950252  18.544166 17.985762  18.14686 17.990502  C 17.887624 17.997584  17.769348 18  17.619016 18  L 17.015914 18  L 17.015914 17.307692  L 17.014 16.895  L 17.014037 18  L 11.024789 18  C 10.925476 18  10.823456 17.998585  10.702768 17.995825  C 10.645083 17.994506  10.598462 17.993288  10.506807 17.990716  C 10.099372 17.985737  9.69291600000003 17.950216  9.29057499999999 17.884395  C 8.85229900000002 17.812442  8.42775699999999 17.6751360000001  8.03018300000002 17.476503  C 7.63339200000002 17.277146  7.27073200000001 17.018015  6.96953500000001 16.722042  C 6.94449600000001 16.698813  6.93075299999998 16.684721  6.87636700000002 16.62812  C 6.85981500000003 16.610894  6.835759 16.586245  6.83448800000002 16.584802  C 6.70357200000001 16.461606  6.61631599999998 16.377665  6.538139 16.298618  C 6.38990100000001 16.1564  6.286451 16.0555019999999  6.18756000000002 15.955788  L 3.91161299999999 13.718573  L 3.833662 13.646079  L 3.665955 13.482953  L 3.45791400000002 13.283053  L 1.36019499999998 11.217428  C 1.33027700000002 11.188216  1.30593900000002 11.164073  1.25477100000001 11.1130470000001  C 1.221768 11.080141  1.20176600000002 11.060245  1.18409800000001 11.042823  L 1.13264299999997 10.992207  L 0.993502999999976 10.8531370000001  C 0.816617000000008 10.680654  0.648654000000022 10.499549  0.490247000000011 10.310506  C 0.345418999999993 10.156259  0.227452000000028 9.97949399999993  0.141168999999991 9.78732200000002  L 0.11516499999999 9.72017500000004  C -0.0383879999999976 9.25193100000001  -0.0383879999999976 8.74806899999999  0.11516499999999 8.27982499999996  L 0.139257999999984 8.21697199999994  C 0.224365999999975 8.02389199999993  0.342988999999989 7.84697000000006  0.489717999999982 7.69407799999999  C 0.641679000000011 7.50742200000002  0.805095999999992 7.33006699999999  0.979057000000012 7.163006  C 1.02836000000002 7.10943499999996  1.07226600000001 7.065247  1.15790900000002 6.98103300000002  C 1.18178399999999 6.95772299999999  1.20274999999998 6.93688700000007  1.25277699999998 6.88695299999995  C 1.27867400000002 6.86114399999997  1.27867400000002 6.86114399999997  1.30574999999999 6.83434699999998  C 1.33341899999999 6.80712100000005  1.33341899999999 6.80712100000005  1.35717899999997 6.78414599999996  L 3.44462299999998 4.73306500000001  C 3.509702 4.66593499999999  3.56827099999998 4.60864100000003  3.660256 4.52074500000003  C 3.71686699999998 4.46547199999998  3.71686699999998 4.46547199999998  3.74647299999998 4.43666400000006  C 3.78106200000002 4.40307000000007  3.81078600000001 4.37452499999995  3.84022599999997 4.34673199999997  L 6.17856499999999 2.05131000000006  C 6.28116199999999 1.94751299999996  6.37418000000002 1.85688200000004  6.52411699999999 1.71332099999995  C 6.62130400000001 1.61541899999997  6.72217699999999 1.51849600000003  6.83476300000001 1.41405800000007  C 6.92342000000002 1.32086200000003  6.94234 1.30144599999994  6.953461 1.29150500000003  C 7.26885399999998 0.981985000000009  7.63151399999998 0.722853999999984  8.02973300000002 0.522782000000007  C 8.42588000000001 0.324863999999934  8.85042199999998 0.187557999999967  9.28473200000002 0.116266999999993  C 9.68925000000002 0.0475169999999707  10.098849 0.0117209999999659  10.494237 0.00949500000001535  C 10.596585 0.00671199999999317  10.643206 0.00549399999999878  10.70089 0.00417500000003201  C 10.781349 0.00233500000001641  10.853511 0.00109299999996892  10.922105 0.000469000000066444  L 17.619016 0  Z M 17.412037 6.30461500000001  C 17.64048 6.06451300000003  17.639848 5.68822599999999  17.403638 5.45582200000001  C 17.166794 5.22279400000002  16.782725 5.22259800000006  16.545636 5.45538499999998  C 16.521977 5.47886500000004  16.500695 5.50378599999999  16.481787 5.52985999999999  L 13.815 8.15200000000004  L 11.168342 5.55213200000003  C 11.166175 5.54890999999998  11.163973 5.545705  11.161735 5.54251599999998  L 11.091904 5.46000000000004  C 10.978728 5.34702200000004  10.824197 5.28340800000001  10.662927 5.28340800000001  C 10.501657 5.28340800000001  10.347127 5.34702200000004  10.233951 5.46000000000004  C 9.99820799999998 5.69275800000003  9.99872099999999 6.0693  10.235098 6.30143599999997  L 10.231 6.29700000000003  L 10.21987 6.30923099999995  L 12.958 8.995  L 10.320205 11.589838  C 10.315691 11.5927349999999  10.311208 11.595698  10.306756 11.5987259999999  L 10.222686 11.667692  C 9.98705200000001 11.901552  9.98705200000001 12.278448  10.222686 12.512308  C 10.459776 12.745094  10.843845 12.744898  11.080689 12.51187  L 11.075 12.515  L 11.086272 12.526154  L 13.818 9.83899999999994  L 16.552206 12.521538  C 16.795448 12.7458790000001  17.177646 12.7455689999999  17.413706 12.513743  C 17.650083 12.281607  17.650596 11.905066  17.414853 11.6723079999999  C 17.389144 11.646644  17.361301 11.623527  17.33173 11.603124  L 14.675 8.99599999999998  L 17.412037 6.30461500000001  Z " fill-rule="nonzero" fill="#3f434a" stroke="none" transform="matrix(1 0 0 1 302 701 )" />
  </g>
</svg>