<?xml version="1.0" encoding="utf-8"?>
<svg version="1.1" xmlns:xlink="http://www.w3.org/1999/xlink" width="80px" height="80px" xmlns="http://www.w3.org/2000/svg">
  <defs>
    <mask fill="white" id="clip3179">
      <path d="M 0 8  C 0 3.58172200000001  3.58172200000001 0  8 0  L 62 0  C 66.418278 0  70 3.58172200000001  70 8  L 70 62  C 70 66.418278  66.418278 70  62 70  L 8 70  C 3.58172200000001 70  0 66.418278  0 62  L 0 8  Z " fill-rule="evenodd" />
    </mask>
    <filter x="275px" y="212px" width="80px" height="80px" filterUnits="userSpaceOnUse" id="filter3180">
      <feOffset dx="0" dy="2" in="SourceAlpha" result="shadowOffsetInner" />
      <feGaussianBlur stdDeviation="2.5" in="shadowOffsetInner" result="shadowGaussian" />
      <feComposite in2="shadowGaussian" operator="atop" in="SourceAlpha" result="shadowComposite" />
      <feColorMatrix type="matrix" values="0 0 0 0 0.105882352941176  0 0 0 0 0.211764705882353  0 0 0 0 0.584313725490196  0 0 0 0.0980392156862745 0  " in="shadowComposite" />
    </filter>
    <g id="widget3181">
      <path d="M 0 8  C 0 3.58172200000001  3.58172200000001 0  8 0  L 62 0  C 66.418278 0  70 3.58172200000001  70 8  L 70 62  C 70 66.418278  66.418278 70  62 70  L 8 70  C 3.58172200000001 70  0 66.418278  0 62  L 0 8  Z " fill-rule="nonzero" fill="#ffffff" stroke="none" fill-opacity="0" transform="matrix(1 0 0 1 280 215 )" />
      <path d="M 0 8  C 0 3.58172200000001  3.58172200000001 0  8 0  L 62 0  C 66.418278 0  70 3.58172200000001  70 8  L 70 62  C 70 66.418278  66.418278 70  62 70  L 8 70  C 3.58172200000001 70  0 66.418278  0 62  L 0 8  Z " stroke-width="2" stroke="#00c5c6" fill="none" transform="matrix(1 0 0 1 280 215 )" mask="url(#clip3179)" />
    </g>
  </defs>
  <g transform="matrix(1 0 0 1 -275 -212 )">
    <use xlink:href="#widget3181" filter="url(#filter3180)" />
    <use xlink:href="#widget3181" />
  </g>
</svg>