<?xml version="1.0" encoding="utf-8"?>
<svg version="1.1" xmlns:xlink="http://www.w3.org/1999/xlink" width="70px" height="70px" xmlns="http://www.w3.org/2000/svg">
  <defs>
    <mask fill="white" id="clip3178">
      <path d="M 62.5 0  C 62.5 0  7.5 0  7.5 0  C 3.35786438 0  0 3.35786438  0 7.5  C 0 7.5  0 62.5  0 62.5  C 0 66.6421356  3.35786438 70  7.5 70  C 7.5 70  62.5 70  62.5 70  C 66.6421356 70  70 66.6421356  70 62.5  C 70 62.5  70 7.5  70 7.5  C 70 3.35786438  66.6421356 0  62.5 0  Z " fill-rule="evenodd" />
    </mask>
  </defs>
  <g transform="matrix(1 0 0 1 -25 -215 )">
    <path d="M 62.5 0  C 62.5 0  7.5 0  7.5 0  C 3.35786438 0  0 3.35786438  0 7.5  C 0 7.5  0 62.5  0 62.5  C 0 66.6421356  3.35786438 70  7.5 70  C 7.5 70  62.5 70  62.5 70  C 66.6421356 70  70 66.6421356  70 62.5  C 70 62.5  70 7.5  70 7.5  C 70 3.35786438  66.6421356 0  62.5 0  Z " fill-rule="nonzero" fill="#ffffff" stroke="none" transform="matrix(1 0 0 1 25 215 )" />
    <path d="M 62.5 0  C 62.5 0  7.5 0  7.5 0  C 3.35786438 0  0 3.35786438  0 7.5  C 0 7.5  0 62.5  0 62.5  C 0 66.6421356  3.35786438 70  7.5 70  C 7.5 70  62.5 70  62.5 70  C 66.6421356 70  70 66.6421356  70 62.5  C 70 62.5  70 7.5  70 7.5  C 70 3.35786438  66.6421356 0  62.5 0  Z " stroke-width="2" stroke="#1b254a" fill="none" stroke-opacity="0.0980392156862745" transform="matrix(1 0 0 1 25 215 )" mask="url(#clip3178)" />
  </g>
</svg>