<?xml version="1.0" encoding="utf-8"?>
<svg version="1.1" xmlns:xlink="http://www.w3.org/1999/xlink" width="375px" height="150px" xmlns="http://www.w3.org/2000/svg">
  <g>
    <path d="M 0 75  C 0 33.5751827  83.9432279 0  187.5 0  C 291.056772 0  375 33.5751827  375 75  C 375 116.416164  291.045682 150  187.5 150  C 83.9543177 150  0 116.416164  0 75  Z M 359.947644 75  C 359.947644 36.900542  282.743797 6.02094241  187.5 6.02094241  C 92.256203 6.02094241  15.052356 36.900542  15.052356 75  C 15.052356 113.090974  92.2677159 143.979058  187.5 143.979058  C 282.732284 143.979058  359.947644 113.090974  359.947644 75  Z M 187.211315 32.724687  L 187.5 32.7225131  C 191.656593 32.7225131  195.026178 34.070347  195 35.7329843  L 195 72  L 285.667539 72  C 289.727468 71.9895288  293.036567 73.2754017  293.188283 74.8845258  L 293.193717 75  C 293.193717 76.6626373  289.824133 78.0104712  285.667539 78  L 195 78  L 195 114.267016  C 195.026178 115.890987  191.811496 117.214627  187.788685 117.275313  L 187.5 117.277487  C 183.343407 117.277487  179.973822 115.929653  180 114.267016  L 180 78  L 89.3324607 78  C 85.2725324 78.0104712  81.9634332 76.7245983  81.8117174 75.1154742  L 81.8062827 75  C 81.8062827 73.3373627  85.1758674 71.9895288  89.3324607 72  L 180 72  L 180 35.7329843  C 179.973822 34.1090129  183.188504 32.7853733  187.211315 32.724687  Z " fill-rule="nonzero" fill="#00c5c6" stroke="none" />
  </g>
</svg>