<?xml version="1.0" encoding="utf-8"?>
<svg version="1.1" xmlns:xlink="http://www.w3.org/1999/xlink" width="35px" height="10px" xmlns="http://www.w3.org/2000/svg">
  <g transform="matrix(1 0 0 1 -51 -245 )">
    <path d="M 29.943559 0.572018619999994  L 32.1734903 0.572018619999994  L 34.394366 9.71549949999999  L 31.8470374 9.71549949999999  L 31.5219429 8.35761452  L 27.9948028 8.35761452  L 27.4166054 9.71549949999999  L 24.5251655 9.71549949999999  L 28.6621975 1.25309799999999  C 28.6621975 1.25309799999999  28.9134892 0.572018619999994  29.943559 0.572018619999994  Z M 17.9961079 3.43542705999999  C 17.9961079 0.924796759999992  21.2656173 0.408450789999989  22.6425149 0.408450789999989  C 23.9157265 0.408450789999989  25.1377741 0.807074540000002  25.1377741 0.807074540000002  L 24.7415934 2.77066561999999  C 23.5548625 2.20925106999999  20.8526838 2.07637649  20.8526838 3.11023399999999  C 20.8526838 4.14370299000001  24.7248406 4.36554913999998  24.7248406 6.74291636000001  C 24.7248406 9.0317005  21.8678119 9.87323949999998  19.9752002 9.87323949999998  C 18.0816829 9.87323949999998  16.8433353 9.356505  16.8433353 9.356505  L 17.2553632 7.30394235  C 18.3918358 8.08642603999999  21.8338536 8.30788365999999  21.8338536 7.06733237  C 21.8338536 5.82755807999999  17.9961079 5.79803042  17.9961079 3.43542705999999  Z M 0.445529905599997 0.572018619999994  L 4.81800631999999 0.572018619999994  C 6.02149005 0.572018619999994  6.13377896999999 1.39529712000001  6.13377896999999 1.39529712000001  L 7.06740706 5.5070273  L 7.38072939 6.86102707999999  L 10.02540527 0.572018619999994  L 13.0114757 0.572018619999994  L 8.5973437 9.71549949999999  L 5.70680939 9.71549949999999  L 3.29712528 1.77177509999999  L 3.1150806 1.67966963000001  L 3.102366 1.67345079  L 2.91120756 1.58177516999999  L 2.73402213 1.49982395999999  L 2.722366 1.49445079  L 2.538366 1.41345078999998  L 2.35857795 1.33864932  C 2.24007277 1.28996623  2.12475589 1.24475107000001  2.01326876 1.20281316000001  L 1.85640376 1.14455157999998  L 1.83202674 1.13578778999999  C 1.78645398 1.11945813  1.74163875 1.10370388999999  1.69763066 1.08851028999999  L 1.80436599999999 1.12645079000001  L 1.69093804 1.08664052999998  C 1.381379429 0.979918339999983  1.11206146 0.900975490000008  0.900302883999998 0.844664059999985  L 0.824365999999998 0.824450789999986  L 0.903076940999995 0.845178079999982  L 0.801535571999999 0.818755649999986  L 0.753366 0.806450789999985  L 0.708372208 0.795705769999984  C 0.622641537 0.77480786000001  0.552743944999996 0.759138820000004  0.500844274999999 0.748055139999991  L 0.4553547338 0.738515530000001  L 0.421826343900001 0.731827179999982  C 0.403765669729999 0.728311599999984  0.394396185193798 0.726650449999994  0.394365999999998 0.726650449999994  L 0.445529905599997 0.572018619999994  Z M 14.0931621 0.572018619999994  L 16.868238 0.572018619999994  L 15.1336458 9.71549949999999  L 12.3594755 9.71549949999999  L 14.0931621 0.572018619999994  Z M 31.0723344 6.48144091  L 30.2519008 3.05894906999998  L 28.7944086 6.48144091  L 31.0723344 6.48144091  Z " fill-rule="nonzero" fill="#ffffff" stroke="none" transform="matrix(1 0 0 1 51 245 )" />
  </g>
</svg>