<?xml version="1.0" encoding="utf-8"?>
<svg version="1.1" xmlns:xlink="http://www.w3.org/1999/xlink" width="21px" height="21px" xmlns="http://www.w3.org/2000/svg">
  <g transform="matrix(1 0 0 1 -330 -314 )">
    <path d="M 14.6889021 1.58745685000002  C 15.5410217 0.736420993000024  16.9216965 0.736420993000024  17.7728701 1.58760054200002  L 19.5526102 3.36651513999999  C 20.4024602 4.21855018000002  20.4024602 5.59703112  19.5521322 6.44954473000001  L 18.974938 7.02619792000002  L 18.9606252 7.04432589999999  C 18.9546142 7.05033686000002  18.9484891 7.05616391000001  18.9422566 7.06180705000003  L 17.779938 8.22119792000001  L 17.7635388 8.24183771000003  C 17.7575995 8.24774843  17.7515495 8.25348019  17.7453956 8.25903299999999  L 6.68593795999999 19.3131979  C 6.67997592 19.3213716  6.67806633999999 19.3232514  6.67614558000002 19.3251129  L 6.47056069000001 19.5295306  C 6.40433480000002 19.5957484  6.32093994000002 19.6421655  6.22976406999999 19.6635566  L 0.808315440000001 20.9355014  C 0.444809093999993 21.0207849  0.118343028000027 20.6943053  0.203638415 20.3307994  L 1.47557432000002 14.9101514  C 1.4969658 14.8189867  1.54337685000002 14.7356018  1.60958410000001 14.6693813  L 1.81493796000001 14.4631979  C 1.82196864000002 14.4557376  1.82387821999998 14.4538578  1.82579896999999 14.4519962  L 14.6889021 1.58745685000002  Z M 5.46093796000002 18.8101979  L 2.32893796000002 15.6771979  L 1.36856392999999 19.770587  L 5.46093796000002 18.8101979  Z M 16.695938 7.88119791999998  L 13.264938 4.43419791999997  L 2.88693796000001 14.8131979  L 6.32493796 18.2511979  L 16.695938 7.88119791999998  Z M 17.890938 6.68619791999998  L 14.451938 3.24719792000002  L 13.975938 3.72319792000002  L 17.406938 7.17019792000002  L 17.890938 6.68619791999998  Z M 17.0615015 2.29914180999998  C 16.6030926 1.84072968200002  15.859123 1.84072968200002  15.4001611 2.29910760000001  L 15.162938 2.53519791999997  L 18.602938 5.97519792000003  L 18.8402474 5.73852025999997  C 19.2983868 5.27920287000001  19.2983868 4.53637842000001  18.8407864 4.07760063000001  L 17.0615015 2.29914180999998  Z " fill-rule="nonzero" fill="#a9a9a9" stroke="none" transform="matrix(1 0 0 1 330 314 )" />
  </g>
</svg>