<?xml version="1.0" encoding="utf-8"?>
<svg version="1.1" xmlns:xlink="http://www.w3.org/1999/xlink" width="21px" height="21px" xmlns="http://www.w3.org/2000/svg">
  <g transform="matrix(1 0 0 1 -40 -425 )">
    <path d="M 3.82247899 0.125  L 6.34348739 0.125  C 6.52912933 0.125  6.67962185 0.27549252099999  6.67962185 0.461134453999989  L 6.679 1.80500000000001  L 13.57 1.80500000000001  L 13.5703782 0.461134453999989  C 13.5703782 0.298697763000007  13.685599 0.163172340000017  13.8387698 0.131829057000004  L 13.9065126 0.125  L 16.427521 0.125  C 16.6131629 0.125  16.7636555 0.27549252099999  16.7636555 0.461134453999989  L 16.763 1.80500000000001  L 19.7888655 1.80567227  C 19.9513022 1.80567227  20.0868277 1.92089311000001  20.1181709 2.07406391000001  L 20 2.14180671999998  L 20 19.7888655  C 20.125 19.9745075  19.9745075 20.125  19.7888655 20  L 0.461134454000003 20  C 0.275492520999997 20.125  0.125 19.9745075  0.125 19.7888655  L 0.125 2.14180671999998  C 0.125 1.95616479  0.275492520999997 1.80567227  0.461134454000003 1.80567227  L 3.486 1.80500000000001  L 3.48634454 0.461134453999989  C 3.48634454 0.298697763000007  3.60156537 0.163172340000017  3.75473618 0.131829057000004  L 3.82247899 0.125  Z M 19.4527311 19.4527311  L 19.452 7  L 1 7  L 1 19.4527311  L 19.4527311 19.4527311  Z M 13.9805025 7.69344079000001  L 14.0703782 7.68802520999998  C 14.3465205 7.68802520999998  14.5703782 7.83851772999998  14.5703782 8.02415966000001  L 14.57 9.36799999999999  L 18.1081933 9.36869747999998  C 18.2732083 9.36869747999998  18.410451 9.54557263999999  18.4389122 9.77882184999999  L 18.4443277 9.86869747999998  C 18.4443277 10.1448399  18.2938352 10.3686975  18.1081933 10.3686975  L 14.57 10.368  L 14.57 12.73  L 18.1081933 12.730042  C 18.2732083 12.730042  18.410451 12.9069172  18.4389122 13.1401664  L 18.4443277 13.230042  C 18.4443277 13.5061844  18.2938352 13.730042  18.1081933 13.730042  L 14.57 13.73  L 14.57 16.091  L 18.1081933 16.0913866  C 18.27063 16.0913866  18.4061554 16.2066074  18.4374987 16.3597782  L 18.4443277 16.427521  C 18.4443277 16.6131629  18.2938352 16.7636555  18.1081933 16.7636555  L 14.57 16.763  L 14.5703782 18.1081933  C 14.5703782 18.2732083  14.393503 18.410451  14.1602538 18.4389122  L 14.0703782 18.4443277  C 13.7942358 18.4443277  13.5703782 18.2938352  13.5703782 18.1081933  L 13.57 16.763  L 10.368 16.763  L 10.3686975 18.1081933  C 10.3686975 18.2732083  10.1918223 18.410451  9.95857311 18.4389122  L 9.86869748 18.4443277  C 9.5925551 18.4443277  9.36869748 18.2938352  9.36869748 18.1081933  L 9.368 16.763  L 6.167 16.763  L 6.16701681 18.1081933  C 6.16701681 18.2732083  5.99014165 18.410451  5.75689244 18.4389122  L 5.66701681 18.4443277  C 5.39087443 18.4443277  5.16701681 18.2938352  5.16701681 18.1081933  L 5.167 16.763  L 2.14180672 16.7636555  C 1.97937003 16.7636555  1.84384461 16.6484346  1.81250133 16.4952638  L 1.80567227 16.427521  C 1.80567227 16.2418791  1.95616479 16.0913866  2.14180672 16.0913866  L 5.167 16.091  L 5.167 13.73  L 2.14180672 13.730042  C 1.97679167 13.730042  1.83954899 13.5531669  1.81108784 13.3199176  L 1.80567227 13.230042  C 1.80567227 12.9538996  1.95616479 12.730042  2.14180672 12.730042  L 5.167 12.73  L 5.167 10.368  L 2.14180672 10.3686975  C 1.97679167 10.3686975  1.83954899 10.1918223  1.81108784 9.95857310999997  L 1.80567227 9.86869747999998  C 1.80567227 9.59255510000003  1.95616479 9.36869747999998  2.14180672 9.36869747999998  L 5.167 9.36799999999999  L 5.16701681 8.02415966000001  C 5.16701681 7.85914460999999  5.34389197 7.72190194000001  5.57714117 7.69344079000001  L 5.66701681 7.68802520999998  C 5.94315918 7.68802520999998  6.16701681 7.83851772999998  6.16701681 8.02415966000001  L 6.167 9.36799999999999  L 9.368 9.36799999999999  L 9.36869748 8.02415966000001  C 9.36869748 7.85914460999999  9.54557264 7.72190194000001  9.77882185 7.69344079000001  L 9.86869748 7.68802520999998  C 10.1448399 7.68802520999998  10.3686975 7.83851772999998  10.3686975 8.02415966000001  L 10.368 9.36799999999999  L 13.57 9.36799999999999  L 13.5703782 8.02415966000001  C 13.5703782 7.85914460999999  13.7472533 7.72190194000001  13.9805025 7.69344079000001  Z M 3.48634454 3.82247898999998  L 3.486 2.47699999999998  L 0.797268907999999 2.47794118000002  L 0.796999999999997 6  L 19.452 6  L 19.4527311 2.47794118000002  L 16.763 2.47699999999998  L 16.7636555 3.82247898999998  C 16.7636555 3.98491567999997  16.6484346 4.12044111  16.4952638 4.15178438999999  L 16.427521 4.15861345000002  L 13.9065126 4.15861345000002  C 13.7208707 4.15861345000002  13.5703782 4.00812092000001  13.5703782 3.82247898999998  L 13.57 2.80500000000001  L 6.679 2.80500000000001  L 6.67962185 3.82247898999998  C 6.67962185 3.98491567999997  6.56440101 4.12044111  6.41123021 4.15178438999999  L 6.34348739 4.15861345000002  L 3.82247899 4.15861345000002  C 3.63683706 4.15861345000002  3.48634454 4.00812092000001  3.48634454 3.82247898999998  Z M 6.00735294 3.48634454  L 6.00735294 0.797268907999978  L 4.15861345 0.797268907999978  L 4.15861345 3.48634454  L 6.00735294 3.48634454  Z M 16.0913866 3.48634454  L 16.0913866 0.797268907999978  L 14.2426471 0.797268907999978  L 14.2426471 3.48634454  L 16.0913866 3.48634454  Z M 9.368 16.091  L 9.368 13.73  L 6.167 13.73  L 6.167 16.091  L 9.368 16.091  Z M 13.57 16.091  L 13.57 13.73  L 10.368 13.73  L 10.368 16.091  L 13.57 16.091  Z M 9.368 12.73  L 9.368 10.368  L 6.167 10.368  L 6.167 12.73  L 9.368 12.73  Z M 13.57 12.73  L 13.57 10.368  L 10.368 10.368  L 10.368 12.73  L 13.57 12.73  Z " fill-rule="nonzero" fill="#ffffff" stroke="none" transform="matrix(1 0 0 1 40 425 )" />
  </g>
</svg>