<?xml version="1.0" encoding="utf-8"?>
<svg version="1.1" xmlns:xlink="http://www.w3.org/1999/xlink" width="22px" height="22px" xmlns="http://www.w3.org/2000/svg">
  <g transform="matrix(1 0 0 1 -209 -424 )">
    <path d="M 0.916666666699996 11  C 0.916666666699996 5.42996202  5.42941981999999 0.916666666699996  11 0.916666666699996  C 16.5683712 0.916666666699996  21.0833333 5.43108641999999  21.0833333 11  C 21.0833333 16.5689136  16.5683712 21.0833333  11 21.0833333  C 5.42941981999999 21.0833333  0.916666666699996 16.570038  0.916666666699996 11  Z M 20.0833333 11  C 20.0833333 5.98339806000001  16.0161134 1.91666666700002  11 1.91666666700002  C 5.98173147 1.91666666700002  1.91666666699999 5.98221988  1.91666666699999 11  C 1.91666666699999 16.0177801  5.98173147 20.0833333  11 20.0833333  C 16.0161134 20.0833333  20.0833333 16.0166019  20.0833333 11  Z M 10.08333333 6.41666666999998  C 10.08333333 6.14052428999997  10.30719096 5.91666666999998  10.58333333 5.91666666999998  C 10.85947571 5.91666666999998  11.0833333 6.14052428999997  11.0833333 6.41666666999998  L 11.0833333 10.78004914  L 15.9211956 15.2147563  C 16.1247551 15.4013525  16.1385066 15.7176362  15.9519104 15.9211956  C 15.7653142 16.1247551  15.4490305 16.1385066  15.245471 15.9519104  L 10.24547102 11.3685771  C 10.14215651 11.2738721  10.08333333 11.1401532  10.08333333 11  L 10.08333333 6.41666666999998  Z " fill-rule="nonzero" fill="#a9a9a9" stroke="none" transform="matrix(1 0 0 1 209 424 )" />
  </g>
</svg>