<?xml version="1.0" encoding="utf-8"?>
<svg version="1.1" xmlns:xlink="http://www.w3.org/1999/xlink" width="25px" height="25px" xmlns="http://www.w3.org/2000/svg">
  <defs>
    <mask fill="white" id="clip3165">
      <path d="M 0.5 14  C 0.220000000000027 14  0 13.78  0 13.5  C 0 13.22  0.220000000000027 13  0.5 13  L 24.5 13  C 24.78 13  25 13.22  25 13.5  C 25 13.78  24.78 14  24.5 14  L 0.5 14  Z M 12 24.5  L 12 0.5  C 12 0.220000000000027  12.22 0  12.5 0  C 12.78 0  13 0.220000000000027  13 0.5  L 13 24.5  C 13 24.78  12.78 25  12.5 25  C 12.22 25  12 24.78  12 24.5  Z " fill-rule="evenodd" />
    </mask>
  </defs>
  <g transform="matrix(1 0 0 1 -15 -17 )">
    <path d="M 0.5 14  C 0.220000000000027 14  0 13.78  0 13.5  C 0 13.22  0.220000000000027 13  0.5 13  L 24.5 13  C 24.78 13  25 13.22  25 13.5  C 25 13.78  24.78 14  24.5 14  L 0.5 14  Z M 12 24.5  L 12 0.5  C 12 0.220000000000027  12.22 0  12.5 0  C 12.78 0  13 0.220000000000027  13 0.5  L 13 24.5  C 13 24.78  12.78 25  12.5 25  C 12.22 25  12 24.78  12 24.5  Z " fill-rule="nonzero" fill="#472c90" stroke="none" transform="matrix(1 0 0 1 15 17 )" />
    <path d="M 0.5 14  C 0.220000000000027 14  0 13.78  0 13.5  C 0 13.22  0.220000000000027 13  0.5 13  L 24.5 13  C 24.78 13  25 13.22  25 13.5  C 25 13.78  24.78 14  24.5 14  L 0.5 14  Z " stroke-width="2" stroke="#472c90" fill="none" transform="matrix(1 0 0 1 15 17 )" mask="url(#clip3165)" />
    <path d="M 12 24.5  L 12 0.5  C 12 0.220000000000027  12.22 0  12.5 0  C 12.78 0  13 0.220000000000027  13 0.5  L 13 24.5  C 13 24.78  12.78 25  12.5 25  C 12.22 25  12 24.78  12 24.5  Z " stroke-width="2" stroke="#472c90" fill="none" transform="matrix(1 0 0 1 15 17 )" mask="url(#clip3165)" />
  </g>
</svg>