<?xml version="1.0" encoding="utf-8"?>
<svg version="1.1" xmlns:xlink="http://www.w3.org/1999/xlink" width="39px" height="13px" xmlns="http://www.w3.org/2000/svg">
  <g transform="matrix(1 0 0 1 -453 -116 )">
    <path d="M 33.8946625999999 0.224662370000004  L 36.4525249 0.224662370000004  L 39 12.7833422  L 36.0780642 12.7833422  L 35.7051617 10.918271  L 31.6593246 10.918271  L 30.9960981 12.7833422  L 27.6794465 12.7833422  L 32.4248655 1.160133  C 32.4248655 1.160133  32.7131119000001 0.224662370000004  33.8946625999999 0.224662370000004  Z M 20.1902333 4.15758794000001  C 20.1902333 0.709207340000006  23.9405529000001 0  25.5199355 0  C 26.9803841 0  28.3821445999999 0.54751447000001  28.3821445999999 0.54751447000001  L 27.927702 3.24453019000001  C 26.5664518 2.47342062999999  23.4668938999999 2.29091581  23.4668938999999 3.71093139999999  C 23.4668938999999 5.13041337000001  27.9084855999999 5.4351217  27.9084855999999 8.70046386999999  C 27.9084855999999 11.8441361  24.6313056 13  22.4603686 13  C 20.2883929 13  18.8679353 12.290259  18.8679353 12.290259  L 19.3405556 9.4710398  C 20.6441565 10.5457904  24.5923534 10.8499651  24.5923534 9.14605309999999  C 24.5923534 7.44320837999999  20.1902333 7.40265177999999  20.1902333 4.15758794000001  Z M 0.0586880092999991 0.224662370000004  L 5.07417567000004 0.224662370000004  C 6.45464229000004 0.224662370000004  6.58344428999999 1.35544518  6.58344428999999 1.35544518  L 7.65437063000002 7.00295553999999  L 8.01376976999995 8.86269035000001  L 11.0473686 0.224662370000004  L 14.472567 0.224662370000004  L 9.40929795 12.7833422  L 6.09368505999998 12.7833422  L 3.32899999999995 1.87299999999999  L 3.29999999999995 1.85499999999999  L 3.31458740000005 1.86296386999999  C 3.29731026000002 1.85232625  3.28005759999996 1.84176106999999  3.26283056 1.83126794  L 3.29999999999995 1.85499999999999  L 3.12300000000005 1.74799999999999  L 2.91999999999996 1.63  L 2.72000000000003 1.51900000000001  L 2.58299999999997 1.446  L 2.66423585999996 1.48852055  C 2.63027407000004 1.47027057  2.59647867000001 1.45230673  2.56285964999995 1.43462546000001  L 2.58299999999997 1.446  L 2.471 1.387  L 2.33188972000005 1.31674609000001  L 2.17399999999998 1.239  L 2.28270146 1.29161687999999  L 2.10599999999999 1.20599999999999  L 1.96120714999995 1.13857499  C 1.90111743 1.11086191000001  1.84192128999996 1.08412272000001  1.78369106000002 1.05833165999999  L 1.61099999999999 0.983000000000004  L 1.51300000000003 0.942000000000007  L 1.47296010000002 0.925015430000002  C 1.46267277000004 0.920785490000014  1.45242466000002 0.916587759999999  1.44221623999999 0.912422050000003  L 1.41465226000003 0.901212579999992  L 1.43200000000002 0.908999999999992  L 1.28765183999997 0.851116789999992  C 0.873382259999971 0.688445300000012  0.534820048000029 0.581511360000007  0.309001903999956 0.517132580000009  L 0.26319034100004 0.50406916  C 0.171196900000041 0.47848135000001  0.101370261000056 0.460886189999997  0.0568359210000153 0.450167560000011  L 0.0520000000000209 0.449000000000012  C 0.0518190502999687 0.448962480000006  0.0492265392999798 0.448343060000013  0.0467309631000035 0.447749390000013  L 0.0267570004999698 0.44307336  L 0.00661751626000751 0.438490169999994  L 0 0.437051020000013  L 0.0586880092999991 0.224662370000004  Z M 15.7133250000001 0.224662370000004  L 18.8965003 0.224662370000004  L 16.906821 12.7833422  L 13.7246844 12.7833422  L 15.7133250000001 0.224662370000004  Z M 35.1894343 8.34132423  L 34.2483487 3.64049094000001  L 32.5765195 8.34132423  L 35.1894343 8.34132423  Z " fill-rule="nonzero" fill="#ffffff" stroke="none" transform="matrix(1 0 0 1 453 116 )" />
  </g>
</svg>