<?xml version="1.0" encoding="utf-8"?>
<svg version="1.1" xmlns:xlink="http://www.w3.org/1999/xlink" width="30px" height="30px" xmlns="http://www.w3.org/2000/svg">
  <g transform="matrix(1 0 0 1 -462 -15 )">
    <path d="M 2 0  L 28 0  C 29.1045695 0  30 0.895430500000003  30 2  L 30 28  C 30 29.1045695  29.1045695 30  28 30  L 2 30  C 0.895430499999975 30  0 29.1045695  0 28  L 0 2  C 0 0.895430500000003  0.895430499999975 0  2 0  Z M 20.2754919 16.3303484  C 20.0393401 16.0837819  19.7245769 15.9605005  19.3311928000001 15.9605005  C 19.1138602999999 15.9605005  18.9220276999999 15.9960742  18.7556894000001 16.0672228  C 18.6306321 16.1199708  18.5155933 16.2009317  18.4105695 16.3101079  C 18.3055456 16.4192842  18.2226813 16.5425656  18.1619737999999 16.6799558  C 18.0806259 16.8664141  18.0399525 17.09703  18.0399525 17.3718106  C 18.0399525 17.8011552  18.1571161000001 18.1381857  18.3914467 18.3829122  C 18.6257773 18.6276386  18.9414512 18.75  19.3384777 18.75  C 19.7306476 18.75  20.0438931 18.6270253  20.2782238 18.3810721  C 20.5125544 18.135119  20.6297178999999 17.7944085  20.6297178999999 17.3589303  C 20.6297178999999 16.9197721  20.5116438 16.5769149  20.2754919 16.3303484  Z M 9.64329054999996 18.703999  L 8.57423831000006 16.0065015  L 8.00419853999995 16.0065015  L 6.96428571000001 18.703999  L 7.53614671000003 18.703999  L 7.75651352 18.0912659  L 8.82374454000001 18.0912659  L 9.05685985000002 18.703999  L 9.64329054999996 18.703999  Z M 14.9206905 11.6198479  C 14.6845386 11.3732814  14.3697754 11.25  13.9763913 11.25  C 13.7590588 11.25  13.5672262000001 11.2855737  13.4008879 11.3567223  C 13.2758305999999 11.4094703  13.1607918 11.4904313  13.0557679999999 11.5996075  C 12.9507442 11.7087837  12.8678798 11.8320651  12.8071724 11.9694553  C 12.7258244 12.1559136  12.6851511 12.3865295  12.6851511 12.6613101  C 12.6851511 13.0906547  12.8023146 13.4276852  13.0366452 13.6724117  C 13.2709759000001 13.9171381  13.5866497 14.0394995  13.9836762 14.0394995  C 14.3758461 14.0394995  14.6890916999999 13.9165248  14.9234223 13.6705716  C 15.1577529 13.4246185  15.2749165 13.083908  15.2749165 12.6484298  C 15.2749165 12.2092716  15.1568423 11.8664144  14.9206905 11.6198479  Z M 17.9739462 11.6198479  C 17.7377944 11.3732814  17.4230311 11.25  17.0296471 11.25  C 16.8123145 11.25  16.620482 11.2855737  16.4541437 11.3567223  C 16.3290864000001 11.4094703  16.2140476 11.4904313  16.1090237 11.5996075  C 16.0039999000001 11.7087837  15.9211355 11.8320651  15.8604281 11.9694553  C 15.7790802 12.1559136  15.7384068 12.3865295  15.7384068 12.6613101  C 15.7384068 13.0906547  15.8555704 13.4276852  16.0899010000001 13.6724117  C 16.3242316 13.9171381  16.6399054 14.0394995  17.0369319 14.0394995  C 17.4291018 14.0394995  17.7423474 13.9165248  17.976678 13.6705716  C 18.2110086 13.4246185  18.3281722 13.083908  18.3281722 12.6484298  C 18.3281722 12.2092716  18.210098 11.8664144  17.9739462 11.6198479  Z M 17.2541074 16.2530667  C 17.0501305 16.0580216  16.7848431 15.9605005  16.4582372 15.9605005  C 16.0842795 15.9605005  15.7825682 16.0847019  15.5530941 16.3331084  C 15.3236201 16.581515  15.2088848 16.9301989  15.2088848 17.3791708  C 15.2088848 17.8036086  15.3230131 18.1381857  15.5512729 18.3829122  C 15.7795328 18.6276386  16.070924 18.75  16.4254553 18.75  C 16.7119943 18.75  16.9484462 18.6785459  17.1348179 18.5356354  C 17.3211897 18.392725  17.4544405 18.1740692  17.5345743 17.8796614  L 17.011886 17.7122179  C 16.9669626 17.9097164  16.8929006 18.0544647  16.789698 18.1464671  C 16.6864954 18.2384695  16.5632611999999 18.2844701  16.4199917 18.2844701  C 16.225728 18.2844701  16.0678911 18.2120959  15.9464762 18.0673454  C 15.8250614 17.922595  15.7643548999999 17.6797122  15.7643548999999 17.3386899  C 15.7643548999999 17.0172948  15.825972 16.7848388  15.9492081 16.641315  C 16.0724441 16.4977912  16.2330128 16.4260304  16.430919 16.4260304  C 16.5741885 16.4260304  16.695905 16.4665109  16.7960723 16.547473  C 16.8962395 16.6284351  16.9621061 16.7388364  16.9936739 16.8786801  L 17.5272894 16.7498773  C 17.466582 16.5339783  17.3755222 16.3683764  17.2541074 16.2530667  Z M 11.703985 17.8078999  L 10.611257 16.0065015  L 10.0867476 16.0065015  L 10.0867476 18.703999  L 10.5875812 18.703999  L 10.5875812 16.9449215  L 11.6639183 18.703999  L 12.2048187 18.703999  L 12.2048187 16.0065015  L 11.703985 16.0065015  L 11.703985 17.8078999  Z M 14.6379429 18.703999  L 14.6379429 16.0065015  L 14.0988637 16.0065015  L 14.0988637 18.703999  L 14.6379429 18.703999  Z M 22.8251822 17.8078999  L 21.7324542 16.0065015  L 21.2079447 16.0065015  L 21.2079447 18.703999  L 21.7087784 18.703999  L 21.7087784 16.9449215  L 22.7851155 18.703999  L 23.3260159 18.703999  L 23.3260159 16.0065015  L 22.8251822 16.0065015  L 22.8251822 17.8078999  Z M 23.5204346 11.7523307  L 23.5204346 11.296001  L 21.5407757 11.296001  L 21.5407757 13.9934985  L 23.5714286 13.9934985  L 23.5714286 13.5390088  L 22.0798548 13.5390088  L 22.0798548 12.8048332  L 23.4202679 12.8048332  L 23.4202679 12.3503435  L 22.0798548 12.3503435  L 22.0798548 11.7523307  L 23.5204346 11.7523307  Z M 10.4896868 12.3577036  L 10.4896868 11.296001  L 9.95060765999995 11.296001  L 9.95060765999995 13.9934985  L 10.4896868 13.9934985  L 10.4896868 12.8140334  L 11.5459906 12.8140334  L 11.5459906 13.9934985  L 12.0850697 13.9934985  L 12.0850697 11.296001  L 11.5459906 11.296001  L 11.5459906 12.3577036  L 10.4896868 12.3577036  Z M 20.591932 11.4726447  C 20.4225583 11.3242142  20.1703227 11.25  19.8352178 11.25  C 19.6300268 11.25  19.4548885 11.2812804  19.3097978 11.343842  C 19.164707 11.4064036  19.0536141 11.4974847  18.9765157 11.6170878  C 18.8994173 11.736691  18.8608687 11.8651858  18.8608687 12.0025761  C 18.8608687 12.2160217  18.9428225 12.3969571  19.1067325 12.5453876  C 19.2232907 12.6508837  19.4260504 12.7398181  19.7150177 12.8121933  C 19.9396352 12.8686215  20.0835096 12.9078753  20.1466453 12.9299558  C 20.2389206 12.9630767  20.303573 13.0020238  20.3406045 13.0467983  C 20.3776360000001 13.0915728  20.3961515 13.1458535  20.3961515 13.2096418  C 20.3961515 13.3090044  20.3521393 13.3957921  20.2641136 13.4700074  C 20.1760878 13.5442226  20.0452653 13.5813297  19.8716421 13.5813297  C 19.7077321 13.5813297  19.5775166 13.5396226  19.4809918 13.4562071  C 19.384467 13.3727915  19.3204217 13.2421501  19.2888538 13.0642787  L 18.7643444 13.1157998  C 18.7995547 13.4175678  18.9076122 13.6472637  19.0885203 13.8048945  C 19.2694284 13.9625253  19.5286452 14.0413395  19.8661784 14.0413395  C 20.0980808 14.0413395  20.2917345 14.0085258  20.4471455 13.9428974  C 20.6025565 13.8772691  20.7227554 13.7769879  20.8077457000001 13.642051  C 20.8927361 13.5071141  20.9352307 13.3623658  20.9352307 13.2078018  C 20.9352307 13.0372906  20.8997174 12.8940757  20.8286897 12.7781526  C 20.757662 12.6622295  20.6593175 12.5708418  20.5336531 12.5039868  C 20.4079888 12.4371317  20.2140315 12.3724243  19.9517755000001 12.3098626  C 19.6895194 12.247301  19.5243977 12.1871936  19.4564054 12.1295388  C 19.4029829 12.0841509  19.3762721000001 12.0295636  19.3762721000001 11.9657753  C 19.3762721000001 11.8958534  19.4048041 11.8400395  19.4618691000001 11.7983317  C 19.5505019 11.7333167  19.673129 11.7008096  19.8297542 11.7008096  C 19.9815227 11.7008096  20.0953474 11.73117  20.1712317 11.7918916  C 20.2471159 11.8526132  20.2965918 11.952281  20.3196606 12.0908979  L 20.8587397 12.0669774  C 20.8502407 11.8191842  20.7613057 11.6210753  20.591932 11.4726447  Z M 9.05366850999997 11.5425662  C 8.84969160000003 11.3475211  8.58440416999997 11.25  8.25779827999997 11.25  C 7.88384059999998 11.25  7.58212928 11.3742014  7.35265525 11.6226079  C 7.12318121999999 11.8710145  7.00844591999999 12.2196984  7.00844591999999 12.6686703  C 7.00844591999999 13.0931081  7.12257414999999 13.4276852  7.35083402999999 13.6724117  C 7.57909390999998 13.9171381  7.87048514000003 14.0394995  8.22501643999999 14.0394995  C 8.51155544000005 14.0394995  8.74800727000002 13.9680454  8.93437903999995 13.8251349  C 9.1207508 13.6822245  9.25400158000002 13.4635687  9.33413537000001 13.1691609  L 8.81144714000004 13.0017174  C 8.76652364999995 13.1992159  8.69246171999998 13.3439642  8.58925911000006 13.4359666  C 8.48605650000002 13.5279691  8.36282229999995 13.5739696  8.21955279999997 13.5739696  C 8.02528906999999 13.5739696  7.86745215999997 13.5015954  7.74603733000004 13.3568449  C 7.62462249999999 13.2120945  7.56391599999995 12.9692117  7.56391599999995 12.6281894  C 7.56391599999995 12.3067943  7.62553309999998 12.0743383  7.74876915000004 11.9308145  C 7.87200519999999 11.7872907  8.03257391 11.7155299  8.23048008000001 11.7155299  C 8.37374957999998 11.7155299  8.49546611999995 11.7560104  8.59563335999997 11.8369725  C 8.69580058999998 11.9179347  8.76166714999999 12.0283359  8.79323499999998 12.1681796  L 9.32685050999999 12.0393768  C 9.26614310000002 11.8234778  9.17508334000001 11.6578759  9.05366850999997 11.5425662  Z M 7.92224393000004 17.6367763  L 8.28284417999998 16.6357949  L 8.65072927000006 17.6367763  L 7.92224393000004 17.6367763  Z M 18.7993985000001 16.6569553  C 18.9353831 16.5030046  19.1144673 16.4260304  19.3366565 16.4260304  C 19.5588456 16.4260304  19.7370192 16.5020846  19.8711826 16.6541953  C 20.005346 16.806306  20.0724266 17.0369219  20.0724266 17.34605  C 20.0724266 17.6588583  20.0035248 17.8934609  19.8657189 18.0498651  C 19.7279131 18.2062692  19.5515607 18.2844701  19.3366565 18.2844701  C 19.1217521999999 18.2844701  18.9444892 18.2056558  18.8048622 18.048025  C 18.6652351 17.8903942  18.5954226 17.6588582  18.5954226 17.3534102  C 18.5954226 17.0430554  18.6634139 16.8109061  18.7993985000001 16.6569553  Z M 13.444597 11.9464549  C 13.5805816 11.7925041  13.7596658 11.7155299  13.981855 11.7155299  C 14.2040441 11.7155299  14.3822177 11.7915841  14.5163811 11.9436948  C 14.6505445 12.0958055  14.7176252 12.3264214  14.7176252 12.6355496  C 14.7176252 12.9483578  14.6487233 13.1829605  14.5109175 13.3393646  C 14.3731116 13.4957687  14.1967592 13.5739696  13.981855 13.5739696  C 13.7669507000001 13.5739696  13.5896877 13.4951554  13.4500607 13.3375245  C 13.3104336 13.1798937  13.2406211 12.9483578  13.2406211 12.6429097  C 13.2406211 12.3325549  13.3086124 12.1004056  13.444597 11.9464549  Z M 16.4978528 11.9464549  C 16.6338373999999 11.7925041  16.8129216 11.7155299  17.0351107 11.7155299  C 17.2572999 11.7155299  17.4354734999999 11.7915841  17.5696368 11.9436948  C 17.7038002 12.0958055  17.7708809 12.3264214  17.7708809 12.6355496  C 17.7708809 12.9483578  17.7019790000001 13.1829605  17.5641732 13.3393646  C 17.4263674 13.4957687  17.250015 13.5739696  17.0351107 13.5739696  C 16.8202065 13.5739696  16.6429435 13.4951554  16.5033164 13.3375245  C 16.3636894 13.1798937  16.2938769 12.9483578  16.2938769 12.6429097  C 16.2938769 12.3325549  16.3618682 12.1004056  16.4978528 11.9464549  Z " fill-rule="nonzero" fill="#ebebeb" stroke="none" transform="matrix(1 0 0 1 462 15 )" />
  </g>
</svg>