<?xml version="1.0" encoding="utf-8"?>
<svg version="1.1" xmlns:xlink="http://www.w3.org/1999/xlink" width="40px" height="40px" xmlns="http://www.w3.org/2000/svg">
  <g transform="matrix(1 0 0 1 -11 -175 )">
    <path d="M 0.0781208053690534 18.7226666666666  C 0.572080536912836 12.0193333333332  4.37798657718122 5.53853333333336  10.6935570469795 2.34933333333356  C 13.251409395973 0.897333333333336  16.4291275167784 0.157200000000103  19.6338255033556 0.13093333333336  C 23.5013422818788 0.0990666666666584  27.4092617449664 1.10680000000002  30.316375838926 3.15093333333334  C 33.1394630872483 4.87106666666659  35.8398657718117 7.70586666666668  37.3053691275163 10.5835999999999  C 38.7069798657717 13.1049333333335  39.3520805369126 15.9341333333332  39.5446979865769 18.9461333333334  C 37.0953020134225 20.7845333333335  35.4520805369125 17.2141333333334  32.9578523489931 18.0131999999999  C 33.0922147651004 18.3996000000002  33.1665771812077 18.7993333333334  33.4516778523489 19.1256000000003  C 35.6622818791943 19.1101333333336  37.1845637583892 21.4093333333335  39.4985234899327 20.5032000000001  C 39.4985234899327 20.5032000000001  39.5005369127516 20.8382666666666  39.5005369127516 20.8382666666666  C 39.5154362416106 21.3404  39.562953020134 21.7716  39.3657718120803 22.2854666666667  C 37.3198657718117 22.8634666666667  35.9759731543622 20.7117333333335  33.9908724832212 21.036266666667  C 33.9908724832212 21.036266666667  34.2153020134224 22.1516000000001  34.2153020134224 22.1516000000001  C 36.0518120805368 22.2116000000001  37.1989261744966 23.9609333333333  39.0962416107382 23.8857333333335  C 38.8267114093956 24.4205333333334  39.2165100671136 25.8294666666666  38.0222818791945 25.266266666667  C 36.7826845637583 24.9704000000002  35.8864429530199 23.8857333333335  34.5280536912751 23.8857333333335  C 34.3641610738255 24.184666666667  34.4679194630871 24.5985333333333  34.4391946308724 24.9521333333332  C 35.8722147651006 25.1754666666666  36.9028187919462 26.3785333333335  38.3354362416103 26.6006666666667  C 38.2006711409394 27.0897333333332  38.0671140939594 27.6373333333336  37.6636241610736 27.9356000000002  C 36.4981208053687 27.653866666667  35.587785234899 26.6141333333335  34.3469798657716 26.6438666666668  C 34.3469798657716 26.6438666666668  34.1260402684561 27.6680000000001  34.1260402684561 27.6680000000001  C 35.3052348993288 27.6981333333333  36.0671140939594 28.7344000000003  37.1268456375838 29.0454666666669  C 37.1559731543621 29.4774666666667  36.7672483221472 29.8634666666667  36.5433557046977 30.2490666666667  C 35.6025503355704 29.9684000000002  34.8851006711407 29.1656000000003  33.8102013422817 29.2248  C 33.7953020134228 28.8225333333335  34.0357046979861 28.3657333333335  33.9449664429526 27.9356000000002  C 32.7377181208053 28.2922666666668  31.9281879194627 27.1780000000003  31.0334228187917 26.5096000000003  C 31.0076510067111 24.3222666666666  28.6895302013422 22.8873333333336  28.5671140939594 20.8382666666666  C 28.5436241610737 20.4297333333334  28.6063087248322 19.9936000000002  28.7936912751675 19.5249333333336  C 29.5555704697986 17.7750666666666  29.316241610738 15.5032000000001  28.4808053691272 13.8717333333334  C 28.2269798657717 13.4423999999999  27.7771812080537 13.1034666666669  27.3579865771812 12.8510666666666  C 27.9712751677848 14.1421333333333  28.7186577181205 15.6676000000002  28.3456375838923 17.2545333333333  C 28.3024161073822 18.48  27.5744966442953 19.6569333333337  27.5661744966442 20.8382666666666  C 27.5633557046976 21.2594666666669  27.6538255033556 21.6806666666666  27.8977181208052 22.1060000000002  C 28.8689932885904 23.8436000000002  30.6163758389262 25.4884000000002  29.9593288590604 27.6676000000002  C 29.7786577181205 28.3369333333335  29.2406711409394 28.8545333333336  29.1064429530197 29.5357333333336  C 30.2426845637583 30.4705333333336  31.3170469798656 31.5238666666669  32.8246979865771 31.5832  C 33.3618791946305 31.2424000000001  33.0634899328857 29.7310666666667  34.1685906040266 30.4281333333333  C 34.1685906040266 30.4281333333333  35.7821476510067 31.229866666667  35.7821476510067 31.229866666667  C 35.6645637583892 31.6589333333336  35.3029530201338 32.043466666667  34.9754362416106 32.3389333333334  C 34.3632214765098 32.0429333333336  33.766040268456 31.6881333333336  33.0026845637581 31.7170666666666  C 32.7775838926173 31.9542666666666  32.5838926174492 32.2205333333336  32.6010738255031 32.5609333333337  C 33.138255033557 32.6487999999999  33.6310067114091 32.8740000000003  34.0797315436239 33.1860000000001  C 33.8714093959729 33.6317333333336  33.4653691275166 33.911066666667  33.0920805369124 34.2524000000003  C 33.0920805369124 34.2524000000003  31.8404026845637 33.807866666667  31.8404026845637 33.807866666667  C 31.6314093959732 34.1049333333335  31.1973154362413 34.4170666666669  31.3496644295301 34.7430666666669  C 31.6320805369123 34.8632000000002  31.9453691275166 35.0255999999999  32.153288590604 35.2337333333335  C 31.6008053691271 35.8269333333337  30.9005369127512 36.2085333333334  30.2267114093956 36.6112000000003  C 29.6463087248321 34.7268000000004  27.7339597315436 33.4056  27.8981208053688 31.2264  C 27.8981208053688 31.2264  27.8092617449661 31.1382666666668  27.8092617449661 31.1382666666668  C 27.3597315436241 31.6402666666668  27.509932885906 32.4430666666667  27.5389261744963 33.0945333333334  C 28.0769127516778 34.4594666666667  29.3601342281877 35.5137333333337  29.5547651006709 37.0105333333336  C 29.3300671140937 37.3957333333337  28.8234899328859 37.4725333333336  28.434899328859 37.6356000000001  C 28.48 34.9369333333334  24.3590604026845 32.8901333333333  27.0017449664429 30.1604000000002  C 27.8830872483218 28.8237333333336  29.3597315436241 27.5481333333337  28.836510067114 25.7078666666666  C 28.2993288590601 23.931066666667  26.39932885906 22.8301333333334  26.4161073825503 20.8382666666666  C 26.4161073825503 20.8382666666666  26.4190604026844 20.6829333333335  26.4190604026844 20.6829333333335  C 26.8518120805365 18.6057333333333  28.1664429530201 16.3954666666668  27.0910067114091 14.1857333333332  C 26.791275167785 13.2969333333335  26.1216107382547 12.2869333333333  25.2107382550334 11.9154666666668  C 26.5687248322147 13.4594666666667  27.1071140939594 15.9786666666669  26.3302013422817 18.0562666666669  C 25.9386577181208 18.8826666666669  25.399597315436 19.8672000000001  25.3455033557043 20.838666666667  C 25.3166442953016 21.346  25.4177181208051 21.8505333333333  25.7472483221472 22.3289333333332  C 26.7783892617449 23.9908  28.5692617449663 25.8162666666667  27.5390604026843 27.982  C 26.374496644295 29.7166666666667  24.3437583892614 31.4812000000002  25.4778523489931 33.7660000000001  C 26.2990604026845 35.1305333333335  27.5693959731543 36.4921333333336  27.2267114093956 38.1696000000002  C 27.2267114093956 38.1696000000002  25.8828187919462 38.6141333333335  25.8828187919462 38.6141333333335  C 26.7787919463085 35.4853333333335  22.3881879194628 33.6469333333334  24.226174496644 30.5170666666668  C 25.3609395973153 28.8410666666668  27.3904697986577 27.2685333333334  26.2416107382546 25.0441333333333  C 25.5547651006709 23.6658666666667  24.1355704697985 22.8501333333334  24.1804026845634 21.1277333333333  C 24.1804026845634 21.1277333333333  24.2292617449662 20.8385333333335  24.2292617449662 20.8385333333335  C 24.6916778523487 18.3957333333333  26.5610738255032 16.0834666666669  25.2539597315435 13.4730666666669  C 24.9104697986577 12.7022666666667  24.2240268456376 11.9164000000001  23.4621476510065 11.471066666667  C 24.9860402684558 12.9394666666672  25.4036241610738 15.4012000000002  24.5820134228188 17.3433333333332  C 24.1986577181206 18.4828000000002  23.3573154362416 19.6178666666669  23.1863087248321 20.8389333333334  C 23.1049664429529 21.4146666666666  23.1735570469796 22.0113333333334  23.5084563758387 22.6398666666669  C 24.4789261744963 24.1664000000001  26.1808053691275 25.7857333333336  25.1187919463086 27.7593333333334  C 24.0004026845636 29.389466666667  22.133288590604 30.9756000000002  22.8790604026844 33.0954666666667  C 23.7005369127514 34.9501333333337  25.4158389261743 36.7169333333336  24.48966442953 39.0166666666669  C 24.48966442953 39.0166666666669  23.102953020134 39.3277333333335  23.102953020134 39.3277333333335  C 24.2075167785233 37.0865333333336  22.5512751677852 34.8626666666669  21.5810738255032 32.9189333333334  C 20.4008053691273 30.130266666667  24.1169127516778 28.7949333333336  24.1765100671141 26.2453333333333  C 24.1624161073823 24.5997333333335  22.4012080536913 23.6653333333334  22.0289932885903 22.1525333333334  C 21.2667114093956 21.5137333333337  20.4766442953019 22.4065333333333  19.5653691275165 22.2408  C 18.8926174496642 22.375066666667  17.85932885906 21.3209333333334  17.4577181208051 22.4636  C 16.9794630872484 24.1388000000002  14.8006711409394 25.3704000000002  15.7582550335569 27.3573333333334  C 16.6693959731542 29.123066666667  18.8621476510066 30.4142666666667  18.1296644295298 32.6993333333335  C 17.4738255033558 34.8337333333334  15.3073825503352 36.866  16.6510067114091 39.3277333333335  C 16.0990604026842 39.1501333333335  15.0683221476511 39.4901333333337  15.0832214765101 38.6142666666669  C 14.2324832214763 35.6330666666668  17.8604026845637 33.8962666666666  16.7398657718118 30.916666666667  C 16.218389261745 29.0916000000002  13.8424161073826 28.0833333333335  14.3655033557047 25.8882666666668  C 14.7522147651007 24.0813333333335  16.7934228187919 22.8181333333337  16.5071140939594 20.8388  C 16.4838926174493 20.6730666666667  16.4428187919461 20.503466666667  16.3841610738255 20.3266666666668  C 15.6222818791944 18.1908000000003  14.067919463087 16.0544  14.9943624161074 13.5616  C 15.2487248322145 12.8496  15.7567785234896 12.2416000000003  16.20322147651 11.6052  C 14.7248322147648 12.3910666666666  13.9790604026844 14.0527999999999  14.0096644295299 15.7433333333333  C 13.9452348993286 17.5817333333334  15.3123489932887 19.1565333333333  15.5068456375839 20.8388  C 15.5833557046976 21.5177333333336  15.4714093959728 22.2129333333332  14.9943624161074 22.9504000000002  C 14.0245637583889 24.2575999999999  12.756241610738 25.635866666667  13.3377181208052 27.3570666666669  C 13.8906040268457 29.0932000000003  16.0704697986575 30.1449333333335  15.9361073825503 32.1629333333335  C 15.9213422818789 34.5500000000002  13.1289932885907 36.036266666667  13.9204026845637 38.7058666666667  C 13.9204026845637 38.7058666666667  12.5306040268456 38.2580000000003  12.5306040268456 38.2580000000003  C 11.9787919463088 35.8857333333335  14.5167785234898 34.672  14.5459060402682 32.4770666666668  C 14.9051006711406 29.9529333333335  11.6641610738252 29.0164  11.8586577181209 26.5558666666666  C 11.8446979865771 24.6864  13.5013422818793 23.5024000000003  14.2330201342279 21.9298666666668  C 14.3585234899328 21.5472  14.4002684563757 21.1856000000002  14.3834899328858 20.8389333333334  C 14.2938255033555 19.1002666666668  12.7166442953021 17.7409333333335  12.9783892617447 15.7861333333335  C 13.0664429530202 14.3474666666666  13.5591946308723 13.0864000000001  14.5002684563756 12.0044000000003  C 13.2018791946307 12.5225333333333  12.6655033557045 14.0072  12.3068456375836 15.2533333333336  C 11.6844295302012 17.2514666666666  13.1702013422819 19.0488  13.3191946308725 20.8390666666669  C 13.3852348993287 21.6296000000002  13.1907382550335 22.4156000000003  12.4418791946309 23.2192  C 11.3661744966444 24.4784  10.2753020134228 26.0672  11.0519463087248 27.7596000000003  C 11.874362416107 29.6269333333335  14.4581208053692 31.0804000000003  13.3374496644292 33.409466666667  C 12.726040268456 34.8781333333336  11.2620134228187 35.9898666666668  11.3221476510066 37.724666666667  C 10.9342281879194 37.561466666667  10.5318120805368 37.3988000000004  10.2021476510067 37.1029333333336  C 10.2021476510067 34.8933333333334  13.3664429530199 33.5132000000003  11.8587919463084 31.1845333333335  C 11.7252348993288 31.6440000000002  11.6965100671141 32.2683999999999  11.5919463087248 32.7874666666667  C 11.0687248322147 34.1378666666669  9.94926174496641 35.2188000000001  9.53033557046956 36.6148000000003  C 8.82979865771813 36.3462666666669  8.09731543624139 35.7820000000002  7.51463087248294 35.1888000000004  C 7.51463087248294 35.1888000000004  8.32174496644302 34.6981333333333  8.32174496644302 34.6981333333333  C 8.23208053691269 34.4009333333333  7.99355704697973 34.1490666666668  7.78496644295274 33.8969333333334  C 7.26080536912741 33.8237333333336  6.91664429530192 34.1653333333334  6.48456375838896 34.2992000000004  C 6.11127516778515 33.9722666666667  5.75100671140945 33.675466666667  5.45342281879175 33.275066666667  C 5.72134228187906 32.5170666666668  7.81476510067114 33.1438666666668  6.75422818791958 31.8976000000002  C 6.03825503355711 31.4529333333335  5.31959731543611 32.0881333333336  4.69261744966434 32.3846666666668  C 4.69261744966434 32.3846666666668  3.84268456375821 31.3182666666667  3.84268456375821 31.3182666666667  C 4.57436241610731 30.8737333333333  5.30416107382553 30.2493333333337  6.21422818791916 30.4284000000002  C 6.43852348993278 30.8296  6.45409395973138 31.4196000000002  6.88617449664434 31.6290666666669  C 8.42442953020145 31.5993333333336  9.51436241610736 30.4436000000001  10.6935570469795 29.5385333333334  C 9.87167785234897 28.3237333333336  9.20268456375834 26.646666666667  9.93275167785214 25.1776  C 10.5177181208051 23.7054666666668  12.0418791946308 22.4656  12.1110067114091 20.8381333333336  C 12.1265771812077 20.4677333333334  12.0684563758387 20.078  11.9053691275167 19.6585333333333  C 11.0994630872483 17.5965333333334  10.8150335570467 14.8097333333335  12.3532885906038 12.9846666666667  C 11.5169127516779 13.2078666666666  11.0237583892617 14.2433333333333  10.7395973154362 15.0296000000003  C 9.81489932885916 17.0430666666666  10.9844295302014 18.9084000000003  11.024832214765 20.8380000000002  C 11.0303355704696 21.1850666666669  11.0020134228189 21.5329333333334  10.9173154362416 21.8833333333337  C 10.1256375838925 23.4702666666667  8.84295302013425 24.8626666666669  8.63463087248329 26.6888000000004  C 7.72348993288597 27.2661333333335  6.97543624161062 28.2757333333334  5.67718120805375 27.9350666666669  C 5.63154362416117 28.2758666666668  5.73610738255002 28.7953333333335  5.8551677852347 29.1813333333334  C 4.82563758389233 29.1384000000003  4.12362416107362 29.8921333333333  3.25677852348963 30.2481333333335  C 2.79503355704674 30.1009333333336  2.67489932885883 29.5080000000003  2.49610738255024 29.0930666666668  C 3.51073825503363 28.7526666666668  4.2426845637583 27.7422666666666  5.40765100671115 27.7582666666667  C 5.54268456375848 27.3856000000001  5.33194630872458 27.0441333333333  5.27248322147625 26.6885333333335  C 3.82335570469786 26.0496000000003  1.52630872483223 29.8469333333333  1.33315436241583 26.5546666666669  C 2.78120805369099 26.4656  3.7065771812081 25.1304  5.1406711409395 24.9973333333332  C 5.1406711409395 24.9973333333332  5.183489932886 23.9309333333335  5.183489932886 23.9309333333335  C 3.55597315436216 23.7676000000001  2.50899328859032 25.4295999999999  0.882147651006562 25.2657333333336  C 0.882147651006562 25.2657333333336  0.523355704698133 23.8426666666669  0.523355704698133 23.8426666666669  C 2.40523489932866 23.9594666666667  3.52644295302025 22.284266666667  5.3186577181209 22.1941333333334  C 5.55677852348981 21.8830666666668  5.58550335570453 21.4232000000002  5.63140939597315 20.9934666666668  C 3.67516778523486 20.7402666666667  2.33275167785223 22.8937333333333  0.25651006711405 22.2397333333333  C 0.25651006711405 22.2397333333333  0.184966442952827 21.3434666666667  0.146174496644107 20.8381333333336  C 0.132080536912326 20.6405333333332  0.121476510067168 20.5028000000002  0.121476510067168 20.5028000000002  C 1.97288590604012 21.2164000000002  3.59959731543631 19.8954666666668  5.183489932886 19.2136  C 5.58630872483218 19.0938666666666  6.2144966442952 19.3014666666668  6.39516778523466 18.8569333333335  C 6.37946308724804 18.5157333333336  7.0059060402682 18.1168000000002  6.4844295302014 17.878666666667  C 4.16885906040261 17.5665333333336  2.6306040268455 20.3407999999999  0.256241610738016 19.0793333333336  C 0.256241610738016 19.0793333333336  0.0781208053690534 18.7226666666666  0.0781208053690534 18.7226666666666  Z M 23.1488590604022 15.6969333333332  C 22.6265771812077 16.0250666666666  21.8648322147646 15.8312000000001  21.311275167785 15.6969333333332  C 20.9840268456373 15.8018666666667  20.9689932885904 16.2774666666664  20.5965100671137 16.3676  C 20.5965100671137 16.3676  20.3695302013421 16.1877333333332  20.3695302013421 16.1877333333332  C 20.1751677852349 15.3732  20.0553020134225 14.2158666666664  20.8175838926172 13.6522666666665  C 21.6693959731542 13.3110666666666  22.6697986577178 13.1619999999998  23.5507382550331 13.4297333333334  C 23.7151677852344 13.1481333333331  23.4613422818788 12.9263999999998  23.4154362416102 12.6741333333334  C 22.9985234899327 11.7542666666668  22.042818791946 11.3820000000001  21.1755704697985 11.1596  C 20.7504697986574 11.1075999999998  20.3092617449661 11.0724  19.871677852349 11.0682666666667  C 19.7896644295301 11.0674666666669  19.7077852348989 11.0664000000002  19.6261744966441 11.0682666666667  C 18.4021476510065 11.0927999999999  17.2326174496643 11.4049333333332  16.5181208053691 12.4057333333335  C 16.4155704697987 12.6882666666666  15.964697986577 13.0850666666665  16.3833557046978 13.3382666666666  C 17.3241610738255 13.2785333333331  18.3977181208052 13.1613333333335  19.024832214765 13.9633333333331  C 19.024832214765 14.6759999999999  19.4880536912751 15.6241333333332  18.7119463087247 15.9653333333335  C 18.0688590604027 15.3738666666668  17.3072483221476 16.2170666666666  16.6075167785234 15.7424000000001  C 16.2785234899329 15.5493333333334  16.0703355704695 15.7746666666667  15.9355704697987 16.0563999999999  C 15.741073825503 17.8951999999999  16.7103355704694 19.9245333333333  18.4421476510065 20.9476  C 19.1440268456372 21.1990666666666  20.0875167785234 21.4382666666666  20.8199999999997 21.0814666666665  C 22.5818791946303 20.2665333333334  23.3116778523486 18.3987999999999  23.6397315436238 16.6779999999999  C 23.5957046979861 16.3505333333333  23.6114093959727 15.7123999999999  23.1488590604022 15.6969333333332  Z M 10.6049664429529 8.00266666666676  C 11.5010738255032 9.24786666666705  12.2324832214763 10.5510666666669  12.4855033557046 12.0496000000003  C 15.4582550335567 10.6244000000002  18.9251006711406 9.8405333333335  22.5237583892613 10.4496000000004  C 24.2106040268454 10.7162666666668  25.7617449664426 11.3988000000004  27.2700671140938 11.9610666666667  C 27.3289932885905 10.3897333333334  28.3293959731541 9.12706666666691  29.0177181208051 7.86546666666709  C 27.9124832214761 7.80720000000019  26.9869798657714 8.43040000000019  25.9714093959728 8.71240000000034  C 25.8829530201338 7.85400000000027  26.5394630872479 6.94746666666697  26.6892617449662 6.08573333333334  C 25.0472483221474 6.19066666666686  23.7467114093956 7.17240000000038  22.3883221476508 7.95666666666693  C 22.0739597315433 7.20213333333368  21.7586577181205 6.44373333333351  21.4464429530199 5.68640000000005  C 21.4464429530199 5.68640000000005  23.2382550335569 3.99506666666684  23.2382550335569 3.99506666666684  L 23.2841610738251 3.77226666666684  C 23.2841610738251 3.77226666666684  20.8638926174494 3.63840000000027  20.8638926174494 3.63840000000027  C 20.4469798657715 2.91280000000006  20.2826845637583 2.03880000000026  19.7899328859057 1.3713333333335  C 19.386711409396 2.12773333333371  19.1158389261741 2.92826666666679  18.7130201342279 3.6840000000002  C 18.7130201342279 3.6840000000002  16.2955704697983 3.81826666666666  16.2955704697983 3.81826666666666  L 16.2955704697983 3.99506666666684  C 16.2955704697983 3.99506666666684  18.1303355704695 5.64066666666668  18.1303355704695 5.64066666666668  C 17.9060402684563 6.48653333333368  17.6975838926173 7.40560000000005  17.1456375838925 8.04493333333357  C 16.0706040268456 7.4053333333336  15.0108724832212 6.70920000000024  13.8322147651006 6.26506666666683  C 13.5485906040267 6.17413333333343  13.1442953020132 6.02626666666674  12.8904697986577 6.2194666666669  C 13.2632214765099 7.03546666666671  13.7852348993288 7.91320000000042  13.6974496644293 8.80386666666709  C 13.2044295302012 8.71373333333349  12.8169127516776 8.39973333333364  12.3536912751674 8.26773333333358  C 11.7997315436241 8.11760000000004  11.1424161073824 7.82426666666697  10.6049664429529 8.00266666666676  Z M 6.39489932885908 13.0730666666664  C 6.26053691275183 11.7226666666666  5.70845637583898 10.4923999999996  4.55731543624142 9.60253333333321  C 4.44563758389268 9.54733333333297  4.29127516778499 9.43119999999999  4.15221476510078 9.42266666666637  C 4.06899328859072 9.41746666666631  3.98979865771798 9.45079999999962  3.92832214765076 9.55653333333294  C 4.45006711409405 12.7449333333329  2.36348993288584 14.9697333333334  0.884832214765083 17.3883999999998  C 1.37718120805357 17.788133333333  2.16818791946298 17.7284  2.76536912751681 17.6109333333334  C 4.33288590604025 16.9882666666667  5.82604026845638 15.9045333333333  7.69248322147632 16.2759999999998  C 8.24442953020116 15.3415999999997  9.17181208053671 14.436533333333  9.93221476510053 13.6949333333332  C 10.39677852349 13.2955999999999  11.035033557047 13.0419999999999  11.3646979865771 12.5825333333332  C 9.811543624161 11.5735999999997  7.84241610738263 12.5236  6.39489932885908 13.0730666666664  Z M 29.6004026845635 12.1837333333333  C 29.1212080536911 12.2430666666669  28.4342281879194 12.2742666666668  28.3457718120803 12.7629333333334  C 29.8538255033554 13.563466666667  31.0939597315437 14.8994666666667  32.0181208053691 16.3221333333336  C 32.6616107382547 16.2178666666669  33.4507382550332 16.3069333333333  34.1226845637584 16.4099999999999  C 35.6445637583893 16.8101333333334  37.1712751677851 18.4571999999998  38.7828187919463 17.3885333333333  C 37.3793288590605 15.0750666666668  35.2903355704698 12.9386666666669  35.8712751677854 9.91333333333341  C 35.9320805369125 9.70680000000038  35.7977181208053 9.4977333333336  35.6044295302013 9.4684000000002  C 34.6939597315436 9.83800000000019  33.9888590604028 10.7290666666668  33.6285906040266 11.6049333333335  C 33.4804026845636 12.1229333333335  33.3926174496642 12.6736000000001  33.1838926174496 13.1618666666668  C 32.093154362416 12.598  30.9292617449664 12.0517333333337  29.6004026845635 12.1837333333333  Z M 18.1310067114091 8.75720000000001  C 18.0126174496645 8.63853333333327  17.7740939597315 8.46013333333349  17.9962416107383 8.31106666666665  C 17.9962416107383 8.31106666666665  19.6990604026846 7.01999999999998  19.6990604026846 7.01999999999998  C 20.4018791946305 7.42239999999993  21.1473825503354 7.9402666666665  21.7148993288588 8.48906666666653  C 21.7148993288588 8.48906666666653  21.4919463087244 8.71160000000009  21.4919463087244 8.71160000000009  C 20.3720805369126 8.59333333333325  19.1926174496643 8.74093333333349  18.1310067114091 8.75720000000001  Z M 18.1755704697985 18.5007999999998  C 19.251006711409 18.6647999999996  20.4306040268452 18.4590666666663  21.3999999999996 18.5919999999996  C 21.0430872483216 19.1255999999998  20.5056375838922 19.7922666666664  19.7892617449661 19.7499999999995  C 18.9814765100668 19.8094666666661  18.8020134228186 19.1550666666662  18.2185234899325 18.7689333333333  C 18.2185234899325 18.7689333333333  18.1755704697985 18.5007999999998  18.1755704697985 18.5007999999998  Z M 16.3840268456374 14.1429333333335  C 16.1893959731542 14.1858666666667  16.0539597315437 14.3627999999999  16.1139597315437 14.5849333333335  C 16.0841610738253 14.7769333333335  16.1288590604026 15.1192000000001  16.4268456375839 14.9869333333336  C 16.8904697986577 14.3492000000001  17.7112751677851 14.8537333333334  18.2186577181205 14.8986666666669  C 18.2186577181205 14.8986666666669  18.2186577181205 14.7192  18.2186577181205 14.7192  C 17.9402684563756 14.2849333333334  17.3675167785232 14.0668000000001  16.7859060402684 14.0885333333335  C 16.6516778523487 14.0932000000003  16.5153020134226 14.1126666666669  16.3840268456374 14.1429333333335  Z M 23.5506040268456 14.4966666666664  C 23.3684563758388 14.1599999999999  22.9331543624162 14.1284000000001  22.5165100671143 14.1366666666668  C 22.4573154362415 14.1381333333334  22.3997315436241 14.1410666666666  22.341476510067 14.1429333333331  C 22.0285906040267 14.3502666666664  21.1167785234902 14.2012  21.4459060402687 14.8986666666665  C 22.0136912751677 14.4525333333331  22.8051006711407 14.7651999999998  23.3724832214766 14.9869333333331  C 23.5822818791944 14.8834666666667  23.5367785234898 14.675733333333  23.5506040268456 14.4966666666664  Z M 20.6814765100671 17.3458666666666  C 20.495167785235 17.1385333333333  20.1910067114095 17.0443999999998  19.871812080537 17.0443999999998  C 19.552751677852 17.0443999999998  19.2216107382546 17.1367999999998  18.9822818791945 17.3001333333332  C 19.0114093959728 17.4189333333329  18.9083221476508 17.5969333333333  19.0711409395972 17.6569333333332  C 19.5489932885903 17.5538666666666  20.414630872483 17.9094666666665  20.6814765100671 17.3458666666666  Z " fill-rule="nonzero" fill="#007042" stroke="none" transform="matrix(1 0 0 1 11 175 )" />
  </g>
</svg>