<?xml version="1.0" encoding="utf-8"?>
<svg version="1.1" xmlns:xlink="http://www.w3.org/1999/xlink" width="23px" height="3px" xmlns="http://www.w3.org/2000/svg">
  <g transform="matrix(1 0 0 1 -118 -83 )">
    <path d="M 18.2358180560359 1.05726620214227  L 17.7981667243168 1.05726620214227  C 17.7981667243168 1.05726620214227  17.7981667243168 1.29369220757235  17.7981667243168 1.29369220757235  C 17.6522829470771 1.11637270349956  17.4438775510203 1.01786186790378  17.1729505361466 1.01786186790378  C 16.6102559667934 1.01786186790378  16.1726046350743 1.43160737740664  16.1726046350743 2.00297022386349  C 16.1726046350743 2.57433307032034  16.6102559667934 2.9880785798232  17.1729505361466 2.9880785798232  C 17.4647180906261 2.9880785798232  17.6731234866827 2.88956774422741  17.7981667243168 2.71224824015462  C 17.7981667243168 2.71224824015462  17.7981667243168 2.9486742455847  17.7981667243168 2.9486742455847  L 18.2358180560359 2.9486742455847  L 18.2358180560359 2.00297022386349  L 18.2358180560359 1.05726620214227  Z M 12.2337426496022 2.73195040727387  C 12.2337426496022 2.73195040727387  12.0253372535453 2.43641790048559  12.0253372535453 2.43641790048559  C 11.8586129367 2.55463090320109  11.6502075406434 2.63343957167763  11.4418021445865 2.63343957167763  C 11.1708751297128 2.63343957167763  10.8999481148392 2.51522656896259  10.8374264960221 2.18028972793627  C 10.8374264960221 2.18028972793627  12.3171048080249 2.18028972793627  12.3171048080249 2.18028972793627  C 12.3171048080249 2.12118322657852  12.3171048080249 2.08177889234048  12.3171048080249 2.02267239098273  C 12.3379453476305 1.41190521028784  11.9628156347285 1.01786186790378  11.4001210653753 1.01786186790378  C 10.8165859564165 1.01786186790378  10.399775164303 1.41190521028784  10.399775164303 2.00297022386349  C 10.399775164303 2.59403523743913  10.8165859564165 2.9880785798232  11.4209616049809 2.9880785798232  C 11.7127291594604 2.9880785798232  12.0044967139397 2.9092699113462  12.2337426496022 2.73195040727387  Z M 20.1948287789694 2.00297022386303  C 20.1948287789694 2.57433307031988  20.6324801106884 2.98807857982274  21.1951746800416 2.98807857982274  C 21.4869422345212 2.98807857982274  21.6953476305778 2.88956774422695  21.8203908682119 2.71224824015417  C 21.8203908682119 2.71224824015417  21.8203908682119 2.94867424558424  21.8203908682119 2.94867424558424  L 22.258042199931 2.94867424558424  L 22.258042199931 2.00297022386303  L 22.258042199931 0.308583851612639  L 21.8203908682119 0.308583851612639  C 21.8203908682119 0.308583851612639  21.8203908682119 1.29369220757235  21.8203908682119 1.29369220757235  C 21.6745070909722 1.11637270349956  21.4661016949153 1.01786186790378  21.1951746800416 1.01786186790378  C 20.6324801106884 1.01786186790378  20.1948287789694 1.43160737740664  20.1948287789694 2.00297022386303  Z M 5.58561051539255 2.71224824015462  C 5.58561051539255 2.71224824015462  5.58561051539255 2.9486742455847  5.58561051539255 2.9486742455847  L 6.0232618471116 2.9486742455847  L 6.0232618471116 2.00297022386349  L 6.0232618471116 1.05726620214227  L 5.58561051539255 1.05726620214227  C 5.58561051539255 1.05726620214227  5.58561051539255 1.29369220757235  5.58561051539255 1.29369220757235  C 5.43972673815279 1.11637270349956  5.23132134209595 1.01786186790378  4.96039432722228 1.01786186790378  C 4.39769975786908 1.01786186790378  3.96004842615002 1.43160737740664  3.96004842615002 2.00297022386349  C 3.96004842615002 2.57433307032034  4.39769975786908 2.9880785798232  4.96039432722228 2.9880785798232  C 5.2521618817018 2.9880785798232  5.4605672777584 2.88956774422741  5.58561051539255 2.71224824015462  Z M 0.813126945693512 1.29369220757235  C 0.813126945693512 1.29369220757235  0.813126945693512 1.05726620214227  0.813126945693512 1.05726620214227  L 0.375475613974459 1.05726620214227  L 0.375475613974459 2.9486742455847  L 0.813126945693512 2.9486742455847  C 0.813126945693512 2.9486742455847  0.813126945693512 1.90445938826724  0.813126945693512 1.90445938826724  C 0.813126945693512 1.56952254724138  1.00069180214473 1.41190521028784  1.29245935662402 1.41190521028784  C 1.58422691110354 1.41190521028784  1.7301106883433 1.58922471436017  1.7301106883433 1.90445938826724  C 1.7301106883433 1.90445938826724  1.7301106883433 2.9486742455847  1.7301106883433 2.9486742455847  L 2.16776202006236 2.9486742455847  C 2.16776202006236 2.9486742455847  2.16776202006236 1.90445938826724  2.16776202006236 1.90445938826724  C 2.16776202006236 1.56952254724138  2.37616741611919 1.41190521028784  2.64709443099287 1.41190521028784  C 2.93886198547216 1.41190521028784  3.08474576271192 1.58922471436017  3.08474576271192 1.90445938826724  C 3.08474576271192 1.90445938826724  3.08474576271192 2.9486742455847  3.08474576271192 2.9486742455847  L 3.56407817364243 2.9486742455847  C 3.56407817364243 2.9486742455847  3.56407817364243 1.76654421843295  3.56407817364243 1.76654421843295  C 3.56407817364243 1.3133943746916  3.27231061916291 1.01786186790378  2.77213766862678 1.01786186790378  C 2.52205119335872 1.01786186790378  2.25112417848504 1.09667053638077  2.06355932203405 1.3527987089301  C 1.91767554479429 1.13607487061881  1.70927014873746 1.01786186790378  1.39666205465255 1.01786186790378  C 1.18825665859572 1.01786186790378  0.979851262538887 1.07696836926152  0.813126945693512 1.29369220757235  Z M 9.33690764441371 0.485903355685423  L 8.89925631269466 0.485903355685423  L 8.89925631269466 1.05726620214182  L 8.50328606018684 1.05726620214182  L 8.50328606018684 1.43160737740664  L 8.89925631269466 1.43160737740664  C 8.89925631269466 1.43160737740664  8.89925631269466 2.29850273065085  8.89925631269466 2.29850273065085  C 8.89925631269466 2.73195040727342  9.08682116914565 2.98807857982274  9.58699411968178 2.98807857982274  C 9.77455897613299 2.98807857982274  9.9829643721896 2.92897207846499  10.1288481494294 2.85016340998845  C 10.1288481494294 2.85016340998845  10.0038049117952 2.49552440184289  10.0038049117952 2.49552440184289  C 9.8787616741613 2.57433307031988  9.73287789692154 2.59403523743913  9.62867519889323 2.59403523743913  C 9.4202698028364 2.59403523743913  9.33690764441371 2.47582223472364  9.33690764441371 2.27880056353206  C 9.33690764441371 2.27880056353206  9.33690764441371 1.43160737740664  9.33690764441371 1.43160737740664  L 10.0454859910067 1.43160737740664  L 10.0454859910067 1.05726620214182  L 9.33690764441371 1.05726620214182  L 9.33690764441371 0.485903355685423  Z M 13.9218263576615 1.43160737740664  C 13.9218263576615 1.43160737740664  14.0468695952957 1.03756403502302  14.0468695952957 1.03756403502302  C 13.963507436873 1.01786186790378  13.8384641992388 1.01786186790378  13.7551020408162 1.01786186790378  C 13.5050155655483 1.01786186790378  13.3382912487027 1.13607487061881  13.2340885506744 1.29369220757235  C 13.2340885506744 1.29369220757235  13.2340885506744 1.05726620214227  13.2340885506744 1.05726620214227  L 12.7964372189554 1.05726620214227  L 12.7964372189554 2.9486742455847  L 13.2340885506744 2.9486742455847  C 13.2340885506744 2.9486742455847  13.2340885506744 1.88475722114845  13.2340885506744 1.88475722114845  C 13.2340885506744 1.56952254724138  13.3799723279142 1.39220304316859  13.6508993427879 1.39220304316859  C 13.7342615012105 1.39220304316859  13.8384641992388 1.41190521028784  13.9218263576615 1.43160737740664  Z M 7.39873746108606 2.19999189505552  C 7.62798339674851 2.23939622929402  7.75302663438265 2.29850273065131  7.75302663438265 2.39701356624755  C 7.75302663438265 2.53492873608184  7.58630231753705 2.63343957167763  7.29453476305775 2.63343957167763  C 7.00276720857824 2.63343957167763  6.77352127291579 2.53492873608184  6.62763749567625 2.43641790048559  C 6.62763749567625 2.43641790048559  6.41923209961942 2.75165257439266  6.41923209961942 2.75165257439266  C 6.64847803528187 2.9092699113462  6.961086129367 2.9880785798232  7.27369422345214 2.9880785798232  C 7.85722933241095 2.9880785798232  8.1906779661017 2.73195040727387  8.1906779661017 2.3773113991283  C 8.1906779661017 2.04237455810198  7.91975095122802 1.8650550540292  7.50294015911436 1.80594855267145  C 7.50294015911436 1.80594855267145  7.29453476305775 1.7862463855522  7.29453476305775 1.7862463855522  C 7.10696990660676 1.76654421843295  6.961086129367 1.72713988419491  6.961086129367 1.60892688147942  C 6.961086129367 1.47101171164513  7.10696990660654 1.39220304316859  7.33621584226898 1.39220304316859  C 7.58630231753705 1.39220304316859  7.83638879280534 1.49071387876438  7.96143203043926 1.54982038012213  C 7.96143203043926 1.54982038012213  8.14899688689025 1.21488353909581  8.14899688689025 1.21488353909581  C 7.94059149083364 1.07696836926152  7.64882393635412 1.01786186790378  7.33621584226898 1.01786186790378  C 6.83604289173286 1.01786186790378  6.50259425804211 1.25428787333431  6.50259425804211 1.62862904859867  C 6.50259425804211 1.94386372250574  6.75268073331017 2.12118322657852  7.19033206502945 2.18028972793627  C 7.19033206502945 2.18028972793627  7.39873746108606 2.19999189505552  7.39873746108606 2.19999189505552  Z M 19.7780179868555 1.01786186790378  C 19.5279315115877 1.01786186790378  19.3612071947421 1.13607487061881  19.2570044967138 1.29369220757235  C 19.2570044967138 1.29369220757235  19.2570044967138 1.05726620214227  19.2570044967138 1.05726620214227  L 18.8193531649947 1.05726620214227  L 18.8193531649947 2.9486742455847  L 19.2570044967138 2.9486742455847  C 19.2570044967138 2.9486742455847  19.2570044967138 1.88475722114845  19.2570044967138 1.88475722114845  C 19.2570044967138 1.56952254724138  19.4028882739535 1.39220304316859  19.6738152888272 1.39220304316859  C 19.7571774472499 1.39220304316859  19.8613801452782 1.41190521028784  19.9447423037009 1.43160737740664  C 19.9447423037009 1.43160737740664  20.069785541335 1.03756403502302  20.069785541335 1.03756403502302  C 19.9864233829123 1.01786186790378  19.8613801452784 1.01786186790378  19.7780179868555 1.01786186790378  Z M 15.2556208924248 2.9880785798232  C 15.5473884469043 2.9880785798232  15.7557938429609 2.92897207846545  15.9641992390177 2.77135474151191  C 15.9641992390177 2.77135474151191  15.7557938429609 2.43641790048559  15.7557938429609 2.43641790048559  C 15.5890695261155 2.55463090320109  15.4223452092701 2.61373740455838  15.2347803528191 2.61373740455838  C 14.8804911795228 2.61373740455838  14.6304047042545 2.3773113991283  14.6304047042545 2.00297022386349  C 14.6304047042545 1.64833121571792  14.8804911795228 1.41190521028784  15.2347803528191 1.39220304316859  C 15.4223452092701 1.39220304316859  15.5890695261155 1.45130954452588  15.7557938429609 1.56952254724138  C 15.7557938429609 1.56952254724138  15.9641992390177 1.23458570621506  15.9641992390177 1.23458570621506  C 15.7557938429609 1.07696836926152  15.5473884469043 1.01786186790378  15.2556208924248 1.01786186790378  C 14.6095641646489 1.01786186790378  14.1927533725354 1.43160737740709  14.1927533725354 2.00297022386349  C 14.1927533725354 2.57433307032034  14.6095641646489 2.9880785798232  15.2556208924248 2.9880785798232  Z M 17.2354721549636 1.39220304316814  C 17.5897613282602 1.39220304316814  17.8398478035283 1.64833121571746  17.8398478035283 2.00297022386303  C 17.8398478035283 2.33790706488935  17.5897613282602 2.61373740455792  17.2354721549636 2.61373740455792  C 16.8603424420617 2.59403523743867  16.6310965063992 2.33790706488935  16.6310965063992 2.00297022386303  C 16.6310965063992 1.66803338283671  16.8603424420617 1.39220304316814  17.2354721549636 1.39220304316814  Z M 11.9002940159114 1.8256507197907  C 11.9002940159114 1.8256507197907  10.8582670356277 1.8256507197907  10.8582670356277 1.8256507197907  C 10.8999481148392 1.56952254724138  11.0875129712902 1.37250087604934  11.4001210653753 1.37250087604934  C 11.671048080249 1.37250087604934  11.8586129367 1.53011821300288  11.9002940159114 1.8256507197907  Z M 21.2576962988587 1.39220304316814  C 21.6119854721551 1.39220304316814  21.8620719474231 1.64833121571746  21.8620719474231 2.00297022386303  C 21.8620719474231 2.33790706488935  21.6119854721551 2.61373740455792  21.2576962988587 2.61373740455792  C 20.8825665859565 2.59403523743867  20.6533206502941 2.33790706488935  20.6533206502941 2.00297022386303  C 20.6533206502941 1.66803338283671  20.8825665859565 1.39220304316814  21.2576962988587 1.39220304316814  Z M 5.60645105499839 2.00297022386303  C 5.60645105499839 2.33790706488935  5.35636457973033 2.61373740455792  5.00207540643396 2.61373740455792  C 4.62694569353175 2.59403523743867  4.3976997578693 2.33790706488935  4.3976997578693 2.00297022386303  C 4.3976997578693 1.66803338283671  4.62694569353175 1.39220304316814  5.00207540643396 1.39220304316814  C 5.35636457973033 1.39220304316814  5.60645105499839 1.64833121571746  5.60645105499839 2.00297022386303  Z " fill-rule="nonzero" fill="#ffffff" stroke="none" transform="matrix(1 0 0 1 118 83 )" />
  </g>
</svg>