<?xml version="1.0" encoding="utf-8"?>
<svg version="1.1" xmlns:xlink="http://www.w3.org/1999/xlink" width="35px" height="5px" xmlns="http://www.w3.org/2000/svg">
  <g transform="matrix(1 0 0 1 -177 -126 )">
    <path d="M 4.46455416000001 4.47361240000001  L 5.22314981 4.47361240000001  L 5.22314981 2.5324305  C 5.22314981 1.7883108  4.76139594 1.3030153  3.96981787999999 1.3030153  C 3.57402884999999 1.3030153  3.14525739999999 1.43242739999999  2.84841562 1.85301680000001  C 2.61753869 1.49713349999999  2.28771449999999 1.3030153  1.79297821 1.3030153  C 1.46315401999999 1.3030153  1.13332982 1.40007439999999  0.86947047000001 1.75595770000001  L 0.86947047000001 1.3677213  L 0.176839669999993 1.3677213  L 0.176839669999993 4.47361240000001  L 0.86947047000001 4.47361240000001  L 0.86947047000001 2.7589017  C 0.86947047000001 2.20890019999999  1.16631224 1.9500759  1.62806610999999 1.9500759  C 2.08981997999999 1.9500759  2.32069691999999 2.24125319999999  2.32069691999999 2.7589017  L 2.32069691999999 4.47361240000001  L 3.01332772000001 4.47361240000001  L 3.01332772000001 2.7589017  C 3.01332772000001 2.20890019999999  3.34315190999999 1.9500759  3.77192335999999 1.9500759  C 4.23367723000001 1.9500759  4.46455416000001 2.24125319999999  4.46455416000001 2.7589017  L 4.46455416000001 4.47361240000001  Z M 15.4806822 1.982429  L 15.4806822 1.3677213  L 14.3592799 1.3677213  L 14.3592799 0.429483400000009  L 13.6666491 0.429483400000009  L 13.6666491 1.3677213  L 13.0399832 1.3677213  L 13.0399832 1.982429  L 13.6666491 1.982429  L 13.6666491 3.40596239999999  C 13.6666491 4.11772909999999  13.9634909 4.5383185  14.755069 4.5383185  C 15.0519107 4.5383185  15.3817349 4.44125940000001  15.6126119 4.31184730000001  L 15.4147173 3.72949270000001  C 15.2168228 3.8589048  14.9859459 3.8912579  14.8210338 3.8912579  C 14.4912096 3.8912579  14.3592799 3.69713970000001  14.3592799 3.3736093  L 14.3592799 1.982429  L 15.4806822 1.982429  Z M 21.3515528 1.3030153  C 20.9557638 1.3030153  20.6919044 1.49713349999999  20.5269923 1.75595770000001  L 20.5269923 1.3677213  L 19.8343615 1.3677213  L 19.8343615 4.47361240000001  L 20.5269923 4.47361240000001  L 20.5269923 2.7265487  C 20.5269923 2.20890019999999  20.7578692 1.9177229  21.1866407 1.9177229  C 21.3185704 1.9177229  21.4834825 1.9500759  21.6154121 1.982429  L 21.8133067 1.3353683  C 21.681377 1.3030153  21.4834825 1.3030153  21.3515528 1.3030153  Z M 12.1824403 2.17654720000002  L 12.479282 1.62654559999999  C 12.1494578 1.40007439999999  11.687704 1.3030153  11.1929677 1.3030153  C 10.4013896 1.3030153  9.87367089999998 1.69125170000001  9.87367089999998 2.30595930000001  C 9.87367089999998 2.82360779999999  10.2694599 3.11478510000001  10.9620907 3.2118442  L 11.2919149 3.2441972  C 11.6547215 3.3089033  11.8526161 3.40596239999999  11.8526161 3.56772749999999  C 11.8526161 3.7941988  11.5887567 3.9559639  11.1270028 3.9559639  C 10.665249 3.9559639  10.3024424 3.7941988  10.0715654 3.63243360000001  L 9.74174119999998 4.15008209999999  C 10.1045478 4.40890640000001  10.5992841 4.5383185  11.0940204 4.5383185  C 12.0175282 4.5383185  12.5452469 4.11772909999999  12.5452469 3.53537449999999  C 12.5452469 2.98537300000001  12.1164754 2.69419569999999  11.456827 2.5971366  L 11.1270028 2.5647835  C 10.8301611 2.5324305  10.5992841 2.46772440000001  10.5992841 2.27360619999999  C 10.5992841 2.047135  10.8301611 1.9177229  11.1929677 1.9177229  C 11.5887567 1.9177229  11.9845457 2.07948809999999  12.1824403 2.17654720000002  Z M 30.8834719 1.3030153  C 30.4876829 1.3030153  30.2238236 1.49713349999999  30.0589115 1.75595770000001  L 30.0589115 1.3677213  L 29.3662807 1.3677213  L 29.3662807 4.47361240000001  L 30.0589115 4.47361240000001  L 30.0589115 2.7265487  C 30.0589115 2.20890019999999  30.2897884 1.9177229  30.7185598 1.9177229  C 30.8504895 1.9177229  31.0154016 1.9500759  31.1473313 1.982429  L 31.3452258 1.3353683  C 31.2132961 1.3030153  31.0154016 1.3030153  30.8834719 1.3030153  Z M 22.0441836 2.92066690000001  C 22.0441836 3.8589048  22.703832 4.5383185  23.726287 4.5383185  C 24.1880408 4.5383185  24.517865 4.44125940000001  24.8476892 4.18243519999999  L 24.517865 3.63243360000001  C 24.2540057 3.8265518  23.9901463 3.9236109  23.6933046 3.9236109  C 23.1326034 3.9236109  22.7368144 3.53537449999999  22.7368144 2.92066690000001  C 22.7368144 2.33831229999998  23.1326034 1.9500759  23.6933046 1.9177229  C 23.9901463 1.9177229  24.2540057 2.014782  24.517865 2.20890019999999  L 24.8476892 1.65889859999999  C 24.517865 1.40007439999999  24.1880408 1.3030153  23.726287 1.3030153  C 22.703832 1.3030153  22.0441836 1.982429  22.0441836 2.92066690000001  Z M 28.4427729 4.47361240000001  L 28.4427729 2.92066690000001  L 28.4427729 1.3677213  L 27.7501421 1.3677213  L 27.7501421 1.75595770000001  C 27.5192652 1.4647804  27.189441 1.3030153  26.7606695 1.3030153  C 25.8701442 1.3030153  25.1775134 1.982429  25.1775134 2.92066690000001  C 25.1775134 3.8589048  25.8701442 4.5383185  26.7606695 4.5383185  C 27.2224234 4.5383185  27.5522476 4.37655330000001  27.7501421 4.08537609999999  L 27.7501421 4.47361240000001  L 28.4427729 4.47361240000001  Z M 25.9031266 2.92066690000001  C 25.9031266 2.37066529999998  26.2659333 1.9177229  26.8596168 1.9177229  C 27.4203179 1.9177229  27.816107 2.33831229999998  27.816107 2.92066690000001  C 27.816107 3.47066839999999  27.4203179 3.9236109  26.8596168 3.9236109  C 26.2659333 3.8912579  25.9031266 3.47066839999999  25.9031266 2.92066690000001  Z M 17.6245394 1.3030153  C 16.7010317 1.3030153  16.0413833 1.9500759  16.0413833 2.92066690000001  C 16.0413833 3.8912579  16.7010317 4.5383185  17.6575218 4.5383185  C 18.1192757 4.5383185  18.5810296 4.40890640000001  18.9438362 4.11772909999999  L 18.614012 3.63243360000001  C 18.3501526 3.8265518  18.0203285 3.9559639  17.6905043 3.9559639  C 17.2617328 3.9559639  16.8329614 3.76184570000001  16.7340141 3.2118442  L 19.0757659 3.2118442  C 19.0757659 3.11478510000001  19.0757659 3.05007900000001  19.0757659 2.95301990000002  C 19.1087483 1.9500759  18.5150647 1.3030153  17.6245394 1.3030153  Z M 17.6245394 1.8853699  C 18.0533109 1.8853699  18.3501526 2.14419409999999  18.4161175 2.6294896  L 16.7669965 2.6294896  C 16.8329614 2.20890019999999  17.1298031 1.8853699  17.6245394 1.8853699  Z M 34.8083798 4.47361240000001  L 34.8083798 2.92066690000001  L 34.8083798 0.138306099999994  L 34.115749 0.138306099999994  L 34.115749 1.75595770000001  C 33.8848721 1.4647804  33.5550479 1.3030153  33.1262765 1.3030153  C 32.2357511 1.3030153  31.5431203 1.982429  31.5431203 2.92066690000001  C 31.5431203 3.8589048  32.2357511 4.5383185  33.1262765 4.5383185  C 33.5880303 4.5383185  33.9178545 4.37655330000001  34.115749 4.08537609999999  L 34.115749 4.47361240000001  L 34.8083798 4.47361240000001  Z M 32.2687336 2.92066690000001  C 32.2687336 2.37066529999998  32.6315402 1.9177229  33.2252237 1.9177229  C 33.7859248 1.9177229  34.1817139 2.33831229999998  34.1817139 2.92066690000001  C 34.1817139 3.47066839999999  33.7859248 3.9236109  33.2252237 3.9236109  C 32.6315402 3.8912579  32.2687336 3.47066839999999  32.2687336 2.92066690000001  Z M 9.1150753 4.47361240000001  L 9.1150753 2.92066690000001  L 9.1150753 1.3677213  L 8.42244449999998 1.3677213  L 8.42244449999998 1.75595770000001  C 8.19156750000002 1.4647804  7.86174333999998 1.3030153  7.43297188999998 1.3030153  C 6.54244656999998 1.3030153  5.84981576999999 1.982429  5.84981576999999 2.92066690000001  C 5.84981576999999 3.8589048  6.54244656999998 4.5383185  7.43297188999998 4.5383185  C 7.89472576000003 4.5383185  8.22455000000002 4.37655330000001  8.42244449999998 4.08537609999999  L 8.42244449999998 4.47361240000001  L 9.1150753 4.47361240000001  Z M 7.49893673000003 3.9236109  C 6.90525317999999 3.8912579  6.54244656999998 3.47066839999999  6.54244656999998 2.92066690000001  C 6.54244656999998 2.37066529999998  6.90525317999999 1.9177229  7.49893673000003 1.9177229  C 8.05963789999998 1.9177229  8.45542690000002 2.33831229999998  8.45542690000002 2.92066690000001  C 8.45542690000002 3.47066839999999  8.05963789999998 3.9236109  7.49893673000003 3.9236109  Z " fill-rule="nonzero" fill="#ffffff" stroke="none" transform="matrix(1 0 0 1 177 126 )" />
  </g>
</svg>