<?xml version="1.0" encoding="utf-8"?>
<svg version="1.1" xmlns:xlink="http://www.w3.org/1999/xlink" width="16px" height="15px" xmlns="http://www.w3.org/2000/svg">
  <g transform="matrix(1 0 0 1 -23 -412 )">
    <path d="M 6.59435458293691 3.82313472893183  C 6.35248301953721 2.55866035016587  6.35812207965602 1.26252364583156  6.61098777178703 0  C 7.30218694639987 1.10403693597108  7.77301029417831 2.32021924843345  7.99971808154494 3.58722490606548  C 8.22708358791091 2.32030608712125  8.69806704751418 1.10420393864126  9.38901222821301 0  C 9.62920675194702 1.20987654320988  9.65993586355149 2.48899624261943  9.40564541706313 3.82286634460547  C 10.0745452614049 2.70649106980414  10.9541048139451 1.71721191456227  12.0001409592276 0.904723564143855  C 11.7837541708906 2.17330436338637  11.3234845223367 3.39302035176751  10.6424216795292 4.50268384326355  C 11.6716821427955 3.67101833338882  12.8534915589241 3.02754697631242  14.1283433766783 2.60466988727858  C 13.4695785526671 3.72650503656755  12.598779234125 4.72282720978427  11.5597843323819 5.54347826086956  C 12.8258500285511 5.09711859905466  14.1676728312245 4.87737826945344  15.5176375233464 4.89533011272141  C 14.4952482317413 5.73489484088017  13.3188185191492 6.38754084980764  12.0475032596821 6.82045088566827  C 13.3977089186643 6.81342270733542  14.7376714701517 7.04380123132321  16 7.5  C 14.7376532746416 7.95610718045791  13.397691293132 8.1863946197098  12.0475032596821 8.17928073000538  C 13.3188040410064 8.61234456322133  14.4952217737876 9.26507491168027  15.5176375233464 10.1046698872786  C 14.1676669191785 10.1223939849908  12.825870684585 9.90256701826329  11.5597843323819 9.45625335480408  C 12.5987287387619 10.276952543378  13.469519649742 11.2732650971103  14.1283433766783 12.3950617283951  C 12.853526038259 11.9722375591212  11.6717232173457 11.3288607810955  10.6424216795292 10.4973161567364  C 11.3235314653121 11.6069587812642  11.7838043308878 12.8266832947629  12.0001409592275 14.0952764358561  C 10.9539461288389 13.2828363905258  10.0743626191795 12.2934393022533  9.40564541706311 11.1768652710682  C 9.65993586355147 12.5107353730542  9.629206751947 13.7895866881374  9.38957606512316 15  C 8.69829574953763 13.8958001162258  8.22711187948312 12.6795830693521  7.99971808154491 11.4125067096082  C 7.77262313341228 12.6794982169321  7.30182642098266 13.895702713307  6.610987771787 15  C 6.35816841788269 13.737389759265  6.35243390257514 12.4411896652132  6.59407266448179 11.1765968867418  C 5.92554615939286 12.2932179154196  5.04615568580683 13.2827038705596  4.00014095922754 14.0952764358562  C 4.21635209354947 12.8266524212651  4.67663301055996 11.6069065714393  5.35786023892589 10.4973161567365  C 4.32849678704386 11.3289848697274  3.14659452475706 11.9724547400441  1.87165662332171 12.3953301127214  C 2.53051951591101 11.2734042930707  3.40141123356192 10.2769947670918  4.44049758607323 9.45625335480409  C 3.17437416533668 9.90243568769128  1.83260381975217 10.122258413013  0.482644395108715 10.1046698872786  C 1.50484388710002 9.26492722374237  2.6811997096319 8.61217819569645  3.95249674031786 8.17928073000539  C 2.60232497095186 8.18621621291421  1.26239701545471 7.95593462141275  0 7.50000000000002  C 1.26232422341262 7.04375727125796  2.60227795035842 6.81328927828585  3.95249674031786 6.82018250134195  C 2.68128306183712 6.38736293995666  1.50494555674866 5.73480604956918  0.482644395108711 4.89533011272145  C 1.77608626704725 4.8805689747719  3.10448602741656 5.07353730542139  4.44049758607322 5.54320987654324  C 3.40149274690931 4.72260124464337  2.53060882122486 3.72638260801341  1.8716566233217 2.60466988727862  C 3.14647178727983 3.02755187101036  4.32834014327319 3.67082130997532  5.35786023892589 4.50214707461088  C 4.67647732556257 3.3927222970828  4.21618453749933 2.17303597634732  4.00014095922754 0.904455179817537  C 5.04625233193531 1.71700785495003  5.92573897009684 2.70649447280651  6.59435458293688 3.82313472893186  Z " fill-rule="nonzero" fill="#ffffff" stroke="none" transform="matrix(1 0 0 1 23 412 )" />
  </g>
</svg>