<?xml version="1.0" encoding="utf-8"?>
<svg version="1.1" xmlns:xlink="http://www.w3.org/1999/xlink" width="8px" height="7px" xmlns="http://www.w3.org/2000/svg">
  <g transform="matrix(1 0 0 1 -43 -309 )">
    <path d="M 0.0129355420032444 1.55301991939849  C 0.0129355420032444 1.53017000924905  0.0258466704717526 1.49591227289306  0.0517076995663355 1.45024671033053  C 0.103390985597935 1.35888132746912  0.180935300724117 1.26755020234407  0.284340644944882 1.17618481948266  C 0.930517422891359 0.78794189336029  1.55087194390081 0.525287828718957  2.14540420797325 0.388256883295019  C 3.12761927551904 0.15986055500967  4.0840120861278 0.0342716935286337  5.01454386764199 0.0114217833791911  C 5.27299906995755 -0.0114281267702515  5.51858191596217 1.39571726493321E-05  5.75121486134072 0.0456795197351755  C 6.91437958823345 0.137044902596587  7.61227842436909 0.308333584376509  7.84491136974764 0.559545565074941  C 7.94827794181084 0.696576510498879  8 0.902122928634785  8 1.17618481948266  C 8 1.17618481948266  8 1.41598897397455  8 1.41598897397455  C 8 2.21532473636873  7.75441715399538 3.1574124861583  7.26332900630127 4.24225222334326  C 6.7722020864496 5.32709196052822  6.08721437878247 6.20066423760582  5.20840465545745 6.86296905457607  C 5.0791382821421 6.95433443743748  4.96282180945283 7.00000000000001  4.85945523738963 7.00000000000001  C 4.80773317920046 7.00000000000001  4.75604989316886 6.98859217379346  4.70436660713726 6.96574226364402  C 4.5492779768849 6.89722679093205  4.51050581932181 6.77160367171466  4.58805013444799 6.58890716372819  C 5.54440417289919 4.6019584550811  6.02261996428236 3.22024117463518  6.02261996428236 2.44372106465408  C 6.02261996428236 2.19250908395565  5.97089790609319 2.00977831823283  5.86753133402999 1.89559728295833  C 5.60903735955687 1.62153539211046  4.88527749432665 1.48450444668652  3.6962905104969 1.48450444668652  C 3.25684687667682 1.48450444668652  2.73989769988813 1.50735435683596  2.14540420797325 1.55301991939849  C 1.49918865786921 1.62153539211046  0.904695165954338 1.69005086482243  0.361884960071064 1.75856633753439  C 0.2067963298187 1.75856633753439  0.103390985597935 1.73571642738495  0.0517076995663355 1.69005086482243  C -1.43586228259272E-05 1.6443853022599  -0.0129254870913385 1.59868548196101  0.0129355420032444 1.55301991939849  Z " fill-rule="nonzero" fill="#fbaf16" stroke="none" transform="matrix(1 0 0 1 43 309 )" />
  </g>
</svg>