<?xml version="1.0" encoding="utf-8"?>
<svg version="1.1" xmlns:xlink="http://www.w3.org/1999/xlink" width="36px" height="8px" xmlns="http://www.w3.org/2000/svg">
  <g transform="matrix(1 0 0 1 -11 -310 )">
    <path d="M 0 0.359813639609314  C 0 0.289720186761693  0.0238873604599597 0.219626733914072  0.071733815195074 0.149533281066451  C 0.191278218217665 -0.0373709109517287  0.38255643643533 -0.0490765175772835  0.645604336755666 0.114486554642641  C 6.62339835840677 3.50234845785313  13.1272881806986 5.19626188609516  20.1572020698158 5.19626188609516  C 24.8437874179556 5.19626188609516  29.4706184980379 4.34346989202458  34.0376953100626 2.63785085715699  C 34.1572397130852 2.59113357083406  34.3305844775041 2.52104011798643  34.5577654702269 2.42757049861413  C 34.7849105960421 2.33410087924183  34.946311680231 2.26400742639421  35.0419687227937 2.21729014007127  C 35.400637798769 2.07710323437603  35.6815832859806 2.14719668722365  35.8848410513358 2.42757049861413  C 36.0880629497834 2.70794431000461  36.0223189081572 2.96494195487042  35.6875730595493 3.19859847993796  C 35.2571701683789 3.50234845785313  34.7071870072783 3.85281572209123  34.0376953100626 4.25000027265227  C 31.9813020298654 5.44158897106183  29.6858199436231 6.36447441798003  27.1512490513355 7.0186916601333  C 24.6166422921404 7.67290890228657  22.1418256679103 7.99999999999999  19.7267991786454 7.99999999999999  C 15.9966407885015 7.99999999999999  12.4697042968053 7.36330612105863  9.14606143737194 6.08995340990232  C 5.82238271103098 4.81660069874602  2.8454293804354 3.02336484781891  0.215201445585222 0.710280903847419  C 0.071733815195074 0.59347016467686  0 0.476624378779873  0 0.359813639609314  Z " fill-rule="nonzero" fill="#fbaf16" stroke="none" transform="matrix(1 0 0 1 11 310 )" />
  </g>
</svg>