<?xml version="1.0" encoding="utf-8"?>
<svg version="1.1" xmlns:xlink="http://www.w3.org/1999/xlink" width="31px" height="29px" xmlns="http://www.w3.org/2000/svg">
  <g transform="matrix(1 0 0 1 -15 -405 )">
    <path d="M 4.09210953273724 16.4105420198063  C 2.60894685607153 15.9378169104322  1.22665488895298 15.2554046385619  0 14.5  C 1.22665488895299 13.7440645078621  2.60894685607153 13.0619176627798  4.09210953273724 12.5894579801937  C 2.86852826651284 11.6636493437551  1.81539335160081 10.5727452451994  0.934660729737525 9.46432297863772  C 2.35970399480819 9.15271192956121  3.90433912604557 8.96080836185908  5.46853367464667 8.99849896575079  C 4.65206770983559 7.73055519961925  4.05466721949812 6.36387266836295  3.62631597923277 5.03594244815024  C 5.07734532737237 5.20608101923886  6.59822973752524 5.52751285947024  8.05456807037785 6.07110692123231  C 7.74385275454283 4.61471013564224  7.67455653302567 3.13575207307474  7.75 1.74889710593275  C 9.05237777617537 2.38008200772483  10.3659323622729 3.17609694484614  11.5386591433516 4.16003404785004  C 11.7711367897318 2.69036592286148  12.2380480242284 1.27856083765033  12.8083447505048 0  C 13.804757355062 1.01631917113621  14.75227141621 2.19109813469036  15.5 3.49646707792564  C 16.24772858379 2.19109813469036  17.1949632246899 1.01605374434824  18.1916552494952 0  C 18.7619519757716 1.27856083765033  19.2291426305163 2.69036592286148  19.4616202768965 4.16003404785004  C 20.6337882174791 3.17609694484615  21.9473428035766 2.38008200772483  23.250279420248 1.74889710593275  C 23.3257228872224 3.13575207307474  23.2567060859533 4.61444470885427  22.9457113498702 6.07110692123231  C 24.4017702624748 5.52751285947024  25.9226546726276 5.20608101923886  27.3739634410153 5.03594244815024  C 26.9456122007499 6.36387266836295  26.3479322901644 7.73082062640722  25.5314663253533 8.99849896575079  C 27.0956608739544 8.96054293507111  28.6405754254399 9.15271192956122  30.0650598500144 9.46432297863772  C 29.1848860686472 10.5730106719874  28.1314717334872 11.6636493437551  26.9078904672628 12.5894579801937  C 28.3913325641765 13.0621830895678  29.7736245312951 13.7445953614381  31 14.5  C 29.7736245312951 15.2556700653499  28.3913325641765 15.9380823372202  26.9078904672628 16.4105420198063  C 28.1314717334872 17.3363506562448  29.1846066483992 18.4272547548006  30.0650598500144 19.5356770213623  C 28.6405754254399 19.8472880704388  27.0956608739544 20.0391916381409  25.5314663253533 20.0015010342492  C 26.3479322901644 21.2691793735928  26.9456122007499 22.636127331637  27.3739634410153 23.9640575518497  C 25.9229340928757 23.7939189807611  24.4017702624748 23.4724871405298  22.9457113498702 22.9291585055557  C 23.2567060859533 24.3855552911457  23.3254434669743 25.8642479269253  23.2497205797519 27.2511028940673  C 21.9476222238246 26.6199179922752  20.6340676377271 25.8239030551539  19.4616202768964 24.83996595215  C 19.2291426305163 26.3096340771385  18.7619519757716 27.7211737355617  18.1910964089991 29  C 17.195242644938 27.9839462556518  16.24772858379 26.8089018653096  15.5 25.5035329220744  C 14.75227141621 26.8089018653096  13.804757355062 27.9839462556518  12.8083447505048 29  C 12.2380480242284 27.7214391623497  11.7708573694837 26.3096340771385  11.5383797231035 24.83996595215  C 10.3656529420248 25.8239030551539  9.05237777617536 26.6199179922752  7.74972057975194 27.2511028940673  C 7.67399769252956 25.8639825001373  7.74329391404672 24.3852898643578  8.05428865012979 22.9288930787677  C 6.59822973752523 23.4727525673177  5.07734532737236 23.7941844075491  3.62603655898471 23.9640575518498  C 4.05438779925007 22.636127331637  4.65150886933948 21.2694448003808  5.46797483415056 20.0015010342492  C 3.90405970579751 20.0394570649289  2.35942457456013 19.8472880704388  0.934381309489465 19.5354115945743  C 1.81511393135275 18.4272547548006  2.86852826651283 17.3363506562449  4.09210953273723 16.4105420198063  Z " fill-rule="nonzero" fill="#b1cd49" stroke="none" transform="matrix(1 0 0 1 15 405 )" />
  </g>
</svg>