<?xml version="1.0" encoding="utf-8"?>
<svg version="1.1" xmlns:xlink="http://www.w3.org/1999/xlink" width="24px" height="18px" xmlns="http://www.w3.org/2000/svg">
  <g transform="matrix(1 0 0 1 -20 -66 )">
    <path d="M 23.3160451507561 16.714780146639  C 23.6881230794193 16.714780146639  24 16.9909776660252  24 17.3543474126814  C 24 17.7234982145496  23.6881230794193 17.9998478669677  23.3160451507561 17.9998478669677  C 22.9426690871474 17.9998478669677  22.6281958966765 17.7233460815173  22.6281958966765 17.3543474126814  C 22.6281958966765 16.9909776660252  22.9426690871474 16.714780146639  23.3160451507561 16.714780146639  Z M 23.3160451507561 17.906057852811  C 23.6311674086996 17.906057852811  23.8758658458669 17.6686542565553  23.8758658458669 17.3545756122298  C 23.8758658458669 17.0459737570518  23.6310051418313 16.8088744268598  23.3160451507561 16.8088744268598  C 22.9970284879769 16.8088744268598  22.7525734511119 17.0459737570518  22.7525734511119 17.3545756122298  C 22.7524923176779 17.6685781900392  22.9970284879769 17.906057852811  23.3160451507561 17.906057852811  Z M 2.74344593977867 18  C 2.74344593977867 8.76902402434143  4.27857164589295 1.28590445200416  6.17149579627403 1.28590445200416  C 8.06498788069348 1.28590445200416  9.60051925397784 8.19342869820593  9.60051925397784 16.7147801466394  C 9.60051925397784 16.7147801466394  12.3429915925481 16.7147801466394  12.3429915925481 16.7147801466394  C 12.343072725982 8.19342869820593  13.8781172986623 1.28590445200416  15.7717716499496 1.28590445200416  C 17.6649392006329 1.28590445200416  19.1999026398789 8.76902402434143  19.1999026398789 18  C 19.1999026398789 18  21.9430240459214 18  21.9430240459214 18  C 21.9430240459214 8.05871489847232  19.1797004147948 0  15.771852783384 0  C 13.832844842449 0  12.1029177611226 2.42195786760203  10.9717554232629 6.20923362985195  C 9.84083648570504 2.42195786760203  8.1103414703407 0  6.17149579627403 0  C 2.7636481648633 0  0 8.05871489847232  0 18  C 0 18  2.74344593977867 18  2.74344593977867 18  Z M 23.1738993742583 17.7321697973675  L 23.049521819823 17.7321697973675  L 23.0493595529547 16.9811650854695  C 23.0493595529547 16.9811650854695  23.3583968033427 16.9811650854695  23.3583968033427 16.9811650854695  C 23.5475188381688 16.9811650854695  23.6366844822164 17.0517548122639  23.6366844822164 17.1956726604267  C 23.6366844822164 17.3314513913838  23.5463018366577 17.3881970122766  23.4278470229096 17.3999873222474  C 23.4278470229096 17.3999873222474  23.6553451720533 17.7321697973675  23.6553451720533 17.7321697973675  L 23.5217995395674 17.7321697973675  L 23.305011003722 17.4090392376447  L 23.1738993742583 17.4090392376447  L 23.1738993742583 17.7321697973675  Z M 23.3380323113902 17.075107232658  C 23.3380323113902 17.075107232658  23.1739805076927 17.075107232658  23.1739805076927 17.075107232658  L 23.1738182408244 17.314792824392  C 23.1738182408244 17.314792824392  23.3033883350404 17.314792824392  23.3033883350404 17.314792824392  C 23.41251280387 17.314792824392  23.5130371286878 17.309696367824  23.5130371286878 17.1906522703744  C 23.5130371286878 17.0907769349419  23.4218431487884 17.075107232658  23.3380323113902 17.075107232658  Z " fill-rule="nonzero" fill="#ffdd00" stroke="none" transform="matrix(1 0 0 1 20 66 )" />
  </g>
</svg>