<?xml version="1.0" encoding="utf-8"?>
<svg version="1.1" xmlns:xlink="http://www.w3.org/1999/xlink" width="39px" height="38px" xmlns="http://www.w3.org/2000/svg">
  <g transform="matrix(1 0 0 1 -11 -401 )">
    <path d="M 6.77227743889434 4.44526595111568  C 8.13338736509832 4.74511121846709  9.96003071279273 5.31367318504203  11.8094100584396 6.21959433440456  C 11.9167128780446 4.22976047946116  12.3170882566224 2.42749620169856  12.7274452928379 1.14616984183663  C 13.900012796997 1.87489760339431  15.4144520752463 3.00856280675222  16.8299065819221 4.46655044214329  C 17.6392526553769 2.63182731556358  18.6573817344196 1.06954567413724  19.4994454634646 0  C 20.3420637290449 1.0692796179994  21.3601928080877 2.63129520328789  22.1703706863456 4.46575227372975  C 23.5855479247537 3.00803069447653  25.0994326664676 1.87463154725647  26.2720001706266 1.14590378569878  C 26.6823572068421 2.42696408942287  27.08273258542 4.22949442332332  27.190035405025 6.21879616599102  C 29.0394147506718 5.3134071289042  30.8660580983662 4.74484516232925  32.2274452928379 4.44499989497784  C 32.1564646163034 5.78352832447646  31.8905643475664 7.60867343009375  31.2825150364714 9.51336932092671  C 33.3426182655803 9.26939584252277  35.261869214691 9.33484565243266  36.6482105532568 9.50006651403446  C 36.1039329437359 10.7345669936357  35.2039201467389 12.3622984449719  33.9534402593525 13.952515980872  C 35.9766668088555 14.3994902924517  37.7561745510387 15.0904380824354  39 15.700770862652  C 38.0489698417438 16.6822519551625  36.6227018726272 17.9159542663502  34.8811798831208 19.0001330280689  C 36.6227018726272 20.0840457336498  38.0492471100115 21.3177480448375  39 22.299229137348  C 37.7567290875741 22.9095619175646  35.9766668088555 23.6007757636861  33.9534402593525 24.047484019128  C 35.2039201467389 25.637967611166  36.1044874802713 27.2654330063643  36.6482105532568 28.4999334859655  C 35.261869214691 28.6648882914295  33.3426182655803 28.7303381013394  31.2825150364714 28.4863646229354  C 31.8905643475664 30.3910605137684  32.1564646163034 32.2162056193857  32.2279998293734 33.5547340488843  C 30.8666126349017 33.2551548376708  29.0399692872073 32.6865928710958  27.190035405025 31.781203834009  C 27.08273258542 33.7707716328145  26.6826344751098 35.5730359105771  26.2725547071621 36.8540962143012  C 25.0997099347353 36.1259005650192  23.5855479247537 34.9919693055235  22.1703706863456 33.5342477262702  C 21.3607473446231 35.3684387405743  20.3420637290449 36.9307203820006  19.5 38  C 18.6576590026874 36.9304543258628  17.6392526553769 35.3684387405743  16.8293520453867 33.5342477262702  C 15.4141748069786 34.9919693055235  13.9002900652647 36.1256345088814  12.7277225611057 36.8543622704391  C 12.3176427931579 35.5730359105771  11.9169901463123 33.7707716328145  11.8096873267073 31.781203834009  C 9.96058524932816 32.6868589272336  8.13394190163375 33.2551548376707  6.77227743889434 33.5550001050222  C 6.84353538369662 32.2164716755235  7.10971292070128 30.3913265699063  7.71803950006399 28.4866306790733  C 5.65765900268737 28.7306041574772  3.73840805357676 28.6654204037052  2.35206671501088 28.5001995421034  C 2.89606705626413 27.2654330063643  3.79663438979653 25.6377015550281  5.04711427718295 24.0477500752659  C 3.02388772767991 23.6005097075483  1.24410271722902 22.9098279737024  0 22.2994951934858  C 0.95130742652391 21.3180141009753  2.37757539564049 20.0843117897876  4.11937465341466 19.0003990842068  C 2.37757539564049 17.9164863786259  0.951307426523908 16.6825180113004  0 15.7010369187898  C 1.24382544896131 15.0907041385732  3.02416499594762 14.3997563485895  5.04739154545067 13.9533141492855  C 3.79691165806424 12.3628305572476  2.89606705626413 10.7350991059113  2.35206671501088 9.50033257017229  C 3.73840805357676 9.3351117085705  5.65710446615194 9.26939584252276  7.71776223179627 9.51336932092671  C 7.10971292070128 7.60867343009374  6.84353538369663 5.7837943806143  6.77227743889434 4.44526595111568  Z " fill-rule="nonzero" fill="#33a457" stroke="none" transform="matrix(1 0 0 1 11 401 )" />
  </g>
</svg>