<?xml version="1.0" encoding="utf-8"?>
<svg version="1.1" xmlns:xlink="http://www.w3.org/1999/xlink" width="36px" height="40px" xmlns="http://www.w3.org/2000/svg">
  <g transform="matrix(1 0 0 1 -13 -115 )">
    <path d="M 8.27999114652494 13.0161575918546  C 7.46635679504197 14.727091633466  6.65958388667559 16.4409030544489  5.88357680389527 18.1686586985388  C 5.56175298804783 18.8884462151391  5.27069499778645 19.6328021248337  5.16113324479829 20.4185480301016  C 4.95816733067704 21.7452412571934  5.24922532093842 23.1376715360775  5.9579459938027 24.2768924302786  C 6.56883576803875 25.2664895971666  7.4858344400177 26.0639663567949  8.55467020805645 26.5245683930939  C 9.39022165055303 26.8851957655393  10.2983780098657 27.0459401232215  11.2069499778663 26.9940239043822  C 12.4205400619744 26.9296148738376  13.5907481186364 26.493581230633  14.6175298804778 25.8572377158034  C 15.7629482071711 25.1542718016822  16.7425852146966 24.2193448428507  17.6547144754313 23.2405931828239  C 18.5028773793711 24.1547144754313  19.4105799026115 25.0270030987162  20.4583886675518 25.7107127047366  C 21.470340858787 26.3764940239043  22.6241699867196 26.8585657370518  23.8377600708277 26.9732182381581  C 25.1558211598049 27.1108897742361  26.521469676848 26.7841965471443  27.6277113767151 26.0504648074366  C 28.6061540932833 25.4021374381578  29.3638582770145 24.4711047550913  29.7999114652498 23.3813634351482  C 30.0806917077666 22.6781690672733  30.2189014225532 21.9261788118065  30.2065073041167 21.1691013722884  C 30.1978751660022 20.3935369632582  30.0163789287294 19.6277113767151  29.733510402833 18.9083665338644  C 29.5152722443554 18.3514829570604  29.2618415227976 17.8092076139883  29.0143868968566 17.2649402390439  C 27.0451080176986 12.9732901343173  24.9785422262303 8.72695239760787  22.8162903939792 4.52921646746336  C 22.5121735281095 3.94267374944639  22.2144754316068 3.35258964143395  21.8933156263829 2.77512173528112  C 21.5776892430276 2.21181938911013  21.210270030987 1.66954404603803  20.7346170872065 1.22864099158915  C 19.97565294378 0.505090748118619  18.9572819831783 0.0737051792825696  17.9121292607347 0.00863213811408059  C 17.9121292607347 0.00863213811408059  17.430942895086 0.00863213811408059  17.430942895086 0.00863213811408059  C 16.3550243470559 0.0617529880478287  15.3047808764936 0.513280212483096  14.5327578574588 1.26582558654263  C 14.0745905267818 1.69986719787494  13.7200088534746 2.22908366533829  13.4127932713586 2.77667109340382  C 13.095838866755 3.34462151394428  12.8023461708717 3.92540947321822  12.5039840637451 4.50265604249671  C 11.0531053398977 7.31901172057314  9.64494635337633 10.1571707678145  8.27999114652494 13.0161575918546  Z M 3.10867640548895 39.9975652943781  C 3.10867640548895 39.9975652943781  3.47432492253211 39.9975652943781  3.47432492253211 39.9975652943781  C 4.03032315183691 39.9601593625498  4.57923860115079 39.7301903497123  4.95861000442665 39.3158477202301  C 4.96215139442211 39.4457724656927  4.94378043382039 39.5834440017707  4.99247454625947 39.7078353253651  C 5.04316069057086 39.8085436033643  5.16268260292145 39.836210712705  5.26648959716658 39.8322266489599  C 5.71027003098698 39.8311199645859  6.15471447543132 39.8326693227091  6.59893758300132 39.8302346170872  C 6.59893758300132 37.6901283753873  6.60026560424967 35.5491367861887  6.59849490925171 33.4081451969896  C 6.16843736166447 33.4072598494909  5.73837981407678 33.409473218238  5.30787959273994 33.4057104913677  C 5.19411243913237 33.4050464807433  5.04891544931388 33.4105799026115  4.99335989375822 33.5301018149621  C 4.94355909694559 33.6529437804338  4.96259406817171 33.7892872952634  4.95816733067704 33.9185480301016  C 4.60026560424967 33.5376272687026  4.095838866755 33.3114209827354  3.57835325365204 33.2622841965472  C 2.77932713590099 33.1905710491365  1.95130588756092 33.4121292607347  1.3096502877379 33.8972996901284  C 0.781097830898489 34.2877379371403  0.390438247011843 34.8523683045596  0.185922974767891 35.4743249225321  C 0.0874280655157236 35.7658255865426  0.0380699424526938 36.0717131474103  0.00664010624177536 36.3773793714031  C 0.00664010624177536 36.3773793714031  0.00664010624177536 36.8171757414784  0.00664010624177536 36.8171757414784  C 0.0524568393093432 37.7377158034528  0.461930057547761 38.6482957060648  1.1761841522798 39.2416998671979  C 1.71491810535645 39.6980965028774  2.40725984949086 39.9530765825589  3.10867640548895 39.9975652943781  Z M 16.4138999557326 39.3116423196107  C 16.7941567065072 39.734617087207  17.3528109783092 39.9641434262949  17.9145639663566 39.9980079681277  C 17.9145639663566 39.9980079681277  18.249667994688 39.9980079681277  18.249667994688 39.9980079681277  C 19.159141212926 39.9524125719345  20.0509074811862 39.5261177512175  20.6217352810977 38.8114209827359  C 21.4212040725984 37.8311199645864  21.5772465692785 36.4061531651173  21.1044710048695 35.2459052678178  C 20.8517042939357 34.6277113767155  20.4032757857458 34.0903054448872  19.8348826914566 33.7397078353256  C 19.2494466578132 33.3753873395308  18.5473660911907 33.2107127047366  17.8610004426737 33.2574147853034  C 17.3189464364764 33.2930500221337  16.7892872952634 33.5243470562195  16.4130146082339 33.9196547144757  C 16.4108012394863 32.7197875166003  16.4130146082339 31.5205843293493  16.4119079238603 30.3207171314743  C 15.8647631695439 30.3209384683491  15.3171757414784 30.3182824258524  14.7700309871625 30.3222664895975  C 14.772908366534 33.4913678618859  14.765382912793 36.6620185922975  14.7740150509076 39.8308986277116  C 15.227091633466 39.8320053120851  15.680610889774 39.8331119964587  16.1339088092077 39.8320053120851  C 16.2465692784417 39.840858787074  16.3680832226651 39.7788844621514  16.3990703851264 39.664895971669  C 16.4214254094732 39.5489154493139  16.4132359451082 39.4291722000889  16.4138999557326 39.3116423196107  Z M 35.336210712705 36.8216024789731  C 35.336210712705 36.8216024789731  35.336210712705 36.391987605135  35.336210712705 36.391987605135  C 35.2846392208944 35.6930057547588  35.0486941124395 34.9988933156264  34.6044710048695 34.4508632138113  C 33.9085878707397 33.5646303674193  32.7189021691015 33.1175298804778  31.609783089863 33.2833111996456  C 31.1465250110673 33.3563523683047  30.7076139884907 33.5785745905268  30.3837981407705 33.9194333776004  C 30.3802567507751 32.7202301903494  30.3837981407705 31.5210270030984  30.3820274457726 30.3213811420983  C 29.8357680389554 30.3207171314739  29.2899513058878 30.3202744577247  28.7441345728203 30.3218238158474  C 28.7436918990707 33.4911465250111  28.7441345728203 36.6613545816731  28.7441345728203 39.8311199645859  C 29.1746347941571 39.834440017707  29.6062416998675 39.830455953962  30.0367419212043 39.834440017707  C 30.149845064188 39.8362107127045  30.2912793271362 39.8271359008409  30.3492695883137 39.7115980522353  C 30.399513058876 39.5867640548913  30.3806994245242 39.4475431606907  30.3842408145201 39.3162903939797  C 30.7616201859232 39.7297476759627  31.3081009296152 39.958167330677  31.8610004426741 39.9984506418768  C 31.8610004426741 39.9984506418768  32.2297476759632 39.9984506418768  32.2297476759632 39.9984506418768  C 33.1292607348387 39.949535192563  34.0086321381145 39.529659141213  34.5783532536525 38.8258078795925  C 35.0436033643209 38.2644975652943  35.2945993802568 37.5455953961928  35.336210712705 36.8216024789731  Z M 7.01018149623724 19.9696768481631  C 7.23129703408586 19.3211598052235  7.53120849933612 18.7031872509961  7.81186365648546 18.0792386011512  C 9.76006645185998 13.8338363492189  11.8034480814586 9.63276061415627  13.9404603806997 5.47919433377592  C 14.2591854803013 4.86100044267369  14.5730411686586 4.23992917220039  14.9103585657372 3.63191677733539  C 15.1857016378931 3.14209827357263  15.5059760956178 2.66113324479875  15.9586100044266 2.31717574147842  C 16.4480290836891 1.93590153461537  17.0534496591304 1.7340946761351  17.6737494466579 1.74546259406816  C 18.3111996458611 1.73793714032763  18.9448871181939 1.97277556440895  19.4324922532096 2.38247011952217  C 19.9141212926074 2.78242585214684  20.2394864984508 3.32957060646322  20.5316511730857 3.87494466578119  C 21.1921204072601 5.11553784860553  21.8264718902169 6.37051792828697  22.4610447100486 7.62416998672006  C 24.2721088430221 11.2086571660629  26.0123026103738 14.8285140511307  27.6806108897745 18.4816290393978  C 27.9327135900839 19.0491367861887  28.2025232403721 19.6122177954849  28.3722886232849 20.2111553784862  C 28.5796812749004 20.9497565294378  28.586542718017 21.7474546259409  28.3714032757857 22.4845064187693  C 28.0796812749004 23.4913678618859  27.3784860557771 24.3709606020366  26.4610447100486 24.8784860557771  C 25.6478530323152 25.3333333333335  24.6772908366534 25.4891544931388  23.7605135015492 25.3359893758302  C 22.5929614873839 25.1542718016822  21.5453740593184 24.5347498893316  20.637671536078 23.8034528552457  C 19.9705621956618 23.2673749446658  19.3698539176626 22.6547144754318  18.794378043382 22.023240371846  C 19.7029659141213 20.8740593182824  20.5588756086763 19.6717574147856  21.2127047366093 18.3574590526782  C 21.7833111996461 17.2065073041172  22.2169101372288 15.9594953519259  22.2580787959273 14.6653386454186  C 22.2813191677733 13.8441788401947  22.1268260292168 13.0079681274901  21.7432492253211 12.2768924302791  C 21.2410358565739 11.3001328021251  20.3413014608236 10.5498007968126  19.3098716246127 10.1868083222666  C 18.3463922089422 9.84262948207197  17.2753430721559 9.81186365648546  16.2923860115097 10.0920761398852  C 15.3654271801684 10.3543603364319  14.5188136343518 10.9114652501107  13.9386896857018 11.6837096060203  C 13.4280655157149 12.3570163789286  13.137007525454 13.1848162903939  13.0694997786632 14.0243470562195  C 12.965692784418 15.2335104028334  13.2687029659141 16.4397963700753  13.7270916334664 17.5513501549358  C 14.4085878707392 19.1755201416559  15.408809207614 20.6456396635681  16.5135015493584 22.0092961487385  C 16.0153859251295 22.5845892632483  15.4748420882406 23.1217297307835  14.8964143426297 23.6162018592299  C 13.9995573262509 24.375166002656  12.9734395750334 25.0358565737051  11.8109783089863 25.2872952633911  C 10.8711819389114 25.4982293050025  9.85723771580342 25.3933156263834  8.99535192563098 24.9572819831783  C 7.9858344400177 24.4541832669324  7.21071270473658 23.5066401062418  6.9183266932273 22.4174413457281  C 6.69477644975677 21.6173085436035  6.7443559096946 20.7534307215583  7.01018149623724 19.9696768481631  Z M 8.20916334661388 30.3404161133244  C 8.75453740593184 30.2169101372288  9.3503762726873 30.5765825586541  9.49203187251032 31.1179725542274  C 9.66799468791532 31.6719787516604  9.31828242585243 32.3160690571053  8.76139884904842 32.4763169544049  C 8.21735281097835 32.6675520141657  7.57127047366112 32.3351040283314  7.39110225763625 31.7919433377601  C 7.22023019034987 31.3342186808322  7.40305444887144 30.7817618415229  7.80898627711395 30.511066843736  C 7.93002447415029 30.428723847318  8.06595064606472 30.3707597552016  8.20916334661388 30.3404161133244  Z M 12.6113324479857 34.8563523683047  C 12.3506826317025 34.9512656538168  12.1157499502601 35.105639160945  11.9251881363434 35.307215582116  C 11.8840194776449 35.3424081451972  11.8939796370073 35.3992917220007  11.890216910137 35.4482071713146  C 11.8930942895086 36.8525896414344  11.8880035413899 38.2571934484286  11.8922089420098 39.6613545816735  C 11.8873395307655 39.715360779106  11.9003984063743 39.7762284196547  11.8764940239043 39.8269145639665  C 11.3342186808322 39.8395307658257  10.7912793271357 39.8293492695884  10.2487826471888 39.8313413014607  C 10.2490039840636 37.6903497122621  10.2470119521913 35.5489154493139  10.2501106684372 33.4079238601153  C 10.7069499778663 33.4099158919876  11.1640106241698 33.4061531651173  11.6210712704737 33.408809207614  C 11.7215582115978 33.4030544488714  11.828685258964 33.4546259406816  11.8654271801679 33.5526781761841  C 11.9015050907478 33.6699867197876  11.8899955732622 33.7950420540064  11.892651615759 33.9165559982293  C 12.2211155378486 33.5595396193007  12.6839309428951 33.3357680389554  13.1606905710491 33.2644975652943  C 13.478748669686 33.233418232554  13.7997361279754 33.2537461926599  14.1113324479857 33.3247011952189  C 14.1073483842406 33.8273572377157  14.1104471004869 34.3293492695884  14.1095617529877 34.8322266489599  C 13.6206285967241 34.7058432934928  13.091190792386 34.6797255422753  12.6113324479857 34.8563523683047  Z M 23.6859229747679 35.9760956175296  C 23.6644532979194 36.2144754316068  23.6978751660026 36.4528552456836  23.6901283753873 36.6918990703848  C 23.683119549919 37.142583468973  23.6825292584022 37.5933448285505  23.6883576803898 38.0440460380696  C 23.6573705179285 38.6401062416999  23.711376715361 39.238158477202  23.6757414785302 39.8335546702078  C 23.1310314298362 39.8317839752099  22.5867640548918 39.8331119964582  22.0420540061978 39.8328906595839  C 22.041832669323 37.6907923860113  22.0380699424527 35.5491367861887  22.0440460380701 33.4072598494909  C 22.4652501106684 33.4105799026115  22.887339530766 33.4072598494909  23.3083222664895 33.4085878707392  C 23.4172200088537 33.4017264276226  23.5362992474547 33.4625940681717  23.5644090305445 33.5732625055334  C 23.5900841080124 33.687029659141  23.5823373173971 33.805444887118  23.5854360336434 33.9223107569719  C 24.0194776449757 33.4732182381586  24.6485170429396 33.2523240371847  25.2658255865426 33.2509960159364  C 25.9181053563525 33.2346170872065  26.586542718017 33.4274015050905  27.090526781762 33.8505976095616  C 27.4256833008203 34.1134852872328  27.6674057507644 34.4771941549338  27.7799911465249 34.8880035413899  C 27.9234174413459 35.3884462151395  27.910579902612 35.9141212926074  27.908809207614 36.4296148738376  C 27.9092518813636 37.5637450199201  27.908809207614 38.698096502877  27.9092518813636 39.8324479858343  C 27.362328463922 39.8315626383355  26.8156263833553 39.8359893758297  26.2687029659141 39.8300132802124  C 26.2691456396637 38.6965471447543  26.2687029659141 37.5630810092962  26.2691456396637 36.4291722000885  C 26.2691456396637 36.0079681274901  26.2890659583886 35.5535635236829  26.0650730411685 35.1783975210269  C 25.9090305444888 34.9092518813632  25.6002656042497 34.7751217352811  25.302567507747 34.743913235945  C 24.7355024347057 34.6531651173086  24.1432049579462 34.8787073926514  23.7523240371847 35.2921646746345  C 23.7107127047366 35.3337760070826  23.6750774679062 35.3864541832668  23.6797255422753 35.4493138556882  C 23.6744134572823 35.6246126604692  23.7009738822489 35.8005754758742  23.6859229747679 35.9760956175296  Z M 7.61044710048691 33.4074811863657  C 8.15316511730862 33.408809207614  8.69566179725553 33.4083665338644  9.23815847720243 33.4079238601153  C 9.24236387782184 35.5495794599378  9.23926516157599 37.6912350597609  9.23970783532513 39.8324479858343  C 8.69632580787948 39.8324479858343  8.15294378043382 39.8320053120851  7.60934041611335 39.8326693227091  C 7.60911907923855 37.6907923860113  7.60602036299269 35.5491367861887  7.61044710048691 33.4074811863657  Z M 1.67131474103599 36.2813191677733  C 1.73085436033625 35.853696325808  1.94887118193901 35.4435590969456  2.29327135900849 35.1781761841526  C 2.60557768924309 34.9316069057104  2.9993359893756 34.8045595396193  3.39353696325816 34.7771137671539  C 3.98074369189908 34.7257636122181  4.59982293050007 34.9847277556441  4.95307658255842 35.4588313413014  C 4.97299690128375 36.1569278441789  4.95351925630803 36.8567950420543  4.96237273129691 37.5559982293053  C 4.95661797255434 37.64807436919  4.98207171314743 37.7589641434265  4.90792386011481 37.8311199645859  C 4.57591854803013 38.2286409915891  4.05732625055316 38.4637007525453  3.53939796370059 38.4473218238159  C 2.98428508189454 38.4515272244357  2.40814519698961 38.2388224878264  2.04847277556428 37.8034528552457  C 1.69765382912783 37.3877822045151  1.59163346613559 36.8096502877379  1.67131474103599 36.2813191677733  Z M 17.7428065515714 34.7722443559101  C 18.2644975652943 34.7569721115538  18.811863656485 34.9101372288624  19.1947764497563 35.2779991146526  C 19.5595396193007 35.6164231961047  19.737494466578 36.1239486498453  19.7259849490924 36.6155378486055  C 19.7366091190793 37.1064630367418  19.5537848605577 37.6106684373617  19.1910137228861 37.9493138556886  C 18.8244798583446 38.2895086321382  18.3171757414784 38.4526339088093  17.8218238158479 38.4477644975655  C 17.3050022133689 38.4597166888002  16.7886232846395 38.2222222222222  16.4612660469234 37.822266489597  C 16.4207613988492 37.7806551571493  16.4074811863657 37.7244355909697  16.4108012394868 37.6691013722889  C 16.4112439132359 36.933820274458  16.4119079238603 36.1987605135018  16.4108012394868 35.4639220894201  C 16.7250996015937 35.0540061974325  17.22819831784 34.7985834440019  17.7428065515714 34.7722443559101  Z M 31.4455511288184 34.8050022133689  C 32.2025232403721 34.6651173085438  33.0825586542719 34.9650287737936  33.4652501106684 35.6640106241698  C 33.813634351483 36.3109783089863  33.7788844621514 37.1755201416559  33.3260292164673 37.7647189021691  C 32.8928729526338 38.3222664895975  32.1285967242143 38.529659141213  31.450641876937 38.4214254094732  C 31.0378486055779 38.3390880920761  30.6374501992032 38.1162018592299  30.3933156263834 37.768260292165  C 30.3660911907923 37.4984506418768  30.3906595838866 37.2255422753433  30.3824701195222 36.9544046038072  C 30.3882248782647 36.4557326250556  30.3700752545374 35.9555112881808  30.3906595838866 35.4577246569279  C 30.6389995573263 35.1153165117307  31.0365205843295 34.8957503320053  31.4455511288184 34.8050022133689  Z M 19.6228419654713 12.3406374501992  C 20.1235059760957 12.767153607791  20.4225320938467 13.3977423638776  20.4977866312529 14.0458167330676  C 20.5962815405046 14.9072598494909  20.4003984063743 15.7724656927844  20.0996015936253 16.5759185480297  C 19.5316511730853 18.0668437361664  18.6325807879593 19.4032757857458  17.6602478972995 20.657370517928  C 17.3293492695884 20.2678176184149  17.0378486055774 19.8463922089418  16.7450199203186 19.4280655157145  C 16.2523240371843 18.7054006197432  15.8043382027445 17.9499778663121  15.4440017706947 17.1518370960598  C 15.1487383798139 16.489597166888  14.9116865869851 15.794378043382  14.8191677733507 15.0723771580342  C 14.7516600265603 14.4995573262504  14.7678176184149 13.9019477644974  14.9780876494024 13.3581230633022  C 15.1662239929169 12.8481629039397  15.527888446215 12.4063745019921  15.9860557768925 12.114431164232  C 17.0776892430276 11.4099158919876  18.6336874723329 11.4860557768925  19.6228419654713 12.3406374501992  Z " fill-rule="nonzero" fill="#ff7977" stroke="none" transform="matrix(1 0 0 1 13 115 )" />
  </g>
</svg>