<?xml version="1.0" encoding="utf-8"?>
<svg version="1.1" xmlns:xlink="http://www.w3.org/1999/xlink" width="23px" height="22px" xmlns="http://www.w3.org/2000/svg">
  <g transform="matrix(1 0 0 1 -19 -409 )">
    <path d="M 10.1124623410978 3.58401177165877  C 10.3679427829623 2.3061113724355  10.862003086193 1.10622233479273  11.5005633526833 0  C 12.1388419428319 1.10622233479273  12.6329022460627 2.3061113724355  12.8886643642687 3.58401177165877  C 13.5928552183604 2.46584892233841  14.4922477772063 1.4973405217643  15.4936071717246 0.663627262968727  C 15.6921889925784 1.9086249110492  15.7209199794254 3.19554703236  15.4975506405075 4.47848898216159  C 16.5653856516521 3.6545934797554  17.7619467509246 3.03421741385341  19.0063928282754 2.57331355308704  C 18.740772038112 3.80743206570901  18.2999485634507 5.02562989229415  17.6239253435227 6.15971342765134  C 18.9266784235922 5.72932421512224  20.2767531290568 5.53243839780005  21.6130256937811 5.5003316809591  C 20.9153133955471 6.5741819541436  20.05873564063 7.5769198296969  19.0120263551081 8.42469636115835  C 20.3922404291278 8.44008635766062  21.732456462635 8.69004112843893  22.9994366473167 9.09018103749804  C 21.9541357435031 9.87454016957943  20.7857422783942 10.5410862249882  19.4945379283317 11.0001326723836  C 20.7857422783942 11.459179119779  21.9546990961863 12.1254598304206  23 12.909818962502  C 21.7330198153183 13.3102242163284  20.3928037818111 13.5599136423394  19.0125897077914 13.5755689836089  C 20.0595806696549 14.4228148255358  20.9155950718887 15.4260833906237  21.6130256937811 16.4999336638082  C 20.2767531290568 16.4678269469672  18.9266784235922 16.270941129645  17.6244886962059 15.8405519171159  C 18.2999485634507 16.9741047629386  18.7402086854288 18.1923025895237  19.0058294755921 19.4264211021457  C 17.7619467509246 18.9657825861466  16.5653856516521 18.3459372097792  15.4975506405075 17.5217763626057  C 15.7209199794254 18.8047183124073  15.6927523452617 20.0913750889508  15.4941705244079 21.3363727370313  C 14.4922477772063 20.5026594782357  13.5934185710437 19.5344164224289  12.889227716952 18.4159882283412  C 12.6334655987459 19.6938886275645  12.1394052955152 20.8937776652073  11.5005633526833 22  C 10.862003086193 20.8940430099745  10.3682244593039 19.6941539723318  10.1127440174394 18.4159882283412  C 9.40855316334778 19.5344164224289  8.50887892816028 20.5026594782357  7.50723785730031 21.3366380817986  C 7.3089377127881 20.0913750889508  7.28020672594116 18.8049836571746  7.50385774120067 17.5217763626057  C 6.43574105371445 18.3456718650119  5.23889827810027 18.9660479309139  3.99501555343278 19.4269517916802  C 4.26063634359615 18.1928332790583  4.70089646557425 16.9746354524731  5.37691968550224 15.8405519171159  C 4.07416660543268 16.270941129645  2.72409189996816 16.4678269469672  1.38781933524383 16.4999336638082  C 2.08553163347784 15.4260833906237  2.9418277120533 14.4233455150704  3.98853699757513 13.5755689836089  C 2.60832292355549 13.5601789871067  1.26810689004825 13.3104895610956  0.000845029024910018 12.9100843072693  C 1.04614593283856 12.1257251751879  2.21482107428907 11.4591791197791  3.50602542435153 11.0003980171509  C 2.21453939794744 10.5410862249883  1.04586425649693 9.87480551434672  0 9.09044638226533  C 1.26754353736498 8.69004112843894  2.60775957087221 8.44008635766064  3.9882553212335 8.42469636115836  C 2.94126435937003 7.5771851744642  2.08524995713621 6.57418195414361  1.38781933524384 5.50033168095911  C 2.72381022362652 5.53243839780006  4.07388492909104 5.72958955988953  5.37635633281897 6.15997877241863  C 4.70033311289098 5.02616058182872  4.26007299091288 3.80822810001087  3.9944522007495 2.5741095873889  C 5.238334925417 3.03474810338799  6.43517770103118 3.6548588245227  7.50301271217577 4.47875432692889  C 7.27936169691626 3.19554703236002  7.30781100742156 1.90889025581649  7.50639282827541 0.663892607736024  C 8.50831557547701 1.49734052176432  9.40798981066451 2.46584892233843  10.1124623410978 3.58401177165878  Z " fill-rule="nonzero" fill="#f8d930" stroke="none" transform="matrix(1 0 0 1 19 409 )" />
  </g>
</svg>