<?xml version="1.0" encoding="utf-8"?>
<svg version="1.1" xmlns:xlink="http://www.w3.org/1999/xlink" width="39px" height="39px" xmlns="http://www.w3.org/2000/svg">
  <g transform="matrix(1 0 0 1 -11 -341 )">
    <path d="M 39 19.5005087863489  C 39 11.3955422488357  34.0550727930179 4.44602950960823  27.0181745896518 1.50244608821572  C 23.5730675299597 2.28139798833704  20.9777929232692 5.45011936910492  20.9777929232692 9.24235842041407  C 20.9777929232692 9.32427302258228  20.9984665189981 9.42145121521662  20.9999432044073 9.50260263786153  C 26.4476817932262 10.7002857031036  29.1948088828307 14.4950686861571  29.1948088828307 19.5005087863489  C 29.1948088828307 25.1241243004188  24.7450635164045 29.6828499863019  19.3049544688665 29.6828499863019  C 13.8633687359194 29.6828499863019  8.78209424282009 24.9920942428868  8.78209424282009 18.0357128879496  C 8.78209424282009 9.54381433212007  15.8244069593533 1.57723768149974  25.8606993430643 1.32538843880866  C 26.0418394199277 1.32106375484325  26.3293008462543 1.32767797737858  26.6216845572784 1.34166960197253  C 24.4162548986199 0.475969629368713  22.0131955093618 0  19.5006152855872 0  C 8.73114859620226 0  0 8.73102813979883  0 19.5005087863489  C 0 30.2697350397245  8.73114859620227 39  19.5006152855872 39  C 30.2695897465023 39  39 30.2697350397245  39 19.5005087863489  Z " fill-rule="nonzero" fill="#cc2131" stroke="none" transform="matrix(1 0 0 1 11 341 )" />
  </g>
</svg>