<?xml version="1.0" encoding="utf-8"?>
<svg version="1.1" xmlns:xlink="http://www.w3.org/1999/xlink" width="21px" height="25px" xmlns="http://www.w3.org/2000/svg">
  <g transform="matrix(1 0 0 1 -22 -282 )">
    <path d="M 6.41818181818189 24.307857789855  C 4.55149090909072 24.307857789855  3.0181818181818 23.7359910552536  1.81818181818198 22.592221467391  C 0.618181818181711 21.4484518795289  0.0181818181818016 19.829144021739  0.0181818181818016 17.7342617753625  C 0.0181818181818016 16.072803442029  0.430290909090672 14.6521482110506  1.25454545454522 13.472259963768  C 2.07876363636342 12.2923717164854  3.20603636363649 11.4014688632246  4.63636363636351 10.7994791666665  C 5.9454545454546 10.2456717617752  7.55756363636374 9.84836650815214  9.4727272727273 9.60756340579701  C 10.1272727272726 9.5353260869565  11.1939272727273 9.43899762228239  12.6727272727271 9.31861413043498  C 12.6727272727271 9.31861413043498  12.6727272727271 8.70459692028999  12.6727272727271 8.70459692028999  C 12.6727272727271 7.16352207880436  12.5030181818183 6.12814458786215  12.1636363636362 5.59839221014499  C 11.6545454545453 4.87601902173901  10.8545454545456 4.51483242753602  9.76363636363612 4.51483242753602  C 9.76363636363612 4.51483242753602  9.4727272727273 4.51483242753602  9.4727272727273 4.51483242753602  C 8.67272727272712 4.58706974637698  7.9818181818182 4.83990036231899  7.40000000000009 5.27332427536248  C 6.81818181818198 5.70674818840598  6.44239999999991 6.30873788496365  6.27272727272702 7.07925724637698  C 6.17574545454545 7.56082733242738  5.93330909090901 7.83774909420299  5.5454545454545 7.9099864130435  C 5.5454545454545 7.9099864130435  1.36363636363649 7.40432518115949  1.36363636363649 7.40432518115949  C 0.951490909090808 7.30799671648538  0.745454545454322 7.09128475996385  0.745454545454322 6.75418931159402  C 0.745454545454322 6.68195199275351  0.757563636363557 6.59768716032613  0.78181818181838 6.50135869565202  C 1.19392727272725 4.35833027626813  2.20603636363649 2.76910926177516  3.81818181818198 1.73369565217399  C 5.43029090909067 0.698282042572373  7.3151272727273 0.120383491847861  9.4727272727273 0  C 9.4727272727273 0  10.3818181818183 0  10.3818181818183 0  C 13.1454545454544 0  15.3030181818181 0.710345674818655  16.8545454545456 2.13100090579701  C 17.0979022263978 2.3728890817938  17.3227676368124 2.63245860769803  17.5272727272727 2.90755208333348  C 17.7333090909092 3.18447384510864  17.8969454545454 3.4312726449275  18.0181818181818 3.64798460144948  C 18.1393818181818 3.864696557971  18.2484727272727 4.17773697916664  18.3454545454547 4.58706974637698  C 18.4423999999999 4.99640251358687  18.5151272727271 5.27935609148562  18.5636363636363 5.43585824275351  C 18.6121090909091 5.59236039402185  18.6484727272727 5.92949196105064  18.6727272727271 6.44718070652152  C 18.6969454545456 6.96486945199285  18.7090909090907 7.27187805706535  18.7090909090907 7.36820652173901  C 18.7090909090907 7.36820652173901  18.7090909090907 16.108922101449  18.7090909090907 16.108922101449  C 18.7090909090907 16.7349668251809  18.7999999999997 17.3068696784421  18.9818181818182 17.824558423913  C 19.1636363636362 18.3422471693839  19.3393818181817 18.7154973958332  19.5090909090909 18.944236865942  C 19.6787636363638 19.1729763360509  19.9575636363634 19.540194746377  20.3454545454547 20.045855978261  C 20.4909090909091 20.2625679347825  20.5636363636363 20.4551887454709  20.5636363636363 20.6237545289855  C 20.5636363636363 20.8163753396739  20.4666545454543 20.9849411231885  20.272727272727 21.1294157608695  C 18.2605818181819 22.8631114130435  17.1696727272729 23.802196557971  17 23.946671195652  C 16.7090909090907 24.163383152174  16.3575636363635 24.1874742980071  15.9454545454546 24.0189085144925  C 15.6060363636361 23.7299592391305  15.3090909090911 23.4530374773549  15.0545454545454 23.188179347826  C 14.8000000000002 22.9233212182971  14.6181818181817 22.7306642889494  14.5090909090909 22.6102807971015  C 14.4000000000001 22.4898973052536  14.2242181818183 22.2551260190216  13.9818181818182 21.9059669384055  C 13.7393818181818 21.5568078577899  13.5696727272725 21.3220365715579  13.4727272727273 21.20165307971  C 12.115127272727 22.6704906023551  10.7818181818179 23.585484601449  9.4727272727273 23.946671195652  C 8.64847272727275 24.1874742980071  7.63029090909095 24.307857789855  6.41818181818189 24.307857789855  Z M 12.6727272727271 12.713768115942  C 11.2666545454545 12.713768115942  10.1999999999998 12.8100965806161  9.47272727272684 13.0027173913045  C 7.33938181818166 13.6047070878622  6.27272727272702 14.9410974864131  6.27272727272702 17.0118885869565  C 6.27272727272702 17.950973731884  6.50909090909045 18.7034337635869  6.98181818181774 19.2693048007245  C 7.45454545454504 19.8351758378622  8.09090909090901 20.1180932971015  8.89090909090874 20.1180932971015  C 8.96363636363594 20.1180932971015  9.06665454545418 20.1060657835146  9.19999999999982 20.081974637681  C 9.3333090909091 20.0578834918479  9.42421818181811 20.045855978261  9.47272727272684 20.045855978261  C 10.4909090909091 19.7809978487321  11.2787636363632 19.1308619791666  11.8363636363633 18.095448369565  C 12.1030181818178 17.6379333106884  12.3030181818181 17.1383038949275  12.4363636363637 16.596524003623  C 12.5696727272725 16.054744112319  12.6423999999997 15.6152883831523  12.6545454545453 15.2781929347825  C 12.6666545454545 14.9410974864131  12.6727272727271 14.3872539628624  12.6727272727271 13.6167346014495  C 12.6727272727271 13.6167346014495  12.6727272727271 12.713768115942  12.6727272727271 12.713768115942  Z " fill-rule="nonzero" fill="#000000" stroke="none" transform="matrix(1 0 0 1 22 282 )" />
  </g>
</svg>