<?xml version="1.0" encoding="utf-8"?>
<svg version="1.1" xmlns:xlink="http://www.w3.org/1999/xlink" width="18px" height="25px" xmlns="http://www.w3.org/2000/svg">
  <g transform="matrix(1 0 0 1 -112 -15 )">
    <path d="M 3 6.25  C 3 2.81373759000002  5.68118808 0.0208333333000041  9 0.0208333333000041  C 12.3188119 0.0208333333000041  15 2.81373759000002  15 6.25  L 15 9.39583333000002  L 17.5 9.39583333000002  C 17.7454599 9.39583333000002  17.9496084 9.57270849000002  17.9919443 9.80595770000002  L 18 9.89583333000002  L 18 24.4791667  C 18 24.755309  17.7761424 24.9791667  17.5 25  L 0.5 25  C 0.223857629999998 24.9791667  0 24.755309  0 24.4791667  L 0 9.89583333000002  C 0 9.61969096000001  0.223857629999998 9.39583333000002  0.5 9.39583333000002  L 3 9.39583333000002  L 3 6.25  Z M 17 24  L 17 10.3958333  L 1 10.3958333  L 1 24  L 17 24  Z M 14 6.25  C 14 3.35709574999999  11.7571881 1.02083333000002  9 1.02083333000002  C 6.24281192000001 1.02083333000002  4 3.35709574999999  4 6.25  L 4 9.39583333000002  L 14 9.39583333000002  L 14 6.25  Z M 8 15.625  C 8 15.0649914  8.4430036 14.6041667  9 14.6041667  C 9.5569964 14.6041667  10 15.0649914  10 15.625  C 10 15.9996609  9.8003673 16.3311569  9.50083989999999 16.5087216  L 9.5 19.2708333  C 9.5 19.5469757  9.2761424 19.7708333  9 19.7708333  C 8.7238576 19.7708333  8.5 19.5469757  8.5 19.2708333  L 8.50013079999999 16.5092963  C 8.20006409999999 16.3318728  8 16.0000655  8 15.625  Z " fill-rule="nonzero" fill="#472c90" stroke="none" transform="matrix(1 0 0 1 112 15 )" />
  </g>
</svg>