<?xml version="1.0" encoding="utf-8"?>
<svg version="1.1" xmlns:xlink="http://www.w3.org/1999/xlink" width="25px" height="25px" xmlns="http://www.w3.org/2000/svg">
  <g transform="matrix(1 0 0 1 -28 -15 )">
    <path d="M 21.3690252001089 0  L 24.499175900015 0  C 24.7757734000067 0  25 0.224228931663096  25 0.500829336247494  L 25 3.63101268454411  C 25 3.76384088434453  24.9472348000016 3.89122878415315  24.8533120000044 3.98515250401199  L 23.9566164000313 4.88185744266463  L 23.9566164000313 6.23949881062469  C 23.9566164000313 6.51609921020908  23.732389800038 6.74032814987215  23.4557923000463 6.74032814987215  L 22.0981651000871 6.74032814987215  L 21.8698493000939 6.96864633952906  L 21.8698493000939 8.32628770748912  C 21.8698493000939 8.60288811707352  21.6456227001006 8.82711704673658  21.3690252001089 8.82711704673658  L 20.0113980001497 8.82711704673658  L 19.7830822001565 9.05543523639355  L 19.7830822001565 10.4130765843536  C 19.7830822001565 10.689676983938  19.5588556001632 10.913905983601  19.2822581001715 10.913905983601  L 17.9246309002123 10.913905983601  L 14.898536200303 13.9400321790541  C 16.2449353002627 16.8705416746508  15.6560023002803 20.3798812693777  13.3239884003503 22.7129747658721  C 10.2757789004417 25.7623309612902  5.33429879058997 25.7623309612902  2.28615408068142 22.713039465872  C -0.762051360227137 19.6648022704522  -0.762051360227137 14.7233204778771  2.28615408068142 11.6761981824556  C 4.61887483061144 9.34345309596076  8.12908555050613 8.7548241868452  11.0611056004182 10.1015943848216  L 21.0148710001196 0.146707617779555  C 21.1087952001167 0.052772824420687  21.2361895001129 0  21.3690252001089 0  Z M 23.99835180003 3.42356238485582  L 23.99835180003 1.00165866849492  L 21.5764883001027 1.00165866849492  L 11.5168014004045 11.0624789833778  C 11.3625235004091 11.2167741831459  11.1261069004162 11.2534296830909  10.932350600422 11.1530957832417  C 8.32180437050035 9.80126245527286  5.10499033059685 10.2738917845627  2.99436155066017 12.3845425813913  C 0.337410446739877 15.0405495774005  0.337410446739877 19.3477162709286  2.99449108066017 22.0048245669361  C 5.65150296058046 24.6628360629423  9.95857474045125 24.6628360629423  12.6155713003715 22.0048399669361  C 14.7256198003082 19.8938145701081  15.198523500294 16.6778120749403  13.8470562003346 14.0689084788604  C 13.7466846003376 13.8751486791516  13.7833190003365 13.6387016795069  13.9376184003319 13.4844007797387  L 17.3630466002291 10.0589367848857  C 17.4569693002263 9.96501307502684  17.5843559002225 9.9122472751061  17.7171827002185 9.9122472751061  L 18.7814340001866 9.9122472751061  L 18.7814340001866 8.84798493670526  C 18.7814340001866 8.71515673690484  18.834199200185 8.58776883709622  18.9281219001822 8.49384511723738  L 19.4498137001665 7.97214788802124  C 19.5437365001637 7.8782241681624  19.6711230001599 7.82545837824166  19.8039498001559 7.82545837824166  L 20.8682011001239 7.82545837824166  L 20.8682011001239 6.76119603984083  C 20.8682011001239 6.62836784004041  20.9209663001224 6.50097994023178  21.0148891001196 6.40705622037295  L 21.5365809001039 5.88535899115681  C 21.6305036001011 5.79143527129791  21.7578902000973 5.73866947137722  21.8907170000933 5.73866947137722  L 22.9549682000613 5.73866947137722  L 22.9549682000613 4.67440713297633  C 22.9549682000613 4.54157893317596  23.0077335000598 4.41419103336734  23.101656200057 4.32026731350851  L 23.99835180003 3.42356238485582  Z M 3.65237227064043 19.2819294710275  C 3.65237227064043 18.1413984727412  4.57775261061266 17.2160083741317  5.71827172057845 17.2160083741317  C 6.85879083054424 17.2160083741317  7.78417118051648 18.1413984727412  7.78417118051648 19.2819294710275  C 7.78417118051648 20.4231951693126  6.85909967054423 21.3478504679233  5.71827172057845 21.3478504679233  C 4.57744378061268 21.3478504679233  3.65237227064043 20.4231951693126  3.65237227064043 19.2819294710275  Z M 6.78252296054653 19.2819294710275  C 6.78252296054653 18.69459927191  6.30559580056083 18.2176670726266  5.71827172057845 18.2176670726266  C 5.13094765059607 18.2176670726266  4.65402049061038 18.69459927191  4.65402049061038 19.2819294710275  C 4.65402049061038 19.869891070144  5.13053558059608 20.3461917694283  5.71827172057845 20.3461917694283  C 6.30600786056082 20.3461917694283  6.78252296054653 19.869891070144  6.78252296054653 19.2819294710275  Z " fill-rule="nonzero" fill="#472c90" stroke="none" transform="matrix(1 0 0 1 28 15 )" />
  </g>
</svg>