<?xml version="1.0" encoding="utf-8"?>
<svg version="1.1" xmlns:xlink="http://www.w3.org/1999/xlink" width="25px" height="25px" xmlns="http://www.w3.org/2000/svg">
  <g transform="matrix(1 0 0 1 -272 -15 )">
    <path d="M 10.9373958 0.0208333333000041  L 14.0623958 0.0208333333000041  C 14.3385382 0.0208333333000041  14.5623958 0.244690957999978  14.5623958 0.520833332999985  L 14.5623958 3.51228859999998  C 15.614118 3.77684297000002  16.4114898 4.02945215  17.0155875 4.32940022000003  L 19.1432944 2.20261964000002  C 19.338569 2.00743007  19.6550921 2.00746451999998  19.8503242 2.20269660999998  L 22.7971992 5.14957161000001  C 22.9924914 5.34486383000001  22.992457 5.66150571000003  22.7971222 5.85675538999999  L 20.6704428 7.98250859000001  C 20.9708299 8.58799986000002  21.2244828 9.38794281000003  21.4886245 10.4375  L 24.4790625 10.4375  C 24.7552049 10.4375  24.9790625 10.6613576  24.9790625 10.9375  L 24.9790625 14.0625  C 24.9790625 14.3386424  24.7552049 14.5625  24.4790625 14.5625  L 21.489285 14.5625  C 21.2229774 15.6170925  20.9703377 16.4132776  20.6705332 17.016771  L 22.7972762 19.1444403  C 22.9924658 19.3397148  22.9924313 19.656238  22.7971992 19.8514701  L 19.8513659 22.7973034  C 19.6561639 22.9925054  19.3397001 22.9925743  19.1444131 22.7974573  L 17.0158185 20.6707153  C 16.412827 20.9704977  15.6169375 21.2230892  14.5623958 21.4893884  L 14.5623958 24.4791667  C 14.5623958 24.755309  14.3385382 24.9791667  14.0623958 24.9791667  L 10.9373958 24.9791667  C 10.6612535 24.9791667  10.4373958 24.755309  10.4373958 24.4791667  L 10.4373958 21.4893861  C 9.38243083999998 21.2229665  8.58611703000003 20.9701548  7.98211832999999 20.6697914  L 5.85560952999998 22.7972264  C 5.66038423999998 22.9925367  5.34379059000003 22.9925992  5.14848827999998 22.7973659  L 2.20161328 19.8515326  C 2.00629221000003 19.6562805  2.00626421999999 19.3396498  2.20155077999999 19.1443633  L 4.32922012 17.0166939  C 4.02943245 16.4132097  3.77680290000001 15.6170476  3.51050670000001 14.5625  L 0.520729167000013 14.5625  C 0.244586792000007 14.5625  0.0207291666999936 14.3386424  0.0207291666999936 14.0625  L 0.0207291666999936 10.9375  C 0.0207291666999936 10.6613576  0.244586792000007 10.4375  0.520729167000013 10.4375  L 3.51050670000001 10.4375  C 3.77679155999999 9.38299732000002  4.02941092999998 8.58685808000001  4.32918181999997 7.98338317999998  L 2.20162776000001 5.85675536000002  C 2.00629304 5.66150568  2.00625857 5.34486382  2.20155077999999 5.14957161000001  L 5.14842578000003 2.20269660999998  C 5.34365786000001 2.00746451999998  5.66018099000001 2.00743007  5.85545557 2.20261964000002  L 7.98316791000002 4.32940567999998  C 8.58716502999999 4.02954158  9.38440415999997 3.77710076  10.4373958 3.51227920999997  L 10.4373958 0.520833332999985  C 10.4373958 0.244690957999978  10.6612535 0.0208333333000041  10.9373958 0.0208333333000041  Z M 13.5623958 3.90416667  L 13.5623958 1.02083333000002  L 11.4373958 1.02083333000002  L 11.4373958 3.90416667  C 11.4373958 4.13517315000001  11.2791435 4.33610706000002  11.0545699 4.39024303000002  C 9.68639508000001 4.72005681000002  8.73083507000001 5.02308327999998  8.15531920000001 5.37461459000002  C 7.95829665000002 5.49495809000001  7.70449559000002 5.46476044000002  7.54121108999999 5.30154702999999  L 5.50205613000003 3.26327980999997  L 3.26228793000001 5.50304801999999  L 5.30128890999998 7.54116131000001  C 5.46463089000002 7.70443218000003  5.49489628999999 7.95833145  5.37451041999998 8.15542336999999  C 5.02299842999997 8.73090760000002  4.71996873000001 9.684348  4.38792754000002 11.0552038  C 4.33359476999999 11.2795205  4.13278222999998 11.4375  3.90197917 11.4375  L 1.02072916999998 11.4375  L 1.02072916999998 13.5625  L 3.90197917 13.5625  C 4.13278222999998 13.5625  4.33359476999999 13.7204795  4.38792754000002 13.9447962  C 4.71996873000001 15.315652  5.02299842999997 16.2690924  5.37451041999998 16.8445766  C 5.49487511000001 17.0416339  5.46464358999998 17.295484  5.30136589 17.4587617  L 3.26227345000001 19.4978542  L 5.50183969 21.7366288  L 7.54001547000001 19.6975653  C 7.70333682 19.5341728  7.95733392 19.503945  8.15444070000001 19.6244434  C 8.73071004000002 19.9767377  9.68393366999999 20.279852  11.0550996 20.6119683  C 11.2794163 20.6663011  11.4373958 20.8671136  11.4373958 21.0979167  L 11.4373958 23.9791667  L 13.5623958 23.9791667  L 13.5623958 21.0979167  C 13.5623958 20.8671136  13.7203753 20.6663011  13.9446921 20.6119683  C 15.3155759 20.2799203  16.2686746 19.9769277  16.8431741 19.6255423  C 17.0401854 19.5050429  17.2940912 19.5351475  17.4574619 19.6983761  L 19.4976586 21.7367971  L 21.736616 19.4978397  L 19.6983488 17.4586847  C 19.5351354 17.2954002  19.5049377 17.0415992  19.6252812 16.8445766  C 19.9767932 16.2690924  20.2798229 15.315652  20.6118641 13.9447962  C 20.6661969 13.7204795  20.8670094 13.5625  21.0978125 13.5625  L 23.9790625 13.5625  L 23.9790625 11.4375  L 21.0967708 11.4375  C 20.8657644 11.4375  20.6648304 11.2792477  20.6106945 11.0546741  C 20.2822356 9.69211989000001  19.9771224 8.73118341999998  19.6251248 8.1541254  C 19.5049157 7.95705691000001  19.5352401 7.70331123  19.6985028 7.54011960999998  L 21.736462 5.50304798000002  L 19.4966939 3.26327980999997  L 17.4575389 5.30154702999999  C 17.2942544 5.46476044000002  17.0404534 5.49495809000001  16.8434308 5.37461459000002  C 16.2677387 5.02297564999998  15.3116173 4.71962789999998  13.9452217 4.39024303000002  C 13.7206481 4.33610706000002  13.5623958 4.13517315000001  13.5623958 3.90416667  Z M 7.3125 12.5  C 7.3125 9.63531596000001  9.63531596000001 7.3125  12.5 7.3125  C 15.364684 7.3125  17.6875 9.63531596000001  17.6875 12.5  C 17.6875 15.3653831  15.3650267 17.6875  12.5 17.6875  C 9.63497333999999 17.6875  7.3125 15.3653831  7.3125 12.5  Z M 16.6875 12.5  C 16.6875 10.1876007  14.8123993 8.3125  12.5 8.3125  C 10.1876007 8.3125  8.3125 10.1876007  8.3125 12.5  C 8.3125 14.813064  10.1872237 16.6875  12.5 16.6875  C 14.8127763 16.6875  16.6875 14.813064  16.6875 12.5  Z " fill-rule="nonzero" fill="#472c90" stroke="none" transform="matrix(1 0 0 1 272 15 )" />
  </g>
</svg>