<?xml version="1.0" encoding="utf-8"?>
<svg version="1.1" xmlns:xlink="http://www.w3.org/1999/xlink" width="20px" height="17px" xmlns="http://www.w3.org/2000/svg">
  <g transform="matrix(1 0 0 1 -330 -530 )">
    <path d="M 5.10147712999998 13.9675970842105  C 5.33652893999999 12.8365734842106  6.44584723999998 11.9795321736842  7.77777778000001 11.9795321736842  C 9.10970831999998 11.9795321736842  10.2190266 12.8365734842106  10.4540784 13.9675970842105  L 19.4667778 13.9678362473684  C 19.7429202 13.9678362473684  19.9667778 14.1681298894737  19.9667778 14.4152046684211  C 19.9667778 14.6622794473685  19.7429202 14.8625730894737  19.4667778 14.8625730894737  L 10.4540784 14.8628122526316  C 10.2190266 15.9938358526316  9.10970831999998 16.8508771631579  7.77777778000001 16.8508771631579  C 6.44584723999998 16.8508771631579  5.33652893999999 15.9938358526316  5.10147712999998 14.8628122526316  L 0.578333332999989 14.8625730894737  C 0.302190957999983 14.8625730894737  0.0783333333000087 14.6622794473685  0.0783333333000087 14.4152046684211  C 0.0783333333000087 14.1681298894737  0.302190957999983 13.9678362473684  0.578333332999989 13.9678362473684  L 5.10147712999998 13.9675970842105  Z M 2.87925490999999 8.00268480052628  C 3.11430672 6.87166120947369  4.22362500999998 6.01461988105267  5.55555556000002 6.01461988105267  C 6.88748609999999 6.01461988105267  7.99680439000002 6.87166120947369  8.23185619999998 8  L 19.4667778 8  C 19.7429202 8.00292397263156  19.9667778 8.20321766842106  19.9667778 8.45029235789469  C 19.9667778 8.69736713684209  19.7429202 8.89766077894732  19.4667778 8.89766077894732  L 8.23204370000002 8.89699679473688  C 7.99739491000003 10.0284673157895  6.88784062000002 10.8859649421052  5.55555556000002 10.8859649421052  C 4.22327049 10.8859649421052  3.1137162 10.0284673157895  2.87906741 8.89699679473688  L 0.578333332999989 8.89766077894732  C 0.302190957999983 8.89766077894732  0.0783333333000087 8.69736713684209  0.0783333333000087 8.45029235789469  C 0.0783333333000087 8.20321766842106  0.302190957999983 8.00292397263156  0.578333332999989 8.00292397263156  L 2.87925490999999 8.00268480052628  Z M 7.32369935999998 2.03777252578951  C 7.55875116999999 0.906748925789447  8.66806946000003 0.0497076063158039  10 0.0497076063158039  C 11.3319305 0.0497076063158039  12.4412488 0.906748925789447  12.6763006 2.03777252578951  L 19.4677778 2.03801169789469  C 19.7439202 2.03801169789469  19.9677778 2.23830535789479  19.9677778 2.48538011894732  C 19.9677778 2.73245487105259  19.7439202 2.93274853999996  19.4677778 2.93274853999996  L 12.6763006 2.93298771210524  C 12.4412488 4.0640113121053  11.3319305 4.92105263157895  10 4.92105263157895  C 8.66806946000003 4.92105263157895  7.55875116999999 4.0640113121053  7.32369935999998 2.93298771210524  L 0.578333332999989 2.93274853999996  C 0.302190957999983 2.93274853999996  0.0783333333000087 2.73245487105259  0.0783333333000087 2.48538011894732  C 0.0783333333000087 2.23830535789479  0.302190957999983 2.03801169789469  0.578333332999989 2.03801169789469  L 7.32369935999998 2.03777252578951  Z M 9.5 14.4152046684211  C 9.5 13.5647355578948  8.72830206999998 12.8742690157895  7.77777778000001 12.8742690157895  C 6.82725348999998 12.8742690157895  6.05555556000002 13.5647355578948  6.05555556000002 14.4152046684211  C 6.05555556000002 15.2656737789474  6.82725348999998 15.9561403210527  7.77777778000001 15.9561403210527  C 8.71789364 15.9561403210527  9.48307806999998 15.2807125157894  9.49972317999999 14.4430848473684  L 9.49566666999999 14.4152046684211  C 9.49566666999999 14.405748731579  9.49599454999998 14.396361331579  9.49664071000001 14.387050968421  L 9.5 14.4152046684211  Z M 7.27777778000001 8.45029235789469  C 7.27777778000001 7.59982329210527  6.50607984999999 6.90935672315794  5.55555556000002 6.90935672315794  C 4.60503125999998 6.90935672315794  3.83333333000002 7.59982329210527  3.83333333000002 8.45029235789469  C 3.83333333000002 9.3007614684211  4.60503125999998 9.99122809999996  5.55555556000002 9.99122809999996  C 6.49567142000001 9.99122809999996  7.26085584999998 9.31580020526317  7.27750096 8.4781725368421  L 7.27344443999999 8.45029235789469  C 7.27344443999999 8.4407302157895  7.27377974000001 8.43123804210521  7.27444039 8.42182496315786  L 7.27777778000001 8.45029235789469  Z M 11.7222222 2.48538011894732  C 11.7222222 1.6349110173684  10.9505243 0.944444448421067  10 0.944444448421067  C 9.04947571000002 0.944444448421067  8.27777778000001 1.6349110173684  8.27777778000001 2.48538011894732  C 8.27777778000001 3.33584922052635  9.04947571000002 4.02631578947368  10 4.02631578947368  C 10.9454539 4.02631578947368  11.7139842 3.34319585999997  11.7221564 2.49897630736845  L 11.72 2.48538011894732  C 11.72 2.48080465842104  11.7200768 2.47624524052635  11.7202292 2.47170284947364  L 11.7222222 2.48538011894732  Z " fill-rule="nonzero" fill="#a9a9a9" stroke="none" transform="matrix(1 0 0 1 330 530 )" />
  </g>
</svg>