<?xml version="1.0" encoding="utf-8"?>
<svg version="1.1" xmlns:xlink="http://www.w3.org/1999/xlink" width="17px" height="25px" xmlns="http://www.w3.org/2000/svg">
  <g transform="matrix(1 0 0 1 -195 -15 )">
    <path d="M 1.06666666999999 23.2211818  L 10.9793082 13.2832826  C 11.1743095 13.0877599  11.4908917 13.0873373  11.6864144 13.2823385  C 11.881937 13.4773398  11.8823597 13.793922  11.6873584 13.9894447  L 1.77166667 23.9311818  L 7.3666667 23.9318182  C 7.61212660000001 23.9318182  7.81627499999999 24.1086933  7.858611 24.3419425  L 7.8666667 24.4318182  C 7.8666667 24.7079606  7.642809 24.9318182  7.3666667 24.9318182  L 0.566666669999989 24.9318182  C 0.558825589999998 24.9318182  0.551026659999991 24.9316377  0.543273819999996 24.9312806  C 0.529716610000008 24.9306565  0.515699360000013 24.9294281  0.501743940000011 24.9276109  C 0.486782839999989 24.9256881  0.472474419999998 24.9231723  0.458389039999986 24.9200626  C 0.444958859999986 24.9170744  0.430907899999994 24.9133492  0.417009030000003 24.9090029  C 0.401502310000012 24.9041576  0.386859270000002 24.8987728  0.372555519999992 24.8927417  C 0.36203556000001 24.8883294  0.351247739999991 24.8833426  0.340612270000008 24.877951  C 0.324980500000009 24.8699747  0.309999059999996 24.8613465  0.295531579999988 24.8519915  C 0.266516840000008 24.8332806  0.239026440000004 24.8112163  0.213585620000003 24.7858433  L 0.26940669999999 24.8338984  C 0.254144090000011 24.8225959  0.239547609999988 24.8104452  0.225686940000003 24.7975158  L 0.213585620000003 24.7858433  C 0.208233150000012 24.7805051  0.20302688999999 24.7750758  0.197966839999992 24.7695603  C 0.189272299999999 24.760073  0.180798530000004 24.7500799  0.17272134000001 24.7397615  C 0.161082469999997 24.7249434  0.150550939999988 24.7098111  0.140949909999989 24.6942665  C 0.135979209999988 24.6861554  0.13095186999999 24.6774642  0.126183529999992 24.6686128  C 0.117800549999998 24.6530733  0.110498879999994 24.6375806  0.104035530000004 24.6218244  C 0.0992580999999859 24.6102232  0.094837339999998 24.5981918  0.0908756299999993 24.5859538  C 0.0855338199999949 24.5693041  0.0810920000000124 24.5525988  0.0775275100000101 24.5357448  C 0.0704157000000123 24.5024147  0.0666666699999894 24.4675543  0.0666666699999894 24.4318182  L 0.07232221000001 24.5070236  C 0.069112170000011 24.4858099  0.0672685499999943 24.464429  0.066791539999997 24.4430229  L 0.0666666699999894 24.4318182  L 0.0666666699999894 17.6136364  C 0.0666666699999894 17.337494  0.290524290000008 17.1136364  0.566666669999989 17.1136364  C 0.842809039999992 17.1136364  1.06666666999999 17.337494  1.06666666999999 17.6136364  L 1.06666666999999 23.2211818  Z M 9.6333333 0.0681818182000029  L 16.4333333 0.0681818182000029  C 16.4370834 0.0681818182000029  16.4408239 0.0682231027000171  16.4445542 0.0683052420000081  C 16.4647293 0.068742688899988  16.4852301 0.070442279100007  16.5055839 0.0733981702999813  C 16.5174111 0.0750760729000035  16.5290773 0.0771966365999788  16.5405951 0.0797142002999749  C 16.5554777 0.0830142790999844  16.570178 0.0869360443999767  16.5847097 0.0915379182999914  C 16.5970021 0.0954014646000019  16.60926 0.0998283907999848  16.621285 0.104709712999977  C 16.6366818 0.110951332000013  16.6517637 0.117953327999999  16.6665376 0.125746805999995  C 16.6788245 0.132270060999986  16.6909041 0.139314873999979  16.7026486 0.146837274000006  C 16.7322466 0.165729387999988  16.7604019 0.188213556999983  16.7864144 0.214156709000008  L 16.7351813 0.169539930999974  C 16.7476703 0.179011227999979  16.7597006 0.189055946999986  16.7712328 0.199634876999994  L 16.7864144 0.214156709000008  C 16.790449 0.218180544999996  16.7944005 0.222256150000021  16.7982689 0.226381392000008  C 16.8116401 0.240641443000015  16.8243545 0.255909191000001  16.8361391 0.271904165000024  C 16.8417782 0.27949094600001  16.847104 0.28716056899998  16.8521906 0.294940913999994  C 16.8614419 0.309177020999982  16.8700103 0.323858941000026  16.8778287 0.338991283999974  C 16.8842945 0.351452199999983  16.8902099 0.364229693000027  16.8955575 0.377186556000026  C 16.9005351 0.389214704999972  16.9050701 0.401522258  16.9091244 0.414046154999994  C 16.9142859 0.430137278000018  16.9186059 0.446269137999991  16.922107 0.462542104000022  C 16.9294313 0.496177163000027  16.9333333 0.531723805000013  16.9333333 0.568181818000028  L 16.9286413 0.499646524000013  C 16.9308021 0.515348722999988  16.9322166 0.531134118000011  16.9328848 0.54694536400001  L 16.9333333 0.568181818000028  L 16.9333333 7.38636364000001  C 16.9333333 7.66250601000002  16.7094757 7.88636364000001  16.4333333 7.88636364000001  C 16.157191 7.88636364000001  15.9333333 7.66250601000002  15.9333333 7.38636364000001  L 15.9326667 1.77718182000001  L 6.5873584 11.1485356  C 6.41402400000001 11.3223335  6.14462560000001 11.3419784  5.94957736000001 11.2072426  L 5.88025228999999 11.1494797  C 5.68472962000001 10.9544784  5.68430695000001 10.6378962  5.87930822000001 10.4423735  L 15.2266667 1.06818182000001  L 9.6333333 1.06818182000001  C 9.38787339999999 1.06818182000001  9.18372500000001 0.891306658000019  9.141389 0.658057450999991  L 9.1333333 0.568181818000028  C 9.1333333 0.292039443000021  9.357191 0.0681818182000029  9.6333333 0.0681818182000029  Z " fill-rule="nonzero" fill="#472c90" stroke="none" transform="matrix(1 0 0 1 195 15 )" />
  </g>
</svg>