<?xml version="1.0" encoding="utf-8"?>
<svg version="1.1" xmlns:xlink="http://www.w3.org/1999/xlink" width="18px" height="12px" xmlns="http://www.w3.org/2000/svg">
  <g transform="matrix(1 0 0 1 -293 -17 )">
    <path d="M 1.66666700000002 7.3333333  L 2.66666700000002 7.3333333  C 3.218951 7.3333333  3.66666700000002 7.7810486  3.66666700000002 8.3333333  L 3.66666700000002 10.3333333  C 3.66666700000002 10.8856181  3.218951 11.3333333  2.66666700000002 11.3333333  L 1.66666700000002 11.3333333  C 1.11438199999998 11.3333333  0.666667000000018 10.8856181  0.666667000000018 10.3333333  L 0.666667000000018 8.3333333  C 0.666667000000018 7.7810486  1.11438199999998 7.3333333  1.66666700000002 7.3333333  Z M 5.33333299999998 6.3333333  C 5.33333299999998 5.7810486  5.781049 5.3333333  6.33333299999998 5.3333333  L 7.33333299999998 5.3333333  C 7.88561800000002 5.3333333  8.33333299999998 5.7810486  8.33333299999998 6.3333333  L 8.33333299999998 10.3333333  C 8.33333299999998 10.8856181  7.88561800000002 11.3333333  7.33333299999998 11.3333333  L 6.33333299999998 11.3333333  C 5.781049 11.3333333  5.33333299999998 10.8856181  5.33333299999998 10.3333333  L 5.33333299999998 6.3333333  Z M 10 4  C 10 3.4477153  10.447715 3  11 3  L 12 3  C 12.552285 3  13 3.4477153  13 4  L 13 10.3333333  C 13 10.8856181  12.552285 11.3333333  12 11.3333333  L 11 11.3333333  C 10.447715 11.3333333  10 10.8856181  10 10.3333333  L 10 4  Z M 15.666667 0.6666667  L 16.666667 0.6666667  C 17.218951 0.6666667  17.666667 1.1143819  17.666667 1.6666667  L 17.666667 10.3333333  C 17.666667 10.8856181  17.218951 11.3333333  16.666667 11.3333333  L 15.666667 11.3333333  C 15.114382 11.3333333  14.666667 10.8856181  14.666667 10.3333333  L 14.666667 1.6666667  C 14.666667 1.1143819  15.114382 0.6666667  15.666667 0.6666667  Z " fill-rule="nonzero" fill="#ffffff" stroke="none" transform="matrix(1 0 0 1 293 17 )" />
  </g>
</svg>