<?xml version="1.0" encoding="utf-8"?>
<svg version="1.1" xmlns:xlink="http://www.w3.org/1999/xlink" width="25px" height="25px" xmlns="http://www.w3.org/2000/svg">
  <g transform="matrix(1 0 0 1 -260 -31 )">
    <path d="M 0 14.0625  C 0 8.02241664999997  4.89707837999998 3.125  10.9375 3.125  C 11.2251483 3.125  11.4583333 3.35818502999996  11.4583333 3.64583332999996  L 11.4583333 13.5416667  L 21.3541667 13.5416667  C 21.641815 13.5416667  21.875 13.7748517  21.875 14.0625  C 21.875 20.1032733  16.9782733 25  10.9375 25  C 4.89672668999998 25  0 20.1032733  0 14.0625  Z M 13.5416667 0.520833332999928  C 13.5416667 0.233185026000001  13.7748517 0  14.0625 0  C 20.1029216 0  25 4.89741664999997  25 10.9375  C 25 11.2251483  24.766815 11.4583333  24.4791667 11.4583333  L 14.0625 11.4583333  C 13.7748517 11.4583333  13.5416667 11.2251483  13.5416667 10.9375  L 13.5416667 0.520833332999928  Z " fill-rule="nonzero" fill="#00c5c6" stroke="none" transform="matrix(1 0 0 1 260 31 )" />
  </g>
</svg>