<?xml version="1.0" encoding="utf-8"?>
<svg version="1.1" xmlns:xlink="http://www.w3.org/1999/xlink" width="25px" height="24px" xmlns="http://www.w3.org/2000/svg">
  <g transform="matrix(1 0 0 1 -25 -31 )">
    <path d="M 3.12583620994031 12.1249700999999  L 12.5004872995484 2.73264485000004  L 21.8751383991565 12.1249700999999  L 21.8751383991565 24  L 14.5837430994613 24  L 14.5837430994613 16.6948580999999  L 10.4172314996355 16.6948580999999  L 10.4172314996355 24  L 3.12583620994031 24  L 3.12583620994031 12.1249700999999  Z M 0.153342679064588 12.1515817  L 12.1320634995638 0.150277204000076  C 12.3320560995554 -0.0500924012999349  12.6695434995413 -0.0500924012999349  12.868494399533 0.150277204000076  L 24.8472152990322 12.1515817  C 24.851381799032 12.1567997  24.853464999032 12.1641047999999  24.8576314990318 12.1672355999999  C 25.0617905990232 12.3843026  25.0357498990243 12.7005108999999  24.8472152990322 12.8894009999999  C 24.8451319990323 12.8904445999999  24.8420070990324 12.8914881999999  24.8399238990325 12.8925317999999  C 24.6430561990407 13.0855962999999  24.3149433990545 13.0855962999999  24.1170340990627 12.8925317999999  C 24.1149507990628 12.8914881999999  24.1128675990629 12.8904445999999  24.110784299063 12.8894009999999  L 12.5007997995484 1.25648440000009  L 0.889773603033797 12.8894009999999  C 0.887690347033885 12.8904445999999  0.884565463034018 12.8914881999999  0.882482208034102 12.8925317999999  C 0.697072442041855 13.0751603000001  0.37833430505518 13.1085553  0.141884772065067 12.8727036  C -0.0622742955264008 12.6514620999999  -0.0351919701275309 12.3404717999999  0.153342679064588 12.1515817  Z " fill-rule="nonzero" fill="#00c5c6" stroke="none" transform="matrix(1 0 0 1 25 31 )" />
  </g>
</svg>