<?xml version="1.0" encoding="utf-8"?>
<svg version="1.1" xmlns:xlink="http://www.w3.org/1999/xlink" width="25px" height="16px" xmlns="http://www.w3.org/2000/svg">
  <g transform="matrix(1 0 0 1 -90 -36 )">
    <path d="M 0 5.33368889999997  L 25 5.33368889999997  L 25 13.3334222  C 25 14.8032399  23.83125 16  22.3958333 16  L 2.60416667 16  C 1.16770833 16  0 14.8032399  0 13.3334222  L 0 5.33368889999997  Z M 2.60416667 0  L 22.3958333 0  C 23.83125 0  25 1.19676011000001  25 2.66657778000001  L 25 4.26652445000002  L 0 4.26652445000002  L 0 2.66657778000001  C 0 1.19676011000001  1.16770833 0  2.60416667 0  Z M 6.77083333 9.60021329999995  L 3.64583333 9.60021329999995  C 3.35833332999999 9.60021329999995  3.125 9.83913870000003  3.125 10.1335289  C 3.125 10.4279191000001  3.35833332999999 10.6668443999999  3.64583333 10.6668443999999  L 6.77083333 10.6668443999999  C 7.05729167 10.6668443999999  7.29166667 10.4279191000001  7.29166667 10.1335289  C 7.29166667 9.83913870000003  7.05729167 9.60021329999995  6.77083333 9.60021329999995  Z M 11.9791667 7.46695109999996  L 3.64583333 7.46695109999996  C 3.35833332999999 7.46695109999996  3.125 7.70587650000004  3.125 8.0002667  C 3.125 8.29465679999998  3.35833332999999 8.53358219999996  3.64583333 8.53358219999996  L 11.9791667 8.53358219999996  C 12.265625 8.53358219999996  12.5 8.29465679999998  12.5 8.0002667  C 12.5 7.70587650000004  12.265625 7.46695109999996  11.9791667 7.46695109999996  Z M 21.3541667 7.46695109999996  L 18.2291667 7.46695109999996  C 17.9416667 7.46695109999996  17.7083333 7.70587650000004  17.7083333 8.0002667  C 17.7083333 8.29465679999998  17.9416667 8.53358219999996  18.2291667 8.53358219999996  L 21.3541667 8.53358219999996  C 21.640625 8.53358219999996  21.875 8.29465679999998  21.875 8.0002667  C 21.875 7.70587650000004  21.640625 7.46695109999996  21.3541667 7.46695109999996  Z " fill-rule="nonzero" fill="#00c5c6" stroke="none" transform="matrix(1 0 0 1 90 36 )" />
  </g>
</svg>