<?xml version="1.0" encoding="utf-8"?>
<svg version="1.1" xmlns:xlink="http://www.w3.org/1999/xlink" width="40px" height="40px" xmlns="http://www.w3.org/2000/svg">
  <g transform="matrix(1 0 0 1 -10 -225 )">
    <path d="M 19.6990604 7.01999999999998  C 20.4018792 7.42240000000004  21.1473826 7.94026667000003  21.7148993 8.48906667000006  L 21.4919463 8.71159999999998  C 20.3720805 8.59333332999995  19.1926174 8.74093332999996  18.1310067 8.75720000000001  C 18.0126174 8.63853332999997  17.774094 8.46013332999996  17.9962416 8.31106666999995  L 19.6990604 7.01999999999998  Z M 39.5005369 20.8382667  C 39.5154362 21.3404  39.562953 21.7716  39.3657718 22.2854667  C 37.3198658 22.8634667  35.9759732 20.7117333  33.9908725 21.0362666999999  L 34.215302 22.1516  C 36.0518121 22.2116  37.1989262 23.9609333  39.0962416 23.8857333  C 38.8267114 24.4205333  39.2165101 25.8294667  38.0222819 25.2662667  C 36.7826846 24.9704  35.886443 23.8857333  34.5280537 23.8857333  C 34.3641611 24.1846667  34.4679195 24.5985333  34.4391946 24.9521333  C 35.8722148 25.1754667  36.9028188 26.3785333  38.3354362 26.6006667  C 38.2006711 27.0897333  38.0671141 27.6373333  37.6636242 27.9356  C 36.4981208 27.6538667  35.5877852 26.6141333  34.3469799 26.6438667  L 34.1260403 27.668  C 35.3052349 27.6981333  36.0671141 28.7344000000001  37.1268456 29.0454667  C 37.1559732 29.4774667  36.7672483 29.8634667  36.5433557 30.2490667  C 35.6025503 29.9684  34.8851007 29.1656  33.8102013 29.2248  C 33.795302 28.8225333  34.0357047 28.3657333  33.9449664 27.9356  C 32.7377181 28.2922667  31.9281879 27.178  31.0334228 26.5096  C 31.007651 24.3222667  28.6895302 22.8873333  28.5671141 20.8382667  C 28.5436242 20.4297333  28.6063087 19.9936  28.7936913 19.5249333  C 29.5555705 17.7750667  29.3162416 15.5032  28.4808054 13.8717333  C 28.2269799 13.4424  27.7771812 13.1034667  27.3579866 12.8510667  C 27.9712752 14.1421333  28.7186577 15.6676  28.3456376 17.2545333  C 28.3024161 18.48  27.5744966 19.6569333  27.5661745 20.8382667  C 27.5633557 21.2594667  27.6538255 21.6806667  27.8977181 22.106  C 28.8689933 23.8436  30.6163758 25.4884  29.9593289 27.6676  C 29.7786577 28.3369333000001  29.2406711 28.8545333  29.106443 29.5357332999999  C 30.2426846 30.4705332999999  31.317047 31.5238667  32.824698 31.5832  C 33.3618792 31.2424  33.0634899 29.7310667  34.1685906 30.4281333  L 35.7821477 31.2298667  C 35.6645638 31.6589332999999  35.302953 32.0434667  34.9754362 32.3389333  C 34.3632215 32.0429333  33.7660403 31.6881333  33.0026846 31.7170667  C 32.7775839 31.9542666999999  32.5838926 32.2205332999999  32.6010738 32.5609333  C 33.138255 32.6488000000001  33.6310067 32.874  34.0797315 33.186  C 33.8714094 33.6317333  33.4653691 33.9110667  33.0920805 34.2524  L 31.8404027 33.8078667  C 31.6314094 34.1049333  31.1973154 34.4170667  31.3496644 34.7430667  C 31.6320805 34.8632  31.9453691 35.0255999999999  32.1532886 35.2337333  C 31.6008054 35.8269333  30.9005369 36.2085333  30.2267114 36.6112000000001  C 29.6463087 34.7268  27.7339597 33.4056  27.8981208 31.2264  L 27.8092617 31.1382667  C 27.3597315 31.6402667  27.5099329 32.4430667  27.5389262 33.0945333  C 28.0769128 34.4594667  29.3601342 35.5137333  29.5547651 37.0105333  C 29.3300671 37.3957333  28.8234899 37.4725333  28.4348993 37.6356  C 28.48 34.9369333  24.3590604 32.8901333  27.001745 30.1604  C 27.8830872 28.8237333  29.3597315 27.5481333  28.8365101 25.7078667  C 28.2993289 23.9310667  26.3993289 22.8301332999999  26.4161074 20.8382667  L 26.4190604 20.6829332999999  C 26.8518121 18.6057333  28.166443 16.3954667  27.0910067 14.1857333  C 26.7912752 13.2969333  26.1216107 12.2869333  25.2107383 11.9154667  C 26.5687248 13.4594667  27.1071141 15.9786667  26.3302013 18.0562667  C 25.9386577 18.8826667  25.3995973 19.8672  25.3455034 20.8386667  L 25.3422819 20.8386667  C 25.3134228 21.346  25.4177181 21.8505333000001  25.7472483 22.3289333  C 26.7783893 23.9908  28.5692617 25.8162667  27.5390604 27.982  C 26.3744966 29.7166667  24.3437584 31.4811999999999  25.4778523 33.766  C 26.2990604 35.1305333  27.569396 36.4921333  27.2267114 38.1695999999999  L 25.8828188 38.6141333  C 26.7787919 35.4853333  22.3881879 33.6469333  24.2261745 30.5170667  C 25.3609396 28.8410667000001  27.3904698 27.2685332999999  26.2416107 25.0441333  C 25.5547651 23.6658667  24.1355705 22.8501333  24.1804027 21.1277333  L 24.2292617 20.8385333  C 24.6916779 18.3957333  26.5610738 16.0834667  25.2539597 13.4730667  C 24.9104698 12.7022667  24.2240268 11.9164  23.4621477 11.4710667000001  L 23.4161074 11.5168  C 24.94 12.9852  25.4036242 15.4012  24.5820134 17.3433333  C 24.1986577 18.4828  23.3573154 19.6178667  23.1863087 20.8389333  C 23.1049664 21.4146667  23.173557 22.0113333  23.5084564 22.6398667  C 24.4789262 24.1664  26.1808054 25.7857332999999  25.1187919 27.7593333  C 24.0004027 29.3894667  22.1332886 30.9756  22.8790604 33.0954667  C 23.7005369 34.9501332999999  25.4158389 36.7169333000001  24.4896644 39.0166667  L 23.102953 39.3277333  C 24.2075168 37.0865333  22.5512752 34.8626667  21.5810738 32.9189333  C 20.4008054 30.1302667  24.1169128 28.7949333  24.1765101 26.2453333  C 24.1624161 24.5997333  22.4012081 23.6653333  22.0289933 22.1525333  C 21.2667114 21.5137333  20.4766443 22.4065333  19.5653691 22.2408  C 18.8926174 22.3750667  17.8593289 21.3209333  17.4577181 22.4636  C 16.9794631 24.1387999999999  14.8006711 25.3704  15.758255 27.3573333000001  C 16.669396 29.1230667  18.8621477 30.4142667  18.1296644 32.6993333  C 17.4738255 34.8337332999999  15.3073826 36.866  16.6510067 39.3277333  C 16.0990604 39.1501333  15.0683221 39.4901333  15.0832215 38.6142667  C 14.2324832 35.6330667  17.8604027 33.8962667  16.7398658 30.9166667  C 16.2183893 29.0916  13.8424161 28.0833333  14.3655034 25.8882667  C 14.7522148 24.0813333  16.7934228 22.8181333  16.5071141 20.8388  C 16.4838926 20.6730667  16.4428188 20.5034667  16.3841611 20.3266667  C 15.6222819 18.1908  14.0679195 16.0544  14.9943624 13.5616  C 15.2487248 12.8496  15.7567785 12.2415999999999  16.2032215 11.6052  C 14.7248322 12.3910667  13.9790604 14.0528  14.0096644 15.7433333  C 13.9452349 17.5817333  15.312349 19.1565333  15.5068456 20.8388  C 15.5833557 21.5177333  15.4714094 22.2129333  14.9943624 22.9503999999999  C 14.0245638 24.2576  12.7562416 25.6358667  13.3377181 27.3570667  C 13.890604 29.0932  16.0704698 30.1449333  15.9361074 32.1629333  C 15.9213423 34.55  13.1289933 36.0362666999999  13.9204027 38.7058667  L 12.530604 38.258  C 11.9787919 35.8857333  14.5167785 34.672  14.545906 32.4770667  C 14.9051007 29.9529333  11.6641611 29.0164  11.8586577 26.5558667  C 11.844698 24.6864  13.5013423 23.5024  14.2330201 21.9298667  C 14.3585235 21.5472  14.4002685 21.1856  14.3834899 20.8389333  C 14.2938255 19.1002667  12.7166443 17.7409333000001  12.9783893 15.7861333  C 13.066443 14.3474667  13.5591946 13.0864  14.5002685 12.0044  C 13.2018792 12.5225333  12.6655034 14.0072  12.3068456 15.2533333  C 11.6844295 17.2514667  13.1702013 19.0488  13.3191946 20.8390667  C 13.3852349 21.6296  13.1907383 22.4156  12.4418792 23.2192  C 11.3661745 24.4784  10.275302 26.0672  11.0519463 27.7596  C 11.8743624 29.6269333  14.4581208 31.0804000000001  13.3374497 33.4094667000001  C 12.7260403 34.8781332999999  11.2620134 35.9898667  11.3221477 37.7246666999999  C 10.9342282 37.5614667  10.5318121 37.3988000000001  10.2021477 37.1029333  C 10.2021477 34.8933333  13.366443 33.5132  11.8587919 31.1845333  C 11.7252349 31.644  11.6965101 32.2684  11.5919463 32.7874667  C 11.0687248 34.1378667  9.94926174 35.2188  9.53033557 36.6148000000001  C 8.82979866 36.3462667  8.09731544 35.782  7.51463087 35.1888  L 8.32174497 34.6981333  C 8.23208054 34.4009333  7.99355705 34.1490667  7.78496644 33.8969333  C 7.26080537 33.8237333  6.9166443 34.1653333  6.48456376 34.2992  C 6.11127517 33.9722667  5.75100671 33.6754667  5.45342282 33.2750667  C 5.72134228 32.5170667  7.8147651 33.1438667  6.75422819 31.8976  C 6.03825503 31.4529333  5.31959732 32.0881333  4.69261745 32.3846667  L 3.84268456 31.3182667  C 4.57436242 30.8737333  5.30416107 30.2493333  6.21422819 30.4284  C 6.43852349 30.8296  6.45409396 31.4195999999999  6.8861745 31.6290667  C 8.42442953 31.5993333  9.51436242 30.4435999999999  10.693557 29.5385333  C 9.87167785 28.3237333  9.20268456 26.6466667  9.93275168 25.1776  C 10.5177181 23.7054667  12.0418792 22.4656  12.1110067 20.8381333  C 12.1265772 20.4677333  12.0684564 20.078  11.9053691 19.6585333  C 11.0994631 17.5965333  10.8150336 14.8097332999999  12.3532886 12.9846667  C 11.5169128 13.2078667  11.0237584 14.2433333  10.7395973 15.0296  C 9.81489933 17.0430667000001  10.9844295 18.9084  11.0248322 20.838  C 11.0303356 21.1850667  11.0020134 21.5329333  10.9173154 21.8833333  C 10.1256376 23.4702667  8.84295302 24.8626667  8.63463087 26.6888  C 7.72348993 27.2661333  6.97543624 28.2757333  5.67718121 27.9350667  C 5.63154362 28.2758667000001  5.73610738 28.7953333  5.85516779 29.1813333  C 4.82563758 29.1384  4.12362416 29.8921333  3.25677852 30.2481332999999  C 2.79503356 30.1009333  2.67489933 29.508  2.49610738 29.0930667  C 3.51073826 28.7526667  4.24268456 27.7422667  5.40765101 27.7582667  C 5.54268456 27.3856  5.33194631 27.0441333  5.27248322 26.6885333  C 3.8233557 26.0496000000001  1.52630872 29.8469333  1.33315436 26.5546667  C 2.78120805 26.4656  3.70657718 25.1304  5.14067114 24.9973333  L 5.18348993 23.9309333  C 3.55597315 23.7676  2.50899329 25.4296000000001  0.882147650999997 25.2657333  L 0.523355705 23.8426667  C 2.4052349 23.9594667  3.52644295 22.2842667  5.31865772 22.1941333  C 5.55677852 21.8830667  5.58550336 21.4232  5.6314094 20.9934667  C 3.67516779 20.7402667  2.33275168 22.8937333  0.256510067000001 22.2397333  C 0.256510067000001 22.2397333  0.184966443 21.3434667  0.146174496999997 20.8381333  L 0.148993289000003 20.8381333  C 0.134899329 20.6405333  0.121476510000001 20.5028  0.121476510000001 20.5028  C 1.97288591 21.2164  3.59959732 19.8954667  5.18348993 19.2136  C 5.58630872 19.0938667  6.21449664 19.3014667  6.39516779 18.8569333  C 6.37946309 18.5157333  7.00590604 18.1168  6.48442953 17.8786667000001  C 4.16885906 17.5665332999999  2.63060403 20.3407999999999  0.256241611 19.0793333  L 0.0781208053999976 18.7226667  C 0.572080536999998 12.0193333  4.37798658 5.53853332999995  10.693557 2.34933333000004  C 13.2514094 0.897333333000006  16.4291275 0.157199999999989  19.6338255 0.13093333300003  C 23.5013423 0.0990666666999687  27.4092617 1.10680000000002  30.3163758 3.15093333000004  C 33.1394631 4.87106667  35.8398658 7.70586666999998  37.3053691 10.5836  C 38.7069799 13.1049333  39.3520805 15.9341333  39.544698 18.9461333  C 37.095302 20.7845333  35.4520805 17.2141333  32.9578523 18.0132  C 33.0922148 18.3996  33.1665772 18.7993332999999  33.4516779 19.1256  C 35.6622819 19.1101333  37.1845638 21.4093333  39.4985235 20.5032  L 39.5005369 20.8382667  Z M 11.364698 12.5825333  C 9.81154362 11.5736000000001  7.84241611 12.5236  6.39489933 13.0730667  C 6.26053691 11.7226667  5.70845638 10.4924  4.55731544 9.60253333000003  C 4.44563758 9.54733333000001  4.29127517 9.43119999999999  4.15221477 9.42266667000001  C 4.06899329 9.41746666999995  3.98979866 9.45079999999996  3.92832215 9.55653332999998  C 4.45006711 12.7449333  2.36348993 14.9697333  0.884832215000003 17.3884  C 1.37718121 17.7881333  2.16818792 17.7284  2.76536913 17.6109332999999  C 4.33288591 16.9882667000001  5.82604027 15.9045333  7.69248322 16.276  C 8.24442953 15.3416  9.17181208 14.4365333  9.93221477 13.6949333  C 10.3967785 13.2956  11.0350336 13.042  11.364698 12.5825333  Z M 16.1139597 14.5849333  C 16.0841611 14.7769333  16.1288591 15.1192  16.4268456 14.9869333  C 16.8904698 14.3492  17.7112752 14.8537333  18.2186577 14.8986667  L 18.2186577 14.7192  C 17.9402685 14.2849333  17.3675168 14.0668000000001  16.785906 14.0885333  C 16.6516779 14.0932  16.515302 14.1126667  16.3840268 14.1429333  C 16.189396 14.1858667  16.0539597 14.3628  16.1139597 14.5849333  Z M 23.4154362 12.6741333  C 22.9985235 11.7542667  22.0428188 11.3819999999999  21.1755705 11.1596  C 20.7504698 11.1076  20.3092617 11.0724  19.8716779 11.0682667  C 19.7896644 11.0674667  19.7077852 11.0664  19.6261745 11.0682667  C 18.4021477 11.0928  17.2326174 11.4049333  16.5181208 12.4057333  C 16.4155705 12.6882667  15.964698 13.0850667  16.3833557 13.3382667  C 17.3241611 13.2785333  18.3977181 13.1613333  19.0248322 13.9633333  C 19.0248322 14.676  19.4880537 15.6241333  18.7119463 15.9653333  C 18.0688591 15.3738667  17.3072483 16.2170667  16.6075168 15.7424  C 16.2785235 15.5493332999999  16.0703356 15.7746667  15.9355705 16.0564000000001  C 15.7410738 17.8952  16.7103356 19.9245333  18.4421477 20.9476  C 19.1440268 21.1990667  20.0875168 21.4382667  20.82 21.0814667  C 22.5818792 20.2665333  23.3116779 18.3988000000001  23.6397315 16.678  C 23.5957047 16.3505333000001  23.6114094 15.7124  23.1488591 15.6969333  C 22.6265772 16.0250667  21.8648322 15.8312  21.3112752 15.6969333  C 20.9840268 15.8018667  20.9689933 16.2774667  20.5965101 16.3676  L 20.3695302 16.1877333  C 20.1751678 15.3732  20.055302 14.2158667  20.8175839 13.6522667  C 21.669396 13.3110667  22.6697987 13.162  23.5507383 13.4297333  C 23.7151678 13.1481333  23.4613423 12.9263999999999  23.4154362 12.6741333  Z M 23.550604 14.4966667  C 23.3684564 14.16  22.9331544 14.1284000000001  22.5165101 14.1366667  C 22.4573154 14.1381333  22.3997315 14.1410667  22.3414765 14.1429333  C 22.0285906 14.3502667  21.1167785 14.2012  21.445906 14.8986667  C 22.0136913 14.4525333  22.8051007 14.7652  23.3724832 14.9869333  C 23.5822819 14.8834667  23.5367785 14.6757333  23.550604 14.4966667  Z M 29.0177181 7.86546667000005  C 27.9124832 7.80719999999997  26.9869799 8.43039999999996  25.9714094 8.7124  C 25.882953 7.85400000000004  26.5394631 6.94746667000004  26.6892617 6.08573333000004  C 25.0472483 6.19066667000004  23.7467114 7.17240000000004  22.3883221 7.95666667  C 22.0739597 7.20213333000004  21.7586577 6.44373332999999  21.446443 5.68640000000005  L 23.238255 3.99506667000003  L 23.2841611 3.77226667000002  L 20.8638926 3.63840000000005  C 20.4469799 2.91279999999995  20.2826846 2.03880000000004  19.7899329 1.37133332999997  C 19.3867114 2.12773332999996  19.1158389 2.92826666999997  18.7130201 3.68399999999997  L 16.2955705 3.81826666999996  L 16.2955705 3.99506667000003  L 18.1303356 5.64066666999997  C 17.9060403 6.48653333000004  17.6975839 7.40560000000005  17.1456376 8.04493333000005  C 16.070604 7.40533332999996  15.0108725 6.70920000000001  13.8322148 6.26506667000001  C 13.5485906 6.17413333000002  13.1442953 6.02626667000004  12.8904698 6.21946666999997  C 13.2632215 7.03546667000001  13.7852349 7.91319999999996  13.6974497 8.80386667000005  C 13.2044295 8.71373332999997  12.8169128 8.39973333  12.3536913 8.26773333000006  C 11.7997315 8.11760000000004  11.1424161 7.82426667000004  10.6049664 8.00266667000005  C 11.5010738 9.24786667000001  12.2324832 10.5510667  12.4855034 12.0496000000001  C 15.458255 10.6244  18.9251007 9.84053332999997  22.5237584 10.4496  C 24.210604 10.7162667  25.761745 11.3988000000001  27.2700671 11.9610666999999  C 27.3289933 10.3897333  28.329396 9.12706666999998  29.0177181 7.86546667000005  Z M 34.1226846 16.41  C 35.6445638 16.8101333  37.1712752 18.4572000000001  38.7828188 17.3885332999999  C 37.3793289 15.0750667  35.2903356 12.9386667  35.8712752 9.91333333  C 35.9320805 9.70680000000004  35.7977181 9.49773332999996  35.6044295 9.46839999999997  C 34.6939597 9.83799999999997  33.9888591 10.7290667  33.6285906 11.6049333  C 33.4804027 12.1229333  33.3926174 12.6736  33.1838926 13.1618667  C 32.0931544 12.598  30.9292617 12.0517333  29.6004027 12.1837333  C 29.1212081 12.2430667  28.4342282 12.2742667  28.3457718 12.7629333  C 29.8538255 13.5634667  31.0939597 14.8994666999999  32.0181208 16.3221333  C 32.6616107 16.2178666999999  33.4507383 16.3069333  34.1226846 16.41  Z M 18.1755705 18.5008  L 18.2185235 18.7689333  C 18.8020134 19.1550667  18.9814765 19.8094667  19.7892617 19.75  C 20.5056376 19.7922667  21.0430872 19.1256  21.4 18.592  C 20.430604 18.4590667  19.2510067 18.6648  18.1755705 18.5008  Z M 19.8718121 17.0444  C 19.5527517 17.0444  19.2216107 17.1368  18.9822819 17.3001333  C 19.0114094 17.4189333  18.9083221 17.5969333  19.0711409 17.6569333  C 19.5489933 17.5538667  20.4146309 17.9094667000001  20.6814765 17.3458667  C 20.4951678 17.1385332999999  20.1910067 17.0444  19.8718121 17.0444  Z " fill-rule="nonzero" fill="#007042" stroke="none" transform="matrix(1 0 0 1 10 225 )" />
  </g>
</svg>