<?xml version="1.0" encoding="utf-8"?>
<svg version="1.1" xmlns:xlink="http://www.w3.org/1999/xlink" width="76px" height="75px" xmlns="http://www.w3.org/2000/svg">
  <g transform="matrix(1 0 0 1 -233 -87 )">
    <path d="M 0.482758620000027 37.5862070000001  C 0.482758620000027 58.2302300000001  17.2180459 74.9655173000001  37.862069 74.9655173000001  C 58.506092 74.9655173000001  75.2413793 58.2302300000001  75.2413793 37.5862070000001  C 75.2413793 16.9421839000001  58.506092 0.206896619999952  37.862069 0.206896619999952  C 17.2180459 0.206896619999952  0.482758620000027 16.9421839000001  0.482758620000027 37.5862070000001  Z M 69.7241379 37.5862070000001  C 69.7241379 55.1831417999999  55.4590038 69.4482759  37.862069 69.4482759  C 20.2651342 69.4482759  6 55.1831417999999  6 37.5862070000001  C 6 19.9892722  20.2651342 5.72413800000004  37.862069 5.72413800000004  C 55.4590038 5.72413800000004  69.7241379 19.9892722  69.7241379 37.5862070000001  Z " fill-rule="nonzero" fill="#ebebeb" stroke="none" transform="matrix(1 0 0 1 233 87 )" />
  </g>
</svg>