<?xml version="1.0" encoding="utf-8"?>
<svg version="1.1" xmlns:xlink="http://www.w3.org/1999/xlink" width="80px" height="81px" xmlns="http://www.w3.org/2000/svg">
  <g transform="matrix(1 0 0 1 -231 -84 )">
    <path d="M 0 40.5862070000001  C 0 62.6014198  17.8468562 80.4482759  39.862069 80.4482759  C 61.8772818 80.4482759  79.7241379 62.6014198  79.7241379 40.5862070000001  C 79.7241379 18.5709942000001  61.8772818 0.724138000000039  39.862069 0.724138000000039  C 17.8468562 0.724138000000039  0 18.5709942000001  0 40.5862070000001  Z M 77.2413793 40.5862070000001  C 77.2413793 61.2302300000001  60.506092 77.9655173000001  39.862069 77.9655173000001  C 19.2180459 77.9655173000001  2.48275862000003 61.2302300000001  2.48275862000003 40.5862070000001  C 2.48275862000003 19.9421839000001  19.2180459 3.20689661999995  39.862069 3.20689661999995  C 60.506092 3.20689661999995  77.2413793 19.9421839000001  77.2413793 40.5862070000001  Z " fill-rule="nonzero" fill="#686868" stroke="none" transform="matrix(1 0 0 1 231 84 )" />
  </g>
</svg>