<?xml version="1.0" encoding="utf-8"?>
<svg version="1.1" xmlns:xlink="http://www.w3.org/1999/xlink" width="80px" height="80px" xmlns="http://www.w3.org/2000/svg">
  <g transform="matrix(1 0 0 1 -231 -85 )">
    <path d="M 0 39.862069  C 0 61.8772818  17.8468562 79.7241379  39.862069 79.7241379  C 61.8772818 79.7241379  79.7241379 61.8772818  79.7241379 39.862069  C 79.7241379 17.8468562  61.8772818 0  39.862069 0  C 17.8468562 0  0 17.8468562  0 39.862069  Z M 77.2413793 39.862069  C 77.2413793 60.5060920000001  60.506092 77.2413793000001  39.862069 77.2413793000001  C 19.2180459 77.2413793000001  2.48275862000003 60.5060920000001  2.48275862000003 39.862069  C 2.48275862000003 19.2180459000001  19.2180459 2.48275861999991  39.862069 2.48275861999991  C 60.506092 2.48275861999991  77.2413793 19.2180459000001  77.2413793 39.862069  Z " fill-rule="nonzero" fill="#ffffff" stroke="none" transform="matrix(1 0 0 1 231 85 )" />
  </g>
</svg>