<?xml version="1.0" encoding="utf-8"?>
<svg version="1.1" xmlns:xlink="http://www.w3.org/1999/xlink" width="75px" height="76px" xmlns="http://www.w3.org/2000/svg">
  <g transform="matrix(1 0 0 1 -573 -86 )">
    <path d="M 0 38.1034483000001  C 0 58.7474714  16.7352873 75.4827587  37.3793103 75.4827587  C 58.0233334 75.4827587  74.7586206999999 58.7474714  74.7586206999999 38.1034483000001  C 74.7586206999999 17.4594253  58.0233334 0.724138000000039  37.3793103 0.724138000000039  C 16.7352873 0.724138000000039  0 17.4594253  0 38.1034483000001  Z M 69.2413793000001 38.1034483000001  C 69.2413793000001 55.7003831  54.9762451 69.9655173000001  37.3793103 69.9655173000001  C 19.7823756 69.9655173000001  5.51724137999997 55.7003831  5.51724137999997 38.1034483000001  C 5.51724137999997 20.5065136000001  19.7823756 6.24137938000013  37.3793103 6.24137938000013  C 54.9762451 6.24137938000013  69.2413793000001 20.5065136000001  69.2413793000001 38.1034483000001  Z " fill-rule="nonzero" fill="#ebebeb" stroke="none" transform="matrix(1 0 0 1 573 86 )" />
  </g>
</svg>