<?xml version="1.0" encoding="utf-8"?>
<svg version="1.1" xmlns:xlink="http://www.w3.org/1999/xlink" width="76px" height="76px" xmlns="http://www.w3.org/2000/svg">
  <g transform="matrix(1 0 0 1 -233 -87 )">
    <path d="M 0.482758620000027 37.862069  C 0.482758620000027 58.5060920000001  17.2180459 75.2413793000001  37.862069 75.2413793000001  C 58.506092 75.2413793000001  75.2413793 58.5060920000001  75.2413793 37.862069  C 75.2413793 17.2180459000001  58.506092 0.482758619999913  37.862069 0.482758619999913  C 17.2180459 0.482758619999913  0.482758620000027 17.2180459000001  0.482758620000027 37.862069  Z M 69.7241379 37.862069  C 69.7241379 55.4590037999999  55.4590038 69.7241379  37.862069 69.7241379  C 20.2651342 69.7241379  6 55.4590037999999  6 37.862069  C 6 20.2651341999999  20.2651342 6  37.862069 6  C 55.4590038 6  69.7241379 20.2651341999999  69.7241379 37.862069  Z " fill-rule="nonzero" fill="#ebebeb" stroke="none" transform="matrix(1 0 0 1 233 87 )" />
  </g>
</svg>