<?xml version="1.0" encoding="utf-8"?>
<svg version="1.1" xmlns:xlink="http://www.w3.org/1999/xlink" width="41px" height="75px" xmlns="http://www.w3.org/2000/svg">
  <g transform="matrix(1 0 0 1 -268 -87 )">
    <path d="M 0.103448299999968 72.2068965999999  C 0.103448299999968 73.7304408  1.33852480000002 74.9655173000001  2.86206900000002 74.9655173000001  C 23.506092 74.9655173000001  40.2413793 58.2302300000001  40.2413793 37.5862070000001  C 40.2413793 16.9421839000001  23.506092 0.206896619999952  2.86206900000002 0.206896619999952  C 1.33852480000002 0.206896619999952  0.103448299999968 1.44197316999998  0.103448299999968 2.96551731  C 0.103448299999968 4.48906145000001  1.33852480000002 5.72413800000004  2.86206900000002 5.72413800000004  C 20.4590038 5.72413800000004  34.7241379 19.9892722  34.7241379 37.5862070000001  C 34.7241379 55.1831417999999  20.4590038 69.4482759  2.86206900000002 69.4482759  C 1.33852480000002 69.4482759  0.103448299999968 70.6833525  0.103448299999968 72.2068965999999  Z " fill-rule="nonzero" fill="#00c5c6" stroke="none" transform="matrix(1 0 0 1 268 87 )" />
  </g>
</svg>