<?xml version="1.0" encoding="utf-8"?>
<svg version="1.1" xmlns:xlink="http://www.w3.org/1999/xlink" width="265px" height="189px" xmlns="http://www.w3.org/2000/svg">
  <g transform="matrix(1 0 0 1 -56 -105 )">
    <path d="M 0 130.659631  C 0 58.4983094  59.1473819 0  132.109375 0  C 205.071368 0  264.21875 58.4983094  264.21875 130.659631  C 264.21875 150.276393  259.842901 169.283753  251.521111 186.622696  C 250.935199 187.843478  249.459604 188.363354  248.225276 187.783872  C 246.990949 187.20439  246.465305 185.744988  247.051217 184.524206  C 255.059906 167.837627  259.270833 149.546637  259.270833 130.659631  C 259.270833 61.2009807  202.338709 4.89361914  132.109375 4.89361914  C 61.8800408 4.89361914  4.94791667 61.2009807  4.94791667 130.659631  C 4.94791667 149.47341  9.12620905 167.696123  17.0752575 184.33152  C 17.659066 185.553287  17.1309089 187.011802  15.8955855 187.589204  C 14.6602621 188.166606  13.1855644 187.644245  12.6017559 186.422477  C 4.34193028 169.1367  0 150.200316  0 130.659631  Z " fill-rule="nonzero" fill="#00c5c6" stroke="none" transform="matrix(1 0 0 1 56 105 )" />
  </g>
</svg>