<?xml version="1.0" encoding="utf-8"?>
<svg version="1.1" xmlns:xlink="http://www.w3.org/1999/xlink" width="23px" height="40px" xmlns="http://www.w3.org/2000/svg">
  <g transform="matrix(1 0 0 1 -212 -15 )">
    <path d="M 3.98146341 0.00907317073000513  L 0.0403414634000114 0.014341463400001  L 7.95951220000001 22.4442927  L 7.95951220000001 22.4337561  L 8.58570732000001 24.200878  C 12.0638537 34.0405854000001  13.9318049 39.3206341  13.9423415 39.3311707  C 13.9476098 39.3363902  14.4738537 39.3680488  15.110439 39.3994634000001  C 17.0363415 39.4940976  19.4251707 39.6992683  21.2406341 39.9253171  C 21.6562927 39.978  22.0193659 40.0043415  22.040439 39.9832683  L 14.1897073 17.7058049  L 14.1897073 17.7110732  L 13.4634146 15.6601463  C 12.7530244 13.6563902  12.2795122 12.3153171  9.42229268 4.24790244000002  C 8.65409756 2.07590243999999  8.00156097999999 0.240487804999987  7.97531706999999 0.15634146299999  L 7.92263414999999 0.00907317073000513  L 3.98146341 0.00907317073000513  Z " fill-rule="nonzero" fill="#e50914" stroke="none" transform="matrix(1 0 0 1 212 15 )" />
  </g>
</svg>