<?xml version="1.0" encoding="utf-8"?>
<svg version="1.1" xmlns:xlink="http://www.w3.org/1999/xlink" width="41px" height="76px" xmlns="http://www.w3.org/2000/svg">
  <g transform="matrix(1 0 0 1 -268 -87 )">
    <path d="M 0.103448299999968 72.4827585999999  C 0.103448299999968 74.0063028  1.33852480000002 75.2413793000001  2.86206900000002 75.2413793000001  C 23.506092 75.2413793000001  40.2413793 58.5060920000001  40.2413793 37.862069  C 40.2413793 17.2180459000001  23.506092 0.482758619999913  2.86206900000002 0.482758619999913  C 1.33852480000002 0.482758619999913  0.103448299999968 1.71783516999994  0.103448299999968 3.24137930999996  C 0.103448299999968 4.76492344999997  1.33852480000002 6  2.86206900000002 6  C 20.4590038 6  34.7241379 20.2651341999999  34.7241379 37.862069  C 34.7241379 55.4590037999999  20.4590038 69.7241379  2.86206900000002 69.7241379  C 1.33852480000002 69.7241379  0.103448299999968 70.9592144999999  0.103448299999968 72.4827585999999  Z " fill-rule="nonzero" fill="#00c5c6" stroke="none" transform="matrix(1 0 0 1 268 87 )" />
  </g>
</svg>