<?xml version="1.0" encoding="utf-8"?>
<svg version="1.1" xmlns:xlink="http://www.w3.org/1999/xlink" width="40px" height="41px" xmlns="http://www.w3.org/2000/svg">
  <g transform="matrix(1 0 0 1 -608 -86 )">
    <path d="M 3.00043189999997 0.72496225000009  L 3 0.724138000000039  C 13.1530306 0.724138000000039  22.3509178 4.84131957  29.0363585 11.5078212999999  C 29.0661423 11.5379968  29.0963432999999 11.5679758000001  29.1264926 11.5980059000001  C 29.1505747 11.6221849999999  29.1749834 11.6467588  29.1993581 11.6713668  C 35.8758417 18.3576414000001  40 27.5625087000001  40 37.724138  C 39.9997272000001 37.808072  40 37.8915025000001  40 37.9749971000001  C 40 39.4933057000001  38.7774565 40.724138  37.2693727 40.724138  C 35.7612889 40.724138  34.5387454 39.4933057000001  34.5387454 37.9749971000001  L 34.5360000000001 37.724138  L 34.5017182 37.724138  C 34.5017182 35.6718609  34.3043678 33.6653671000001  33.9274886000001 31.7223579000001  C 32.6930376 25.4986603  29.6511543 19.9310382000001  25.3761373 15.5981710000001  C 25.3351542 15.5562393  25.2933928 15.5143425000001  25.2515143000001 15.4725616000001  L 25.3761373 15.5981710000001  C 25.2931833 15.5140944  25.2097649 15.4304827000001  25.1258864 15.3473402  L 25.2515143000001 15.4725616000001  C 20.900424 11.131615  15.2845677 8.04240032000007  8.99924109999995 6.79620416000012  C 7.05739749999998 6.41963508999993  5.05157469999995 6.22241979  3 6.22241979  L 3 6.187138  L 2.74914090000004 6.18539261000001  C 1.28706599999998 6.18539261000001  0.0915671000000202 5.05173089000004  0.0050171999999975 3.62110751  L 0 3.45476531000008  C 0 1.94668148999995  1.23083229999997 0.724138000000039  2.74914090000004 0.724138000000039  C 2.83296949999999 0.724138000000039  2.91673349999996 0.724413039999945  3.00043189999997 0.72496225000009  Z " fill-rule="nonzero" fill="#00c5c6" stroke="none" transform="matrix(1 0 0 1 608 86 )" />
  </g>
</svg>