<?xml version="1.0" encoding="utf-8"?>
<svg version="1.1" xmlns:xlink="http://www.w3.org/1999/xlink" width="24px" height="18px" xmlns="http://www.w3.org/2000/svg">
  <g transform="matrix(1 0 0 1 -19 -116 )">
    <path d="M 15.7717716 1.28590450000002  C 17.6649392 1.28590450000002  19.1999026 8.76902399999994  19.1999026 18  L 21.943024 18  C 21.943024 8.05871490000004  19.1797004 0  15.7718528 0  C 13.8328448 0  12.1029178 2.42195790000005  10.9717554 6.20923359999995  C 9.8408365 2.42195790000005  8.1103415 0  6.1714958 0  C 2.7636482 0  0 8.05871490000004  0 18  L 2.7434459 18  C 2.7434459 8.76902399999994  4.2785716 1.28590450000002  6.1714958 1.28590450000002  C 8.0649879 1.28590450000002  9.6005193 8.19342870000003  9.6005193 16.7147801  L 12.3429916 16.7147801  C 12.3430727 8.19342870000003  13.8781173 1.28590450000002  15.7717716 1.28590450000002  Z M 23.3160452 16.7147801  C 23.6881231 16.7147801  24 16.9909777  24 17.3543474000001  C 24 17.7234982  23.6881231 17.9998479  23.3160452 17.9998479  C 22.9426691 17.9998479  22.6281959 17.7233461  22.6281959 17.3543474000001  C 22.6281959 16.9909777  22.9426691 16.7147801  23.3160452 16.7147801  Z M 22.7525734 17.3545756  C 22.7524923 17.6685782  22.9970285 17.9060579  23.3160452 17.9060579  C 23.6311674 17.9060579  23.8758658 17.6686543  23.8758658 17.3545756  C 23.8758658 17.0459738  23.6310051 16.8088744  23.3160452 16.8088744  C 22.9970285 16.8088744  22.7525734 17.0459738  22.7525734 17.3545756  Z M 23.0493596 16.9811651  L 23.3583968 16.9811651  C 23.5475188 16.9811651  23.6366845 17.0517548  23.6366845 17.1956727  C 23.6366845 17.3314514  23.5463018 17.388197  23.427847 17.3999873  L 23.6553452 17.7321698  L 23.5217995 17.7321698  L 23.305011 17.4090392000001  L 23.1738994 17.4090392000001  L 23.1738994 17.7321698  L 23.0495218 17.7321698  L 23.0493596 16.9811651  Z M 23.1739805 17.0751072  L 23.1738182 17.3147928  L 23.3033883 17.3147928  C 23.4125128 17.3147928  23.5130371 17.3096964  23.5130371 17.1906523  C 23.5130371 17.0907769  23.4218431 17.0751072  23.3380323 17.0751072  L 23.1739805 17.0751072  Z " fill-rule="nonzero" fill="#ffdd00" stroke="none" transform="matrix(1 0 0 1 19 116 )" />
  </g>
</svg>