<?xml version="1.0" encoding="utf-8"?>
<svg version="1.1" xmlns:xlink="http://www.w3.org/1999/xlink" width="30px" height="30px" xmlns="http://www.w3.org/2000/svg">
  <g transform="matrix(1 0 0 1 -25 -61 )">
    <path d="M 25.6099228 4.52172049000001  C 31.3068034 10.4084411  31.1514034 19.8324021  25.2638427 25.5292828  C 19.3762821 31.2253234  9.95316107 31.0699234  4.25628046 25.1832027  C -1.44060016 19.2964821  -1.28436014 9.87252106  4.6023605 4.17564045  C 10.4899211 -1.52040016  19.9130421 -1.36500015  25.6099228 4.52172049000001  Z M 24.5330426 5.5650006  C 19.4115621 0.272160028999998  10.9393212 0.132720014  5.64648061 5.25336057  C 0.353640038000002 10.3748411  0.214200023 18.847082  5.33484058 24.1399226  C 10.4554811 29.4327632  18.928562 29.5722032  24.2214026 24.4515626  C 29.5142432 19.3300821  29.6536832 10.8578412  24.5330426 5.5650006  Z " fill-rule="nonzero" fill="#ffffff" stroke="none" transform="matrix(1 0 0 1 25 61 )" />
  </g>
</svg>