<?xml version="1.0" encoding="utf-8"?>
<svg version="1.1" xmlns:xlink="http://www.w3.org/1999/xlink" width="40px" height="40px" xmlns="http://www.w3.org/2000/svg">
  <g transform="matrix(1 0 0 1 -15 -15 )">
    <path d="M 40 20  C 40 8.95530536000001  31.0460594 0.00136472193997861  20 0  C 8.95394063 0  0 8.95394062999998  0 20  C 0 31.0460594  8.95394063 40  20 40  C 31.0460594 40  40 31.0460594  40 20  Z M 29.1722961 28.8447629  C 28.8133743 29.4343228  28.0450358 29.6185602  27.4582054 29.2596383  C 22.7621972 26.3896281  16.8502218 25.7413852  9.88877516 27.3312863  C 9.21733197 27.4854998  8.54861822 27.0651655  8.39576936 26.3937223  C 8.24155578 25.7222791  8.66052542 25.0535652999999  9.33333333 24.9007165  C 16.9512112 23.160696  23.4868646 23.9099284  28.7587854 27.1306721  C 29.3456158 27.4923234  29.5325827 28.2579324  29.1722961 28.8447629  Z M 31.1047424 21.2569089  C 31.8389628 21.7086319  32.0709655 22.6680314  31.6192426 23.4008871  C 31.1675196 24.1351075  30.2067554 24.3643808  29.4738997 23.9140225  C 24.0996247 20.6100307  15.9031047 19.6533606  9.54486523 21.5830774  C 8.72057318 21.8328216  7.84988059 21.3674514  7.59877175 20.5445241  C 7.35039236 19.720232  7.81576254 18.8509041  8.63868987 18.5997953  C 15.90174 16.3957694  24.9321051 17.4629819  31.1047424 21.2569089  Z M 34.3923576 17.0740362  C 33.8669396 17.9638349000001  32.716479 18.2572501  31.8294098 17.7291027  C 25.3824633 13.9010577  14.74855 13.5489594  8.59365404 15.415899  C 7.60559536 15.7161378  6.56021836 15.1579666  6.26134425 14.1699079  C 5.96247015 13.1818492  6.5192767 12.1364722  7.5087001 11.8362334  C 14.5738656 9.69225519999998  26.3172979 10.105766  33.7386557 14.5110884  C 34.6270897 15.0392358  34.9191402 16.1869669  34.3923576 17.0740362  Z " fill-rule="nonzero" fill="#1ed660" stroke="none" transform="matrix(1 0 0 1 15 15 )" />
  </g>
</svg>