<?xml version="1.0" encoding="utf-8"?>
<svg version="1.1" xmlns:xlink="http://www.w3.org/1999/xlink" width="36px" height="40px" xmlns="http://www.w3.org/2000/svg">
  <g transform="matrix(1 0 0 1 -12 -165 )">
    <path d="M 30.2065073 21.1691014  C 30.1978752 20.393537  30.0163789 19.6277114  29.7335104 18.9083665000001  C 29.5152722 18.351483  29.2618415 17.8092076  29.0143869 17.2649402  C 27.045108 12.9732901  24.9785422 8.72695239999996  22.8162904 4.52921647000005  C 22.5121735 3.94267375000004  22.2144754 3.35258964000002  21.8933156 2.77512174000003  C 21.5776892 2.21181938999996  21.21027 1.66954405000001  20.7346171 1.22864099000003  C 19.9756529 0.505090748000043  18.957282 0.0737051792999637  17.9121293 0.00863213810998786  L 17.4309429 0.00863213810998786  C 16.3550243 0.0617529879999665  15.3047809 0.513280212000041  14.5327579 1.26582558999996  C 14.0745905 1.69986719999997  13.7200089 2.22908367000002  13.4127933 2.77667109000004  C 13.0958389 3.34462151000002  12.8023462 3.92540946999998  12.5039841 4.50265604000003  C 11.0531053 7.31901172000005  9.64494635 10.1571708  8.27999115 13.0161576  C 7.4663568 14.7270916  6.65958389 16.4409031  5.8835768 18.1686587  C 5.56175299 18.8884462  5.270695 19.6328021  5.16113324 20.418548  C 4.95816733 21.7452413  5.24922532 23.1376715  5.95794599 24.2768924  C 6.56883577 25.2664896  7.48583444 26.0639664  8.55467021 26.5245684  C 9.39022165 26.8851958  10.298378 27.0459401000001  11.20695 26.9940239  C 12.4205401 26.9296149  13.5907481 26.4935812  14.6175299 25.8572377  C 15.7629482 25.1542717999999  16.7425852 24.2193448  17.6547145 23.2405932  C 18.5028774 24.1547145  19.4105799 25.0270031  20.4583887 25.7107127  C 21.4703409 26.376494  22.62417 26.8585657  23.8377601 26.9732182  C 25.1558212 27.1108898  26.5214697 26.7841965  27.6277114 26.0504648  C 28.6061541 25.4021374  29.3638583 24.4711048  29.7999115 23.3813634000001  C 30.0806917 22.6781691  30.2189014 21.9261788  30.2065073 21.1691014  Z M 17.6602479 20.6573705  C 17.3293493 20.2678175999999  17.0378486 19.8463922  16.7450199 19.4280655  C 16.252324 18.7054006  15.8043382 17.9499779  15.4440018 17.1518371  C 15.1487384 16.4895972  14.9116866 15.7943780000001  14.8191678 15.0723772  C 14.75166 14.4995573  14.7678176 13.9019478  14.9780876 13.3581231000001  C 15.166224 12.8481629  15.5278884 12.4063745  15.9860558 12.1144312  C 17.0776892 11.4099159  18.6336875 11.4860558  19.622842 12.3406375  C 20.123506 12.7671536  20.4225321 13.3977424  20.4977866 14.0458167  C 20.5962815 14.9072598  20.4003984 15.7724657  20.0996016 16.5759184999999  C 19.5316512 18.0668437  18.6325808 19.4032758  17.6602479 20.6573705  Z M 28.3714033 22.4845064  C 28.0796813 23.4913679  27.3784861 24.3709606  26.4610447 24.8784861  C 25.647853 25.3333333  24.6772908 25.4891545  23.7605135 25.3359894  C 22.5929615 25.1542717999999  21.5453741 24.5347499  20.6376715 23.8034529  C 19.9705622 23.2673749  19.3698539 22.6547145  18.794378 22.0232404  C 19.7029659 20.8740593  20.5588756 19.6717574  21.2127047 18.3574591  C 21.7833112 17.2065073  22.2169101 15.9594954  22.2580788 14.6653386  C 22.2813192 13.8441788  22.126826 13.0079681  21.7432492 12.2768924  C 21.2410359 11.3001328  20.3413015 10.5498008  19.3098716 10.1868083000001  C 18.3463922 9.84262948000003  17.2753431 9.81186365999997  16.292386 10.0920761  C 15.3654272 10.3543603000001  14.5188136 10.9114653  13.9386897 11.6837096  C 13.4280655 12.3570164  13.1370075 13.1848163  13.0694998 14.0243471  C 12.9656928 15.2335104  13.268703 16.4397964  13.7270916 17.5513502  C 14.4085879 19.1755201  15.4088092 20.6456396999999  16.5135015 22.0092961  C 16.0153859 22.5845892999999  15.4748421 23.1217296999999  14.8964143 23.6162019  C 13.9995573 24.375166  12.9734396 25.0358566  11.8109783 25.2872953  C 10.8711819 25.4982293  9.85723772 25.3930851  8.99535193 24.957282  C 7.98583444 24.4541833  7.2107127 23.5066401  6.91832669 22.4174413  C 6.69477645 21.6173085  6.74435591 20.7534307  7.0101815 19.9696768  C 7.23129703 19.3211598  7.5312085 18.7031873  7.81186366 18.0792386000001  C 9.76006645 13.8338363  11.8034481 9.63276060999999  13.9404604 5.47919433000004  C 14.2591855 4.86100044  14.5730412 4.23992916999998  14.9103586 3.63191677999998  C 15.1857016 3.14209827000002  15.5059761 2.66113324000003  15.95861 2.31717574000004  C 16.4480291 1.93590153000002  17.0534497 1.73409468  17.6737494 1.74546258999999  C 18.3111996 1.73793713999999  18.9448871 1.97277555999995  19.4324923 2.38247011999999  C 19.9141213 2.78242584999998  20.2394865 3.32957061000002  20.5316512 3.87494466999999  C 21.1921204 5.11553785000001  21.8264719 6.37051793000001  22.4610447 7.62416999000004  C 24.2721088 11.2086571999999  26.0123026 14.8285141  27.6806109 18.481629  C 27.9327136 19.0491368  28.2025232 19.6122178000001  28.3722886 20.2111554000001  C 28.5796813 20.9497565  28.5865427 21.7474546  28.3714033 22.4845064  Z M 8.20916335 30.3404161  C 8.75453741 30.2169101  9.35037627 30.5765826000001  9.49203187 31.1179726  C 9.66799469 31.6719788  9.31828243 32.3160687  8.76139885 32.476317  C 8.21735281 32.667552  7.57127047 32.335104  7.39110226 31.7919433  C 7.22023019 31.3342187  7.40305445 30.7817618  7.80898628 30.5110668  C 7.93002447 30.4287237999999  8.06595065 30.3707598  8.20916335 30.3404161  Z M 11.8926516 33.916556  C 12.2211155 33.5595396  12.6839309 33.335768  13.1606906 33.2644976  C 13.4787487 33.2334182  13.7997361 33.2537462  14.1113324 33.3247012  C 14.1073484 33.8273572000001  14.1104471 34.3293493  14.1095618 34.8322266  C 13.6206286 34.7058433  13.0911908 34.6797255  12.6113324 34.8563524  C 12.3506826 34.9512657  12.11575 35.1056392  11.9251881 35.3072155999999  C 11.8840195 35.3424081000001  11.8939796 35.3992917  11.8902169 35.4482072  C 11.8930943 36.8525896  11.8880035 38.2571934  11.8922089 39.6613546  C 11.8873395 39.7153608  11.9003984 39.7762284  11.876494 39.8269146  C 11.3342187 39.8395308  10.7912793 39.8293493  10.2487826 39.8313413  C 10.249004 37.6903497  10.247012 35.5489153999999  10.2501107 33.4079239  C 10.70695 33.4099159  11.1640106 33.4061531999999  11.6210713 33.4088092  C 11.7215582 33.4030544  11.8286853 33.4546259  11.8654272 33.5526781999999  C 11.9015051 33.6699867  11.8899956 33.7950421  11.8926516 33.916556  Z M 23.585436 33.9223108  C 24.0194776 33.4732182  24.648517 33.252324  25.2658256 33.250996  C 25.9181054 33.2346171  26.5865427 33.4274015  27.0905268 33.8505976  C 27.4256833 34.1134853  27.6674058 34.4771942  27.7799911 34.8880035  C 27.9234174 35.3884462  27.9105799 35.9141213  27.9088092 36.4296149  C 27.9092519 37.563745  27.9088092 38.6980965  27.9092519 39.832448  C 27.3623285 39.8315626  26.8156264 39.8359894  26.268703 39.8300133  C 26.2691456 38.6965471  26.268703 37.563081  26.2691456 36.4291722  C 26.2691456 36.0079681  26.289066 35.5535635  26.065073 35.1783975  C 25.9090305 34.9092519  25.6002656 34.7751217  25.3025675 34.7439132  C 24.7355024 34.6531651  24.143205 34.8787074000001  23.752324 35.2921647000001  C 23.7107127 35.3337759999999  23.6750775 35.3864542  23.6797255 35.4493139  C 23.6744135 35.6246126999999  23.7009739 35.8005755  23.685923 35.9760956  C 23.6644533 36.2144754  23.6978752 36.4528552  23.6901284 36.6918991  C 23.6831195 37.1425835  23.6825293 37.5933448  23.6883577 38.044046  C 23.6573705 38.6401062  23.7113767 39.2381585000001  23.6757415 39.8335547  C 23.1310314 39.831784  22.5867641 39.833112  22.042054 39.8328907  C 22.0418327 37.6907924  22.0380699 35.5491368  22.044046 33.4072598  C 22.4652501 33.4105799  22.8873395 33.4072598  23.3083223 33.4085879  C 23.41722 33.4017264  23.5362992 33.4625941  23.564409 33.5732625000001  C 23.5900841 33.6870297  23.5823373 33.8054449  23.585436 33.9223108  Z M 7.60934042 39.8326693  C 7.60911908 37.6907924  7.60602036 35.5491368  7.6104471 33.4074812  C 8.15316512 33.4088092  8.6956618 33.4083665000001  9.23815848 33.4079239  C 9.24236388 35.5495795  9.23926516 37.6912351  9.23970784 39.832448  C 8.69632581 39.832448  8.15294378 39.8320053  7.60934042 39.8326693  Z M 6.59849491 33.4081452  C 6.16843736 33.4072598  5.73837981 33.4094732  5.30787959 33.4057104999999  C 5.19411244 33.4050465  5.04891545 33.4105799  4.99335989 33.5301018  C 4.9435591 33.6529438  4.96259407 33.7892873  4.95816733 33.918548  C 4.6002656 33.5376272999999  4.09583887 33.311421  3.57835325 33.2622842  C 2.77932714 33.190571  1.95130589 33.4121292999999  1.30965029 33.8972997  C 0.781097830999997 34.2877379  0.390438246999999 34.8523683  0.185922974999997 35.4743249000001  C 0.0874280654999993 35.7658256  0.0380699425000017 36.0717131  0.006640106239999 36.3773794  L 0.006640106239999 36.8171757  C 0.0524568392999996 37.7377158  0.461930058 38.6482956999999  1.17618415 39.2416999  C 1.71491811 39.6980965  2.40725985 39.9530766  3.10867641 39.9975653  L 3.47432492 39.9975653  C 4.03032315 39.9601594  4.5792386 39.7301903  4.95861 39.3158476999999  C 4.96215139 39.4457725  4.94378043 39.583444  4.99247455 39.7078352999999  C 5.04316069 39.8085436  5.1626826 39.8362107  5.2664896 39.8322266  C 5.71027003 39.8311200000001  6.15471448 39.8326693  6.59893758 39.8302346  C 6.59893758 37.6901284  6.6002656 35.5491368  6.59849491 33.4081452  Z M 4.90792386 37.8311200000001  C 4.57591855 38.228641  4.05732625 38.4637008  3.53939796 38.4473218000001  C 2.98428508 38.4515272  2.4081452 38.2388225  2.04847278 37.8034529  C 1.69765383 37.3877821999999  1.59163347 36.8096503  1.67131474 36.2813192  C 1.73085436 35.8536963  1.94887118 35.4435591  2.29327136 35.1781762000001  C 2.60557769 34.9316069  2.99933599 34.8045595  3.39353696 34.7771138000001  C 3.98074369 34.7257636000001  4.59982293 34.9847278  4.95307658 35.4588313  C 4.9729969 36.1569277999999  4.95351926 36.856795  4.96237273 37.5559982  C 4.95661797 37.6480744  4.98207171 37.7589641  4.90792386 37.8311200000001  Z M 21.104471 35.2459053  C 20.8517043 34.6277114  20.4032758 34.0903054  19.8348827 33.7397078  C 19.2494467 33.3753873000001  18.5473661 33.2107127  17.8610004 33.2574148  C 17.3189464 33.29305  16.7892873 33.5243471  16.4130146 33.9196547  C 16.4108012 32.7197875000001  16.4130146 31.5205843  16.4119079 30.3207171  C 15.8647632 30.3209385  15.3171757 30.3182824  14.770031 30.3222665  C 14.7729084 33.4913679  14.7653829 36.6620186  14.7740151 39.8308986  C 15.2270916 39.8320053  15.6806109 39.833112  16.1339088 39.8320053  C 16.2465693 39.8408588  16.3680832 39.7788845  16.3990704 39.664896  C 16.4214254 39.5489153999999  16.4132359 39.4291722  16.4139 39.3116423  C 16.7941567 39.7346171  17.352811 39.9641434  17.914564 39.998008  L 18.249668 39.998008  C 19.1591412 39.9524126  20.0509075 39.5261178  20.6217353 38.811421  C 21.4212041 37.8311200000001  21.5772466 36.4061531999999  21.104471 35.2459053  Z M 19.1910137 37.9493139  C 18.8244799 38.2895086  18.3171757 38.4526339  17.8218238 38.4477644999999  C 17.3050022 38.4597166999999  16.7886233 38.2222222  16.461266 37.8222665  C 16.4207614 37.7806552  16.4074812 37.7244356  16.4108012 37.6691014  C 16.4112439 36.9338203  16.4119079 36.1987605  16.4108012 35.4639221  C 16.7250996 35.0540062  17.2281983 34.7985834  17.7428066 34.7722444  C 18.2644976 34.7569721  18.8118637 34.9101372  19.1947764 35.2779991  C 19.5595396 35.6164232  19.7374945 36.1239485999999  19.7259849 36.6155378  C 19.7366091 37.106463  19.5537849 37.6106684  19.1910137 37.9493139  Z M 34.604471 34.4508632  C 33.9085879 33.5646303999999  32.7189022 33.1175299  31.6097831 33.2833112  C 31.146525 33.3563524  30.707614 33.5785746  30.3837981 33.9194334  C 30.3802568 32.7202302000001  30.3837981 31.521027  30.3820274 30.3213811000001  C 29.835768 30.3207725  29.2899513 30.3202745  28.7441346 30.3218237999999  C 28.7436919 33.4911465  28.7441346 36.6613546  28.7441346 39.8311200000001  C 29.1746348 39.83444  29.6062417 39.830456  30.0367419 39.83444  C 30.1498451 39.8362107  30.2912793 39.8271359  30.3492696 39.7115980999999  C 30.3995131 39.5867641  30.3806994 39.4475432  30.3842408 39.3162904  C 30.7616202 39.7297477  31.3081009 39.9581673  31.8610004 39.9984506  L 32.2297477 39.9984506  C 33.1292607 39.9495352  34.0086321 39.5296591  34.5783533 38.8258079  C 35.0436034 38.2644976  35.2945994 37.5455954  35.3362107 36.8216025  L 35.3362107 36.3919876  C 35.2846392 35.6930058  35.0486941 34.9988933  34.604471 34.4508632  Z M 33.4652501 35.6640106  C 33.8136344 36.3109783  33.7788845 37.1755201  33.3260292 37.7647189  C 32.892873 38.3222665  32.1285967 38.5296591  31.4506419 38.4214254  C 31.0378486 38.3390881  30.6374502 38.1162019  30.3933156 37.7682603  C 30.3660912 37.4984506  30.3906596 37.2255423  30.3824701 36.9544046  C 30.3882249 36.4557326  30.3700753 35.9555113  30.3906596 35.4577247  C 30.6389996 35.1153164999999  31.0365206 34.8957503  31.4455511 34.8050022  C 32.2025232 34.6651173  33.0825587 34.9650288  33.4652501 35.6640106  Z " fill-rule="nonzero" fill="#ff7977" stroke="none" transform="matrix(1 0 0 1 12 165 )" />
  </g>
</svg>