<?xml version="1.0" encoding="utf-8"?>
<svg version="1.1" xmlns:xlink="http://www.w3.org/1999/xlink" width="22px" height="22px" xmlns="http://www.w3.org/2000/svg">
  <g transform="matrix(1 0 0 1 -28 -66 )">
    <path d="M 19.5741621 2.45836126  C 19.3708821 2.24920124  19.063442 2.17612123000001  18.787082 2.27272124000001  L 4.0207204 7.44628180000001  C 4.41384045 6.14176166  5.13204052 4.91704153000001  6.17868064 3.90400142  C 8.55420089 1.60492117  11.9637613 1.01860110600001  14.8693216 2.11564122  L 16.8550818 1.40668115  C 13.1666414 -0.741199084000002  8.35008087 -0.285079034999995  5.13540052 2.82544130000001  C 3.62760036 4.28452146000001  2.69436026 6.11572166000001  2.33484022 8.03680186  L 0.801000057 8.57440192  C 0.507840025 8.67688193000001  0.308760003500002 8.94988196  0.2995200025 9.25984199  C 0.290280001500001 9.57064203  0.473400021 9.85456206000001  0.759840052000001 9.97384207  L 8.47524088 13.1969224  L 11.4421212 21.0148033  C 11.5521612 21.3054433  11.8302012 21.4978033  12.1410013 21.4986499  C 12.3409213 21.4994833  12.5274013 21.4205233  12.6651613 21.2878033  C 12.7416013 21.2138833  12.8029214 21.1231633  12.8424014 21.0198433  L 13.4304014 19.5036431  C 15.3615616 19.2079631  17.2230018 18.336043  18.730802 16.8769628  C 21.9522023 13.7605625  22.5628824 8.94904196  20.5233622 5.18836156  L 19.7547621 7.15480177000001  C 20.7644422 10.0990021  20.0680821 13.4959625  17.6875219 15.7992427  C 16.6408818 16.8122828  15.3926416 17.4893229  14.0763615 17.8396029  L 19.7346021 3.25132135  C 19.8404421 2.97832132000001  19.7774421 2.66920128000001  19.5741621 2.45836126  Z M 17.5161619 5.21356156  L 12.3627613 18.1100829  L 12.1510813 18.655243  L 11.9478013 18.1193229  L 9.93852104 12.8256424  L 17.5161619 5.21356156  Z M 16.7542818 4.42564147  L 9.04644095 11.8109223  L 3.67128037 9.56560203000001  L 3.14292031 9.34468200000001  L 3.69480037 9.15148198  L 16.7542818 4.42564147  Z " fill-rule="nonzero" fill="#ffffff" stroke="none" transform="matrix(1 0 0 1 28 66 )" />
  </g>
</svg>