<?xml version="1.0" encoding="utf-8"?>
<svg version="1.1" xmlns:xlink="http://www.w3.org/1999/xlink" width="20px" height="20px" xmlns="http://www.w3.org/2000/svg">
  <g transform="matrix(1 0 0 1 -295 -10 )">
    <path d="M 0 10  C 0 4.47640281999998  4.47640281999998 0  10 0  C 15.5224521 0  20 4.47698557000001  20 10  C 20 15.5218693  15.5218693 20  10 20  C 4.47698557000001 20  0 15.5224521  0 10  Z M 19.0064795 10  C 19.0064795 5.02571972999999  14.9737738 0.993520517999968  10 0.993520517999968  C 5.02510905000003 0.993520517999968  0.993520518000025 5.02510904999997  0.993520518000025 10  C 0.993520518000025 14.9737738  5.02571972999999 19.0064795  10 19.0064795  C 14.9731631 19.0064795  19.0064795 14.9731631  19.0064795 10  Z M 5.92577090999998 6.05291462000002  L 5.98325148999999 5.98411541999997  C 6.17724843999997 5.79011847000004  6.49177964 5.79011847000004  6.68577658999999 5.98411541999997  L 9.99900000000002 9.298  L 13.3137051 5.98376985000004  C 13.4861468 5.81132811999998  13.7538255 5.79216793000001  13.947431 5.92628926999998  L 14.0162302 5.98376985000004  C 14.2102271 6.17776679999997  14.2102271 6.49229800000001  14.0162302 6.68629495000005  L 10.702 10  L 14.0162302 13.314569  C 14.1886719 13.4870107  14.2078321 13.7546894  14.0737107 13.9482949  L 14.0162302 14.0170941  C 13.8222332 14.211091  13.507702 14.211091  13.3137051 14.0170941  L 9.99900000000002 10.702  L 6.68577658999999 14.0167484999999  C 6.51333484999998 14.1891902  6.24565618000003 14.2083504  6.05205068999999 14.0742291  L 5.98325148999999 14.0167484999999  C 5.78925454 13.8227515999999  5.78925454 13.5082204  5.98325148999999 13.3142233999999  L 9.29700000000003 10  L 5.98325148999999 6.68664051999997  C 5.81080975999998 6.51419879000002  5.79164957 6.24652012000001  5.92577090999998 6.05291462000002  Z " fill-rule="nonzero" fill="#ffffff" stroke="none" transform="matrix(1 0 0 1 295 10 )" />
  </g>
</svg>