<?xml version="1.0" encoding="utf-8"?>
<svg version="1.1" xmlns:xlink="http://www.w3.org/1999/xlink" width="25px" height="16px" xmlns="http://www.w3.org/2000/svg">
  <g transform="matrix(1 0 0 1 -90 -36 )">
    <path d="M 2.68595041 0  L 22.3140496 0  C 23.7968707 0  25 1.20312929000011  25 2.68595041000003  L 25 13.0165288999999  C 25 14.4993500999999  23.7968707 15.7024793  22.3140496 15.7024793  L 2.68595041 15.7024793  C 1.20312929000001 15.7024793  0 14.4993500999999  0 13.0165288999999  L 0 2.68595041000003  C 0 1.20312929000011  1.20312929000001 0  2.68595041 0  Z M 23.7603306 13.0165288999999  L 23.76 5.38200000000006  L 1.239 5.38200000000006  L 1.23966942 13.0165288999999  C 1.23966942 13.8146995  1.8877798 14.4628098999999  2.68595041 14.4628098999999  L 22.3140496 14.4628098999999  C 23.1122202 14.4628098999999  23.7603306 13.8146995  23.7603306 13.0165288999999  Z M 23.7603306 2.68595041000003  C 23.7603306 1.88777980000009  23.1122202 1.23966941999993  22.3140496 1.23966941999993  L 2.68595041 1.23966941999993  C 1.8877798 1.23966941999993  1.23966942 1.88777980000009  1.23966942 2.68595041000003  L 1.239 4.13200000000006  L 23.76 4.13200000000006  L 23.7603306 2.68595041000003  Z M 3.71900826 9.29752069999995  L 6.81818182000001 9.29752069999995  C 7.16050708 9.29752069999995  7.43801653 9.57503010000005  7.43801653 9.91735539999991  C 7.43801653 10.2596805999999  7.16050708 10.5371901000001  6.81818182000001 10.5371901000001  L 3.71900826 10.5371901000001  C 3.37668300999999 10.5371901000001  3.09917355 10.2596805999999  3.09917355 9.91735539999991  C 3.09917355 9.57503010000005  3.37668300999999 9.29752069999995  3.71900826 9.29752069999995  Z M 18.1818182 7.231405  L 21.2809917 7.231405  C 21.623317 7.231405  21.9008264 7.51122699999996  21.9008264 7.856405  C 21.9008264 8.20158289999995  21.623317 8.481405  21.2809917 8.481405  L 18.1818182 8.481405  C 17.8394929 8.481405  17.5619835 8.20158289999995  17.5619835 7.856405  C 17.5619835 7.51122699999996  17.8394929 7.231405  18.1818182 7.231405  Z M 3.71900826 7.231405  L 11.9834711 7.231405  C 12.3257963 7.231405  12.6033058 7.51122699999996  12.6033058 7.856405  C 12.6033058 8.20158289999995  12.3257963 8.481405  11.9834711 8.481405  L 3.71900826 8.481405  C 3.37668300999999 8.481405  3.09917355 8.20158289999995  3.09917355 7.856405  C 3.09917355 7.51122699999996  3.37668300999999 7.231405  3.71900826 7.231405  Z " fill-rule="nonzero" fill="#a9a9a9" stroke="none" transform="matrix(1 0 0 1 90 36 )" />
  </g>
</svg>