<?xml version="1.0" encoding="utf-8"?>
<svg version="1.1" xmlns:xlink="http://www.w3.org/1999/xlink" width="20px" height="18px" xmlns="http://www.w3.org/2000/svg">
  <g transform="matrix(1 0 0 1 -40 -331 )">
    <path d="M 3.737 2.89999999999998  L 14.4186489 0.0169434300000262  C 14.6851321 -0.0549907029999872  14.9579179 0.108809119999989  15.0259146 0.381588500000021  L 15.6733087 2.97655549000001  C 17.2007868 3.30597985999998  18.3471074 4.66992562000001  18.3471074 6.30725797000002  L 18.3480446 7.89305302000002  C 19.2875662 8.03560163999998  20 8.8994227  20 9.93246829999998  L 20 10.9682427  C 20 12.0021504  19.2872926 12.8657557  18.3471881 13.007807  L 18.3471074 14.5934531  C 18.3471074 16.4777693  16.8288691 18  14.9586777 18  L 2.14876033 18  C 0.964519342999999 18  0 17.0329443  0 15.8363824  L 0 5.06432869999998  C 0 3.86776673999998  0.964519342999999 2.90071108000001  2.14876033 2.90071108000001  L 3.737 2.89999999999998  Z M 15.1230967 3.91899713999999  L 14.9586777 4  L 2.14876033 4  C 1.50820793 3.91346827000001  0.991735536999997 4.43129878000002  1 5.06432869999998  L 1 15.8363824  C 0.991735536999997 16.4694123  1.50820793 16.9872428  2.14876033 17  L 14.9586777 17  C 16.2851805 16.9872428  17.3553719 15.9142372  17.3553719 14.5934531  L 17.355 13.028  L 14.7363636 13.0282829  C 13.6650402 13.0282829  12.8099174 12.100091  12.8099174 10.9682427  L 12.8099174 9.93246829999998  C 12.8099174 8.80120125999997  13.6652604 7.87242816999998  14.7363636 7.87242816999998  L 17.355 7.87200000000001  L 17.3553719 6.30725797000002  C 17.3553719 5.04150652999999  16.3725051 4.00331556999998  15.1230967 3.91899713999999  Z M 19.0082645 9.93246829999998  C 19.0082645 9.3467536  18.5833581 8.88518535000003  18.0735537 8.88518535000003  L 14.7363636 8.88518535000003  C 14.2270531 8.88518535000003  13.8016529 9.34710560000002  13.8016529 9.93246829999998  L 13.8016529 10.9682427  C 13.8016529 11.5541091  14.2267459 12.0155257  14.7363636 12.0155257  L 18.0735537 12.0155257  C 18.5836652 12.0155257  19.0082645 11.5544611  19.0082645 10.9682427  L 19.0082645 9.93246829999998  Z M 14.63 2.89999999999998  L 14.1882807 1.12667089000001  L 7.617 2.89999999999998  L 14.63 2.89999999999998  Z M 2.14876033 15.3300038  L 2.97520661 15.3300038  C 3.24906682 15.3300038  3.47107438 15.5567172  3.47107438 15.8363824  C 3.47107438 16.1160476  3.24906682 16.342761  2.97520661 16.342761  L 2.14876033 16.342761  C 1.87490012 16.342761  1.65289256 16.1160476  1.65289256 15.8363824  C 1.65289256 15.5567172  1.87490012 15.3300038  2.14876033 15.3300038  Z M 4.62809917 15.3300038  L 5.45454545 15.3300038  C 5.72840566 15.3300038  5.95041322 15.5567172  5.95041322 15.8363824  C 5.95041322 16.1160476  5.72840566 16.342761  5.45454545 16.342761  L 4.62809917 16.342761  C 4.35423897 16.342761  4.1322314 16.1160476  4.1322314 15.8363824  C 4.1322314 15.5567172  4.35423897 15.3300038  4.62809917 15.3300038  Z M 7.10743802 15.3300038  L 7.9338843 15.3300038  C 8.2077445 15.3300038  8.42975207 15.5567172  8.42975207 15.8363824  C 8.42975207 16.1160476  8.2077445 16.342761  7.9338843 16.342761  L 7.10743802 16.342761  C 6.83357781 16.342761  6.61157025 16.1160476  6.61157025 15.8363824  C 6.61157025 15.5567172  6.83357781 15.3300038  7.10743802 15.3300038  Z M 9.58677686 15.3300038  L 10.4132231 15.3300038  C 10.6870833 15.3300038  10.9090909 15.5567172  10.9090909 15.8363824  C 10.9090909 16.1160476  10.6870833 16.342761  10.4132231 16.342761  L 9.58677686 16.342761  C 9.31291665 16.342761  9.09090909 16.1160476  9.09090909 15.8363824  C 9.09090909 15.5567172  9.31291665 15.3300038  9.58677686 15.3300038  Z M 12.0661157 15.3300038  L 12.892562 15.3300038  C 13.1664222 15.3300038  13.3884298 15.5567172  13.3884298 15.8363824  C 13.3884298 16.1160476  13.1664222 16.342761  12.892562 16.342761  L 12.0661157 16.342761  C 11.7922555 16.342761  11.5702479 16.1160476  11.5702479 15.8363824  C 11.5702479 15.5567172  11.7922555 15.3300038  12.0661157 15.3300038  Z M 14.5454545 4.55795010999998  L 15.3719008 4.55795010999998  C 15.645761 4.55795010999998  15.8677686 4.78466352999999  15.8677686 5.06432869999998  C 15.8677686 5.34399388000003  15.645761 5.57070728999997  15.3719008 5.57070728999997  L 14.5454545 5.57070728999997  C 14.2715943 5.57070728999997  14.0495868 5.34399388000003  14.0495868 5.06432869999998  C 14.0495868 4.78466352999999  14.2715943 4.55795010999998  14.5454545 4.55795010999998  Z M 2.14876033 4.55795010999998  L 2.97520661 4.55795010999998  C 3.24906682 4.55795010999998  3.47107438 4.78466352999999  3.47107438 5.06432869999998  C 3.47107438 5.34399388000003  3.24906682 5.57070728999997  2.97520661 5.57070728999997  L 2.14876033 5.57070728999997  C 1.87490012 5.57070728999997  1.65289256 5.34399388000003  1.65289256 5.06432869999998  C 1.65289256 4.78466352999999  1.87490012 4.55795010999998  2.14876033 4.55795010999998  Z M 4.62809917 4.55795010999998  L 5.45454545 4.55795010999998  C 5.72840566 4.55795010999998  5.95041322 4.78466352999999  5.95041322 5.06432869999998  C 5.95041322 5.34399388000003  5.72840566 5.57070728999997  5.45454545 5.57070728999997  L 4.62809917 5.57070728999997  C 4.35423897 5.57070728999997  4.1322314 5.34399388000003  4.1322314 5.06432869999998  C 4.1322314 4.78466352999999  4.35423897 4.55795010999998  4.62809917 4.55795010999998  Z M 7.10743802 4.55795010999998  L 7.9338843 4.55795010999998  C 8.2077445 4.55795010999998  8.42975207 4.78466352999999  8.42975207 5.06432869999998  C 8.42975207 5.34399388000003  8.2077445 5.57070728999997  7.9338843 5.57070728999997  L 7.10743802 5.57070728999997  C 6.83357781 5.57070728999997  6.61157025 5.34399388000003  6.61157025 5.06432869999998  C 6.61157025 4.78466352999999  6.83357781 4.55795010999998  7.10743802 4.55795010999998  Z M 9.58677686 4.55795010999998  L 10.4132231 4.55795010999998  C 10.6870833 4.55795010999998  10.9090909 4.78466352999999  10.9090909 5.06432869999998  C 10.9090909 5.34399388000003  10.6870833 5.57070728999997  10.4132231 5.57070728999997  L 9.58677686 5.57070728999997  C 9.31291665 5.57070728999997  9.09090909 5.34399388000003  9.09090909 5.06432869999998  C 9.09090909 4.78466352999999  9.31291665 4.55795010999998  9.58677686 4.55795010999998  Z M 12.0661157 4.55795010999998  L 12.892562 4.55795010999998  C 13.1664222 4.55795010999998  13.3884298 4.78466352999999  13.3884298 5.06432869999998  C 13.3884298 5.34399388000003  13.1664222 5.57070728999997  12.892562 5.57070728999997  L 12.0661157 5.57070728999997  C 11.7922555 5.57070728999997  11.5702479 5.34399388000003  11.5702479 5.06432869999998  C 11.5702479 4.78466352999999  11.7922555 4.55795010999998  12.0661157 4.55795010999998  Z M 14.5454545 15.3300038  L 15.3719008 15.3300038  C 15.645761 15.3300038  15.8677686 15.5567172  15.8677686 15.8363824  C 15.8677686 16.1160476  15.645761 16.342761  15.3719008 16.342761  L 14.5454545 16.342761  C 14.2715943 16.342761  14.0495868 16.1160476  14.0495868 15.8363824  C 14.0495868 15.5567172  14.2715943 15.3300038  14.5454545 15.3300038  Z M 14.4628099 10.4503555  C 14.4628099 9.93989049999999  14.8719574 9.52966720000001  15.3719008 9.52966720000001  C 15.8718443 9.52966720000001  16.2809917 9.93989049999999  16.2809917 10.4503555  C 16.2809917 10.9608205  15.8718443 11.3710439  15.3719008 11.3710439  C 14.8719574 11.3710439  14.4628099 10.9608205  14.4628099 10.4503555  Z " fill-rule="nonzero" fill="#ffffff" stroke="none" transform="matrix(1 0 0 1 40 331 )" />
  </g>
</svg>