<?xml version="1.0" encoding="utf-8"?>
<svg version="1.1" xmlns:xlink="http://www.w3.org/1999/xlink" width="21px" height="19px" xmlns="http://www.w3.org/2000/svg">
  <g transform="matrix(1 0 0 1 -209 -330 )">
    <path d="M 4.74942514 2.07451727  C 4.47203637999999 1.91295493000001  4.47234943000001 1.51005115999999  4.74998891999999 1.34892502000002  C 6.27306157000001 0.465020442000025  8.17803462000001 0.921765588000028  9.15321152999999 2.33812596000001  C 14.1717456 1.35687273000002  18.9789155 4.45552077999997  19.3145061 8.79348012000003  C 19.8090886 8.62716997000001  20.1665895 8.15615508000002  20.1665895 7.60184322999999  C 20.1665895 7.37040661999998  20.3531368 7.18279017999998  20.5832545 7.18279017999998  C 20.8133722 7.18279017999998  20.9999194 7.37040661999998  20.9999194 7.60184322999999  C 20.9999194 8.61963172999998  20.2774007 9.46852515  19.3203452 9.65774482  C 19.1701339 12.1429645  17.5345057 14.2804957  15.166508 15.4500378  L 15.1666104 18.0780856  C 15.1666104 18.3095222  14.9800631 18.4971386  14.7499454 18.4971386  C 14.5198278 18.4971386  14.3332805 18.3095222  14.3332805 18.0780856  L 14.3341947 15.8095058  C 13.3122025 16.1909401  12.1841361 16.4022086  10.99987773 16.4022086  C 9.88824751999999 16.4022086  8.81660839 16.2142379  7.83295017 15.8684021  L 7.83331175999999 18.0780856  C 7.83331175999999 18.3095222  7.60945414 18.4971386  7.33331175999999 18.4971386  C 7.05716939000001 18.4971386  6.83331175999999 18.3095222  6.83331175999999 18.0780856  L 6.83267438000001 15.4476479  C 5.34747218000001 14.7134415  4.13777458000001 13.5920167  3.4081051 12.2116782  L 1.416584331 12.2116782  C 1.18646664400001 12.2116782  0.999919399999811 12.0240617  0.999919399999811 11.7926251  L 0.999919399999811 8.44020074999997  C 0.999919399999811 8.20876414999998  1.18646664400001 8.02114770999998  1.416584331 8.02114770999998  L 2.79648868000001 8.02114770999998  C 3.16276397999999 6.26822020999998  4.28721934000001 4.71097493000002  5.92410663000001 3.63613450999998  C 5.759817 2.97995177000001  5.33548596 2.41586259000002  4.74942514 2.07451727  Z M 9.04651917999999 3.21692156  C 8.86720219 3.25757833  8.68258037999999 3.17525140999999  8.59214119000001 3.01430443999999  C 8.02185613 1.99941634999999  6.86218703 1.53462580000001  5.78990586 1.81673204999998  C 6.33090064000001 2.33114640999997  6.69351304 3.01960887000001  6.79998739000001 3.77969965  C 6.82325968000001 3.94583404000002  6.74576388 4.10991502000002  6.60301931999999 4.19673790000002  C 4.92213781999999 5.21911648000003  3.81246633999999 6.77396888999999  3.55704546999999 8.50182511000003  C 3.52668528999999 8.70720388000001  3.35136334000001 8.85925379999998  3.14491046000001 8.85925379999998  L 1.83324926099999 8.85925379999998  L 1.83324926099999 11.3735721  L 3.66407497 11.3735721  C 3.82414772999999 11.3735721  3.97006870000001 11.4657999  4.03950189 11.6108566  C 4.69015286999999 12.970168  5.87158887999999 14.0742662  7.34767399 14.7666753  C 7.49582525 14.7681115  7.62705664000001 14.8251589  7.71571803000001 14.9132766  L 7.73476721 14.9360323  C 8.72843458 15.3403168  9.83857942 15.5641025  10.99987773 15.5641025  C 15.1567446 15.5641025  18.4998465 12.7328391  18.4998465 9.27830684999998  C 18.4998465 5.18321500000002  13.8661779 2.12415420000002  9.04651917999999 3.21692156  Z M 5.16665204 8.02089626999998  C 5.16665204 7.55949817999999  5.54018138999999 7.18279017999998  5.99998189999999 7.18279017999998  C 6.45978241 7.18279017999998  6.83331175999999 7.55949817999999  6.83331175999999 8.02089626999998  C 6.83331175999999 8.48365016000002  6.46009863 8.85900236999998  5.99998189999999 8.85900236999998  C 5.53986517000001 8.85900236999998  5.16665204 8.48365016000002  5.16665204 8.02089626999998  Z M 10.16755923 4.71117550999998  C 10.15220922 4.48025438000002  10.32589733 4.28054085000002  10.55550249 4.26510286000001  C 12.1485493 4.15799099999998  13.7191968 4.62332141000002  15.0000546 5.59013653  C 15.1841031 5.72905972000001  15.2213262 5.99173513  15.0831947 6.17683848000001  C 14.9450632 6.36194183999999  14.6838847 6.39937824999998  14.4998363 6.26045506000003  C 13.3790193 5.41444172000001  12.005699 5.00757277999998  10.61108978 5.10134226999998  C 10.38148463 5.11678025999998  10.18290923 4.94209665  10.16755923 4.71117550999998  Z " fill-rule="nonzero" fill="#ffffff" stroke="none" transform="matrix(1 0 0 1 209 330 )" />
  </g>
</svg>