<?xml version="1.0" encoding="utf-8"?>
<svg version="1.1" xmlns:xlink="http://www.w3.org/1999/xlink" width="30px" height="19px" xmlns="http://www.w3.org/2000/svg">
  <g transform="matrix(1 0 0 1 -15 -56 )">
    <path d="M 14.3697869 0  L 23.1927698 0  C 23.6772838 0  23.8828833 0.616798399999993  23.4952721 0.907506799999965  L 23.024 1.25999999999999  L 29.4949004 1.26042610000002  C 29.9625538 1.26042610000002  30.1639467 1.82904719999999  29.8453019 2.12811959999999  L 29.7745639 2.18409169999995  L 22.2120071 7.22579619999999  C 22.1567946 7.26260460000003  22.0951421 7.2879686  22.030683 7.30078809999998  L 21.9323437 7.31047149999995  L 16.134 7.30999999999995  L 16.134 8.822  L 21.7780675 8.82298289999994  L 29.215237 3.86595369999998  C 29.4469178 3.71149979999996  29.7599417 3.77410459999999  29.9143956 4.00578540000004  C 30.0516879 4.21172390000004  30.0174771 4.48193349999997  29.8454629 4.64791549999995  L 29.7745639 4.70494399999995  L 22.2120071 9.74664849999999  C 22.1567946 9.78345690000003  22.0951421 9.8088209  22.030683 9.82164039999998  L 21.9323437 9.83132379999995  L 16.134 9.83100000000002  L 16.134 11.343  L 21.7780675 11.3438351  L 29.215237 6.38680590000001  C 29.4469178 6.23235199999999  29.7599417 6.29495680000002  29.9143956 6.52663759999996  C 30.0516879 6.73257609999996  30.0174771 7.0027857  29.8454629 7.16876779999996  L 29.7745639 7.22579619999999  L 22.2120071 12.2675007  C 22.1567946 12.3043091  22.0951421 12.3296731  22.030683 12.3424926  L 21.9323437 12.352176  L 16.134 12.352  L 16.134 13.864  L 21.7780675 13.8646874  L 29.215237 8.90765810000005  C 29.4469178 8.75320429999999  29.7599417 8.81580910000002  29.9143956 9.04748989999996  C 30.0516879 9.2534283  30.0174771 9.52363800000001  29.8454629 9.68961999999999  L 29.7745639 9.74664849999999  L 22.2120071 14.788353  C 22.1567946 14.8251614  22.0951421 14.8505254  22.030683 14.8633449  L 21.9323437 14.8730283  L 16.134 14.873  L 16.134 16.385  L 21.7780675 16.3855396  L 29.215237 11.4285104000001  C 29.4469178 11.2740565  29.7599417 11.3366613000001  29.9143956 11.5683421  C 30.0516879 11.7742806  30.0174771 12.0444902  29.8454629 12.2104723  L 29.7745639 12.2675007  L 22.2120071 17.3092052  C 22.1567946 17.3460136  22.0951421 17.3713776  22.030683 17.3841971000001  L 21.9323437 17.3938805  L 16.134 17.393  L 16.1343835 18.1501362  C 16.1343835 18.366705  15.9978339 18.551381  15.8061345 18.6227645  L 15.7208383 18.6461838  L 15.6302131 18.6543066  L 6.8072302 18.6543066  C 6.5287845 18.6543066  6.3030597 18.4285818  6.3030597 18.1501362  L 6.303 17.393  L 0.505099600000001 17.3938805  C 0.226653900000002 17.3938805  0.00092910000000046 17.1681556999999  0.00092910000000046 16.8897101  C 0.00092910000000046 16.6422028  0.179279600000001 16.4363516  0.414474300000002 16.3936625  L 0.505099600000001 16.3855396  L 6.303 16.385  L 6.303 14.873  L 0.505099600000001 14.8730283  C 0.226653900000002 14.8730283  0.00092910000000046 14.6473035  0.00092910000000046 14.3688578  C 0.00092910000000046 14.1213506  0.179279600000001 13.9154993  0.414474300000002 13.8728102  L 0.505099600000001 13.8646874  L 6.303 13.864  L 6.303 12.352  L 0.505099600000001 12.352176  C 0.226653900000002 12.352176  0.00092910000000046 12.1264512  0.00092910000000046 11.8480056  C 0.00092910000000046 11.6004983  0.179279600000001 11.3946471  0.414474300000002 11.351958  L 0.505099600000001 11.3438351  L 6.303 11.343  L 6.303 9.83100000000002  L 0.505099600000001 9.83132379999995  C 0.226653900000002 9.83132379999995  0.00092910000000046 9.60559899999998  0.00092910000000046 9.32715329999996  C 0.00092910000000046 9.07964609999999  0.179279600000001 8.87379480000004  0.414474300000002 8.83110569999997  L 0.505099600000001 8.82298289999994  L 6.303 8.822  L 6.303 7.30999999999995  L 0.505099600000001 7.31047149999995  C 0.037446199999998 7.31047149999995  -0.163946699999997 6.74185050000006  0.154698099999997 6.44277810000006  L 0.225436099999996 6.38680590000001  L 7.7879929 1.34510139999998  C 7.8432054 1.30829300000005  7.9048579 1.28292899999997  7.969317 1.27010949999999  L 8.0676563 1.26042610000002  L 12.52 1.25999999999999  L 14.0672847 0.100834100000043  C 14.1327371 0.051744699999972  14.2088067 0.0195701999999756  14.288772 0.00655110000002423  L 14.3697869 0  Z M 15.3277108 5.77275159999999  L 21.6802585 1.00834090000001  L 14.5381799 1.00834090000001  L 7.3114006 6.42817319999995  L 7.3114006 17.6459657  L 15 17.6459657  L 15 6.17608800000005  C 15.1260426 6.04913490000001  15.1738603 5.92810899999995  15.2579873 5.83602670000005  L 15.3277108 5.77275159999999  Z M 6.5047279 5.77275159999999  L 11.176 2.26800000000003  L 8.2199158 2.26876700000003  L 2.1698704 6.30213060000005  L 6.303 6.30200000000002  L 6.3030597 6.17608800000005  C 6.3030597 6.04913490000001  6.3508774 5.92810899999995  6.43500450000001 5.83602670000005  L 6.5047279 5.77275159999999  Z M 21.7780675 6.30213060000005  L 27.8281129 2.26876700000003  L 21.68 2.26800000000003  L 16.302 6.30200000000002  L 21.7780675 6.30213060000005  Z M 10.7145512 6.17608800000005  C 10.7145512 5.8976424  10.940276 5.67191760000003  11.2187216 5.67191760000003  C 11.4662289 5.67191760000003  11.6720801 5.85026800000003  11.7147692 6.08546269999999  L 11.7228921 6.17608800000005  L 11.7225376 6.98542650000002  C 12.803143 7.21677560000001  13.6135313 8.17708389999996  13.6135313 9.32715329999996  C 13.6135313 9.60559899999998  13.3878065 9.83132379999995  13.1093608 9.83132379999995  C 12.8309152 9.83132379999995  12.6051904 9.60559899999998  12.6051904 9.32715329999996  C 12.6051904 8.56119290000004  11.9843962 7.94068460000005  11.2187216 7.94068460000005  C 10.4530471 7.94068460000005  9.8322529 8.56119290000004  9.8322529 9.32715329999996  C 9.8322529 10.0923405  10.4535344 10.7136221  11.2187216 10.7136221  C 12.5411836 10.7136221  13.6135313 11.785476  13.6135313 13.1084317  C 13.6135313 14.2577386  12.8028532 15.2186101  11.722424 15.4501195  L 11.7228921 16.259497  C 11.7228921 16.5379427  11.4971673 16.7636675  11.2187216 16.7636675  C 10.9712144 16.7636675  10.7653631 16.585317  10.722674 16.3501223  L 10.7145512 16.259497  L 10.7140105 15.4499031  C 9.6340855 15.218012  8.823912 14.2573808  8.823912 13.1084317  C 8.823912 12.829986  9.0496368 12.6042612  9.3280824 12.6042612  C 9.6065281 12.6042612  9.8322529 12.829986  9.8322529 13.1084317  C 9.8322529 13.8736189  10.4535344 14.4949004  11.2187216 14.4949004  C 11.9839088 14.4949004  12.6051904 13.8736189  12.6051904 13.1084317  C 12.6051904 12.3875278  12.0552827 11.7954672  11.3522399 11.7283075  L 11.2187216 11.721963  C 9.8966431 11.721963  8.823912 10.6492318000001  8.823912 9.32715329999996  C 8.823912 8.1774418  9.6337959 7.21737340000004  10.7138967 6.98564269999997  L 10.7145512 6.17608800000005  Z " fill-rule="nonzero" fill="#6352ff" stroke="none" transform="matrix(1 0 0 1 15 56 )" />
  </g>
</svg>