<?xml version="1.0" encoding="utf-8"?>
<svg version="1.1" xmlns:xlink="http://www.w3.org/1999/xlink" width="25px" height="25px" xmlns="http://www.w3.org/2000/svg">
  <g transform="matrix(1 0 0 1 -25 -31 )">
    <path d="M 3.14583333 13.5875  C 3.14583333 13.3113576  3.36969096 13.0875  3.64583333 13.0875  C 3.92197571 13.0875  4.14583333 13.3113576  4.14583333 13.5875  L 4.14583333 23.9570652  L 9.39583333 23.9570652  L 9.39583333 16.8483696  C 9.39583333 16.5722272  9.61969096 16.3483696  9.89583333 16.3483696  L 15.1041667 16.3483696  C 15.380309 16.3483696  15.6041667 16.5722272  15.6041667 16.8483696  L 15.6041667 23.9570652  L 20.8541667 23.9570652  L 20.8541667 14.1309783  C 20.8541667 13.8548359  21.0780243 13.6309783  21.3541667 13.6309783  C 21.630309 13.6309783  21.8541667 13.8548359  21.8541667 14.1309783  L 21.8541667 24.4570652  C 21.8541667 24.7332076  21.630309 24.9570652  21.3541667 24.9570652  L 15.1041667 24.9570652  C 14.8280243 24.9570652  14.6041667 24.7332076  14.6041667 24.4570652  L 14.6041667 17.3483696  L 10.3958333 17.3483696  L 10.3958333 24.4570652  C 10.3958333 24.7332076  10.1719757 24.9570652  9.89583333 24.9570652  L 3.64583333 24.9570652  C 3.36969096 24.9570652  3.14583333 24.7332076  3.14583333 24.4570652  L 3.14583333 13.5875  Z M 0.159839230999999 12.6980691  L 12.1390059 0.198069057999987  C 12.3358441 -0.00732736700001624  12.6641559 -0.00732736700001624  12.8609941 0.198069057999987  L 24.8401608 12.6980691  C 25.0312252 12.8974406  25.0244909 13.2139515  24.8251193 13.4050158  C 24.6257478 13.5960802  24.309237 13.589346  24.1181726 13.3899744  L 12.5 1.26666392000004  L 0.881827436000002 13.3899744  C 0.690763046000001 13.589346  0.374252189 13.5960802  0.174880651999999 13.4050158  C -0.0244908859000006 13.2139515  -0.0312251594000017 12.8974406  0.159839230999999 12.6980691  Z " fill-rule="nonzero" fill="#a9a9a9" stroke="none" transform="matrix(1 0 0 1 25 31 )" />
  </g>
</svg>