<?xml version="1.0" encoding="utf-8"?>
<svg version="1.1" xmlns:xlink="http://www.w3.org/1999/xlink" width="20px" height="20px" xmlns="http://www.w3.org/2000/svg">
  <g transform="matrix(1 0 0 1 -305 0 )">
    <path d="M 0 10  C 0 4.47655301999998  4.47655301999998 0  10 0  C 15.523447 0  20 4.47655301999998  20 10  C 20 15.523447  15.523447 20  10 20  C 4.47655301999998 20  0 15.523447  0 10  Z M 19.0082645 10  C 19.0082645 5.02427342999999  14.9757266 0.991735536999954  10 0.991735536999954  C 5.02427342999999 0.991735536999954  0.991735537000011 5.02427342999999  0.991735537000011 10  C 0.991735537000011 14.9757266  5.02427342999999 19.0082645  10 19.0082645  C 14.9757266 19.0082645  19.0082645 14.9757266  19.0082645 10  Z M 6.80644129000001 5.01893924000001  C 6.58880619000001 4.85270333999995  6.54713889999999 4.54151440999999  6.71337481 4.32387931000005  C 6.87961071000001 4.10624419999999  7.19079964000002 4.06457692000004  7.40843474000002 4.23081281999998  L 14.4456248 9.60601942999995  C 14.7055499 9.80455764999999  14.7054338 10.1959406  14.4453909 10.3943245  L 7.40820077000001 15.7629195  C 7.19046702999998 15.9290262  6.87930288000001 15.8871742  6.71319620000003 15.6694404  C 6.54708951999999 15.4517067  6.58894151999999 15.1405426  6.80667526000002 14.9744359  L 13.3274085 9.99984009000002  L 6.80644129000001 5.01893924000001  Z " fill-rule="nonzero" fill="#a9a9a9" stroke="none" transform="matrix(1 0 0 1 305 0 )" />
  </g>
</svg>