<?xml version="1.0" encoding="utf-8"?>
<svg version="1.1" xmlns:xlink="http://www.w3.org/1999/xlink" width="25px" height="14px" xmlns="http://www.w3.org/2000/svg">
  <g transform="matrix(1 0 0 1 -325 -37 )">
    <path d="M 0.482098091000012 13  L 24.5179019 13  C 24.7841573 13.0232558  25 13.2419073999999  25 13.5116278999999  C 25 13.7813484000001  24.7841573 14  24.5179019 14  L 0.482098091000012 14  C 0.215842667000004 14  0 13.7813484000001  0 13.5116278999999  C 0 13.2419073999999  0.215842667000004 13.0232558  0.482098091000012 13  Z M 0.482098091000012 6.51162789999989  L 24.5179019 6.51162789999989  C 24.7841573 6.51162789999989  25 6.7354855000001  25 7.01162789999989  C 25 7.28777029999992  24.7841573 7.51162789999989  24.5179019 7.51162789999989  L 0.482098091000012 7.51162789999989  C 0.215842667000004 7.51162789999989  0 7.28777029999992  0 7.01162789999989  C 0 6.7354855000001  0.215842667000004 6.51162789999989  0.482098091000012 6.51162789999989  Z M 0.482098091000012 0  L 12.4654496 0  C 12.7317051 0  12.9475477 0.223857630000111  12.9475477 0.5  C 12.9475477 0.776142369999889  12.7317051 1  12.4654496 1  L 0.482098091000012 1  C 0.215842667000004 1  0 0.776142369999889  0 0.5  C 0 0.223857630000111  0.215842667000004 0  0.482098091000012 0  Z " fill-rule="nonzero" fill="#a9a9a9" stroke="none" transform="matrix(1 0 0 1 325 37 )" />
  </g>
</svg>