<?xml version="1.0" encoding="utf-8"?>
<svg version="1.1" xmlns:xlink="http://www.w3.org/1999/xlink" width="26px" height="26px" xmlns="http://www.w3.org/2000/svg">
  <g transform="matrix(1 0 0 1 -260 -31 )">
    <path d="M 13.5416667 11.0416667  C 13.5416667 11.3868445999999  13.8214887 11.6666667  14.1666667 12  L 24.5833333 12  C 24.9285113 11.6666667  25.2083333 11.3868445999999  25.2083333 11.0416667  C 25.2083333 4.94405525999991  20.2646196 0  14.1666667 0  C 13.8214887 0  13.5416667 0.279822031000094  13.5416667 0.625  L 13.5416667 11.0416667  Z M 0 14.1666667  C 0 8.06905525999991  4.94371376999999 3.125  11.0416667 3.125  C 11.3868446 3.125  11.6666667 3.4048220300001  11.6666667 3.75  L 11.6666667 13.5416667  L 21.4583333 13.5416667  C 21.8035113 13.5416667  22.0833333 13.8214886999999  22.0833333 14.1666667  C 22.0833333 20.2649696000001  17.1399696 25.2083333  11.0416667 25.2083333  C 4.94336370000002 25.2083333  0 20.2649696000001  0 14.1666667  Z M 10.4166667 14.1666667  L 10.4166667 4.39462868999999  C 5.30028492999998 4.71697739999991  1.25 8.96932167  1.25 14.1666667  C 1.25 19.5746137000001  5.63371963999998 23.9583333  11.0416667 23.9583333  C 16.2396713 23.9583333  20.4914281 19.9083687  20.8137101 14.7916666999999  L 11.0416667 14.7916666999999  C 10.6964887 14.7916666999999  10.4166667 14.5118445999999  10.4166667 14.1666667  Z M 14.7916667 10.4166667  L 14.7916667 1.26962868999999  C 19.701378 1.57895649000011  23.6293805 5.50719688999993  23.9387039 10.4166667  L 14.7916667 10.4166667  Z " fill-rule="nonzero" fill="#a9a9a9" stroke="none" transform="matrix(1 0 0 1 260 31 )" />
  </g>
</svg>