<?xml version="1.0" encoding="utf-8"?>
<svg version="1.1" xmlns:xlink="http://www.w3.org/1999/xlink" width="25px" height="25px" xmlns="http://www.w3.org/2000/svg">
  <g transform="matrix(1 0 0 1 -325 -63 )">
    <path d="M 0.500834725060667 21.7277487  L 0.395721264060897 21.7188012  C -0.164883859937664 21.619347  -0.129846039937794 20.7242583  0.500834725060667 20.7242583  L 0.666546558060245 20.7188265  C 2.03683749005684 20.6287416  3.13021703005413 19.4292625  3.13021703005413 17.9537522  L 3.13021703005413 11.9546248  C 3.13021703005413 7.94502900000001  5.47082165004836 4.39643839999999  8.96643446003972 2.91166411  C 9.34416161003878 1.23068673  10.7937631000352 0  12.5000000000309 0  C 14.2055690000268 0  15.6519499000231 1.22996329999999  16.0303065000222 2.91163713  L 16.2903375000216 3.02687852  C 19.6421570000133 4.57467774  21.8697830000077 8.04654408  21.8697830000077 11.9546248  L 21.8697830000077 17.9537522  C 21.8697830000077 19.4894871  23.0504141000048 20.7242583  24.4991653000013 20.7242583  C 25.1669448999996 20.7242583  25.1669448999996 21.7277487  24.4991653000013 21.7277487  L 16.099173000022 21.7279148  C 15.8631695000227 23.571382  14.3452858000264 25  12.5000000000309 25  C 10.6527584000355 25  9.13651045003928 23.5722728  8.90078774003986 21.7281335  L 0.500834725060667 21.7277487  Z M 12.5000000000309 23.9965096  C 13.7851147000278 23.9965096  14.8617885000251 23.021325  15.0863640000245 21.7279322  L 9.91341556003733 21.7273555  C 10.1373249000368 23.0218258  11.2128403000341 23.9965096  12.5000000000309 23.9965096  Z M 4.13188648005166 17.9537522  C 4.13188648005166 19.0471296  3.68364119005278 20.034088  2.96638600005456 20.7242583  L 22.0323868000073 20.7242583  L 21.8829780000077 20.5719278  C 21.2539632000093 19.8927446  20.8681135000102 18.9693632  20.8681135000102 17.9537522  L 20.8681135000102 11.9546248  C 20.8681135000102 8.26036564  18.6605316000157 5.00734469  15.4071052000237 3.74102937000001  C 15.2392943000242 3.67571316999999  15.1193876000244 3.52519156  15.0930390000245 3.3467752  C 14.894376000025 2.00154920999999  13.7944891000278 1.0034904  12.5000000000309 1.0034904  C 11.2043944000342 1.0034904  10.1014340000369 2.00267216  9.90387845003736 3.34645146  C 9.87762633003744 3.52501931  9.75765981003775 3.67570055  9.58971582003814 3.74104835  C 6.3368340400462 5.00675993  4.13188648005166 8.25879929999999  4.13188648005166 11.9546248  L 4.13188648005166 17.9537522  Z " fill-rule="nonzero" fill="#ffffff" stroke="none" transform="matrix(1 0 0 1 325 63 )" />
  </g>
</svg>