<?xml version="1.0" encoding="utf-8"?>
<svg version="1.1" xmlns:xlink="http://www.w3.org/1999/xlink" width="16px" height="12px" xmlns="http://www.w3.org/2000/svg">
  <g transform="matrix(1 0 0 1 -315 -17 )">
    <path d="M 8.330333 2.608  C 10.546226 2.6080971  12.677386 3.4595347  14.283333 4.9863333  C 14.404265 5.1042079  14.597562 5.102721  14.716667 4.983  L 15.872667 3.8163333  C 15.932975 3.7556112  15.966599 3.6733595  15.966104 3.5877792  C 15.965598 3.5021988  15.931014 3.420346  15.87 3.3603333  C 11.654902 -0.679214200000001  5.00509799999998 -0.679214200000001  0.79000000000002 3.3603333  C 0.72894100000002 3.4203015  0.694297000000006 3.5021294  0.693727000000024 3.5877099  C 0.693171000000007 3.6732903  0.726736000000017 3.755567  0.786999999999978 3.8163333  L 1.943333 4.983  C 2.06236200000001 5.1029017  2.255808 5.1043897  2.376667 4.9863333  C 3.98281900000001 3.4594344  6.11422299999998 2.6079944  8.330333 2.608  Z M 8.330333 6.4036667  C 9.54782299999999 6.4035921  10.721865 6.8561245  11.624333 7.6733333  C 11.746397 7.7893139  11.938678 7.7867994  12.057667 7.6676667  L 13.212333 6.501  C 13.273141 6.439805  13.30688 6.3567887  13.30602 6.2705239  C 13.305126 6.1842592  13.269706 6.101946  13.207667 6.042  C 10.459468 3.4856177  6.203532 3.4856177  3.455333 6.042  C 3.39325600000001 6.1019453  3.35783700000002 6.1842997  3.35700800000001 6.2705923  C 3.35620799999998 6.356885  3.39006499999999 6.4398934  3.45100000000002 6.501  L 4.60533299999997 7.6676667  C 4.72432199999997 7.7867994  4.91660300000001 7.7893139  5.03866699999998 7.6733333  C 5.940539 6.8566645  7.11364900000001 6.4041708  8.330333 6.4036667  Z M 8.55200000000002 11.2036667  L 10.549333 9.188  C 10.611087 9.127394  10.645095 9.0439919  10.643328 8.957485  C 10.641561 8.8709782  10.604176 8.7890342  10.54 8.731  C 9.26442800000001 7.6521162  7.39623799999998 7.6521162  6.12066700000003 8.731  C 6.05644599999999 8.7889875  6.01900000000001 8.8709057  6.01717000000002 8.957413  C 6.01533999999998 9.0439203  6.04928899999999 9.1273487  6.11099999999999 9.188  L 8.10866700000003 11.2036667  C 8.16721699999999 11.2629057  8.24704200000002 11.2962443  8.330333 11.2962443  C 8.41362400000003 11.2962443  8.49345 11.2629057  8.55200000000002 11.2036667  Z " fill-rule="nonzero" fill="#ffffff" stroke="none" transform="matrix(1 0 0 1 315 17 )" />
  </g>
</svg>