<?xml version="1.0" encoding="utf-8"?>
<svg version="1.1" xmlns:xlink="http://www.w3.org/1999/xlink" width="18px" height="25px" xmlns="http://www.w3.org/2000/svg">
  <g transform="matrix(1 0 0 1 -289 -103 )">
    <path d="M 0.520833330000016 8.35416667000001  L 5.72916666999998 8.35416667000001  C 6.00530900000001 8.35416667000001  6.22916670000001 8.57802429  6.22916670000001 8.85416667000001  C 6.22916670000001 9.13030903999999  6.00530900000001 9.35416667000001  5.72916666999998 9.35416667000001  L 1 9.35416667000001  L 1 24  L 16.6875 24  L 16.6875 9.35416667000001  L 11.9791667 9.35416667000001  C 11.7030243 9.35416667000001  11.4791667 9.13030903999999  11.4791667 8.85416667000001  C 11.4791667 8.57802429  11.7030243 8.35416667000001  11.9791667 8.35416667000001  L 17.1875 8.35416667000001  C 17.4636424 8.35416667000001  17.6875 8.57802429  17.6875 8.85416667000001  L 17.6875 24.4791667  C 17.6875 24.755309  17.4636424 24.9791667  17.1875 25  L 0.520833330000016 25  C 0.244690960000014 24.9791667  0.0208333300000163 24.755309  0 24.4791667  L 0 8.85416667000001  C 0.0208333300000163 8.57802429  0.244690960000014 8.35416667000001  0.520833330000016 8.35416667000001  Z M 8.84362929999998 0.0209436890999939  L 8.85416670000001 0.0208333333000041  C 8.85791669999998 0.0208333333000041  8.86165720000002 0.0208746179000059  8.86538760000002 0.0209567571999969  C 8.88644440000002 0.0214414996000016  8.90715740000002 0.02319985150001  8.92771729999998 0.0262407660000008  C 8.9382607 0.027752950900009  8.94898069999999 0.0296908807000023  8.95957609999999 0.0319645273000049  C 8.97525719999999 0.0353700137000033  8.99096959999997 0.0395420348000073  9.00648810000001 0.0444903243999875  C 9.02001780000001 0.0487992792999989  9.0327375 0.0534676194000099  9.0452032 0.0586255705999861  C 9.05856290000003 0.0641184081000006  9.07237240000001 0.0705463227000109  9.08592490000001 0.0776383008999915  C 9.0982133 0.0841266749999932  9.10984910000002 0.0908526688999984  9.12117699999999 0.0980213391000007  C 9.15176020000001 0.117299150000008  9.1808858 0.140445671000009  9.20772010000002 0.167279943000011  L 9.15631059999998 0.122416066999989  C 9.16992090000002 0.132753586000007  9.18298540000001 0.143772536  9.19545310000001 0.155422082000001  L 9.20772010000002 0.167279943000011  L 13.8952201 4.85477994000001  C 14.0904822 5.05004209000001  14.0904822 5.36662458000001  13.8952201 5.56188671999999  C 13.6999579 5.75714887000001  13.3833754 5.75714887000001  13.1881133 5.56188671999999  L 9 1.72783333000001  L 9 14.0625  C 9.35416670000001 14.3079599  9.17729150000002 14.5121084  8.94404229999998 14.5544443  L 8.85416670000001 14.5625  C 8.57802429999998 14.5625  8.35416670000001 14.3386424  8.35416670000001 14.0625  L 8.35383330000002 1.72783333000001  L 4.52022005999999 5.56188671999999  C 4.34665371 5.73545308000001  4.0772293 5.75473822999999  3.88236116000002 5.61974216999999  L 3.81311327999998 5.56188671999999  C 3.61785113000002 5.36662458000001  3.61785113000002 5.05004209000001  3.81311327999998 4.85477994000001  L 8.5006133 0.167279943000011  C 8.50557229999998 0.162320904000012  8.51060960000001 0.157487809000003  8.51572119999997 0.152780658000012  C 8.527083 0.142306490999999  8.53945759999999 0.131944919000006  8.5523187 0.122191445999988  C 8.56247780000001 0.114438709000012  8.57285780000001 0.107171776000001  8.583439 0.100344511999992  C 8.59803390000002 0.0909972711999956  8.61275610000001 0.0825367440000093  8.6279242 0.074827232399997  C 8.63814509999997 0.0695969116999891  8.64892620000001 0.0645957208000141  8.65983740000001 0.0599991299999942  C 8.67435929999999 0.0538786929000139  8.68900230000003 0.0484939376  8.70394809999999 0.0437921600999971  C 8.71881569999999 0.0391539400000056  8.73393629999998 0.0351773419999972  8.74917959999999 0.0319190149000121  C 8.78286600000001 0.0246584882000036  8.8180696 0.0208333333000041  8.85416670000001 0.0208333333000041  L 8.7802489 0.026295204399986  C 8.80126089999999 0.0231715364000138  8.82243369999998 0.0213876980000123  8.84362929999998 0.0209436890999939  Z " fill-rule="nonzero" fill="#ffffff" stroke="none" transform="matrix(1 0 0 1 289 103 )" />
  </g>
</svg>