<?xml version="1.0" encoding="utf-8"?>
<svg version="1.1" xmlns:xlink="http://www.w3.org/1999/xlink" width="25px" height="25px" xmlns="http://www.w3.org/2000/svg">
  <g transform="matrix(1 0 0 1 -272 -15 )">
    <path d="M 10.9348915 0  L 14.0651085 0  C 14.3417119 0  14.5659432 0.224231343999975  14.5659432 0.500834725000004  L 14.5659432 3.49728406999998  C 15.6194212 3.7622801  16.4181242 4.01531101  17.0232304 4.31575981999998  L 19.1544894 2.18542868999998  C 19.35009 1.98991325999998  19.6671415 1.98994777000001  19.8626996 2.18550578999998  L 22.8144942 5.13730043999999  C 23.0101125 5.33291868999999  23.0100779 5.65008920000002  22.8144171 5.84566482999998  L 20.6841872 7.97496687  C 20.9850759 8.58146898000001  21.2391523 9.38274739000002  21.5037349 10.4340568  L 24.4991653 10.4340568  C 24.7757687 10.4340568  25 10.6582881  25 10.9348915  L 25 14.0651085  C 25 14.3417119  24.7757687 14.5659432  24.4991653 14.5659432  L 21.5043965 14.5659432  L 21.3279213 15.2325545  C 21.1228395 15.9672156  20.9178484 16.5541441  20.6842779 17.0243115  L 22.8145713 19.1555328  C 23.0100867 19.3511334  23.0100522 19.6681849  22.8144942 19.863743  L 19.863743 22.8144942  C 19.668215 23.0100221  19.3512229 23.0100911  19.1556099 22.8146484  L 17.0234617 20.6843558  C 16.4194636 20.9846388  15.6222454 21.237652  14.5659432 21.5043958  L 14.5659432 24.4991653  C 14.5659432 24.7757687  14.3417119 25  14.0651085 25  L 10.9348915 25  C 10.6582881 25  10.4340568 24.7757687  10.4340568 24.4991653  L 10.4340568 21.5043934  C 9.37733055000001 21.2375291  8.57968734000002 20.9842953  7.97468029999999 20.6834305  L 5.84462138999999 22.8144171  C 5.64907018999997 23.0100535  5.33194801000002 23.010116  5.13631965000002 22.8145568  L 2.18452499 19.8638056  C 1.98887783999999 19.6682276  1.98884980999998 19.3510683  2.18446238000001 19.1554557  L 4.31568376000001 17.0242343  C 4.01539560999998 16.4197426  3.76234431 15.6222513  3.49560353999999 14.5659432  L 0.500834725000004 14.5659432  C 0.224231343999975 14.5659432  0 14.3417119  0 14.0651085  L 0 10.9348915  C 0 10.6582881  0.224231343999975 10.4340568  0.500834725000004 10.4340568  L 3.49560353999999 10.4340568  C 3.76233294999997 9.37779363999999  4.01537404999999 8.58032529000002  4.31564538999999 7.97584291999999  L 2.18453949000002 5.84566480000001  C 1.98887867000002 5.65008915999999  1.98884414000003 5.33291867999998  2.18446238000001 5.13730043999999  L 5.13625703999998 2.18550578999998  C 5.33181504999999 1.98994777000001  5.64886660000002 1.98991325999998  5.84446717999998 2.18542868999998  L 7.97573162999998 4.31576529  C 8.58073709000001 4.01540058  9.37930717 3.76253832999998  10.4340568 3.49727467000002  L 10.4340568 0.500834725000004  C 10.4340568 0.224231343999975  10.6582881 0  10.9348915 0  Z M 13.5642738 3.88981636  L 13.5642738 1.00166945000001  L 11.4357262 1.00166945000001  L 11.4357262 3.88981636  C 11.4357262 4.12120850000002  11.2772097 4.32247785999999  11.0522612 4.37670420000001  C 9.68180224999998 4.70706859000001  8.72464697999999 5.01060094000002  8.14817032000002 5.36271912000001  C 7.95081885000002 5.48326352999999  7.69659408000001 5.45301546000002  7.53303699000003 5.28952957000001  L 5.49047775999998 3.24785958000001  L 3.24697037999999 5.49136695999999  L 5.28937536000001 7.53288278000002  C 5.45299003999997 7.69642622999999  5.48330597 7.95074936999998  5.36271912000001 8.14817032000002  C 5.06478935000001 8.63593144999999  4.80162969999998 9.39475202  4.52621404000001 10.4485773  L 4.37448919000002 11.0527917  C 4.32006570999999 11.277483  4.11891793000001 11.4357262  3.88772955000002 11.4357262  L 1.00166945000001 11.4357262  L 1.00166945000001 13.5642738  L 3.88772955000002 13.5642738  C 4.11891793000001 13.5642738  4.32006570999999 13.722517  4.37448919000002 13.9472083  C 4.70708471 15.3203526  5.01062030000003 16.2753847  5.36271912000001 16.8518297  C 5.48328475 17.0492159  5.45300276 17.3034898  5.28945248000002 17.4670401  L 3.24695587999997 19.5095367  L 5.49026096 21.7520488  L 7.53183937 19.7095812  C 7.69543336999999 19.545916  7.94985451000002 19.5156377  8.14729034999999 19.6363373  C 8.63571690999999 19.9349301  9.39448440000001 20.1982524  10.4484659 20.473748  L 11.0527917 20.6255108  C 11.277483 20.6799343  11.4357262 20.8810821  11.4357262 21.1122705  L 11.4357262 23.9983306  L 13.5642738 23.9983306  L 13.5642738 21.1122705  C 13.5642738 20.8810821  13.722517 20.6799343  13.9472083 20.6255108  C 15.3203807 20.2929085  16.2750706 19.98941  16.8505291 19.6374381  C 17.0478693 19.5167374  17.302199 19.5468923  17.4658425 19.7103934  L 19.5094452 21.7522175  L 21.7521404 19.5095222  L 19.7104704 17.466963  C 19.5469845 17.3034059  19.5167365 17.0491812  19.6372809 16.8518297  C 19.9352107 16.3640685  20.1983703 15.605248  20.473786 14.5514227  L 20.6255108 13.9472083  C 20.6799343 13.722517  20.8810821 13.5642738  21.1122705 13.5642738  L 23.9983306 13.5642738  L 23.9983306 11.4357262  L 21.111227 11.4357262  C 20.8798349 11.4357262  20.6785655 11.2772097  20.6243392 11.0522612  C 20.295332 9.68743228  19.9897094 8.72489157000001  19.6371242 8.14687019000002  C 19.5167144 7.94947268999999  19.5470894 7.6953034  19.7106247 7.53183933999998  L 21.7519862 5.49136693000003  L 19.5084788 3.24785958000001  L 17.4659196 5.28952957000001  C 17.3023625 5.45301546000002  17.0481377 5.48326352999999  16.8507863 5.36271912000001  C 16.2741331 5.01049313999999  15.3164155 4.70663896000002  13.9477388 4.37670420000001  C 13.7227903 4.32247785999999  13.5642738 4.12120850000002  13.5642738 3.88981636  Z M 12.5001043 7.30383972999999  C 15.3695708 7.30383972999999  17.6962646 9.63053351000002  17.6962646 12.5  C 17.6962646 15.3701668  15.369914 17.6961603  12.5001043 17.6961603  C 9.63029466 17.6961603  7.30394407 15.3701668  7.30394407 12.5  C 7.30394407 9.63053351000002  9.63063784999997 7.30383972999999  12.5001043 7.30383972999999  Z M 16.6945952 12.5  C 16.6945952 10.1837403  14.8163641 8.30550918  12.5001043 8.30550918  C 10.1838446 8.30550918  8.30561352000001 10.1837403  8.30561352000001 12.5  C 8.30561352000001 14.8169256  10.183467 16.6944908  12.5001043 16.6944908  C 14.8167417 16.6944908  16.6945952 14.8169256  16.6945952 12.5  Z " fill-rule="nonzero" fill="#472c90" stroke="none" transform="matrix(1 0 0 1 272 15 )" />
  </g>
</svg>