<?xml version="1.0" encoding="utf-8"?>
<svg version="1.1" xmlns:xlink="http://www.w3.org/1999/xlink" width="19px" height="25px" xmlns="http://www.w3.org/2000/svg">
  <g transform="matrix(1 0 0 1 -112 -15 )">
    <path d="M 0.50779510000001 0  L 12.1447661 0  C 12.1741499 0  12.2032711 0.00251185336998105  12.2318346 0.00741499739001483  C 12.2405107 0.00880097240002442  12.2497277 0.010624252599996  12.2588509 0.0126899307999793  C 12.2778061 0.0171262052999737  12.2961322 0.0223986920000243  12.3140884 0.028662915200016  C 12.3233513 0.0317497139000125  12.332446 0.0352200116000176  12.3414098 0.0389367312000104  C 12.3573223 0.0456561161000195  12.3732224 0.053210345000025  12.3887013 0.0615716290000137  C 12.4008934 0.0680653398000004  12.4127559 0.0751279126999975  12.4242893 0.0826421697000228  C 12.4349041 0.0896078686999999  12.4452997 0.0969341887000041  12.4554244 0.104657512000017  C 12.4666374 0.113200565999989  12.477355 0.122114220000014  12.4876802 0.131443457999978  C 12.4931103 0.136348662999978  12.4985236 0.141455946000008  12.5038315 0.146691094999994  L 18.8512703 6.40712515000001  L 18.8674564 6.42383896000001  C 18.8747051 6.43167620000003  18.8817048 6.43974134000001  18.8884431 6.44802220999998  L 18.8512703 6.40712515000001  C 18.8765702 6.43207828999999  18.8989247 6.45939340000001  18.9181132 6.48854498999998  C 18.9255826 6.49977297999999  18.932477 6.51119841000002  18.9389122 6.52290522999999  C 18.9449746 6.53414443999998  18.9507872 6.54578888999998  18.9561324 6.55763518999998  C 18.9618182 6.56991626000001  18.966871 6.58243505000002  18.971415 6.59519005999999  C 18.9759922 6.60842287999998  18.9802172 6.62209616000001  18.9838461 6.63594255999999  C 18.9944059 6.67577991000002  19 6.71788002  19 6.76126878000002  L 18.9924656 6.67530108  C 18.9974476 6.70350274999998  19 6.73225599  19 6.76126878000002  L 19 24.4991653  C 19 24.7757687  18.7726524 25  18.4922049 25  L 0.50779510000001 25  C 0.22734761000001 25  0 24.7757687  0 24.4991653  L 0 0.500834725000004  C 0 0.224231343999975  0.22734761000001 0  0.50779510000001 0  Z M 11.636971 6.76126878000002  L 11.636 1  L 1 1  L 1 24  L 18 24  L 18 7.262  L 12.1447661 7.26210350999997  C 11.8954795 7.26210350999997  11.6881483 7.08493306000003  11.6451523 6.85129446000002  L 11.636971 6.76126878000002  Z M 3.76932070999999 20.8681135  L 15.3184855 20.8681135  C 15.598933 20.8681135  15.8262806 21.0923449  15.8262806 21.3689482  C 15.8262806 21.6455516  15.598933 21.869783  15.3184855 21.869783  L 3.76932070999999 21.869783  C 3.48887321999999 21.869783  3.26152561000001 21.6455516  3.26152561000001 21.3689482  C 3.26152561000001 21.0923449  3.48887321999999 20.8681135  3.76932070999999 20.8681135  Z M 3.76932070999999 18.7813022  L 15.3184855 18.7813022  C 15.598933 18.7813022  15.8262806 19.0055335  15.8262806 19.2821369  C 15.8262806 19.5587403  15.598933 19.7829716  15.3184855 19.7829716  L 3.76932070999999 19.7829716  C 3.48887321999999 19.7829716  3.26152561000001 19.5587403  3.26152561000001 19.2821369  C 3.26152561000001 19.0055335  3.48887321999999 18.7813022  3.76932070999999 18.7813022  Z M 3.76932070999999 16.6944908  L 15.3184855 16.6944908  C 15.598933 16.6944908  15.8262806 16.9187222  15.8262806 17.1953255  C 15.8262806 17.4719289  15.598933 17.6961603  15.3184855 17.6961603  L 3.76932070999999 17.6961603  C 3.48887321999999 17.6961603  3.26152561000001 17.4719289  3.26152561000001 17.1953255  C 3.26152561000001 16.9187222  3.48887321999999 16.6944908  3.76932070999999 16.6944908  Z M 10.0454566 14.6076795  L 15.3180624 14.6076795  C 15.5985099 14.6076795  15.8258575 14.8319108  15.8258575 15.1085142  C 15.8258575 15.3851176  15.5985099 15.6093489  15.3180624 15.6093489  L 10.0454566 15.6093489  C 9.76500909999999 15.6093489  9.53766150000001 15.3851176  9.53766150000001 15.1085142  C 9.53766150000001 14.8319108  9.76500909999999 14.6076795  10.0454566 14.6076795  Z M 5.28953229000001 4.67497913  C 5.28953229000001 4.39837575000001  5.51687989999999 4.17414441  5.79732738999999 4.17414441  C 6.07777487999999 4.17414441  6.30512249 4.39837575000001  6.30512249 4.67497913  L 6.30611327 5.40346076999998  C 7.32739530000001 5.63196521999998  8.09033959999999 6.53283696  8.09033959999999 7.60851418999999  C 8.09033959999999 7.88511756999998  7.86299199999999 8.10934890999999  7.58254450000001 8.10934890999999  C 7.3020971 8.10934890999999  7.0747494 7.88511756999998  7.0747494 7.60851418999999  C 7.0747494 6.91359139999997  6.50220259 6.34912353999999  5.79679844 6.34912353999999  C 5.09233502000001 6.34912353999999  4.51990534999999 6.91370689000001  4.51990534999999 7.60851418999999  C 4.51990534999999 8.30488659999997  5.09180606000001 8.86894825000002  5.79679844 8.86894825000002  C 7.0626858 8.86894825000002  8.09033959999999 9.88251599  8.09033959999999 11.1300083  C 8.09033959999999 12.2071838  7.3275271 13.1073087  6.30562194999999 13.3352874  L 6.30512249 14.0645868  C 6.30512249 14.3411902  6.07777487999999 14.5654215  5.79732738999999 14.5654215  C 5.51687989999999 14.5654215  5.28953229000001 14.3411902  5.28953229000001 14.0645868  L 5.28929840000001 13.3355019  C 4.26747347 13.1078515  3.50431513999999 12.2073594  3.50431513999999 11.1300083  C 3.50431513999999 10.853405  3.73166276000001 10.6291736  4.01211024 10.6291736  C 4.29255773 10.6291736  4.51990534999999 10.853405  4.51990534999999 11.1300083  C 4.51990534999999 11.8260901  5.09151083 12.389399  5.79679844 12.389399  C 6.50302704000001 12.389399  7.0747494 11.8262054  7.0747494 11.1300083  C 7.0747494 10.4357227  6.50179082 9.87061770000003  5.79679844 9.87061770000003  L 5.63986578000001 9.86540022999998  C 4.44714371000001 9.78582911000001  3.50431513999999 8.80602756000002  3.50431513999999 7.60851418999999  C 3.50431513999999 6.53242043  4.26794785000001 5.63101747000002  5.28949445000001 5.40309222000002  L 5.28953229000001 4.67497913  Z M 12.1447661 12.5208681  L 15.3184855 12.5208681  C 15.598933 12.5208681  15.8262806 12.7450995  15.8262806 13.0217028  C 15.8262806 13.2983062  15.598933 13.5225376  15.3184855 13.5225376  L 12.1447661 13.5225376  C 11.8643187 13.5225376  11.636971 13.2983062  11.636971 13.0217028  C 11.636971 12.7450995  11.8643187 12.5208681  12.1447661 12.5208681  Z M 12.1447661 10.4340568  L 15.3184855 10.4340568  C 15.598933 10.4340568  15.8262806 10.6582881  15.8262806 10.9348915  C 15.8262806 11.2114949  15.598933 11.4357262  15.3184855 11.4357262  L 12.1447661 11.4357262  C 11.8643187 11.4357262  11.636971 11.2114949  11.636971 10.9348915  C 11.636971 10.6582881  11.8643187 10.4340568  12.1447661 10.4340568  Z M 17.266 6.25999999999999  L 12.652 1.709  L 12.6525612 6.26043406000002  L 17.266 6.25999999999999  Z " fill-rule="nonzero" fill="#472c90" stroke="none" transform="matrix(1 0 0 1 112 15 )" />
  </g>
</svg>