<?xml version="1.0" encoding="utf-8"?>
<svg version="1.1" xmlns:xlink="http://www.w3.org/1999/xlink" width="17px" height="25px" xmlns="http://www.w3.org/2000/svg">
  <g transform="matrix(1 0 0 1 -196 -15 )">
    <path d="M 1.005 23.283  L 11.0007286 13.2871035  C 11.1970405 13.0907705  11.5153251 13.0907705  11.711637 13.2871035  C 11.907949 13.4834366  11.907949 13.8017554  11.711637 13.9980884  L 1.71600000000001 23.994  L 7.35752690000001 23.9945155  C 7.60430640000001 23.9945155  7.8095525 24.1723608  7.85211609999999 24.4068892  L 7.8602151 24.4972578  C 7.8602151 24.7749146  7.63515390000001 25  7.35752690000001 25  L 0.502688169999999 25  C 0.498917930000005 25  0.495157379999995 24.9999585  0.491406960000006 24.9998759  C 0.470534609999987 24.9994215  0.449373930000007 24.9976305  0.428372999999993 24.9945082  C 0.417552580000006 24.9929335  0.407165490000011 24.9910471  0.396894779999997 24.9888469  C 0.381566209999988 24.9855249  0.366123170000009 24.9814508  0.350864639999998 24.9766312  C 0.336784719999997 24.9722017  0.323154600000009 24.9672122  0.309814880000005 24.9616646  C 0.297903859999991 24.9567309  0.28587945000001 24.9511845  0.274044550000013 24.9451383  C 0.258485140000005 24.9371387  0.243517440000005 24.9284639  0.229062970000001 24.9190661  C 0.200281289999992 24.9004344  0.172729010000012 24.878248  0.147233959999994 24.8527502  L 0.200878340000003 24.8993404  C 0.186488620000006 24.8885197  0.172698539999999 24.8769443  0.159566869999992 24.8646731  L 0.147233959999994 24.8527502  C 0.14312437000001 24.8486402  0.139100810000002 24.8444767  0.13516328 24.840262  C 0.123042440000006 24.8272829  0.111468349999996 24.8134913  0.100648820000004 24.7991001  C 0.0935160200000098 24.7896695  0.0869182099999932 24.7802274  0.0806819199999893 24.7706189  C 0.0715284000000054 24.7564564  0.0628545000000145 24.7414871  0.0549547599999869 24.7260557  C 0.0488102299999866 24.7140898  0.0432643999999982 24.7020641  0.0382182600000078 24.6898802  C 0.0327842300000043 24.6768107  0.0277952700000128 24.6631791  0.0233935200000133 24.6492862  C 0.0185472000000004 24.6338375  0.0144735300000036 24.6183928  0.0111452799999938 24.6028206  C 0.00384571999998684 24.5689495  0 24.5335528  0 24.4972578  L 0.00549123999999779 24.5715809  C 0.00236921000001189 24.5505777  0.000578450000006114 24.5294148  0.00011895000000095 24.5082283  L 0 24.4972578  L 0 17.6416819  C 0 17.364025  0.225061159999996 17.1389397  0.502688169999999 17.1389397  C 0.780315180000002 17.1389397  1.00537634 17.364025  1.00537634 17.6416819  L 1.005 23.283  Z M 9.64247309999999 0  L 16.4973118 0  C 16.5010821 0  16.5048426 4.15109417986059E-05  16.508593 0.000124100763002843  C 16.5294654 0.000578515222002807  16.5506261 0.00236946913997826  16.571627 0.0054918264600019  C 16.5824474 0.00706645197999478  16.5928345 0.00895286696999165  16.6031052 0.0111530652000056  C 16.6184338 0.01447508870001  16.6338768 0.018549199000006  16.6491354 0.0233688112999744  C 16.6632153 0.0277982613999939  16.6768454 0.0327877597999873  16.6901851 0.0383353866000107  C 16.7020961 0.0432690503999993  16.7141206 0.0488154794999787  16.7259555 0.0548616606999985  C 16.7415149 0.0628612613999735  16.7564826 0.0715360880000162  16.770937 0.0809338999000033  C 16.7997187 0.0995655942999747  16.827271 0.121751990999996  16.852766 0.147249789999989  L 16.7991217 0.100659639000014  C 16.8135114 0.111480332999975  16.8273015 0.123055674999989  16.8404331 0.135326894999992  L 16.852766 0.147249789999989  C 16.8568756 0.151359822000018  16.8608992 0.155523311000024  16.8648367 0.15973802100001  C 16.8769576 0.172717110999997  16.8885317 0.186508671000013  16.8993512 0.20089993900001  C 16.906484 0.210330456999998  16.9130818 0.219772636000016  16.9193181 0.229381111999999  C 16.9284716 0.243543632000012  16.9371455 0.258512939000013  16.9450452 0.273944271000005  C 16.9511898 0.285910189999981  16.9567356 0.297935893999977  16.9617817 0.310119795999981  C 16.9672158 0.323189348000028  16.9722047 0.336820935999981  16.9766065 0.350713811999981  C 16.9814528 0.366162545000009  16.9855265 0.381607243000019  16.9888547 0.397179380000011  C 16.9961543 0.431050512000013  17 0.466447215000017  17 0.502742230000024  L 16.9948055 0.430443766999986  C 16.9973157 0.447814881999989  16.9989161 0.465292180999995  16.9996068 0.482798693999996  L 17 0.502742230000024  L 17 7.35831810000002  C 17 7.63597497000001  16.7749388 7.86106032999999  16.4973118 7.86106032999999  C 16.2196848 7.86106032999999  15.9946237 7.63597497000001  15.9946237 7.35831810000002  L 15.994 1.71600000000001  L 6.57050799999999 11.1415985  C 6.39600849999999 11.3161167  6.12513559999999 11.3355077  5.9292197 11.1997712  L 5.8595995 11.1415985  C 5.66328759999999 10.9452654  5.66328759999999 10.6269466  5.8595995 10.4306136  L 15.283 1.005  L 9.64247309999999 1.00548445999999  C 9.39569359999999 1.00548445999999  9.1904475 0.827639234999992  9.14788390000001 0.593110781999997  L 9.1397849 0.502742230000024  C 9.1397849 0.225085363000005  9.36484609999999 0  9.64247309999999 0  Z " fill-rule="nonzero" fill="#472c90" stroke="none" transform="matrix(1 0 0 1 196 15 )" />
  </g>
</svg>